<svg width="29" height="28" fill="none" xmlns="http://www.w3.org/2000/svg"><path fill-rule="evenodd" clip-rule="evenodd" d="M28.017 14.003c0 7.389-6.269 13.378-14.002 13.378C6.282 27.38.013 21.39.013 14.003S6.282.625 14.015.625c7.733 0 14.002 5.99 14.002 13.378zM9.39 12.778c-1.403.585-2.844 1.186-4.162 1.88-.688.481.226.822 1.084 1.14.137.052.272.102.399.152l.321.097c.955.29 2.019.614 2.945.127 1.522-.835 2.958-1.8 4.393-2.766.47-.316.94-.632 1.414-.943l.074-.046c.403-.25 1.309-.811.974-.038-.793.828-1.642 1.561-2.495 2.298-.575.497-1.153.995-1.716 1.526-.491.381-1 1.148-.451 1.681 1.266.847 2.552 1.673 3.837 2.499l1.253.806c.707.54 1.813.104 1.968-.74l.208-1.163c.384-2.143.767-4.287 1.107-6.437.046-.337.098-.674.15-1.012.127-.817.254-1.636.293-2.458-.102-.82-1.143-.64-1.723-.456-2.978 1.083-5.927 2.246-8.864 3.43l-1.01.423z" fill="#181C1D"/></svg>