<svg width="28" height="28" fill="none" xmlns="http://www.w3.org/2000/svg"><path fill-rule="evenodd" clip-rule="evenodd" d="M14.206.463C6.84.463.869 6.433.869 13.799c0 7.366 5.97 13.337 13.337 13.337 7.365 0 13.336-5.97 13.336-13.337 0-7.365-5.97-13.336-13.337-13.336zm-2.933 6.266c.759-.034 1.001-.043 2.933-.043h-.002c1.932 0 2.174.009 2.933.043.757.035 1.274.155 1.727.33.469.182.864.425 1.26.821.396.395.639.792.821 1.26.175.452.295.97.33 1.726.035.76.043 1.002.043 2.933 0 1.932-.009 2.174-.043 2.933-.035.757-.155 1.274-.33 1.726a3.491 3.491 0 01-.821 1.26 3.48 3.48 0 01-1.26.821c-.452.176-.97.296-1.726.33-.76.035-1 .043-2.933.043-1.931 0-2.174-.008-2.932-.043-.758-.034-1.274-.154-1.727-.33a3.483 3.483 0 01-1.26-.821 3.485 3.485 0 01-.82-1.26c-.176-.452-.296-.97-.33-1.726-.035-.76-.043-1-.043-2.933 0-1.931.008-2.174.042-2.933.034-.757.155-1.274.33-1.726.183-.468.426-.865.822-1.26a3.483 3.483 0 011.26-.82c.452-.176.969-.296 1.726-.33z" fill="#181C1D"/><path fill-rule="evenodd" clip-rule="evenodd" d="M13.568 7.968h.638c1.9 0 2.124.007 2.874.041.694.032 1.07.148 1.321.245a2.2 2.2 0 01.817.532c.25.25.404.486.533.818.097.25.213.627.245 1.32.034.75.041.976.041 2.874 0 1.898-.007 2.123-.041 2.873-.032.694-.148 1.07-.245 1.32a2.199 2.199 0 01-.533.818 2.198 2.198 0 01-.817.532c-.25.098-.627.213-1.32.245-.75.034-.976.041-2.875.041-1.9 0-2.124-.007-2.874-.041-.694-.032-1.07-.148-1.32-.245a2.205 2.205 0 01-.819-.532 2.205 2.205 0 01-.532-.818c-.098-.25-.214-.627-.245-1.32-.034-.75-.041-.975-.041-2.875s.007-2.123.04-2.873c.033-.694.148-1.07.246-1.32a2.2 2.2 0 01.532-.819c.249-.249.486-.403.818-.532.25-.098.627-.214 1.32-.245.657-.03.911-.039 2.237-.04v.001zm4.435 1.181a.853.853 0 100 1.708.853.853 0 000-1.708zm-7.45 4.65a3.653 3.653 0 117.306 0 3.653 3.653 0 01-7.306 0z" fill="#181C1D"/><path d="M14.206 11.428a2.371 2.371 0 110 4.742 2.371 2.371 0 010-4.742z" fill="#181C1D"/></svg>