<svg width="29" height="28" fill="none" xmlns="http://www.w3.org/2000/svg"><path fill-rule="evenodd" clip-rule="evenodd" d="M14.69.625c7.733 0 14.002 5.99 14.002 13.378 0 7.389-6.269 13.378-14.002 13.378C6.957 27.38.688 21.39.688 14.003S6.958.625 14.69.625zm3.73 11.683c-.067-.529-.237-.944-.54-1.312-.392-.473-.893-.756-1.635-.925-.483-.112-.679-.099-.853.054a.494.494 0 00-.07.615c.087.135.188.183.469.236.374.065.632.15.867.28.5.275.732.705.757 1.403.012.327.041.428.16.544.223.213.618.171.785-.083.062-.096.071-.137.078-.36a3.382 3.382 0 00-.017-.452zm.007-3.243c1.187.916 1.85 2.22 1.948 3.839.042.638-.013.845-.249.964a.52.52 0 01-.618-.092c-.11-.107-.152-.254-.15-.514.005-.719-.169-1.522-.45-2.079a4.077 4.077 0 00-1.465-1.603c-.556-.355-1.291-.594-2.004-.654-.463-.038-.628-.113-.717-.325-.055-.127-.04-.346.024-.444a.634.634 0 01.295-.217c.102-.028.7.021 1.024.083a5.61 5.61 0 012.362 1.042zM22.54 19.14a1.75 1.75 0 00-.166-.317c-.348-.502-2.22-1.901-3.153-2.359-.534-.261-.929-.349-1.222-.267-.315.085-.48.225-1.009.852-.212.251-.43.486-.489.523a1.333 1.333 0 01-.624.172c-.462-.002-1.299-.288-1.943-.663-.5-.291-1.141-.812-1.633-1.328-.58-.605-.976-1.14-1.288-1.742-.403-.775-.506-1.248-.337-1.595a1.27 1.27 0 01.121-.209c.025-.026.285-.23.573-.452.563-.428.655-.526.76-.82.132-.373.096-.753-.108-1.137-.158-.29-.57-.925-.868-1.335-.395-.54-1.379-1.692-1.575-1.848-.354-.275-.807-.323-1.307-.138-.528.196-1.517.957-1.94 1.489-.382.481-.528.822-.55 1.272-.02.37.014.523.218.997 1.6 3.712 3.988 6.676 7.268 9.03 1.713 1.23 3.49 2.165 5.334 2.805 1.075.373 1.542.392 2.092.085.232-.132.806-.696 1.127-1.105.53-.683.727-.997.782-1.248.039-.172.008-.471-.063-.662zm-.707-8.37a7.08 7.08 0 01.533 2.506c.006.18.003.512-.009.737-.025.43-.05.516-.18.63-.208.187-.615.142-.769-.083-.08-.12-.091-.21-.076-.712.045-1.488-.27-2.654-1.029-3.818-.907-1.398-2.263-2.34-4.027-2.8-.45-.118-.828-.189-1.418-.265-.384-.048-.468-.068-.563-.124a.477.477 0 01-.005-.797c.148-.093.256-.098.736-.039 1.408.168 2.664.568 3.696 1.172.74.433 1.206.823 1.807 1.504.635.728.972 1.266 1.304 2.09z" fill="#181C1D"/></svg>