<svg width="17" height="10" fill="none" xmlns="http://www.w3.org/2000/svg"><path d="M16.338 3.498H15.14a.256.256 0 00-.254.257v1.808h-1.073l-1.599-1.967a.252.252 0 00-.195-.094H9.463V2.147a.256.256 0 00-.254-.257H6.89V.968h2.334c.14 0 .254-.115.254-.257a.256.256 0 00-.254-.258H4.05a.256.256 0 00-.253.258c0 .142.113.257.253.257h2.334v.922H4.05a.256.256 0 00-.253.257v1.355H2.46a.256.256 0 00-.254.258v1.889H1.129V4.11a.256.256 0 00-.254-.257.256.256 0 00-.254.257v3.593c0 .142.114.257.254.257s.254-.115.254-.257V6.164h1.078v2.16c0 .142.113.257.254.257h1.493l.888 1.216a.253.253 0 00.204.104h8.647c.14 0 .254-.115.254-.258V7.261h.94v1.78c0 .142.113.258.253.258h1.198c.14 0 .253-.116.253-.258V3.755a.256.256 0 00-.253-.257zm-2.645 3.247a.256.256 0 00-.253.258v2.383H5.174L4.285 8.17a.252.252 0 00-.204-.104H2.715V4.017h1.334c.14 0 .254-.115.254-.257V2.405h4.652V3.76c0 .142.114.257.254.257h2.69l1.599 1.967a.25.25 0 00.195.094h1.193v.668h-1.193zm2.39 2.038h-.689v-4.77h.69v4.77z" fill="#686868"/></svg>