<svg width="10" height="16" fill="none" xmlns="http://www.w3.org/2000/svg"><path d="M1.253 2.117v.87h-.005a.577.577 0 00-.577.576v2.062c0 .317.259.575.577.575h.005v3.552h-.005a.577.577 0 00-.577.574v2.063c0 .317.259.575.577.575h.005v1.139c0 .702.675 1.274 1.504 1.274h5.145c.829 0 1.504-.572 1.504-1.274v-1.14h.005a.577.577 0 00.577-.574v-2.063a.577.577 0 00-.577-.574h-.005V6.2h.005a.577.577 0 00.577-.575V3.562a.577.577 0 00-.577-.575h-.005v-.87c0-.703-.675-1.275-1.504-1.275H2.757c-.83 0-1.504.572-1.504 1.275zm-.005 3.642a.135.135 0 01-.135-.134V3.562c0-.074.06-.134.135-.134H1.7c.074 0 .135.06.135.134v2.063c0 .074-.06.134-.135.134h-.452zm4.439-1.166a.406.406 0 01-.812 0 .406.406 0 01.812 0zM1.695 6.2H1.7a.577.577 0 00.577-.575v-.811h2.186a.849.849 0 00.597.594v4.838h-.674a.22.22 0 00-.22.22v.671h-1.89v-.81a.577.577 0 00-.576-.575h-.005V6.2zm4.26 5.829H4.607v-1.343h1.348v1.343zm-4.707.494a.135.135 0 01-.135-.134v-2.063c0-.074.06-.134.135-.134H1.7c.074 0 .135.06.135.134v2.063c0 .074-.06.134-.135.134h-.452zm7.716 1.58c0 .46-.477.834-1.062.834H2.757c-.586 0-1.062-.374-1.062-.834v-1.14H1.7a.577.577 0 00.577-.574v-.811h1.888v.671c0 .122.099.22.221.22h1.79a.22.22 0 00.221-.22v-.671h1.985v.81c0 .318.259.576.577.576h.005v1.139zm.447-3.91c.074 0 .135.06.135.133v2.063c0 .074-.06.134-.135.134h-.452a.135.135 0 01-.135-.134v-2.063c0-.074.06-.134.135-.134h.452zm-.447-.441h-.005a.577.577 0 00-.577.574v.811H6.397v-.671a.22.22 0 00-.221-.22h-.674V5.408a.849.849 0 00.597-.594h2.283v.81c0 .318.259.576.577.576h.005v3.552zm.447-6.324c.074 0 .135.06.135.134v2.063c0 .074-.06.134-.135.134h-.452a.135.135 0 01-.135-.134V3.562c0-.074.06-.134.135-.134h.452zM7.9 1.283c.586 0 1.063.374 1.063.834v.87h-.005a.577.577 0 00-.577.576v.81H6.099a.848.848 0 00-1.636 0H2.277v-.81a.577.577 0 00-.577-.575h-.005v-.871c0-.46.476-.834 1.062-.834h5.145z" fill="#686868"/></svg>