<svg width="10" height="16" fill="none" xmlns="http://www.w3.org/2000/svg"><path d="M9.742.704H4.396a.234.234 0 00-.192.105L.997 5.479a.28.28 0 00-.048.158v4.768c0 .145.108.263.24.263 3.98 0 4.036 4.133 4.036 4.309 0 .144.108.262.24.262h4.277c.133 0 .24-.118.24-.263V.966c0-.145-.107-.262-.24-.262zm-.24 14.01h-3.81c-.081-.988-.626-4.422-4.262-4.567V5.725l3.086-4.496h4.985v13.485z" fill="#686868"/><path d="M2.428 5.724a.24.24 0 00.216.146h5.968c.133 0 .24-.118.24-.263v-3.39c0-.146-.107-.263-.24-.263H4.996a.234.234 0 00-.192.104l-2.352 3.39a.283.283 0 00-.024.276zm2.687-3.245h3.257v2.865H3.128l1.987-2.865zm3.498 4.38H7.188c-.133 0-.24.117-.24.262 0 .146.107.263.24.263h1.425c.133 0 .24-.117.24-.263 0-.145-.107-.262-.24-.262z" fill="#686868"/></svg>