<svg width="16" height="16" fill="none" xmlns="http://www.w3.org/2000/svg"><path d="M15.592 3.03c0-1.206-.893-2.187-1.991-2.187s-1.99.981-1.99 2.186c0 1.11.757 2.028 1.734 2.166V7.83H8.527V5.195c.978-.138 1.736-1.056 1.736-2.166 0-1.205-.893-2.186-1.991-2.186s-1.99.981-1.99 2.186c0 1.11.757 2.028 1.735 2.166V7.83H3.198V5.195c.977-.138 1.736-1.056 1.736-2.166 0-1.205-.894-2.186-1.991-2.186-1.098 0-1.99.981-1.99 2.186 0 1.11.757 2.028 1.734 2.166v5.831c-.977.139-1.735 1.056-1.735 2.166 0 1.206.893 2.186 1.99 2.186 1.098 0 1.992-.98 1.992-2.186 0-1.11-.759-2.027-1.736-2.166V8.391h4.819v2.635c-.978.139-1.736 1.056-1.736 2.166 0 1.206.893 2.186 1.99 2.186 1.098 0 1.992-.98 1.992-2.186 0-1.11-.758-2.027-1.736-2.166V8.391h5.074c.141 0 .255-.125.255-.28V5.195c.978-.138 1.736-1.056 1.736-2.166zm-8.8 0c0-.897.664-1.626 1.48-1.626s1.48.729 1.48 1.625c0 .897-.664 1.626-1.48 1.626s-1.48-.73-1.48-1.626zm-5.33 0c0-.897.665-1.626 1.48-1.626.817 0 1.48.729 1.48 1.625 0 .897-.663 1.626-1.48 1.626-.815 0-1.48-.73-1.48-1.626zm2.96 10.162c0 .896-.663 1.626-1.48 1.626-.815 0-1.48-.73-1.48-1.626 0-.896.665-1.625 1.48-1.625.817 0 1.48.73 1.48 1.625zm5.33 0c0 .896-.664 1.626-1.48 1.626s-1.48-.73-1.48-1.626c0-.896.664-1.625 1.48-1.625s1.48.73 1.48 1.625zM13.6 4.655c-.816 0-1.48-.73-1.48-1.626 0-.896.664-1.625 1.48-1.625s1.48.729 1.48 1.625c0 .897-.664 1.626-1.48 1.626z" fill="#686868"/></svg>