<svg width="14" height="16" fill="none" xmlns="http://www.w3.org/2000/svg"><path d="M12.114 6.667c-.855-.794-1.966-1.276-3.177-1.276-.37 0-.727.047-1.069.125-.185-1.043-.912-1.805-2.122-2.194-.912-.296-1.781-.265-1.81-.265-.114 0-.2.11-.213.234 0 .124.085.233.199.233.755.047.955 1.09 1.011 1.4.114.778-.056 1.385-.185 1.432-.128.062-.285.03-.441-.047-.342-.187-.798-.731-1.055-1.727C2.582 2.171.888 2.342.86 2.342a.225.225 0 00-.185.218c0 .109.057.217.17.249.898.217.713 1.851.556 3.298-.057.544-.114 1.058-.114 1.478.057 3.578 2.351 3.998 2.807 4.045.214 1.431.954 2.722 2.08 3.563a.154.154 0 00.114.046h5.3a.221.221 0 00.156-.077c1.31-1.012 2.095-2.645 2.095-4.403 0-1.463-.542-2.8-1.425-3.78l-.3-.312zm-10.4.902c0-.373.043-.887.1-1.4.114-1.089.256-2.365-.114-3.143.398.234.854.716 1.11 1.712.257.964.742 1.711 1.283 2.007.27.14.541.17.784.062.441-.187.57-1.136.455-1.945-.07-.513-.242-.949-.455-1.244.954.155 2.322.637 2.564 2.038-1.98.684-3.42 2.722-3.42 5.118 0 .14 0 .265.015.405-.513-.094-2.265-.56-2.322-3.61zm9.801 7.188H6.358c-1.168-.902-1.866-2.35-1.909-3.905h.84c.115 0 .214-.109.214-.233 0-.125-.1-.234-.213-.234h-.827a5.1 5.1 0 011.112-2.862l.626.684c.043.047.1.062.157.062a.204.204 0 00.157-.062.24.24 0 000-.327l-.641-.7a4.296 4.296 0 012.849-1.322v.996c0 .124.1.233.214.233.114 0 .213-.109.213-.233v-.996c1.012.047 1.924.467 2.65 1.136l-.783.855a.24.24 0 000 .327c.042.047.1.062.156.062a.204.204 0 00.157-.062l.798-.871a4.982 4.982 0 011.225 2.582c0 .016.043.467.043.483h-.812c-.114 0-.214.109-.214.233 0 .124.1.233.214.233h.84c.015.125 0-.202 0-.077 0 1.587-.712 3.08-1.909 3.998z" fill="#686868"/><path d="M11.814 10.385H9.92c-.1-.498-.499-.856-.983-.856-.556 0-.998.498-.998 1.089s.456 1.09.998 1.09c.484 0 .883-.374.983-.857h1.909c.114 0 .213-.109.213-.233a.242.242 0 00-.228-.233zm-2.877.855c-.314 0-.57-.28-.57-.622 0-.342.256-.622.57-.622.313 0 .584.28.584.622 0 .342-.27.622-.584.622zM8.31 3.617c.385.311.755.607.855.902.029.094.114.14.2.14.085 0 .156-.046.199-.14.228-.529.37-1.742-.684-2.505a13.992 13.992 0 00-.783-.513c-.385-.233-.698-.42-.926-.716a.249.249 0 00-.228-.077.227.227 0 00-.157.186c0 .047-.128 1.058.74 2.007.229.28.514.498.784.716zM7.883 1.92c.228.14.484.296.755.498.627.451.684 1.073.641 1.478a6.148 6.148 0 00-.712-.638c-.257-.202-.527-.42-.727-.653a2.38 2.38 0 01-.584-1.09c.185.14.399.265.627.405z" fill="#686868"/></svg>