<svg width="17" height="14" fill="none" xmlns="http://www.w3.org/2000/svg"><path d="M16.209 2.674A12.912 12.912 0 008.328 0a12.91 12.91 0 00-7.88 2.673.272.272 0 00-.07.35l3.41 5.958c.04.069.107.115.183.127a.249.249 0 00.21-.065c.375-.35.787-.647 1.225-.89.24.609.23 1.316-.033 1.915a4.647 4.647 0 00-.383 1.858v.89c0 .146.115.265.257.265.142 0 .256-.12.256-.266v-.889c0-.57.117-1.137.337-1.636a3.082 3.082 0 00.028-2.37 6.007 6.007 0 012.06-.512c.06.224.136.441.228.648.28.63.282 1.382.004 2.013a4.646 4.646 0 00-.382 1.857v.89a.26.26 0 00.256.265.26.26 0 00.256-.266v-.889c0-.57.117-1.136.337-1.636a3.083 3.083 0 00-.005-2.457 3.71 3.71 0 01-.161-.436c.854.019 1.687.22 2.45.582l.032.077c.28.63.282 1.382.004 2.013a4.645 4.645 0 00-.382 1.857v.89c0 .146.115.265.256.265a.262.262 0 00.257-.266v-.889c0-.57.116-1.136.336-1.636a3.084 3.084 0 00.165-1.941c.316.202.616.434.895.695a.252.252 0 00.21.065.256.256 0 00.183-.127l3.41-5.958a.273.273 0 00-.069-.35zM12.58 8.437a6.671 6.671 0 00-1.27-.85 3.994 3.994 0 01-.233-1.349v-1.19l.38.604a.251.251 0 00.355.077.272.272 0 00.074-.368l-.851-1.353h-.001a.262.262 0 00-.037-.046l-.013-.01a.241.241 0 00-.034-.026l-.016-.01a.251.251 0 00-.04-.015l-.015-.005a.246.246 0 00-.118 0l-.015.005a.253.253 0 00-.09.05l-.012.01a.267.267 0 00-.038.046v.002L9.754 5.36a.272.272 0 00.074.368c.044.03.092.043.14.043a.254.254 0 00.215-.12l.38-.605v1.191c0 .363.045.724.128 1.07a6.495 6.495 0 00-2.353-.446 4.076 4.076 0 01-.049-.624v-1.19l.381.604c.05.078.131.12.215.12a.25.25 0 00.14-.043.272.272 0 00.074-.368L8.25 4.009a.254.254 0 00-.215-.12.254.254 0 00-.215.12L6.968 5.36a.272.272 0 00.074.368.25.25 0 00.355-.077l.38-.605v1.191c0 .217.017.432.047.645a6.502 6.502 0 00-2.142.543 4.026 4.026 0 01-.178-1.188v-1.19l.38.604c.05.078.131.12.215.12a.25.25 0 00.14-.043.272.272 0 00.074-.368l-.851-1.352-.001-.001a.254.254 0 00-.214-.12.254.254 0 00-.214.12L4.18 5.362a.272.272 0 00.074.368.25.25 0 00.355-.077l.38-.604v1.19c0 .486.078.968.225 1.418a6.658 6.658 0 00-1.14.781L.94 2.961A12.405 12.405 0 018.328.53c2.67 0 5.22.84 7.389 2.43L12.58 8.438z" fill="#686868"/></svg>