<svg width="10" height="15" fill="none" xmlns="http://www.w3.org/2000/svg"><path d="M1.168 1.91v.797h-.005c-.318 0-.577.236-.577.526v1.886c0 .29.259.526.577.526h.005v3.248h-.005c-.318 0-.577.236-.577.526v1.886c0 .29.259.526.577.526h.005v1.041c0 .643.673 1.166 1.502 1.166h5.138c.828 0 1.502-.523 1.502-1.166v-1.041h.005c.318 0 .576-.236.576-.526V9.419c0-.29-.258-.526-.576-.526H9.31V5.645h.005c.318 0 .576-.236.576-.526V3.233c0-.29-.258-.526-.576-.526H9.31v-.796c0-.643-.674-1.166-1.502-1.166H2.67c-.829 0-1.502.523-1.502 1.166zm-.005 3.332c-.074 0-.135-.055-.135-.123V3.233c0-.068.06-.123.135-.123h.451c.074 0 .135.055.135.123v1.886c0 .068-.06.123-.135.123h-.451zm4.433-1.066c0 .204-.182.37-.405.37-.224 0-.406-.166-.406-.37s.182-.37.406-.37c.223 0 .405.166.405.37zM1.61 5.645h.005c.318 0 .576-.236.576-.526v-.742h2.184a.815.815 0 00.596.544v4.424h-.673c-.122 0-.22.09-.22.201v.615H2.19v-.742c0-.29-.258-.526-.576-.526H1.61V5.645zm4.255 5.33H4.518V9.749h1.346v1.228zm-4.701.453c-.074 0-.135-.055-.135-.123V9.419c0-.068.06-.123.135-.123h.451c.074 0 .135.055.135.123v1.886c0 .068-.06.123-.135.123h-.451zm7.706 1.444c0 .42-.476.763-1.061.763H2.67c-.585 0-1.06-.342-1.06-.763v-1.041h.004c.318 0 .576-.236.576-.526v-.742h1.886v.614c0 .112.099.202.221.202h1.788c.121 0 .22-.09.22-.202v-.614h1.982v.742c0 .29.259.526.577.526h.005v1.041zm.446-3.576c.074 0 .135.055.135.123v1.886c0 .068-.06.123-.135.123h-.451c-.075 0-.135-.055-.135-.123V9.419c0-.068.06-.123.135-.123h.451zm-.446-.403h-.005c-.318 0-.577.236-.577.526v.742H6.305v-.615c0-.111-.099-.201-.22-.201h-.673V4.92a.815.815 0 00.596-.544h2.28v.742c0 .29.258.526.576.526h.005v3.248zm.446-5.783c.074 0 .135.055.135.123v1.886c0 .068-.06.123-.135.123h-.451c-.075 0-.135-.055-.135-.123V3.233c0-.068.06-.123.135-.123h.451zM7.808 1.148c.585 0 1.06.342 1.06.763v.796h-.004c-.318 0-.577.236-.577.526v.741h-2.28c-.097-.328-.426-.57-.816-.57-.391 0-.72.242-.817.57H2.19v-.741c0-.29-.258-.526-.576-.526H1.61v-.796c0-.42.476-.763 1.06-.763h5.139z" fill="#FFC32A"/></svg>