<svg width="17" height="13" fill="none" xmlns="http://www.w3.org/2000/svg"><path d="M16.109 3.429C13.814 1.829 11.092.983 8.237.983c-2.854 0-5.576.846-7.87 2.445a.236.236 0 00-.07.32l3.407 5.449a.264.264 0 00.392.057c.374-.32.786-.593 1.223-.815a2.13 2.13 0 01-.033 1.752 3.944 3.944 0 00-.382 1.7v.812a.25.25 0 00.256.244.25.25 0 00.256-.244v-.813c0-.522.116-1.04.336-1.497a2.6 2.6 0 00.028-2.166 6.453 6.453 0 012.06-.467c.06.204.135.403.227.592a2.13 2.13 0 01.004 1.84 3.944 3.944 0 00-.382 1.7v.812a.25.25 0 00.256.244.25.25 0 00.256-.244v-.813c0-.522.116-1.04.336-1.496a2.602 2.602 0 00-.005-2.247 3.217 3.217 0 01-.16-.399c.853.017 1.684.2 2.447.533.01.023.02.047.032.07a2.13 2.13 0 01.004 1.84 3.944 3.944 0 00-.382 1.7v.812a.25.25 0 00.256.244.25.25 0 00.256-.244v-.813c0-.522.116-1.04.336-1.496a2.6 2.6 0 00.165-1.775c.315.185.615.396.894.635a.265.265 0 00.392-.057l3.407-5.448a.236.236 0 00-.07-.32zm-3.623 5.27a6.74 6.74 0 00-1.269-.777 3.377 3.377 0 01-.233-1.234V5.6l.38.552a.265.265 0 00.354.07.236.236 0 00.075-.336l-.85-1.237h-.002a.245.245 0 00-.037-.043l-.012-.01a.241.241 0 00-.09-.045l-.016-.005a.266.266 0 00-.117 0l-.016.005a.261.261 0 00-.089.046l-.012.01a.25.25 0 00-.038.041v.002l-.851 1.236a.236.236 0 00.074.337c.043.027.092.04.14.04a.26.26 0 00.215-.11l.38-.553v1.089c0 .331.044.661.127.978a7.017 7.017 0 00-2.35-.408 3.42 3.42 0 01-.049-.57v-1.09l.38.553a.265.265 0 00.354.07.236.236 0 00.075-.336L8.16 4.65a.26.26 0 00-.215-.11.26.26 0 00-.214.11l-.85 1.236a.236.236 0 00.074.337.264.264 0 00.354-.07l.38-.553v1.089c0 .197.017.394.046.589a6.981 6.981 0 00-2.139.497 3.396 3.396 0 01-.178-1.086v-1.09l.38.553a.265.265 0 00.354.07.236.236 0 00.074-.336l-.85-1.236-.001-.001a.26.26 0 00-.214-.11.26.26 0 00-.213.11h-.001l-.85 1.237a.236.236 0 00.074.337.264.264 0 00.354-.07l.38-.553v1.089c0 .444.078.885.225 1.296-.402.2-.785.438-1.14.715L.859 3.69C3.023 2.237 5.57 1.47 8.236 1.47c2.668 0 5.214.767 7.38 2.222L12.486 8.7z" fill="#FFC32A"/></svg>