<svg width="15" height="15" fill="none" xmlns="http://www.w3.org/2000/svg"><path d="M14.67 2.744c0-1.102-.892-2-1.988-2a1.996 1.996 0 00-1.989 2c0 1.015.758 1.855 1.733 1.981v2.41H7.614v-2.41a1.997 1.997 0 001.733-1.98c0-1.103-.892-2-1.988-2a1.996 1.996 0 00-1.988 2c0 1.014.757 1.854 1.733 1.98v2.41H2.29v-2.41a1.997 1.997 0 001.734-1.98c0-1.103-.893-2-1.989-2a1.996 1.996 0 00-1.988 2c0 1.014.757 1.854 1.733 1.98v5.333a1.997 1.997 0 00-1.733 1.98c0 1.103.892 2 1.988 2a1.996 1.996 0 001.989-2 1.997 1.997 0 00-1.734-1.98v-2.41h4.813v2.41a1.997 1.997 0 00-1.733 1.98c0 1.103.892 2 1.988 2a1.996 1.996 0 001.988-2 1.997 1.997 0 00-1.733-1.98v-2.41h5.068c.14 0 .255-.115.255-.257V4.725a1.997 1.997 0 001.733-1.98zm-8.79 0c0-.82.664-1.486 1.479-1.486.815 0 1.478.667 1.478 1.486 0 .82-.663 1.487-1.478 1.487A1.484 1.484 0 015.88 2.744zm-5.322 0c0-.82.663-1.486 1.478-1.486s1.478.667 1.478 1.486c0 .82-.663 1.487-1.478 1.487A1.484 1.484 0 01.558 2.744zm2.956 9.294c0 .82-.663 1.487-1.478 1.487a1.484 1.484 0 01-1.478-1.486c0-.82.663-1.487 1.478-1.487s1.478.667 1.478 1.487zm5.323 0c0 .82-.663 1.487-1.478 1.487a1.484 1.484 0 01-1.478-1.486c0-.82.663-1.487 1.478-1.487s1.478.667 1.478 1.487zm3.845-7.807a1.484 1.484 0 01-1.478-1.487c0-.82.663-1.486 1.478-1.486s1.478.667 1.478 1.486c0 .82-.663 1.487-1.478 1.487z" fill="#FFC32A"/></svg>