<svg width="17" height="9" fill="none" xmlns="http://www.w3.org/2000/svg"><path d="M16.416 3.097H15.22c-.14 0-.254.105-.254.235v1.653h-1.072l-1.597-1.799a.262.262 0 00-.195-.085H9.549V1.86c0-.13-.114-.235-.254-.235H6.98V.784h2.332c.14 0 .253-.106.253-.236S9.451.312 9.312.312h-5.17c-.14 0-.254.106-.254.236s.114.236.254.236h2.331v.842H4.142c-.14 0-.254.106-.254.236V3.1H2.555c-.14 0-.253.105-.253.235v1.728H1.225V3.657c0-.13-.114-.236-.254-.236s-.253.106-.253.236v3.285c0 .13.113.236.253.236s.254-.106.254-.236V5.535h1.077V7.51c0 .13.113.236.253.236h1.491l.888 1.111a.26.26 0 00.203.096h8.638c.14 0 .253-.106.253-.236V6.538h.938v1.628c0 .13.114.236.254.236h1.196c.14 0 .253-.106.253-.236V3.332c0-.13-.113-.235-.253-.235zm-2.641 2.97c-.14 0-.254.105-.254.235v2.18H5.265l-.887-1.113a.26.26 0 00-.204-.095H2.809V3.572h1.333c.14 0 .254-.105.254-.236V2.097h4.646v1.24c0 .13.113.235.253.235h2.687l1.597 1.799c.048.054.12.086.196.086h1.191v.61h-1.191zm2.387 1.863h-.689V3.568h.689V7.93z" fill="#FFC32A"/></svg>