<svg width="14" height="15" fill="none" xmlns="http://www.w3.org/2000/svg"><path d="M12.017 6.345a4.888 4.888 0 00-3.173-1.167c-.37 0-.726.043-1.067.114-.185-.953-.91-1.65-2.12-2.006-.91-.27-1.779-.242-1.807-.242-.114 0-.2.1-.214.214 0 .114.086.213.2.213.754.043.953.996 1.01 1.28.114.712-.057 1.267-.185 1.31-.128.057-.285.028-.441-.043-.342-.17-.797-.669-1.053-1.58C2.498 2.234.805 2.39.777 2.39c-.1.014-.185.1-.185.199 0 .1.056.2.17.228.897.199.712 1.693.555 3.016-.057.498-.114.968-.114 1.352.057 3.272 2.348 3.656 2.803 3.699a4.9 4.9 0 002.078 3.258.162.162 0 00.113.043h5.293a.229.229 0 00.157-.071 4.925 4.925 0 002.091-4.027 4.92 4.92 0 00-1.422-3.457l-.3-.285zM1.63 7.17c0-.341.043-.81.1-1.28.114-.996.256-2.163-.114-2.874.398.213.854.654 1.11 1.565.256.882.74 1.565 1.28 1.835.27.128.541.157.783.057.441-.17.569-1.038.455-1.778-.07-.47-.242-.868-.455-1.139.953.143 2.32.584 2.561 1.864a4.913 4.913 0 00-3.4 5.051c-.513-.085-2.263-.512-2.32-3.3zm9.79 6.574H6.268a4.53 4.53 0 01-1.907-3.571h.84a.22.22 0 00.213-.214c0-.114-.1-.213-.213-.213h-.826a4.45 4.45 0 011.11-2.618l.626.626c.043.042.1.057.157.057a.206.206 0 00.157-.356l-.641-.64a4.468 4.468 0 012.846-1.21v.91c0 .115.1.214.213.214.114 0 .213-.1.213-.213v-.91a4.366 4.366 0 012.647 1.038l-.783.783a.206.206 0 00.157.355.214.214 0 00.156-.057l.797-.796a4.408 4.408 0 011.224 2.361c0 .015.042.427.042.442h-.81a.22.22 0 00-.214.213c0 .114.1.213.213.213h.84c.014.114 0-.185 0-.07a4.474 4.474 0 01-1.907 3.656z" fill="#FFC32A"/><path d="M11.718 9.746H9.826a.994.994 0 00-.982-.783.999.999 0 00-.996.996c0 .54.455.996.996.996.484 0 .882-.341.982-.783h1.906a.22.22 0 00.214-.213c0-.114-.114-.213-.228-.213zm-2.874.782a.57.57 0 01-.57-.569.57.57 0 01.57-.569c.313 0 .583.256.583.57 0 .312-.27.568-.583.568zm-.626-6.972c.384.285.754.555.853.826.029.085.114.128.2.128a.215.215 0 00.199-.128c.227-.484.37-1.594-.683-2.291a14.16 14.16 0 00-.783-.47c-.384-.213-.697-.384-.925-.654a.262.262 0 00-.227-.071c-.086.028-.143.085-.157.17 0 .043-.128.968.74 1.836.228.256.512.455.783.654zm-.427-1.55c.227.128.483.27.754.455.626.412.683.982.64 1.351a6.086 6.086 0 00-.711-.583c-.256-.185-.527-.384-.726-.598a2.122 2.122 0 01-.583-.995c.185.128.398.241.626.37z" fill="#FFC32A"/></svg>