<svg width="10" height="15" fill="none" xmlns="http://www.w3.org/2000/svg"><path d="M8.823.892H3.484a.24.24 0 00-.192.096L.09 5.26a.24.24 0 00-.048.144v4.36c0 .133.107.24.24.24 3.975 0 4.03 3.78 4.03 3.941 0 .133.108.24.24.24h4.271a.24.24 0 00.24-.24V1.132a.24.24 0 00-.24-.24zm-.24 12.812H4.779c-.082-.902-.626-4.043-4.257-4.176V5.484l3.082-4.111h4.979v12.331z" fill="#FFC32A"/><path d="M1.518 5.481a.24.24 0 00.215.134h5.96a.24.24 0 00.24-.24V2.273a.24.24 0 00-.24-.24H4.082a.24.24 0 00-.192.095l-2.349 3.1a.24.24 0 00-.023.252zM4.2 2.514h3.252v2.62H2.216l1.985-2.62zM7.695 6.52H6.272a.24.24 0 100 .481h1.423a.24.24 0 100-.48z" fill="#FFC32A"/></svg>