<svg width="16" height="16" fill="none" xmlns="http://www.w3.org/2000/svg"><path d="M8.896.396C7.155.396 5.74 1.78 5.74 3.481c0 2.66 2.8 5.928 2.919 6.065a.31.31 0 00.237.106.334.334 0 00.246-.115c.119-.14 2.91-3.456 2.91-6.056 0-1.701-1.416-3.085-3.156-3.085zM.365 2.247a.354.354 0 00-.158.048.303.303 0 00-.148.26v11.108c0 .117.07.227.177.28l3.788 1.851a.31.31 0 00.276 0l3.659-1.783 3.964 1.783a.298.298 0 00.277-.01l3.471-1.85a.31.31 0 00.168-.27V2.556a.31.31 0 00-.464-.27l-2.702 1.437c-.152 2.717-2.743 5.85-3.048 6.208a.966.966 0 01-.73.338.95.95 0 01-.72-.328c-.307-.356-2.957-3.504-3.057-6.297l-.946.425-3.66-1.794a.288.288 0 00-.147-.029zm8.53.309c.698 0 1.263.552 1.263 1.234 0 .682-.565 1.234-1.262 1.234-.698 0-1.263-.552-1.263-1.234 0-.682.565-1.234 1.263-1.234z" fill="#F6C135"/></svg>