<svg width="17" height="16" fill="none" xmlns="http://www.w3.org/2000/svg"><path d="M8.76.396c-.327 0-.955.067-1.471.5l-.02.016c-.16.12-.517.426-1.025.857l-.036.03h-2.47a.354.354 0 00-.359.35v2.092A838.542 838.542 0 00.998 6.307l3.099 2.36V2.5h2.148a.367.367 0 00.17 0h4.682a.367.367 0 00.124 0h2.202v6.167l3.1-2.36c-.102-.088-1.149-1-2.382-2.066V2.15a.355.355 0 00-.359-.351h-2.49l-.176-.152a20.37 20.37 0 00-.867-.737l-.004-.002c-.011-.01-.024-.018-.035-.027a2.09 2.09 0 00-.373-.24h-.002a2.268 2.268 0 00-.78-.228A2.55 2.55 0 008.76.396zM5.532 4.254a.366.366 0 00-.257.1.35.35 0 00-.107.25.344.344 0 00.107.25.36.36 0 00.257.101h6.456a.366.366 0 00.257-.1.352.352 0 00.107-.25.345.345 0 00-.107-.25.36.36 0 00-.257-.101H5.532zm0 1.753a.366.366 0 00-.257.101.35.35 0 00-.107.25.344.344 0 00.107.25.36.36 0 00.257.1h3.945a.366.366 0 00.257-.1.35.35 0 00.107-.25.344.344 0 00-.107-.25.36.36 0 00-.257-.1H5.532zm-4.664 1.1v6.664l.084-.065c1.246-.947 2.957-2.248 4.292-3.26L.868 7.105zm15.784 0l-4.398 3.355c1.309 1.01 3.017 2.327 4.398 3.39V7.106zM8.76 9.1c-.09 0-.562.018-1.043.362-.33.238-4.23 3.204-6.324 4.797-.198.15-.37.283-.525.399v.817c0 .194.16.35.359.35h15.066a.355.355 0 00.359-.35v-.732c-2.522-1.94-6.58-5.07-6.86-5.29A1.689 1.689 0 008.76 9.1z" fill="#F6C135"/></svg>