<svg width="16" height="17" fill="none" xmlns="http://www.w3.org/2000/svg"><path d="M12.925 16.157h-.017c-2.696-.086-5.855-2.64-8.031-4.77C2.697 9.258.084 6.17 0 3.545-.03 2.625 2.28.987 2.304.971c.6-.409 1.266-.263 1.539.107.185.25 1.936 2.845 2.127 3.14.198.305.168.76-.078 1.216a72.945 72.945 0 01-.8 1.39c.23.319.833 1.098 2.08 2.318 1.249 1.219 2.045 1.81 2.371 2.034.37-.207 1.164-.648 1.423-.78.46-.24.922-.27 1.237-.08.322.193 2.97 1.914 3.213 2.08a.894.894 0 01.363.662c.026.284-.064.584-.25.846-.016.022-1.67 2.253-2.604 2.253z" fill="#F6C135"/></svg>