<svg width="33" height="29" fill="none" xmlns="http://www.w3.org/2000/svg"><path d="M1.593.204v2.188H.28v21.883h15.318V23.4H1.155V6.563l12.692 8.846a3.064 3.064 0 003.502 0L30.04 6.563v10.86l.875.875V2.392h-1.313V.204H1.593zm.875.875h26.26v1.313H2.468V1.079zM1.155 3.267h28.886v2.23L16.849 14.69a2.186 2.186 0 01-2.502 0L1.155 5.496V3.267zM3.344 8.52a.439.439 0 000 .875.439.439 0 000-.875zm24.508 0a.438.438 0 000 .875.439.439 0 000-.875zM3.344 10.27a.439.439 0 000 .876.438.438 0 000-.875zm24.508 0a.438.438 0 000 .876.438.438 0 000-.875zM3.344 12.02a.439.439 0 000 .876.439.439 0 000-.876zm24.508 0a.439.439 0 000 .876.439.439 0 000-.876zM3.344 13.771a.438.438 0 000 .875.439.439 0 000-.875zm24.508 0a.438.438 0 000 .875.439.439 0 000-.875zm-2.625.694v4.558H16.91v5.252h8.316v4.558l7.183-7.184-7.183-7.184zM3.344 15.522a.439.439 0 000 .875.438.438 0 000-.875zm22.758 1.056l5.07 5.07-5.07 5.072V23.4h-8.316v-3.502h8.316v-3.32zm-22.758.694a.438.438 0 000 .876.439.439 0 000-.876zm0 1.75a.438.438 0 000 .876.439.439 0 000-.875zm0 1.752a.439.439 0 000 .875.438.438 0 000-.876zm1.75 0a.439.439 0 000 .875.438.438 0 000-.876zm1.75 0a.439.439 0 000 .875.438.438 0 000-.876zm1.751 0a.439.439 0 000 .875.438.438 0 000-.876zm1.751 0a.439.439 0 000 .875.438.438 0 000-.876zm1.75 0a.439.439 0 000 .875.438.438 0 000-.876zm1.751 0a.438.438 0 000 .875.438.438 0 000-.876z" fill="#FFC32A"/></svg>