<svg width="18" height="18" fill="none" xmlns="http://www.w3.org/2000/svg"><path d="M9.259.619C4.632.619.873 4.378.873 9.005c0 4.627 3.759 8.386 8.386 8.386 4.627 0 8.386-3.759 8.386-8.386 0-4.627-3.759-8.386-8.386-8.386zm0 .729a7.652 7.652 0 017.657 7.657 7.652 7.652 0 01-7.657 7.657 7.652 7.652 0 01-7.657-7.657 7.652 7.652 0 017.657-7.657zm-.365.778c-.945.232-1.781 1.352-2.313 2.942.734.15 1.513.239 2.313.26V2.125zm.73 0v3.201c.808-.02 1.588-.106 2.316-.253-.533-1.593-1.37-2.716-2.316-2.948zm-2.4.257a6.93 6.93 0 00-3.018 1.898 9.093 9.093 0 001.655.616c.34-1.038.806-1.899 1.363-2.514zm4.07 0c.558.616 1.025 1.48 1.366 2.52a8.51 8.51 0 001.65-.625 6.93 6.93 0 00-3.016-1.895zm3.493 2.465a9.063 9.063 0 01-1.926.754c.234.919.374 1.945.4 3.038h2.907a6.88 6.88 0 00-1.38-3.792zm-11.06.004A6.88 6.88 0 002.35 8.64h2.907c.026-1.096.167-2.123.401-3.043a9.652 9.652 0 01-1.931-.745zm2.645.916c-.224.87-.359 1.846-.385 2.872h2.907V6.057c-.87-.022-1.721-.12-2.522-.289zm5.775.006c-.794.165-1.645.262-2.523.283V8.64h2.907a12.937 12.937 0 00-.384-2.866zM2.35 9.37a6.88 6.88 0 001.38 3.792 9.066 9.066 0 011.927-.754 13.697 13.697 0 01-.4-3.038H2.35zm3.637 0c.026 1.024.16 1.998.384 2.866a14.102 14.102 0 012.523-.283V9.37H5.987zm3.637 0v2.583c.87.022 1.72.12 2.521.289.225-.87.36-1.846.386-2.872H9.624zm3.637 0a13.673 13.673 0 01-.401 3.043 9.659 9.659 0 011.931.745 6.88 6.88 0 001.377-3.788h-2.907zm-4.367 3.313a13.43 13.43 0 00-2.316.253c.533 1.594 1.37 2.716 2.316 2.948v-3.201zm.73 0v3.201c.945-.232 1.781-1.352 2.313-2.942a13.31 13.31 0 00-2.313-.26zm-3.766.423a8.516 8.516 0 00-1.65.626 6.93 6.93 0 003.016 1.895c-.558-.616-1.025-1.48-1.366-2.52zm6.8.007c-.34 1.038-.808 1.899-1.364 2.514a6.933 6.933 0 003.018-1.898 9.096 9.096 0 00-1.654-.616z" fill="#FFC32A"/></svg>