<svg width="50" height="50" fill="none" xmlns="http://www.w3.org/2000/svg"><path d="M24.945.243C11.322.243.265 11.364.265 25.066S11.322 49.89 24.945 49.89s24.68-11.122 24.68-24.824c0-13.702-11.057-24.823-24.68-24.823zm0 1.504c12.814 0 23.185 10.431 23.185 23.32 0 12.887-10.371 23.318-23.185 23.318-12.813 0-23.184-10.431-23.184-23.319S12.13 1.747 24.945 1.747zm0 2.257a.752.752 0 000 1.504.752.752 0 000-1.504zm3.959.388A.751.751 0 0028.15 5a.756.756 0 00.59.884.752.752 0 00.292-1.478 1.789 1.789 0 00-.128-.014zm-7.894.003c-.05 0-.1.002-.149.011a.753.753 0 00-.587.888.751.751 0 00.88.59.751.751 0 00-.143-1.49zm-3.786 1.154a.77.77 0 00-.292.056.752.752 0 00-.403.984.744.744 0 00.975.409.752.752 0 00-.28-1.449zm15.466 0a.751.751 0 00-.71.465.756.756 0 00.406.984.744.744 0 00.976-.409.752.752 0 00-.672-1.04zM13.736 7.424a.754.754 0 00-.631 1.172.744.744 0 001.037.206.752.752 0 00-.406-1.378zm22.44 0a.747.747 0 00-.635.338.75.75 0 00.205 1.04.744.744 0 001.037-.206.756.756 0 00.114-.564.737.737 0 00-.318-.479.73.73 0 00-.404-.129zm-25.5 2.527a.751.751 0 00-.538 1.284.741.741 0 001.056 0 .751.751 0 000-1.06.733.733 0 00-.517-.224zm28.558 0a.751.751 0 00-.538 1.284.741.741 0 001.055 0 .751.751 0 000-1.06.733.733 0 00-.517-.224zm2.51 3.08a.751.751 0 00-.628 1.166.74.74 0 001.034.209.753.753 0 00.207-1.043.742.742 0 00-.613-.332zm-33.577 0a.742.742 0 00-.634.332.755.755 0 00.208 1.043.745.745 0 001.037-.206.755.755 0 00-.61-1.17zm15.379.99L16.63 33.103h2.787l1.814-5.275h7.374l1.814 5.275h2.84L26.345 14.02h-2.8zm20.062 2.52a.753.753 0 10.28 1.446.755.755 0 00.406-.984.75.75 0 00-.686-.461zm-37.302 0a.744.744 0 00-.707.465.748.748 0 101.382.576.752.752 0 00-.675-1.04zm18.514.732h.21l2.854 8.32h-5.93l2.866-8.32zm19.933 3.08a.636.636 0 00-.15.012.756.756 0 00-.586.884.752.752 0 00.879.594.757.757 0 00.59-.888.749.749 0 00-.733-.602zm-39.592 0a.75.75 0 00-.754.602.76.76 0 00.111.568.745.745 0 00.48.32.759.759 0 00.56-.112.757.757 0 00.316-.482.752.752 0 00-.584-.884c-.044-.006-.085-.012-.129-.012zm-.409 3.96a.752.752 0 000 1.505.752.752 0 000-1.504zm40.387 0a.752.752 0 000 1.505.752.752 0 000-1.504zM5.144 28.276a.753.753 0 10.143 1.493.752.752 0 00.587-.885.751.751 0 00-.73-.608zm39.626 0a.752.752 0 00-.753.608.756.756 0 00.587.885.754.754 0 00.292-1.478 1.555 1.555 0 00-.126-.015zm-1.15 3.808a.754.754 0 00-.304 1.449.75.75 0 00.978-.406.755.755 0 00-.675-1.043zm-37.325.003a.77.77 0 00-.292.056.754.754 0 00-.404.408.77.77 0 00-.003.576.747.747 0 00.98.406.736.736 0 00.405-.406.75.75 0 00-.687-1.04zm35.455 3.511a.742.742 0 00-.634.332.755.755 0 00.204 1.044c.164.111.368.152.561.111a.732.732 0 00.476-.32.749.749 0 00-.207-1.04.696.696 0 00-.4-.127zm-33.586 0a.725.725 0 00-.423.127.758.758 0 00-.208 1.043.748.748 0 001.04.206.754.754 0 00.205-1.044.75.75 0 00-.614-.332zm2.513 3.08a.752.752 0 00-.538 1.281.741.741 0 001.055 0 .752.752 0 00-.517-1.281zm28.557 0a.752.752 0 00-.538 1.281.741.741 0 001.055 0 .752.752 0 00-.517-1.281zM13.742 41.2a.742.742 0 00-.635.332.756.756 0 00.208 1.046.745.745 0 001.034-.209.754.754 0 00-.204-1.043.734.734 0 00-.403-.126zm22.43 0a.745.745 0 00-.423.123.756.756 0 00-.204 1.046.748.748 0 001.036.209.758.758 0 00.205-1.046.734.734 0 00-.614-.332zm-18.936 1.875a.754.754 0 00-.304 1.449.749.749 0 00.978-.406.755.755 0 00-.674-1.043zm15.442 0a.754.754 0 00-.698 1.043.75.75 0 101.385-.576.748.748 0 00-.687-.467zm-11.65 1.157a.75.75 0 00-.754.606.75.75 0 00.587.884.746.746 0 00.88-.59.75.75 0 00-.713-.9zm7.858.003a.599.599 0 00-.146.012.754.754 0 00.292 1.478.77.77 0 00.477-.32.775.775 0 00.11-.567.749.749 0 00-.733-.603zm-3.94.388a.752.752 0 000 1.505.752.752 0 000-1.505z" fill="#fff"/></svg>