<svg width="23" height="22" fill="none" xmlns="http://www.w3.org/2000/svg"><path fill-rule="evenodd" clip-rule="evenodd" d="M22.436 10.857c0 5.767-4.893 10.441-10.929 10.441C5.472 21.298.58 16.624.58 10.858.579 5.09 5.472.415 11.507.415c6.036 0 10.929 4.675 10.929 10.441zM7.897 9.901c-1.095.456-2.22.926-3.248 1.467-.537.376.177.641.846.89.107.04.212.08.311.119l.251.075c.745.227 1.576.48 2.299.1 1.187-.652 2.308-1.406 3.428-2.16.367-.246.734-.493 1.103-.736l.059-.036c.314-.194 1.021-.632.76-.029-.619.647-1.281 1.219-1.948 1.794-.449.388-.9.777-1.34 1.19-.382.298-.78.896-.351 1.313.988.66 1.992 1.306 2.995 1.95l.978.63c.552.42 1.415.08 1.536-.578l.162-.908c.3-1.673.6-3.346.864-5.024.036-.263.076-.526.117-.79.1-.638.198-1.277.229-1.919-.08-.64-.892-.5-1.345-.355A215.795 215.795 0 008.685 9.57c-.26.11-.523.22-.788.33z" fill="#FFC32A"/></svg>