<svg width="53" height="40" fill="none" xmlns="http://www.w3.org/2000/svg"><path d="M4.497.61V5.1H2.27v4.49H.788v29.932h51.92V9.59h-1.483V5.1H49.74V.61H4.497zM5.98 2.106h42.278V5.1H5.98V2.106zm-2.225 4.49H49.74V9.59H3.755V6.596zm-1.484 4.49h48.954v26.94H2.27v-26.94zm6.676 1.497a.746.746 0 00-.742.748c0 .412.333.748.742.748a.746.746 0 00.742-.748.746.746 0 00-.742-.748zm2.225 0a.746.746 0 00-.742.748c0 .412.334.748.742.748a.746.746 0 00.742-.748.746.746 0 00-.742-.748zm2.225 0a.746.746 0 00-.742.748c0 .412.334.748.742.748a.746.746 0 00.742-.748.746.746 0 00-.742-.748zm2.225 0a.746.746 0 00-.741.748c0 .412.333.748.741.748a.746.746 0 00.742-.748.746.746 0 00-.742-.748zm2.226 0a.746.746 0 00-.742.748c0 .412.333.748.741.748a.746.746 0 00.742-.748.746.746 0 00-.741-.748zm2.225 0a.746.746 0 00-.742.748c0 .412.333.748.742.748a.746.746 0 00.741-.748.746.746 0 00-.741-.748zm2.225 0a.746.746 0 00-.742.748c0 .412.333.748.742.748a.746.746 0 00.742-.748.746.746 0 00-.742-.748zm2.225 0a.746.746 0 00-.742.748c0 .412.333.748.742.748a.746.746 0 00.742-.748.746.746 0 00-.742-.748zm2.225 0a.746.746 0 00-.742.748c0 .412.334.748.742.748a.746.746 0 00.742-.748.746.746 0 00-.742-.748zm2.225 0a.746.746 0 00-.741.748c0 .412.333.748.741.748a.746.746 0 00.742-.748.746.746 0 00-.742-.748zm2.225 0a.746.746 0 00-.741.748c0 .412.333.748.741.748a.746.746 0 00.742-.748.746.746 0 00-.742-.748zm2.225 0a.746.746 0 00-.741.748c0 .412.333.748.741.748a.746.746 0 00.742-.748.746.746 0 00-.742-.748zm2.226 0a.746.746 0 00-.742.748c0 .412.333.748.742.748a.746.746 0 00.741-.748.746.746 0 00-.741-.748zm2.225 0a.746.746 0 00-.742.748c0 .412.333.748.742.748a.746.746 0 00.741-.748.746.746 0 00-.741-.748zm2.225 0a.746.746 0 00-.742.748c0 .412.333.748.742.748a.746.746 0 00.742-.748.746.746 0 00-.742-.748zm2.225 0a.746.746 0 00-.742.748c0 .412.334.748.742.748a.746.746 0 00.742-.748.746.746 0 00-.742-.748zm2.225 0a.746.746 0 00-.742.748c0 .412.334.748.742.748a.746.746 0 00.742-.748.746.746 0 00-.742-.748zM8.205 14.828a.747.747 0 00-.742.748c0 .412.334.748.742.748a.747.747 0 00.742-.748.747.747 0 00-.742-.748zm37.086 0a.747.747 0 00-.742.748c0 .412.333.748.742.748a.747.747 0 00.742-.748.747.747 0 00-.742-.748zM6.72 16.325a.746.746 0 00-.741.748c0 .412.333.748.742.748a.746.746 0 00.741-.748.746.746 0 00-.741-.748zm20.027 0c-4.497 0-8.159 3.694-8.159 8.231s3.662 8.232 8.159 8.232c4.497 0 8.159-3.695 8.159-8.232 0-4.537-3.662-8.232-8.159-8.232zm20.026 0a.746.746 0 00-.741.748c0 .412.333.748.741.748a.746.746 0 00.742-.748.746.746 0 00-.742-.748zm-42.277.748a.747.747 0 00-.742.748c0 .412.333.748.742.748a.746.746 0 00.741-.748.746.746 0 00-.741-.748zm44.502 0a.747.747 0 00-.741.748c0 .412.333.748.741.748a.746.746 0 00.742-.748.747.747 0 00-.742-.748zm-22.251.748c3.694 0 6.675 3.008 6.675 6.735 0 3.727-2.98 6.735-6.675 6.735-3.694 0-6.675-3.008-6.675-6.735 0-3.727 2.98-6.735 6.675-6.735zm-22.25 1.497a.746.746 0 00-.742.748c0 .412.333.748.742.748a.746.746 0 00.741-.748.746.746 0 00-.741-.748zm44.502 0a.746.746 0 00-.741.748c0 .412.333.748.741.748a.746.746 0 00.742-.748.746.746 0 00-.742-.748zM4.497 21.563a.747.747 0 00-.742.748c0 .412.333.748.742.748a.746.746 0 00.741-.748.747.747 0 00-.741-.748zm6.675 0c-1.631 0-2.967 1.347-2.967 2.993s1.336 2.993 2.967 2.993 2.967-1.347 2.967-2.993-1.336-2.993-2.967-2.993zm30.41 0c-1.63 0-2.967 1.347-2.967 2.993s1.336 2.993 2.967 2.993c1.632 0 2.967-1.347 2.967-2.993s-1.335-2.993-2.967-2.993zm7.417 0a.747.747 0 00-.741.748c0 .412.333.748.741.748a.747.747 0 00.742-.748.747.747 0 00-.742-.748zm-37.827 1.496c.829 0 1.483.661 1.483 1.497 0 .836-.654 1.497-1.483 1.497a1.478 1.478 0 01-1.483-1.497c0-.836.654-1.497 1.483-1.497zm30.41 0c.829 0 1.484.661 1.484 1.497 0 .836-.655 1.497-1.484 1.497a1.479 1.479 0 01-1.483-1.497c0-.836.655-1.497 1.483-1.497zm-37.085.749a.747.747 0 00-.742.748c0 .412.333.748.742.748a.746.746 0 00.741-.748.746.746 0 00-.741-.748zm44.502 0a.747.747 0 00-.741.748c0 .412.333.748.741.748a.746.746 0 00.742-.748.747.747 0 00-.742-.748zM4.497 26.053a.746.746 0 00-.742.748c0 .412.333.748.742.748a.746.746 0 00.741-.748.746.746 0 00-.741-.748zm44.502 0a.746.746 0 00-.741.748c0 .412.333.748.741.748a.747.747 0 00.742-.748.746.746 0 00-.742-.748zM4.497 28.298a.747.747 0 00-.742.748c0 .412.333.748.742.748a.747.747 0 00.741-.748.746.746 0 00-.741-.748zm44.502 0a.747.747 0 00-.741.748c0 .412.333.748.741.748a.747.747 0 00.742-.748.747.747 0 00-.742-.748zM4.497 30.543a.746.746 0 00-.742.748c0 .412.333.748.742.748a.746.746 0 00.741-.748.746.746 0 00-.741-.748zm44.502 0a.746.746 0 00-.741.748c0 .412.333.748.741.748a.746.746 0 00.742-.748.746.746 0 00-.742-.748zm-42.277.748a.746.746 0 00-.742.748c0 .412.333.748.742.748a.746.746 0 00.741-.748.747.747 0 00-.741-.748zm40.052 0a.747.747 0 00-.741.748c0 .412.333.748.741.748a.746.746 0 00.742-.748.746.746 0 00-.742-.748zM8.205 32.788a.747.747 0 00-.742.748c0 .412.334.748.742.748a.747.747 0 00.742-.748.747.747 0 00-.742-.748zm37.086 0a.747.747 0 00-.742.748c0 .412.333.748.742.748a.747.747 0 00.742-.748.747.747 0 00-.742-.748zM8.947 35.032a.746.746 0 00-.742.748c0 .412.333.748.742.748a.747.747 0 00.742-.748.746.746 0 00-.742-.748zm2.225 0a.747.747 0 00-.742.748c0 .412.334.748.742.748a.746.746 0 00.742-.748.746.746 0 00-.742-.748zm2.225 0a.747.747 0 00-.742.748c0 .412.334.748.742.748a.747.747 0 00.742-.748.747.747 0 00-.742-.748zm2.225 0a.747.747 0 00-.741.748c0 .412.333.748.741.748a.747.747 0 00.742-.748.747.747 0 00-.742-.748zm2.226 0a.747.747 0 00-.742.748c0 .412.333.748.741.748a.747.747 0 00.742-.748.747.747 0 00-.741-.748zm2.225 0a.747.747 0 00-.742.748c0 .412.333.748.742.748a.747.747 0 00.741-.748.747.747 0 00-.741-.748zm2.225 0a.747.747 0 00-.742.748c0 .412.333.748.742.748a.747.747 0 00.742-.748.747.747 0 00-.742-.748zm2.225 0a.747.747 0 00-.742.748c0 .412.333.748.742.748a.747.747 0 00.742-.748.747.747 0 00-.742-.748zm2.225 0a.747.747 0 00-.742.748c0 .412.334.748.742.748a.747.747 0 00.742-.748.747.747 0 00-.742-.748zm2.225 0a.747.747 0 00-.741.748c0 .412.333.748.741.748a.747.747 0 00.742-.748.747.747 0 00-.742-.748zm2.225 0a.747.747 0 00-.741.748c0 .412.333.748.741.748a.747.747 0 00.742-.748.747.747 0 00-.742-.748zm2.225 0a.746.746 0 00-.741.748c0 .412.333.748.741.748a.747.747 0 00.742-.748.747.747 0 00-.742-.748zm2.226 0a.747.747 0 00-.742.748c0 .412.333.748.742.748a.747.747 0 00.741-.748.747.747 0 00-.741-.748zm2.225 0a.747.747 0 00-.742.748c0 .412.333.748.742.748a.747.747 0 00.741-.748.747.747 0 00-.741-.748zm2.225 0a.747.747 0 00-.742.748c0 .412.333.748.742.748a.747.747 0 00.742-.748.747.747 0 00-.742-.748zm2.225 0a.747.747 0 00-.742.748c0 .412.334.748.742.748a.747.747 0 00.742-.748.747.747 0 00-.742-.748zm2.225 0a.747.747 0 00-.742.748c0 .412.334.748.742.748a.747.747 0 00.742-.748.747.747 0 00-.742-.748z" fill="#fff"/></svg>