<svg width="22" height="21" fill="none" xmlns="http://www.w3.org/2000/svg"><path fill-rule="evenodd" clip-rule="evenodd" d="M10.973.07C5.223.07.563 4.73.563 10.477c0 5.75 4.66 10.41 10.41 10.41 5.748 0 10.409-4.66 10.409-10.41C21.382 4.73 16.722.07 10.972.07zm-2.29 4.89c.593-.027.782-.033 2.29-.033h-.002c1.508 0 1.697.006 2.29.033.59.027.994.12 1.348.258.365.142.674.332.983.64.309.309.498.619.64.984.137.353.23.756.259 1.347.026.592.033.782.033 2.29 0 1.507-.007 1.696-.034 2.288-.027.59-.12.994-.257 1.347a2.724 2.724 0 01-.641.984 2.717 2.717 0 01-.983.64c-.353.138-.757.231-1.348.258-.592.027-.78.034-2.289.034-1.507 0-1.696-.007-2.289-.034-.59-.027-.994-.12-1.347-.258a2.718 2.718 0 01-.983-.64 2.72 2.72 0 01-.64-.984c-.138-.353-.231-.756-.258-1.347-.027-.592-.034-.78-.034-2.289 0-1.507.007-1.697.033-2.289.027-.59.12-.994.258-1.347a2.74 2.74 0 01.641-.984c.309-.308.618-.498.984-.64.353-.137.756-.23 1.347-.258z" fill="#FFC32A"/><path fill-rule="evenodd" clip-rule="evenodd" d="M10.475 5.927h.498c1.482 0 1.658.006 2.243.032.542.025.835.115 1.031.191.26.101.444.221.638.416.194.194.315.379.415.638.076.195.167.49.192 1.03.026.586.032.762.032 2.243 0 1.482-.006 1.657-.032 2.243-.025.541-.116.835-.192 1.03-.1.26-.22.444-.415.638a1.718 1.718 0 01-.638.415c-.195.077-.49.167-1.03.192-.586.026-.762.032-2.244.032-1.482 0-1.658-.006-2.243-.032-.542-.025-.835-.116-1.031-.192a1.72 1.72 0 01-.639-.415 1.72 1.72 0 01-.415-.638c-.076-.196-.167-.49-.191-1.03-.027-.586-.032-.762-.032-2.244 0-1.483.005-1.658.032-2.243.025-.541.115-.835.191-1.03.1-.26.221-.445.415-.639.195-.194.38-.315.639-.415.196-.077.49-.167 1.03-.192.513-.023.711-.03 1.746-.031v.001zm3.461.922a.666.666 0 100 1.333.666.666 0 000-1.333zm-5.814 3.63a2.851 2.851 0 115.702 0 2.851 2.851 0 01-5.702 0z" fill="#FFC32A"/><path d="M10.973 8.628a1.85 1.85 0 110 3.701 1.85 1.85 0 010-3.701z" fill="#FFC32A"/></svg>