<svg width="23" height="22" fill="none" xmlns="http://www.w3.org/2000/svg"><path fill-rule="evenodd" clip-rule="evenodd" d="M11.376.416c6.035 0 10.928 4.675 10.928 10.441 0 5.767-4.893 10.441-10.928 10.441-6.036 0-10.929-4.674-10.929-10.44C.447 5.09 5.34.415 11.376.415zm2.911 9.118c-.053-.413-.186-.737-.421-1.024-.306-.369-.698-.59-1.277-.721-.377-.088-.53-.078-.666.041a.386.386 0 00-.055.48c.069.106.147.143.367.184.292.052.493.118.677.219.39.214.57.55.59 1.095.01.256.032.334.126.425a.413.413 0 00.612-.065c.048-.075.055-.107.06-.28a2.653 2.653 0 00-.013-.354zm.005-2.531c.927.715 1.444 1.732 1.52 2.996.033.498-.01.66-.194.752a.406.406 0 01-.482-.071c-.086-.084-.119-.198-.117-.401.003-.561-.132-1.188-.352-1.623a3.182 3.182 0 00-1.143-1.251 3.56 3.56 0 00-1.564-.51c-.361-.03-.49-.089-.56-.254a.442.442 0 01.02-.347.49.49 0 01.229-.169c.08-.022.546.017.8.065a4.36 4.36 0 011.843.813zm3.21 7.864a1.358 1.358 0 00-.13-.248c-.272-.392-1.732-1.484-2.461-1.84-.416-.205-.725-.273-.954-.21-.246.067-.375.176-.787.665-.166.196-.336.38-.382.409a1.04 1.04 0 01-.487.134c-.36-.002-1.014-.225-1.516-.518-.39-.227-.891-.634-1.275-1.036-.453-.473-.761-.89-1.005-1.36-.315-.605-.395-.974-.263-1.245a.99.99 0 01.095-.163c.019-.02.222-.18.446-.352.44-.335.511-.411.593-.64.104-.291.076-.588-.084-.888a12.293 12.293 0 00-.677-1.042c-.309-.42-1.076-1.32-1.23-1.443-.276-.214-.63-.251-1.02-.107-.412.153-1.184.747-1.514 1.162-.298.376-.412.642-.43.993-.014.289.012.408.171.778 1.25 2.897 3.113 5.21 5.673 7.048 1.337.96 2.724 1.69 4.163 2.19.839.29 1.203.305 1.632.066.181-.104.63-.543.88-.863.415-.533.568-.778.61-.974.03-.134.007-.368-.049-.516zm-.552-6.533c.262.654.388 1.24.416 1.955.004.142.002.4-.007.576-.02.336-.04.402-.14.491-.163.146-.48.112-.6-.064-.064-.095-.072-.164-.06-.556.035-1.162-.211-2.071-.804-2.98-.707-1.091-1.766-1.826-3.142-2.185a8.138 8.138 0 00-1.107-.207c-.3-.037-.366-.053-.44-.097a.373.373 0 01-.003-.622c.115-.073.2-.076.574-.03 1.099.13 2.08.443 2.885.914.577.338.941.642 1.41 1.175.496.567.758.987 1.018 1.63z" fill="#FFC32A"/></svg>