<svg width="22" height="22" fill="none" xmlns="http://www.w3.org/2000/svg"><g clip-path="url(#clip0)"><path d="M21.567 10.857C21.567 5.09 16.827.416 10.98.416 5.132.416.393 5.09.393 10.857c0 5.213 3.87 9.532 8.933 10.315v-7.297H6.638v-3.018h2.688v-2.3c0-2.617 1.58-4.062 3.999-4.062 1.158 0 2.37.204 2.37.204v2.569h-1.336c-1.315 0-1.725.806-1.725 1.631v1.958h2.936l-.469 3.018h-2.467v7.297c5.062-.783 8.933-5.102 8.933-10.315z" fill="#FFC32A"/></g><defs><clipPath id="clip0"><path fill="#fff" transform="translate(.393 .416)" d="M0 0h21.174v20.882H0z"/></clipPath></defs></svg>