<svg width="61" height="46" fill="none" xmlns="http://www.w3.org/2000/svg"><path d="M16.512.128a5.966 5.966 0 00-5.534 3.72L7.608 12.2a3.352 3.352 0 00-1.243-.244H4.87c-2.075 0-3.858 1.498-4.2 3.528l-.543 3.23h3.938l-.246.37a10.922 10.922 0 00-1.836 6.06v18.071c0 1.39 1.155 2.535 2.555 2.535h4.257c1.4 0 2.554-1.145 2.554-2.535v-1.69h37.464v1.69c0 1.39 1.154 2.535 2.555 2.535h4.257c1.4 0 2.554-1.145 2.554-2.535V25.144c0-2.155-.638-4.26-1.836-6.06l-.246-.37h3.938l-.542-3.23c-.34-2.03-2.125-3.528-4.2-3.528H53.8c-.436 0-.851.092-1.244.244l-3.37-8.356A5.968 5.968 0 0043.653.128h-27.14zm0 1.69h27.14a4.247 4.247 0 013.952 2.653l4.18 10.36.905-.773a1.72 1.72 0 011.111-.412h1.493a2.54 2.54 0 012.522 2.115l.212 1.264h-5.095l.871 1.31 1.121 1.683a9.254 9.254 0 011.553 5.126v18.071a.833.833 0 01-.851.845h-4.257a.833.833 0 01-.852-.845v-3.379H9.647v3.38a.833.833 0 01-.851.844H4.539a.833.833 0 01-.852-.845V25.144c0-1.825.54-3.607 1.554-5.126l1.995-2.993H2.137l.213-1.264a2.54 2.54 0 012.521-2.115h1.494c.415 0 .805.151 1.114.412l.901.776L12.561 4.47a4.247 4.247 0 013.951-2.653zM9.647 17.025a.85.85 0 00-.851.845.85.85 0 00.851.845.85.85 0 00.852-.845.85.85 0 00-.852-.845zm3.406 0a.85.85 0 00-.851.845.85.85 0 00.851.845.85.85 0 00.852-.845.85.85 0 00-.852-.845zm3.406 0a.85.85 0 00-.851.845.85.85 0 00.851.845.85.85 0 00.852-.845.85.85 0 00-.852-.845zm3.406 0a.85.85 0 00-.851.845.85.85 0 00.85.845.85.85 0 00.852-.845.85.85 0 00-.851-.845zm3.406 0a.85.85 0 00-.852.845.85.85 0 00.852.845.85.85 0 00.851-.845.85.85 0 00-.851-.845zm3.405 0a.85.85 0 00-.85.845.85.85 0 00.85.845.85.85 0 00.852-.845.85.85 0 00-.851-.845zm3.406 0a.85.85 0 00-.851.845.85.85 0 00.851.845.85.85 0 00.852-.845.85.85 0 00-.852-.845zm3.406 0a.85.85 0 00-.851.845.85.85 0 00.851.845.85.85 0 00.852-.845.85.85 0 00-.852-.845zm3.406 0a.85.85 0 00-.852.845.85.85 0 00.852.845.85.85 0 00.851-.845.85.85 0 00-.851-.845zm3.406 0a.85.85 0 00-.852.845.85.85 0 00.852.845.85.85 0 00.851-.845.85.85 0 00-.851-.845zm3.406 0a.85.85 0 00-.852.845.85.85 0 00.852.845.85.85 0 00.851-.845.85.85 0 00-.851-.845zm3.405 0a.85.85 0 00-.851.845.85.85 0 00.851.845.85.85 0 00.852-.845.85.85 0 00-.852-.845zm3.406 0a.85.85 0 00-.851.845.85.85 0 00.851.845.85.85 0 00.852-.845.85.85 0 00-.852-.845zM11.35 21.25c-2.341 0-4.257 1.901-4.257 4.225 0 2.323 1.916 4.224 4.257 4.224 2.342 0 4.258-1.901 4.258-4.224 0-2.324-1.916-4.225-4.258-4.225zm37.464 0c-2.341 0-4.257 1.901-4.257 4.225 0 2.323 1.916 4.224 4.257 4.224 2.342 0 4.258-1.901 4.258-4.224 0-2.324-1.916-4.225-4.258-4.225zM11.35 22.94a2.532 2.532 0 012.555 2.535 2.533 2.533 0 01-2.555 2.534 2.533 2.533 0 01-2.554-2.534 2.532 2.532 0 012.554-2.535zm7.664 0v1.69H41.15v-1.69H19.013zm29.8 0a2.533 2.533 0 012.555 2.535 2.533 2.533 0 01-2.555 2.534 2.533 2.533 0 01-2.554-2.534 2.532 2.532 0 012.554-2.535zm-28.098 4.224v1.69h18.732v-1.69H20.716zM6.242 34.767a.85.85 0 00-.852.845.85.85 0 00.852.845.85.85 0 00.851-.845.85.85 0 00-.851-.845zm3.405 0a.85.85 0 00-.851.845.85.85 0 00.851.845.85.85 0 00.852-.845.85.85 0 00-.852-.845zm3.406 0a.85.85 0 00-.851.845.85.85 0 00.851.845.85.85 0 00.852-.845.85.85 0 00-.852-.845zm3.406 0a.85.85 0 00-.851.845.85.85 0 00.851.845.85.85 0 00.852-.845.85.85 0 00-.852-.845zm3.406 0a.85.85 0 00-.851.845.85.85 0 00.85.845.85.85 0 00.852-.845.85.85 0 00-.851-.845zm3.406 0a.85.85 0 00-.852.845.85.85 0 00.852.845.85.85 0 00.851-.845.85.85 0 00-.851-.845zm3.405 0a.85.85 0 00-.85.845.85.85 0 00.85.845.85.85 0 00.852-.845.85.85 0 00-.851-.845zm3.406 0a.85.85 0 00-.851.845.85.85 0 00.851.845.85.85 0 00.852-.845.85.85 0 00-.852-.845zm3.406 0a.85.85 0 00-.851.845.85.85 0 00.851.845.85.85 0 00.852-.845.85.85 0 00-.852-.845zm3.406 0a.85.85 0 00-.852.845.85.85 0 00.852.845.85.85 0 00.851-.845.85.85 0 00-.851-.845zm3.406 0a.85.85 0 00-.852.845.85.85 0 00.852.845.85.85 0 00.851-.845.85.85 0 00-.851-.845zm3.406 0a.85.85 0 00-.852.845.85.85 0 00.852.845.85.85 0 00.851-.845.85.85 0 00-.851-.845zm3.405 0a.85.85 0 00-.851.845.85.85 0 00.851.845.85.85 0 00.852-.845.85.85 0 00-.852-.845zm3.406 0a.85.85 0 00-.851.845.85.85 0 00.851.845.85.85 0 00.852-.845.85.85 0 00-.852-.845zm3.406 0a.85.85 0 00-.851.845.85.85 0 00.851.845.85.85 0 00.852-.845.85.85 0 00-.852-.845z" fill="#fff"/></svg>