<svg width="16" height="16" fill="none" xmlns="http://www.w3.org/2000/svg"><path d="M15.812 8.89c0 .56-1.63 1.341-4.283 1.341-.647 0-1.266-.05-1.844-.144.01-.053.02-.104.02-.158V8.4c.578.089 1.189.136 1.824.136 1.66 0 3.393-.338 4.283-.976v1.33zM9.095 9.929c0 .557-1.623 1.336-4.267 1.336-2.643 0-4.265-.778-4.265-1.336V8.607c.887.636 2.61.97 4.265.97 1.655 0 3.378-.334 4.267-.97V9.93zm-8.532.98c.889.635 2.612.971 4.265.971 1.655 0 3.378-.336 4.267-.972v1.322c0 .558-1.623 1.336-4.267 1.336-2.642 0-4.265-.778-4.265-1.336v-1.322zM15.81 4.27c0 .56-1.629 1.341-4.282 1.341-2.652 0-4.282-.782-4.282-1.341V2.942c.89.638 2.62.976 4.282.976 1.66 0 3.393-.338 4.283-.976v1.329zM11.53.619c2.653 0 4.283.781 4.283 1.341 0 .561-1.63 1.343-4.283 1.343-2.652 0-4.282-.782-4.282-1.343C7.247 1.4 8.875.62 11.53.62zM7.247 5.25c.89.639 2.62.976 4.282.976 1.66 0 3.393-.337 4.283-.976v1.33c0 .559-1.63 1.34-4.283 1.34-.635 0-1.266-.051-1.842-.145.008-.049.019-.097.019-.149 0-.823-1.066-1.399-2.459-1.703V5.25zM4.828 6.29c2.644 0 4.267.778 4.267 1.336S7.472 8.963 4.828 8.963c-2.643 0-4.265-.778-4.265-1.336s1.623-1.336 4.265-1.336zm0 9.576c-2.642 0-4.265-.778-4.265-1.336v-1.322c.887.636 2.61.972 4.265.972 1.655 0 3.378-.336 4.267-.971v1.32c0 .56-1.623 1.337-4.267 1.337zm6.701-3.326c-.644 0-1.263-.05-1.845-.145.01-.055.022-.109.022-.166V10.71c.575.088 1.187.135 1.823.135 1.66 0 3.393-.337 4.283-.975v1.328c0 .56-1.63 1.342-4.283 1.342z" fill="#FFC32A"/></svg>