<svg width="50" height="51" fill="none" xmlns="http://www.w3.org/2000/svg"><path d="M35.446.232c-3.657 0-6.973.767-9.445 2.058-2.469 1.293-4.21 3.197-4.21 5.528v11.3c-2.139-.758-4.68-1.186-7.411-1.186-3.658 0-6.974.768-9.445 2.058-2.47 1.294-4.21 3.197-4.21 5.528V43.22c0 2.331 1.74 4.234 4.21 5.528 2.471 1.291 5.787 2.058 9.445 2.058 3.657 0 6.973-.767 9.445-2.058 2.292-1.202 3.953-2.93 4.181-5.037 2.146.764 4.697 1.195 7.44 1.195 3.657 0 6.973-.767 9.445-2.058 2.469-1.294 4.21-3.197 4.21-5.528V7.818c0-2.331-1.741-4.234-4.21-5.528C42.42.999 39.103.232 35.446.232zm0 1.685c3.453 0 6.574.745 8.763 1.89 2.188 1.146 3.33 2.618 3.33 4.01 0 1.393-1.142 2.865-3.33 4.011-2.189 1.146-5.31 1.89-8.763 1.89-3.453 0-6.574-.744-8.762-1.89-2.189-1.146-3.332-2.618-3.332-4.01 0-1.393 1.143-2.865 3.332-4.01 2.188-1.146 5.309-1.89 8.762-1.89zm-4.291 2.53c-.43 0-.78.378-.78.842 0 .464.35.843.78.843.43 0 .78-.379.78-.843 0-.464-.35-.843-.78-.843zm3.12 0c-.429 0-.78.378-.78.842 0 .464.351.843.78.843.43 0 .781-.379.781-.843 0-.464-.35-.843-.78-.843zm3.122 0c-.43 0-.78.378-.78.842 0 .464.35.843.78.843.43 0 .78-.379.78-.843 0-.464-.35-.843-.78-.843zm3.12 0c-.43 0-.78.378-.78.842 0 .464.35.843.78.843.43 0 .78-.379.78-.843 0-.464-.35-.843-.78-.843zM29.595 6.974c-.43 0-.78.378-.78.843 0 .464.35.843.78.843.43 0 .78-.379.78-.843 0-.465-.35-.843-.78-.843zm3.121 0c-.43 0-.78.378-.78.843 0 .464.35.843.78.843.43 0 .78-.379.78-.843 0-.465-.35-.843-.78-.843zm3.121 0c-.43 0-.78.378-.78.843 0 .464.35.843.78.843.43 0 .78-.379.78-.843 0-.465-.35-.843-.78-.843zm3.121 0c-.43 0-.78.378-.78.843 0 .464.35.843.78.843.43 0 .78-.379.78-.843 0-.465-.35-.843-.78-.843zm3.121 0c-.43 0-.78.378-.78.843 0 .464.35.843.78.843.43 0 .78-.379.78-.843 0-.465-.35-.843-.78-.843zM31.155 9.503c-.43 0-.78.38-.78.843 0 .465.35.843.78.843.43 0 .78-.378.78-.843 0-.464-.35-.843-.78-.843zm3.12 0c-.429 0-.78.38-.78.843 0 .465.351.843.78.843.43 0 .781-.378.781-.843 0-.464-.35-.843-.78-.843zm3.122 0c-.43 0-.78.38-.78.843 0 .465.35.843.78.843.43 0 .78-.378.78-.843 0-.464-.35-.843-.78-.843zm3.12 0c-.43 0-.78.38-.78.843 0 .465.35.843.78.843.43 0 .78-.378.78-.843 0-.464-.35-.843-.78-.843zm-17.165 1.884c.707.75 1.607 1.412 2.649 1.959 2.472 1.29 5.788 2.058 9.445 2.058s6.973-.767 9.445-2.058c1.043-.547 1.942-1.209 2.649-1.96v2.332c0 1.393-1.143 2.864-3.331 4.01-2.189 1.146-5.31 1.89-8.763 1.89-3.453 0-6.574-.744-8.762-1.89-2.189-1.146-3.332-2.617-3.332-4.01v-2.331zm14.045 4.86c-.43 0-.78.378-.78.843 0 .464.35.842.78.842.43 0 .78-.378.78-.842 0-.465-.35-.843-.78-.843zm3.12 0c-.43 0-.78.378-.78.843 0 .464.35.842.78.842.43 0 .78-.378.78-.842 0-.465-.35-.843-.78-.843zm-17.165 1.04c.707.75 1.607 1.41 2.649 1.96 2.472 1.29 5.788 2.057 9.445 2.057s6.973-.767 9.445-2.058c1.043-.55 1.942-1.208 2.649-1.959v2.331c0 1.393-1.143 2.865-3.331 4.01-2.189 1.146-5.31 1.89-8.763 1.89-2.901 0-5.562-.526-7.64-1.38-.534-1.705-2.021-3.117-3.981-4.148-.15-.075-.308-.145-.46-.217-.003-.053-.013-.102-.013-.155v-2.33zm-8.972 2.331c3.453 0 6.574.744 8.762 1.89 2.188 1.146 3.331 2.618 3.331 4.01 0 1.393-1.143 2.865-3.33 4.01-2.19 1.146-5.31 1.89-8.763 1.89-3.453 0-6.574-.744-8.763-1.89-2.188-1.145-3.33-2.617-3.33-4.01 0-1.392 1.142-2.864 3.33-4.01 2.189-1.146 5.31-1.89 8.763-1.89zm-4.292 2.529c-.43 0-.78.379-.78.843 0 .464.35.843.78.843.43 0 .78-.379.78-.843 0-.464-.35-.843-.78-.843zm3.121 0c-.43 0-.78.379-.78.843 0 .464.35.843.78.843.43 0 .78-.379.78-.843 0-.464-.35-.843-.78-.843zm3.121 0c-.43 0-.78.379-.78.843 0 .464.35.843.78.843.43 0 .78-.379.78-.843 0-.464-.35-.843-.78-.843zm3.121 0c-.43 0-.78.379-.78.843 0 .464.35.843.78.843.43 0 .78-.379.78-.843 0-.464-.35-.843-.78-.843zm17.946 0c-.43 0-.78.379-.78.843 0 .464.35.843.78.843.43 0 .78-.379.78-.843 0-.464-.35-.843-.78-.843zm3.12 0c-.43 0-.78.379-.78.843 0 .464.35.843.78.843.43 0 .78-.379.78-.843 0-.464-.35-.843-.78-.843zm7.023 1.04v2.331c0 1.393-1.143 2.865-3.331 4.01-2.189 1.146-5.31 1.89-8.763 1.89-2.798 0-5.367-.49-7.412-1.287V26.02c2.14.754 4.681 1.185 7.412 1.185 3.657 0 6.973-.767 9.445-2.058 1.043-.55 1.942-1.208 2.649-1.959zM8.528 24.675c-.43 0-.78.38-.78.843 0 .465.35.843.78.843.43 0 .78-.378.78-.843 0-.464-.35-.843-.78-.843zm3.12 0c-.429 0-.78.38-.78.843 0 .465.351.843.78.843.43 0 .781-.378.781-.843 0-.464-.35-.843-.78-.843zm3.122 0c-.43 0-.78.38-.78.843 0 .465.35.843.78.843.43 0 .78-.378.78-.843 0-.464-.35-.843-.78-.843zm3.12 0c-.429 0-.78.38-.78.843 0 .465.351.843.78.843.43 0 .781-.378.781-.843 0-.464-.35-.843-.78-.843zm3.122 0c-.43 0-.78.38-.78.843 0 .465.35.843.78.843.43 0 .78-.378.78-.843 0-.464-.35-.843-.78-.843zm-10.924 2.53c-.43 0-.78.378-.78.842 0 .464.35.843.78.843.43 0 .78-.379.78-.843 0-.464-.35-.843-.78-.843zm3.121 0c-.43 0-.78.378-.78.842 0 .464.35.843.78.843.43 0 .78-.379.78-.843 0-.464-.35-.843-.78-.843zm3.121 0c-.43 0-.78.378-.78.842 0 .464.35.843.78.843.43 0 .78-.379.78-.843 0-.464-.35-.843-.78-.843zm3.121 0c-.43 0-.78.378-.78.842 0 .464.35.843.78.843.43 0 .78-.379.78-.843 0-.464-.35-.843-.78-.843zm17.946.842c-.43 0-.78.379-.78.843 0 .464.35.843.78.843.43 0 .78-.379.78-.843 0-.464-.35-.843-.78-.843zm3.12 0c-.43 0-.78.379-.78.843 0 .464.35.843.78.843.43 0 .78-.379.78-.843 0-.464-.35-.843-.78-.843zm-38.23 1.04c.706.751 1.605 1.413 2.648 1.96 2.471 1.29 5.787 2.057 9.445 2.057 3.657 0 6.973-.767 9.445-2.057 1.042-.547 1.941-1.209 2.648-1.96v2.332c0 1.392-1.143 2.864-3.33 4.01-2.19 1.146-5.31 1.89-8.763 1.89-3.453 0-6.574-.744-8.763-1.89-2.188-1.146-3.33-2.618-3.33-4.01v-2.332zm45.253 0v2.332c0 1.392-1.143 2.864-3.331 4.01-2.189 1.146-5.31 1.89-8.763 1.89-2.798 0-5.37-.49-7.412-1.288V31.92c2.14.754 4.681 1.185 7.412 1.185 3.657 0 6.973-.767 9.445-2.057 1.043-.55 1.942-1.209 2.649-1.96zm-31.21 4.86c-.43 0-.78.379-.78.843 0 .465.35.843.78.843.43 0 .78-.379.78-.843 0-.464-.35-.843-.78-.843zm3.121 0c-.43 0-.78.379-.78.843 0 .465.35.843.78.843.43 0 .78-.379.78-.843 0-.464-.35-.843-.78-.843zm17.946 0c-.43 0-.78.379-.78.843 0 .465.35.843.78.843.43 0 .78-.379.78-.843 0-.464-.35-.843-.78-.843zm3.12 0c-.43 0-.78.379-.78.843 0 .465.35.843.78.843.43 0 .78-.379.78-.843 0-.464-.35-.843-.78-.843zm-38.23 1.04c.706.752 1.605 1.41 2.648 1.96 2.471 1.29 5.787 2.058 9.445 2.058 3.657 0 6.973-.768 9.445-2.058 1.042-.55 1.941-1.209 2.648-1.96v2.332c0 1.393-1.143 2.864-3.33 4.01-2.19 1.146-5.31 1.89-8.763 1.89-3.453 0-6.574-.744-8.763-1.89-2.188-1.146-3.33-2.617-3.33-4.01v-2.331zm45.253 0v2.332c0 1.393-1.143 2.864-3.331 4.01-2.189 1.146-5.31 1.89-8.763 1.89-2.798 0-5.37-.487-7.412-1.287v-4.113c2.14.754 4.681 1.186 7.412 1.186 3.657 0 6.973-.768 9.445-2.058 1.043-.55 1.942-1.209 2.649-1.96zm-31.21 4.86c-.43 0-.78.38-.78.843 0 .465.35.843.78.843.43 0 .78-.378.78-.843 0-.464-.35-.842-.78-.842zm3.121 0c-.43 0-.78.38-.78.843 0 .465.35.843.78.843.43 0 .78-.378.78-.843 0-.464-.35-.842-.78-.842zm17.946 0c-.43 0-.78.38-.78.843 0 .465.35.843.78.843.43 0 .78-.378.78-.843 0-.464-.35-.842-.78-.842zm3.12 0c-.43 0-.78.38-.78.843 0 .465.35.843.78.843.43 0 .78-.378.78-.843 0-.464-.35-.842-.78-.842zm-38.23 1.041c.706.75 1.605 1.41 2.648 1.96 2.471 1.29 5.787 2.057 9.445 2.057 3.657 0 6.973-.767 9.445-2.058 1.042-.55 1.941-1.208 2.648-1.959v2.331c0 1.393-1.143 2.865-3.33 4.01-2.19 1.146-5.31 1.89-8.763 1.89-3.453 0-6.574-.744-8.763-1.89-2.188-1.145-3.33-2.617-3.33-4.01v-2.331zm14.043 4.86c-.43 0-.78.378-.78.843 0 .464.35.843.78.843.43 0 .78-.38.78-.843 0-.465-.35-.843-.78-.843zm3.121 0c-.43 0-.78.378-.78.843 0 .464.35.843.78.843.43 0 .78-.38.78-.843 0-.465-.35-.843-.78-.843z" fill="#F7C920"/></svg>