<svg width="59" height="59" fill="none" xmlns="http://www.w3.org/2000/svg"><path d="M33.93.323L23.328 6.707l10.602 6.385V7.823a29.252 29.252 0 019.309 3.013c6.324 3.313 10.845 8.653 12.727 15.039 3.886 13.18-4.815 26.76-19.396 30.275-7.063 1.701-14.437.814-20.763-2.498C9.483 50.34 4.964 45 3.082 38.614c-2.608-8.845.451-17.872 7.153-23.914.197-.177.408-.343.612-.516l-1.255-1.138c-7.55 6.427-11.071 16.305-8.219 25.98 2.004 6.797 6.817 12.482 13.55 16.007 6.734 3.527 14.583 4.471 22.102 2.66 5.105-1.23 9.533-3.62 13.03-6.773 7.134-6.432 10.392-16.04 7.617-25.457-2.004-6.797-6.816-12.484-13.549-16.01A31.15 31.15 0 0033.93 6.21V.323zm4.712 11.216a.932.932 0 00-.624.234.761.761 0 00-.259.564c0 .212.093.415.259.565a.93.93 0 00.624.233.932.932 0 00.624-.233.761.761 0 00.259-.565.762.762 0 00-.259-.564.932.932 0 00-.624-.234zm4.12 1.992a.933.933 0 00-.623.234.761.761 0 00-.259.564c0 .212.093.415.259.565.165.15.39.233.624.233a.933.933 0 00.624-.233.762.762 0 00.259-.565.762.762 0 00-.259-.564.933.933 0 00-.624-.234zm-30.094 2.68a.932.932 0 00-.624.233.761.761 0 00-.259.565c0 .211.093.414.259.564a.93.93 0 00.624.234.932.932 0 00.624-.234.762.762 0 00.259-.564.761.761 0 00-.259-.565.932.932 0 00-.624-.233zm33.709 0a.932.932 0 00-.625.233.761.761 0 00-.258.565c0 .211.093.414.258.564.166.15.39.234.625.234a.932.932 0 00.624-.234.761.761 0 00.259-.564.761.761 0 00-.26-.565.932.932 0 00-.623-.233zM9.706 19.476a.932.932 0 00-.624.234.761.761 0 00-.259.564c0 .212.093.415.259.564a.93.93 0 00.624.234.932.932 0 00.624-.233.762.762 0 00.258-.565.761.761 0 00-.258-.564.933.933 0 00-.624-.234zm39.633 0a.932.932 0 00-.624.234.761.761 0 00-.259.564c0 .212.093.415.259.564a.93.93 0 00.624.234.932.932 0 00.624-.233.762.762 0 00.258-.565.761.761 0 00-.258-.564.932.932 0 00-.624-.234zM7.504 23.201a.932.932 0 00-.624.234.761.761 0 00-.259.565c0 .211.093.414.259.564a.93.93 0 00.624.234.932.932 0 00.624-.234.761.761 0 00.259-.564.761.761 0 00-.259-.565.932.932 0 00-.624-.234zm44.037 0a.932.932 0 00-.625.234.761.761 0 00-.258.565c0 .211.093.414.258.564.166.15.39.234.625.234a.932.932 0 00.624-.234.761.761 0 00.258-.564.761.761 0 00-.258-.565.932.932 0 00-.624-.234zm-15.233 1.861c-3.466 0-5.524 2.6-5.524 7.061 0 4.49 2.037 7.09 5.524 7.09 3.475 0 5.503-2.591 5.503-7.07 0-4.47-2.059-7.08-5.503-7.08zm-14.735.002c-2.99 0-4.936 1.504-5.091 3.945h2.203c.125-1.328 1.191-2.142 2.816-2.142 1.624 0 2.69.824 2.69 2.077 0 1.271-1.108 2.15-2.711 2.15h-1.81v1.73h1.882c1.956 0 3.166.87 3.166 2.264 0 1.328-1.283 2.273-3.104 2.273-1.81 0-3.051-.832-3.196-2.142h-2.224c.135 2.413 2.286 3.993 5.42 3.993 3.114 0 5.473-1.72 5.473-4.012 0-1.804-1.241-3.065-3.28-3.28v-.16c1.645-.337 2.67-1.534 2.67-3.123 0-2.03-2.131-3.573-4.904-3.573zm14.735 1.832c2.007 0 3.165 1.842 3.165 5.227 0 3.423-1.138 5.257-3.165 5.257-2.028 0-3.187-1.843-3.187-5.257 0-3.376 1.18-5.227 3.187-5.227zm-30.16.347a.933.933 0 00-.625.234.761.761 0 00-.259.564c0 .212.093.415.259.565.165.15.39.233.624.233a.933.933 0 00.624-.233.761.761 0 00.259-.565.761.761 0 00-.259-.564.933.933 0 00-.624-.234zm46.75 0a.933.933 0 00-.625.234.762.762 0 00-.258.564c0 .212.093.415.258.565a.93.93 0 00.624.233.933.933 0 00.625-.233.761.761 0 00.258-.565.761.761 0 00-.258-.564.933.933 0 00-.625-.234zm-47.21 4.204a.932.932 0 00-.624.234.761.761 0 00-.258.564.76.76 0 00.258.564c.166.15.39.234.625.234a.932.932 0 00.624-.234.761.761 0 00.258-.564.761.761 0 00-.258-.564.932.932 0 00-.624-.234zm47.67 0a.932.932 0 00-.624.234.761.761 0 00-.259.564c0 .212.093.415.259.564a.93.93 0 00.624.234.932.932 0 00.624-.234.762.762 0 00.258-.564.761.761 0 00-.258-.564.932.932 0 00-.624-.234zM6.145 35.651a.933.933 0 00-.624.234.761.761 0 00-.258.564.76.76 0 00.258.564c.166.15.39.234.624.234a.932.932 0 00.625-.234.761.761 0 00.258-.564.761.761 0 00-.258-.564.933.933 0 00-.625-.234zm46.752 0a.933.933 0 00-.624.234.762.762 0 00-.258.564.76.76 0 00.258.564c.166.15.39.234.624.234a.932.932 0 00.625-.234.761.761 0 00.258-.564.761.761 0 00-.258-.564.933.933 0 00-.625-.234zM7.501 39.693a.932.932 0 00-.625.233.761.761 0 00-.258.565c0 .211.093.414.258.564.166.15.39.234.625.234a.932.932 0 00.624-.234.761.761 0 00.258-.564.761.761 0 00-.258-.565.932.932 0 00-.624-.233zm44.041 0a.932.932 0 00-.624.233.761.761 0 00-.258.565c0 .211.093.414.258.564.166.15.39.234.624.234a.932.932 0 00.624-.234.762.762 0 00.259-.564.761.761 0 00-.258-.565.933.933 0 00-.625-.233zm-41.84 3.725a.932.932 0 00-.624.234.761.761 0 00-.258.564.76.76 0 00.258.564c.166.15.39.234.624.234a.932.932 0 00.624-.234.761.761 0 00.26-.564.761.761 0 00-.26-.564.932.932 0 00-.624-.234zm39.637.002a.933.933 0 00-.624.233.761.761 0 00-.259.565c0 .211.093.414.259.564a.93.93 0 00.624.234.933.933 0 00.624-.234.762.762 0 00.258-.564.762.762 0 00-.258-.565.933.933 0 00-.624-.233zm-36.671 3.263a.932.932 0 00-.624.234.761.761 0 00-.259.564c0 .212.093.415.259.565a.93.93 0 00.624.234.932.932 0 00.624-.234.761.761 0 00.259-.565.761.761 0 00-.259-.564.932.932 0 00-.624-.234zm33.709 0a.932.932 0 00-.625.234.761.761 0 00-.258.564c0 .212.093.415.258.565.166.15.39.234.625.234a.932.932 0 00.624-.234.761.761 0 00.259-.565.761.761 0 00-.26-.564.932.932 0 00-.623-.234zm-30.099 2.68a.932.932 0 00-.624.234.762.762 0 00-.258.564c0 .212.092.415.258.564.166.15.39.234.624.234a.932.932 0 00.624-.234.761.761 0 00.259-.564.761.761 0 00-.259-.564.932.932 0 00-.624-.234zm26.483.001a.933.933 0 00-.624.234.761.761 0 00-.259.565c0 .211.093.414.259.564.166.15.39.234.624.234a.932.932 0 00.624-.234.762.762 0 00.259-.564.761.761 0 00-.259-.565.932.932 0 00-.624-.234zM20.4 51.354a.933.933 0 00-.624.235.762.762 0 00-.259.564c0 .212.093.415.259.564a.93.93 0 00.624.234.933.933 0 00.624-.234.762.762 0 00.259-.564.762.762 0 00-.259-.564.933.933 0 00-.624-.234zm18.243 0a.933.933 0 00-.624.235.761.761 0 00-.259.564c0 .212.093.415.259.564.166.15.39.234.624.234a.933.933 0 00.624-.234.762.762 0 00.259-.564.762.762 0 00-.259-.564.933.933 0 00-.624-.234zm-4.47 1.226a.932.932 0 00-.625.234.762.762 0 00-.258.564.76.76 0 00.258.564c.166.15.39.234.624.234a.933.933 0 00.625-.234.761.761 0 00.258-.564.762.762 0 00-.258-.564.933.933 0 00-.625-.234zm-9.3.002a.932.932 0 00-.625.233.761.761 0 00-.258.565c0 .211.093.414.258.564.166.15.39.234.624.234a.933.933 0 00.625-.234.762.762 0 00.258-.564.761.761 0 00-.258-.565.932.932 0 00-.625-.233zm4.651.413a.932.932 0 00-.624.233.762.762 0 00-.259.565c0 .211.093.414.259.564a.93.93 0 00.624.234.933.933 0 00.624-.234.761.761 0 00.259-.564.762.762 0 00-.259-.565.932.932 0 00-.624-.233z" fill="#F7C920"/></svg>