<svg width="58" height="38" fill="none" xmlns="http://www.w3.org/2000/svg"><path d="M2.719 0C1.179 0 0 1.177 0 2.714v25.334c0 1.537 1.179 2.714 2.719 2.714h.906v.905c0 1.537 1.179 2.714 2.719 2.714h.906v.905C7.25 36.823 8.429 38 9.969 38H55.28c1.541 0 2.72-1.177 2.72-2.714V9.952c0-1.537-1.179-2.714-2.719-2.714h-.906v-.905c0-1.537-1.179-2.714-2.719-2.714h-.906v-.905C50.75 1.177 49.571 0 48.031 0H2.72zm0 1.81H48.03c.545 0 .907.36.907.904v25.334c0 .544-.362.904-.907.904H2.72c-.545 0-.906-.36-.906-.904V2.714c0-.544.36-.904.906-.904zm10.875 1.809c-.545 0-.906.36-.906.905v1.81c0 .544.36.904.906.904.545 0 .906-.36.906-.905v-1.81c0-.543-.361-.904-.906-.904zm4.531 0c-.545 0-.906.36-.906.905v1.81c0 .544.36.904.906.904.545 0 .906-.36.906-.905v-1.81c0-.543-.36-.904-.906-.904zm4.531 0c-.545 0-.906.36-.906.905v1.898c-2.719 1.629-4.531 4.98-4.531 8.959 0 3.98 1.904 7.33 4.531 8.96v1.897c0 .544.361.905.906.905s.907-.36.907-.905v-1.177c.545.18 1.178.272 1.812.272.634 0 1.267-.092 1.813-.272v1.177c0 .544.36.905.906.905.545 0 .906-.36.906-.905V24.34c2.719-1.63 4.531-4.98 4.531-8.959 0-3.98-1.904-7.33-4.531-8.96V4.525c0-.544-.361-.905-.906-.905s-.907.36-.907.905V5.7a5.883 5.883 0 00-1.812-.272c-.634 0-1.267.091-1.813.272V4.524c0-.544-.36-.905-.906-.905zm9.969 0c-.545 0-.906.36-.906.905v1.81c0 .544.36.904.906.904.545 0 .906-.36.906-.905v-1.81c0-.543-.36-.904-.906-.904zm4.531 0c-.545 0-.906.36-.906.905v1.81c0 .544.361.904.906.904s.907-.36.907-.905v-1.81c0-.543-.362-.904-.907-.904zm-32.625.905c-.545 0-.906.36-.906.905 0 .544.361.904.906.904h4.532c.545 0 .906-.36.906-.904 0-.545-.361-.905-.906-.905H4.53zm37.157 0c-.546 0-.907.36-.907.905 0 .544.361.904.907.904h4.53c.546 0 .907-.36.907-.904 0-.545-.361-.905-.906-.905h-4.532zm9.062.905h.906c.545 0 .907.36.907.904v25.334c0 .544-.362.904-.907.904H6.344c-.545 0-.907-.36-.907-.904v-.905h42.594c1.54 0 2.719-1.177 2.719-2.714V5.428zM25.375 7.058c3.533 0 6.432 3.707 6.432 8.323 0 4.616-2.899 8.323-6.432 8.323-3.533 0-6.432-3.707-6.432-8.323 0-4.616 2.899-8.323 6.432-8.323zm29 1.99h.906c.545 0 .907.36.907.904v25.334c0 .544-.362.904-.907.904H9.97c-.545 0-.906-.36-.906-.904v-.905h42.593c1.54 0 2.719-1.177 2.719-2.714V9.047zM9.062 12.667a3.634 3.634 0 00-3.624 3.619 3.633 3.633 0 003.625 3.619 3.634 3.634 0 003.624-3.62 3.634 3.634 0 00-3.624-3.618zm32.626 0a3.634 3.634 0 00-3.626 3.619 3.634 3.634 0 003.626 3.619 3.634 3.634 0 003.624-3.62 3.634 3.634 0 00-3.624-3.618zM9.062 14.296a2.01 2.01 0 011.994 1.99 2.01 2.01 0 01-1.993 1.99 2.01 2.01 0 01-1.994-1.99 2.01 2.01 0 011.994-1.99zm32.626 0a2.01 2.01 0 011.992 1.99 2.01 2.01 0 01-1.992 1.99 2.01 2.01 0 01-1.994-1.99 2.01 2.01 0 011.993-1.99zm-28.094 9.228c-.545 0-.906.36-.906.905v1.81c0 .543.36.904.906.904.545 0 .906-.36.906-.905v-1.81c0-.544-.361-.904-.906-.904zm4.531 0c-.545 0-.906.36-.906.905v1.81c0 .543.36.904.906.904.545 0 .906-.36.906-.905v-1.81c0-.544-.36-.904-.906-.904zm14.5 0c-.545 0-.906.36-.906.905v1.81c0 .543.36.904.906.904.545 0 .906-.36.906-.905v-1.81c0-.544-.36-.904-.906-.904zm4.531 0c-.545 0-.906.36-.906.905v1.81c0 .543.361.904.906.904s.907-.36.907-.905v-1.81c0-.544-.362-.904-.907-.904zm-32.625.905c-.545 0-.906.36-.906.904 0 .545.361.905.906.905h4.532c.545 0 .906-.36.906-.905 0-.544-.361-.904-.906-.904H4.53zm37.157 0c-.546 0-.907.36-.907.904 0 .545.361.905.907.905h4.53c.546 0 .907-.36.907-.905 0-.544-.361-.904-.906-.904h-4.532z" fill="#FFC32A"/></svg>