<svg width="36" height="58" fill="none" xmlns="http://www.w3.org/2000/svg"><path d="M4.5 0C2.025 0 0 2.04 0 4.531V53.47C0 55.96 2.025 58 4.5 58h27c2.475 0 4.5-2.04 4.5-4.531V4.53C36 2.04 33.975 0 31.5 0h-27zm0 1.813h27c1.502 0 2.7 1.206 2.7 2.718V7.25H1.8V4.531a2.696 2.696 0 012.7-2.718zm6.252 1.812a.897.897 0 00-.636.265.91.91 0 000 1.282.897.897 0 001.273 0 .91.91 0 000-1.282.897.897 0 00-.636-.265zm3.648 0a.894.894 0 00-.843.556.912.912 0 00.495 1.191c.11.045.229.067.348.066h7.2a.894.894 0 00.843-.557.912.912 0 00-.495-1.19.894.894 0 00-.348-.066h-7.2zM1.8 9.063h32.4v38.062H1.8V9.062zm3.6 1.812a.897.897 0 00-.636.265.91.91 0 000 1.282.897.897 0 001.536-.64.91.91 0 00-.264-.642.897.897 0 00-.636-.265zm0 3.625a.897.897 0 00-.636.265.91.91 0 000 1.282.897.897 0 001.536-.64.91.91 0 00-.264-.642.897.897 0 00-.636-.265zm12.6.906c-4.96 0-9 4.069-9 9.063 0 1.4.563 2.986 1.347 4.71.783 1.723 1.81 3.553 2.835 5.237a97.075 97.075 0 004.094 6.162l.724.99.724-.99s2.046-2.793 4.094-6.162c1.024-1.684 2.052-3.514 2.835-5.237.784-1.724 1.347-3.31 1.347-4.71 0-4.994-4.04-9.063-9-9.063zm0 1.813c3.986 0 7.2 3.236 7.2 7.25 0 .852-.45 2.337-1.185 3.956-.735 1.618-1.733 3.399-2.733 5.044-1.64 2.696-2.742 4.189-3.282 4.942-.54-.753-1.642-2.246-3.282-4.942-1-1.645-1.998-3.426-2.733-5.044-.736-1.619-1.185-3.104-1.185-3.956 0-4.014 3.213-7.25 7.2-7.25zm-12.6.906a.897.897 0 00-.636.265.91.91 0 000 1.282.897.897 0 001.536-.64.91.91 0 00-.264-.642.897.897 0 00-.636-.265zm0 3.625a.897.897 0 00-.636.265.91.91 0 000 1.282.897.897 0 001.536-.64.91.91 0 00-.264-.642.897.897 0 00-.636-.265zm12.6 0c-1.48 0-2.7 1.228-2.7 2.719 0 1.49 1.22 2.718 2.7 2.718 1.48 0 2.7-1.228 2.7-2.718 0-1.491-1.22-2.719-2.7-2.719zm0 1.813c.508 0 .9.395.9.906a.89.89 0 01-.9.906.89.89 0 01-.9-.906.89.89 0 01.9-.907zM5.4 25.375a.897.897 0 00-.636.265.91.91 0 000 1.282.897.897 0 001.536-.64.91.91 0 00-.264-.642.897.897 0 00-.636-.265zM5.4 29a.897.897 0 00-.636.265.91.91 0 000 1.282.897.897 0 001.536-.64.91.91 0 00-.264-.642A.897.897 0 005.4 29zm0 3.625a.897.897 0 00-.636.265.91.91 0 000 1.282.897.897 0 001.536-.64.91.91 0 00-.264-.642.897.897 0 00-.636-.265zm0 3.625a.897.897 0 00-.636.265.91.91 0 000 1.282.897.897 0 001.536-.64.91.91 0 00-.264-.642.897.897 0 00-.636-.265zm0 3.625a.897.897 0 00-.636.265.91.91 0 000 1.282.897.897 0 001.536-.64.91.91 0 00-.264-.642.897.897 0 00-.636-.265zm0 3.625a.897.897 0 00-.636.265.91.91 0 000 1.282.897.897 0 001.536-.64.91.91 0 00-.264-.642.897.897 0 00-.636-.265zm-3.6 5.438h32.4v4.53a2.696 2.696 0 01-2.7 2.72h-27a2.696 2.696 0 01-2.7-2.72v-4.53zM18 50.75c-.477 0-.935.191-1.273.53a1.819 1.819 0 000 2.564 1.794 1.794 0 002.546 0 1.819 1.819 0 000-2.563A1.794 1.794 0 0018 50.75z" fill="#FFC32A"/></svg>