<svg width="65" height="57" fill="none" xmlns="http://www.w3.org/2000/svg"><path d="M32.277.632c-2.594.038-5.2.357-7.771.962-3.676.867-7.077 2.278-10.1 4.147L9.57 1.49 6.672 13.38l13.526-2.547-4.399-3.867a31.982 31.982 0 019.207-3.731c7.727-1.82 15.8-.886 22.727 2.63 11.882 6.031 17.275 18.188 14.027 29.34.2.032 1.847.518 1.847.518a24.608 24.608 0 001.027-7.005c0-9.695-5.717-19.137-15.934-24.324C43.629 1.821 37.983.548 32.277.632zm.481 4.255c-.256 0-.502.09-.683.249a.8.8 0 00-.283.6.8.8 0 00.283.601c.181.16.427.249.683.249.256 0 .502-.09.683-.249a.8.8 0 00.283-.6.8.8 0 00-.283-.601 1.038 1.038 0 00-.683-.249zm-5.091.441c-.256 0-.502.09-.683.25a.8.8 0 00-.283.6.8.8 0 00.283.6c.18.16.427.25.683.25.256 0 .502-.09.683-.25a.8.8 0 00.283-.6.8.8 0 00-.283-.6 1.038 1.038 0 00-.683-.25zm10.178 0c-.256 0-.502.09-.683.25a.8.8 0 00-.283.6.8.8 0 00.283.6c.181.16.427.25.683.25.257 0 .502-.09.684-.25a.8.8 0 00.283-.6.8.8 0 00-.283-.6 1.037 1.037 0 00-.684-.25zM22.774 6.632c-.257 0-.502.09-.684.25a.801.801 0 00-.282.6.8.8 0 00.282.6c.182.16.427.25.684.25.256 0 .502-.09.683-.25a.8.8 0 00.283-.6.8.8 0 00-.283-.6 1.037 1.037 0 00-.683-.25zm19.965 0c-.257 0-.502.09-.684.25a.8.8 0 00-.283.6.8.8 0 00.283.6c.181.16.427.25.684.25.256 0 .502-.09.683-.25a.8.8 0 00.283-.6.8.8 0 00-.283-.6 1.038 1.038 0 00-.683-.25zm4.51 2.12c-.257 0-.503.09-.684.25a.8.8 0 00-.283.6.8.8 0 00.283.6c.181.16.427.25.684.25.256 0 .502-.09.683-.25a.8.8 0 00.283-.6.8.8 0 00-.283-.6 1.038 1.038 0 00-.684-.25zm3.955 2.852c-.257 0-.502.09-.684.249a.801.801 0 00-.282.6.8.8 0 00.282.601c.182.16.427.249.684.249.256 0 .502-.09.683-.249a.8.8 0 00.283-.6.8.8 0 00-.283-.601 1.037 1.037 0 00-.683-.249zM30.322 14.23l-1.38 3.031c-2.097.535-4.012 1.505-5.587 2.832l-3.669-.465-2.394 3.643 2.293 2.563a10.49 10.49 0 00-.397 2.836c0 .943.133 1.894.397 2.835l-2.293 2.563 2.394 3.643 3.67-.465c1.576 1.327 3.489 2.298 5.586 2.832l1.378 3.03h4.785l1.38-3.03c2.097-.534 4.01-1.503 5.586-2.83l3.67.464 2.394-3.644-2.292-2.562c.263-.94.398-1.893.398-2.836 0-.944-.135-1.895-.398-2.836l2.292-2.563-2.394-3.643-3.67.465c-1.575-1.327-3.489-2.298-5.586-2.832l-1.378-3.03h-4.785zm24.124.85c-.257 0-.502.09-.683.248a.8.8 0 00-.283.601c0 .225.101.441.283.6.18.16.426.25.683.25.256 0 .502-.09.683-.25a.801.801 0 00.283-.6.8.8 0 00-.283-.6 1.037 1.037 0 00-.683-.25zm-22.816.849h2.17l1.255 2.76.479.105c2.1.461 4.001 1.427 5.502 2.79l.344.312 3.342-.423 1.085 1.652-2.087 2.333.134.418c.301.926.455 1.865.455 2.794a9.03 9.03 0 01-.455 2.793l-.134.418 2.087 2.333-1.085 1.652-3.342-.423-.344.312c-1.502 1.363-3.403 2.329-5.502 2.79l-.48.105-1.254 2.76h-2.17l-1.257-2.76-.478-.105c-2.1-.461-4.003-1.427-5.504-2.79l-.343-.312-3.342.423-1.085-1.652 2.087-2.333-.134-.418a9.013 9.013 0 01-.453-2.793c0-.929.151-1.868.453-2.794l.134-.418-2.087-2.333 1.085-1.652 3.341.423.344-.312c1.502-1.363 3.405-2.329 5.504-2.79l.478-.105 1.257-2.76zm25.225 3.115c-.256 0-.502.09-.683.25a.8.8 0 00-.283.6.8.8 0 00.283.6c.181.16.427.25.683.25.257 0 .502-.09.684-.25a.801.801 0 00.282-.6.801.801 0 00-.282-.6 1.038 1.038 0 00-.684-.25zm-55.02 2.75a24.63 24.63 0 00-.968 6.816c0 9.695 5.717 19.135 15.934 24.321 7.376 3.744 15.968 4.738 24.194 2.8 3.83-.902 7.363-2.394 10.479-4.382l4.474 3.933 2.898-11.891-13.526 2.548 4.77 4.194c-2.865 1.789-6.1 3.134-9.595 3.958-7.727 1.82-15.8.886-22.728-2.631C5.91 45.44.515 33.32 3.722 22.186a19.737 19.737 0 01-1.887-.391zm30.88.08c-4.262 0-7.73 3.049-7.73 6.796 0 3.746 3.468 6.794 7.73 6.794 4.261 0 7.729-3.048 7.729-6.794 0-3.747-3.468-6.795-7.73-6.795zm-25.54.905c-.256 0-.501.09-.683.248a.8.8 0 00-.283.601.8.8 0 00.283.6c.182.16.427.25.684.25.256 0 .502-.09.683-.25a.801.801 0 00.283-.6.8.8 0 00-.283-.6 1.037 1.037 0 00-.683-.25zm51.166.567c-.257 0-.502.09-.684.249a.8.8 0 00-.283.6.8.8 0 00.283.601c.182.16.427.249.684.249.256 0 .502-.09.683-.249a.8.8 0 00.283-.6.8.8 0 00-.283-.601 1.037 1.037 0 00-.684-.249zm-25.626.227c3.197 0 5.797 2.286 5.797 5.097 0 2.81-2.6 5.096-5.797 5.096-3.197 0-5.797-2.286-5.797-5.096 0-2.811 2.6-5.097 5.797-5.097zM6.672 27.254c-.257 0-.502.09-.683.25a.8.8 0 00-.283.6c0 .225.101.441.283.6.18.16.426.25.683.25.256 0 .502-.09.683-.25a.801.801 0 00.283-.6.8.8 0 00-.283-.6 1.037 1.037 0 00-.683-.25zm52.172.566c-.256 0-.502.09-.683.249a.8.8 0 00-.283.6.8.8 0 00.283.601c.181.16.427.249.683.249.256 0 .502-.09.684-.249a.801.801 0 00.282-.6.8.8 0 00-.282-.601 1.038 1.038 0 00-.684-.249zM7.172 31.73c-.256 0-.502.09-.683.248a.8.8 0 00-.283.601.8.8 0 00.283.6c.18.16.427.25.683.25.256 0 .502-.09.683-.25a.8.8 0 00.283-.6.8.8 0 00-.283-.6 1.037 1.037 0 00-.683-.25zm51.169.565c-.257 0-.502.09-.684.25a.8.8 0 00-.283.6.8.8 0 00.283.6c.182.16.427.25.684.25.256 0 .502-.09.683-.25a.8.8 0 00.283-.6.8.8 0 00-.283-.6 1.037 1.037 0 00-.684-.25zM8.654 36.596c-.256 0-.502.09-.683.249a.8.8 0 00-.283.6.8.8 0 00.283.6c.181.16.427.25.683.25.256 0 .502-.09.683-.25a.8.8 0 00.283-.6.8.8 0 00-.283-.6 1.037 1.037 0 00-.683-.25zm2.41 3.965c-.256 0-.502.09-.683.248a.801.801 0 00-.284.601.8.8 0 00.284.6c.18.16.427.25.683.25.256 0 .502-.09.683-.25a.8.8 0 00.283-.6.801.801 0 00-.283-.6 1.038 1.038 0 00-.683-.25zm3.245 3.475c-.256 0-.502.09-.683.249a.8.8 0 00-.283.6.8.8 0 00.283.601c.181.16.427.249.683.249.257 0 .502-.09.684-.249a.8.8 0 00.283-.6.8.8 0 00-.283-.601 1.038 1.038 0 00-.684-.249zm3.952 2.852c-.256 0-.502.09-.683.249a.8.8 0 00-.283.6.8.8 0 00.283.6c.18.16.427.25.683.25.256 0 .502-.09.683-.25a.8.8 0 00.283-.6.8.8 0 00-.283-.6 1.037 1.037 0 00-.683-.25zm4.51 2.12c-.256 0-.502.09-.683.249a.8.8 0 00-.283.6.8.8 0 00.283.601c.18.16.427.249.683.249.256 0 .502-.09.683-.249a.8.8 0 00.283-.6.8.8 0 00-.283-.601 1.037 1.037 0 00-.683-.249zm19.967 0c-.257 0-.502.09-.684.249a.8.8 0 00-.283.6.8.8 0 00.283.601c.181.16.427.249.684.249.256 0 .502-.09.683-.249a.8.8 0 00.283-.6.8.8 0 00-.283-.601 1.038 1.038 0 00-.683-.249zm-4.894 1.304c-.256 0-.502.09-.683.249a.801.801 0 00-.283.6.8.8 0 00.283.6c.181.16.427.25.683.25.257 0 .502-.09.684-.25a.8.8 0 00.283-.6.801.801 0 00-.283-.6 1.038 1.038 0 00-.684-.249zm-10.178.002c-.256 0-.502.09-.683.248a.8.8 0 00-.283.601.8.8 0 00.283.6c.18.16.427.25.683.25.256 0 .502-.09.683-.25a.8.8 0 00.283-.6.8.8 0 00-.283-.6 1.038 1.038 0 00-.683-.25zm5.091.44c-.256 0-.502.089-.683.248a.8.8 0 00-.283.6.8.8 0 00.283.601c.181.16.427.249.683.249.256 0 .502-.09.683-.249a.8.8 0 00.283-.6.8.8 0 00-.283-.601 1.038 1.038 0 00-.683-.249z" fill="#F7C920"/></svg>