<svg width="59" height="51" fill="none" xmlns="http://www.w3.org/2000/svg"><path d="M29.472.232L.887 9.05v6.275l1.125-.314.607-.17v35.964h53.705V14.84l1.733.485V9.05L29.472.232zm0 1.643l26.852 8.284v3.051L29.472 5.681l-26.853 7.53v-3.053l26.853-8.283zm0 5.434l25.12 7.045V49.25H4.352V14.355l25.12-7.046zm0 6.182a.908.908 0 00-.477.132c-.052.024-.096.062-.14.093-.58.412-2.146 1.33-3.36 1.33-1.454 0-2.537-.357-3.386-1.111-.017-.024-.044-.04-.07-.063a.91.91 0 00-.571-.194.892.892 0 00-.606.225c-.009 0-.008.007-.008.007l-3.986 3.577c-.009 0-.009.008-.009.008a.73.73 0 00-.25.544c0 .163.052.31.147.435.009.008.008.015.017.023.944 1.15 1.438 2.512 1.438 3.934v.093c-.009.443-.13.886-.347 1.283a10.757 10.757 0 00-1.047 2.596c-.225.84-.338 1.726-.338 2.636 0 7.937 11.39 12.648 12.576 13.122.026.008.052.023.078.03a.963.963 0 00.677 0c.026-.007.052-.022.078-.03 1.187-.474 12.577-5.185 12.577-13.122 0-.91-.113-1.797-.339-2.636a10.76 10.76 0 00-1.047-2.596 2.804 2.804 0 01-.346-1.283v-.093c0-1.422.493-2.783 1.438-3.934 0-.008.008-.015.016-.023a.722.722 0 00-.07-.949l-.077-.07-3.95-3.545c0-.008-.009-.007-.009-.007a.908.908 0 00-.605-.225.876.876 0 00-.572.194.253.253 0 00-.07.063c-.848.754-1.931 1.111-3.387 1.111-1.204 0-2.77-.918-3.36-1.33l-.13-.093a.916.916 0 00-.485-.132zm0 1.75c.823.512 2.425 1.36 3.975 1.36 1.603 0 2.91-.358 3.985-1.081l2.92 2.62A7.525 7.525 0 0039 22.431v.117c.009.676.199 1.352.536 1.959.399.707.703 1.461.91 2.254a8.96 8.96 0 01.287 2.278c0 6.46-9.347 10.767-11.261 11.583-1.923-.816-11.261-5.108-11.261-11.583 0-.785.095-1.555.286-2.278a9.48 9.48 0 01.91-2.254 4.155 4.155 0 00.536-1.959v-.117a7.524 7.524 0 00-1.351-4.29l2.92-2.621c1.074.723 2.381 1.08 3.984 1.08 1.55 0 3.153-.847 3.976-1.36zm0 3.68l-.792 1.592-2.059 4.15-6.969.66 5.204 4.21-1.453 6.148 6.069-3.14 6.068 3.14-1.453-6.149 5.204-4.209-6.969-.66-2.85-5.742zm0 3.82l1.675 3.373 4.096.39-3.058 2.473.855 3.616-3.568-1.846-3.568 1.848.854-3.618-3.057-2.474 4.096-.389 1.675-3.373zM6.95 45.364a.92.92 0 00-.612.227.74.74 0 00-.254.55.74.74 0 00.254.55.919.919 0 00.612.227.92.92 0 00.613-.227.74.74 0 00.253-.55.74.74 0 00-.253-.55.919.919 0 00-.613-.227zm3.465 0a.92.92 0 00-.612.227.74.74 0 00-.254.55.74.74 0 00.254.55.919.919 0 00.612.227.92.92 0 00.613-.227.74.74 0 00.253-.55.74.74 0 00-.253-.55.919.919 0 00-.613-.227zm3.465 0c-.23 0-.45.082-.613.227a.74.74 0 00-.253.55.74.74 0 00.253.55.919.919 0 00.613.227c.23 0 .45-.081.612-.227a.74.74 0 00.254-.55.74.74 0 00-.254-.55.919.919 0 00-.612-.227zm3.465 0c-.23 0-.45.082-.613.227a.74.74 0 00-.253.55.74.74 0 00.253.55.919.919 0 00.613.227.92.92 0 00.612-.227.74.74 0 00.254-.55.74.74 0 00-.254-.55.92.92 0 00-.612-.227zm3.465 0c-.23 0-.45.082-.613.227a.74.74 0 00-.254.55.74.74 0 00.254.55.919.919 0 00.613.227c.23 0 .45-.081.612-.227a.74.74 0 00.254-.55.74.74 0 00-.254-.55.919.919 0 00-.612-.227zm3.464 0a.92.92 0 00-.612.227.74.74 0 00-.254.55.74.74 0 00.254.55.919.919 0 00.612.227.92.92 0 00.613-.227.74.74 0 00.254-.55.74.74 0 00-.254-.55.919.919 0 00-.613-.227zm3.465 0a.92.92 0 00-.612.227.74.74 0 00-.254.55.74.74 0 00.254.55.919.919 0 00.612.227.92.92 0 00.613-.227.74.74 0 00.253-.55.74.74 0 00-.253-.55.919.919 0 00-.613-.227zm3.465 0a.92.92 0 00-.612.227.74.74 0 00-.254.55.74.74 0 00.254.55.919.919 0 00.612.227.92.92 0 00.613-.227.74.74 0 00.253-.55.74.74 0 00-.253-.55.919.919 0 00-.613-.227zm3.465 0a.92.92 0 00-.612.227.74.74 0 00-.254.55.74.74 0 00.254.55.919.919 0 00.612.227.92.92 0 00.613-.227.74.74 0 00.253-.55.74.74 0 00-.253-.55.919.919 0 00-.613-.227zm3.465 0c-.23 0-.45.082-.613.227a.74.74 0 00-.253.55.74.74 0 00.253.55.919.919 0 00.613.227c.23 0 .45-.081.612-.227a.74.74 0 00.254-.55.74.74 0 00-.254-.55.919.919 0 00-.612-.227zm3.465 0c-.23 0-.45.082-.613.227a.74.74 0 00-.253.55.74.74 0 00.253.55.919.919 0 00.613.227c.23 0 .45-.081.612-.227a.74.74 0 00.254-.55.74.74 0 00-.254-.55.919.919 0 00-.612-.227zm3.465 0c-.23 0-.45.082-.613.227a.74.74 0 00-.254.55.74.74 0 00.254.55.919.919 0 00.612.227.92.92 0 00.613-.227.74.74 0 00.254-.55.74.74 0 00-.254-.55.919.919 0 00-.613-.227zm3.464 0a.92.92 0 00-.612.227.74.74 0 00-.254.55.74.74 0 00.254.55.919.919 0 00.612.227.92.92 0 00.613-.227.74.74 0 00.254-.55.74.74 0 00-.254-.55.919.919 0 00-.613-.227zm3.465 0a.92.92 0 00-.612.227.74.74 0 00-.254.55.74.74 0 00.254.55.919.919 0 00.612.227.92.92 0 00.613-.227.74.74 0 00.253-.55.74.74 0 00-.253-.55.919.919 0 00-.613-.227z" fill="#F7C920"/></svg>