<svg width="59" height="59" fill="none" xmlns="http://www.w3.org/2000/svg"><path d="M29.183.529C13.103.529.048 13.584.048 29.663c0 16.08 13.056 29.135 29.135 29.135 16.078 0 29.134-13.056 29.134-29.135S45.261.53 29.183.53zm0 1.82c15.097 0 27.313 12.217 27.313 27.314 0 15.098-12.216 27.314-27.313 27.314-15.098 0-27.314-12.216-27.314-27.314 0-15.097 12.216-27.314 27.314-27.314zm0 2.732a.912.912 0 00-.91.91.91.91 0 001.82 0 .912.912 0 00-.91-.91zm-3.12.203a.41.41 0 00-.092.01.903.903 0 00-.786.953c0 .025 0 .047.004.068a.905.905 0 00.348.601c.192.15.434.213.672.181a.905.905 0 00.605-.348.91.91 0 00-.75-1.465zm6.175 0a.91.91 0 00-.082 1.814.912.912 0 001.02-.783.91.91 0 00-.785-1.02 1.105 1.105 0 00-.153-.011zm-9.148.604a.867.867 0 00-.27.032.91.91 0 10.27-.032zm12.21.004a.91.91 0 00-.228 1.789.915.915 0 001.117-.648.908.908 0 00-.89-1.141zm-15.169.992a.91.91 0 00-.85 1.255.913.913 0 001.192.495.92.92 0 00.49-.491.92.92 0 000-.7.902.902 0 00-.832-.559zm18.128 0a.902.902 0 00-.857.558.907.907 0 00.49 1.192.913.913 0 001.192-.495.91.91 0 00-.825-1.255zm-20.934 1.37a.912.912 0 00-.768 1.366c.121.205.32.358.555.422a.89.89 0 00.69-.092.883.883 0 00.423-.552.883.883 0 00-.092-.69.89.89 0 00-.808-.455zm23.65 0a.908.908 0 00-.413 1.696.907.907 0 001.242-.331.887.887 0 00.093-.69.908.908 0 00-.921-.676zM14.786 9.97c-.02 0-.042 0-.063.004a.895.895 0 00-.505.184.911.911 0 001.11 1.444.907.907 0 00.167-1.273.898.898 0 00-.708-.359zm28.794 0a.911.911 0 10.736 1.465.91.91 0 00-.736-1.465zm-18.454.078l-.822.207a20.024 20.024 0 00-12.07 8.766l-.449.715 5.698 4.207 4.645 1.512.387-.544a8.23 8.23 0 014.211-3.07l.637-.199V16.77l-2.237-6.722zm8.115 0l-2.237 6.722v4.872l.64.203a8.216 8.216 0 014.208 3.066l.388.544 4.644-1.508 5.698-4.21-.448-.716a20.038 20.038 0 00-12.07-8.766l-.823-.207zm-20.784 1.963a.913.913 0 10.633 1.558.921.921 0 000-1.29.922.922 0 00-.633-.268zm33.478 0a.943.943 0 00-.658.267.921.921 0 000 1.291.921.921 0 001.29 0 .921.921 0 000-1.29.922.922 0 00-.632-.268zm-21.98.292l1.587 4.759v3.368a9.936 9.936 0 00-4.008 2.916l-3.205-1.039-4.04-2.983a18.137 18.137 0 019.666-7.02zm10.457 0a18.137 18.137 0 019.666 7.02l-4.04 2.984-3.204 1.039a9.96 9.96 0 00-4.009-2.916v-3.368l1.587-4.759zm13.564 2.034c-.021 0-.043 0-.06.004a.912.912 0 10.06-.004zm-37.585.004a.912.912 0 00-.711.356.911.911 0 10.711-.356zm39.27 2.575a.912.912 0 00-.768 1.366c.122.206.32.359.555.423.232.064.48.032.69-.093a.883.883 0 00.424-.551.883.883 0 00-.093-.69.908.908 0 00-.807-.455zm-41.02 0a.928.928 0 00-.747.455.905.905 0 00.335 1.241.883.883 0 00.69.093.883.883 0 00.551-.424.907.907 0 00-.33-1.24.92.92 0 00-.499-.125zM51.06 19.69a.916.916 0 00-.847 1.262.91.91 0 001.682-.697.91.91 0 00-.835-.565zm-43.727.004a.91.91 0 00-.37 1.75.907.907 0 001.191-.492.913.913 0 00-.821-1.258zm-1.025 2.93a.908.908 0 00-.868.68.908.908 0 101.757.469.904.904 0 00-.643-1.113.803.803 0 00-.246-.036zm45.75 0c-.024 0-.045.003-.067.003a.78.78 0 00-.178.033.91.91 0 101.113.644.908.908 0 00-.867-.68zM26.196 24a1.364 1.364 0 00-.345 2.66 1.365 1.365 0 10.345-2.66zm6.174.2a1.366 1.366 0 100 2.732 1.366 1.366 0 000-2.732zm20.254 1.465a.909.909 0 00-.878.964c0 .02 0 .042.003.064l.015.088c.007.029.017.061.025.09a.91.91 0 00.981.604.892.892 0 00.605-.348.907.907 0 00-.75-1.462zm-46.945 0a.91.91 0 10.153.007c-.05-.007-.103-.01-.153-.007zm10.676 1.746l-7.077.053-.057.843c-.028.416-.068.868-.068 1.355 0 4.883 1.757 9.365 4.663 12.843l.544.644 5.772-4.126 2.874-3.955-.398-.537a8.127 8.127 0 01-1.619-4.869c0 .05 0 .032.004-.057l.025-.683-4.663-1.511zm25.657 0l-4.663 1.512.025.682c.004.09.004.107.004.057a8.127 8.127 0 01-1.619 4.87l-.398.536 2.874 3.955 5.772 4.126.54-.644a19.96 19.96 0 004.667-12.843c0-.487-.04-.939-.068-1.355l-.057-.843-7.077-.053zm-36.5 1.34a.915.915 0 00-.91.847v.064a.91.91 0 001.82 0 .912.912 0 00-.91-.91zm47.343 0a.915.915 0 00-.91.847v.064a.911.911 0 001.821 0 .912.912 0 00-.91-.91zm-36.777.48l3.19 1.04a9.879 9.879 0 001.544 4.715l-1.981 2.728-4.101 2.93c-2.33-3.058-3.756-6.835-3.756-10.982 0-.12.015-.263.018-.39l5.086-.04zm26.211 0l5.086.04c.003.128.018.27.018.391 0 4.147-1.426 7.924-3.756 10.983l-4.1-2.93-1.985-2.729a9.845 9.845 0 001.547-4.716l3.19-1.038zm-18.152.51c-.416.017-.8.224-1.046.561a1.368 1.368 0 00.303 1.907c.608.444 1.465.31 1.906-.299a1.369 1.369 0 00-.299-1.91 1.371 1.371 0 00-.864-.26zm9.908.32a1.366 1.366 0 10.037 2.732 1.366 1.366 0 00-.037-2.732zM5.681 31.843a.91.91 0 10.062 1.82.91.91 0 00-.062-1.82zm46.935.004a.916.916 0 00-.868.79.918.918 0 00.783 1.024.935.935 0 00.676-.182.91.91 0 00-.438-1.625c-.05-.007-.1-.01-.153-.007zm-23.643 1.64a1.365 1.365 0 10.843 2.468 1.366 1.366 0 00.302-1.91 1.367 1.367 0 00-1.145-.559zM6.325 34.88c-.021-.004-.043 0-.064 0a.817.817 0 00-.181.032.905.905 0 00-.64 1.113.91.91 0 10.886-1.145zm45.715 0a.913.913 0 00-.227 1.792.91.91 0 001.113-.647.908.908 0 00-.886-1.145zm-19.62 2.337l-.633.21a8.106 8.106 0 01-5.207.004l-.633-.214-2.87 3.948-2.14 6.764.782.313a19.964 19.964 0 007.465 1.451c2.639 0 5.157-.526 7.465-1.45l.782-.317-2.141-6.761-2.87-3.948zm-25.102.594a.866.866 0 00-.352.071.903.903 0 00-.49 1.188.908.908 0 001.187.495.913.913 0 00.495-1.192.92.92 0 00-.84-.562zm43.756 0a.906.906 0 00-.861.562.913.913 0 00.494 1.192.91.91 0 001.188-.495.91.91 0 00-.821-1.259zM31.658 39.27l1.984 2.728 1.515 4.794c-1.877.662-3.869 1.082-5.974 1.082-2.106 0-4.098-.42-5.979-1.082l1.519-4.794 1.98-2.728c.8.21 1.612.41 2.48.41.867 0 1.675-.2 2.475-.41zm-23 1.32a.91.91 0 10.48 1.696.908.908 0 00.331-1.241.9.9 0 00-.81-.455zm40.981 0a.928.928 0 00-.746.455.912.912 0 00.334 1.245.905.905 0 001.241-.334.883.883 0 00.093-.69.883.883 0 00-.424-.552.904.904 0 00-.498-.124zm-1.692 2.571a.91.91 0 00-.708.356.912.912 0 001.447 1.11.909.909 0 00-.17-1.277.906.906 0 00-.57-.189zm-37.593.004a.895.895 0 00-.504.185.911.911 0 10.505-.185zm2.102 2.33a.924.924 0 00-.657.262.921.921 0 000 1.291.921.921 0 001.29 0 .921.921 0 000-1.29.903.903 0 00-.633-.264zm33.478 0a.924.924 0 00-.658.262.921.921 0 000 1.291.921.921 0 001.29 0 .921.921 0 000-1.29.902.902 0 00-.632-.264zm-2.326 2.037c-.022-.003-.043 0-.06 0a.933.933 0 00-.51.185.916.916 0 00-.166 1.28.912.912 0 001.447-1.11.912.912 0 00-.711-.355zm-28.85 0a.91.91 0 00-.541 1.633.915.915 0 001.28-.168.913.913 0 00-.74-1.465zm26.236 1.721a.918.918 0 00-.857.676.911.911 0 001.337 1.02.91.91 0 00-.48-1.696zm-23.69.004a.916.916 0 00-.747.452.912.912 0 00.334 1.244.905.905 0 001.242-.334.908.908 0 00-.83-1.362zm20.944 1.366a.98.98 0 00-.178.014 1.58 1.58 0 00-.178.053.92.92 0 00-.554.953c.007.032.01.06.017.09a.905.905 0 001.234.64.908.908 0 00-.341-1.75zm-18.102 0a.918.918 0 00-.865.565.911.911 0 00.495 1.184.903.903 0 001.188-.49.908.908 0 00-.819-1.26zm2.902.995a.917.917 0 00-.875.68.913.913 0 00.647 1.113.908.908 0 001.113-.644.904.904 0 00-.643-1.113.797.797 0 00-.242-.036zm12.294 0a.91.91 0 00-.49 1.7c.21.121.458.157.69.093a.908.908 0 00.644-1.117.915.915 0 00-.844-.676zm-3.1.609c-.03 0-.061 0-.09.003a.907.907 0 00-.782 1.024.907.907 0 001.02.783.907.907 0 00.605-.349.926.926 0 00.181-.672.913.913 0 00-.935-.79zm-6.19 0a.91.91 0 10.157.007c-.05-.007-.103-.011-.156-.007zm3.13.199a.912.912 0 00-.91.91.912.912 0 001.821 0 .912.912 0 00-.91-.91z" fill="#F7C920"/></svg>