<svg width="55" height="49" fill="none" xmlns="http://www.w3.org/2000/svg"><path d="M27.777.82C12.894.82.815 13.6.815 29.348c0 7.04 2.417 13.487 6.413 18.46l.231.287h40.635l.231-.287c3.996-4.973 6.413-11.42 6.413-18.46C54.738 13.6 42.659.82 27.777.82zm0 1.63c14.049 0 25.42 12.032 25.42 26.898 0 6.517-2.212 12.462-5.852 17.117H36.25c0-.45-.346-.815-.77-.815-.424 0-.77.366-.77.815H20.843c0-.45-.346-.815-.77-.815-.425 0-.77.366-.77.815H8.208c-3.641-4.655-5.853-10.6-5.853-17.117 0-14.866 11.371-26.898 25.42-26.898zm0 2.445c-.425 0-.77.366-.77.815 0 .45.345.815.77.815.424 0 .77-.366.77-.815 0-.449-.346-.815-.77-.815zm-3.018.21c-.422.058-.717.468-.663.914.055.446.443.761.864.7.424-.057.72-.467.662-.913-.054-.446-.44-.758-.863-.7zm6.036 0c-.425-.057-.81.255-.864.7-.057.447.238.857.662.915.421.06.81-.255.864-.7.054-.447-.241-.857-.662-.915zm-8.697.605a.706.706 0 00-.303.016c-.41.118-.656.564-.545 1 .111.436.533.694.945.576.412-.117.656-.563.544-.996a.78.78 0 00-.64-.596zm11.357 0a.78.78 0 00-.641.596c-.111.433.135.879.544.996.41.118.834-.143.945-.576.112-.433-.135-.882-.544-1a.706.706 0 00-.304-.016zm-14.224.984c-.1 0-.199.02-.298.06-.394.176-.58.653-.415 1.07.162.414.61.612 1.005.44.394-.172.58-.65.418-1.067a.778.778 0 00-.71-.503zm17.091 0a.778.778 0 00-.71.503c-.162.417.024.895.419 1.067.394.172.842-.026 1.005-.44.165-.417-.022-.894-.416-1.07a.767.767 0 00-.298-.06zM16.511 8.066a.796.796 0 00-.29.106.842.842 0 00-.279 1.114.745.745 0 001.05.296c.367-.223.494-.723.28-1.111a.755.755 0 00-.761-.405zm22.532 0a.755.755 0 00-.762.405c-.213.388-.087.888.28 1.111a.745.745 0 001.05-.296.842.842 0 00-.28-1.114.796.796 0 00-.288-.106zm-11.266.09c-.425 0-.77.366-.77.815 0 .449.345.815.77.815.424 0 .77-.366.77-.815 0-.45-.346-.815-.77-.815zm-13.499 1.63a.753.753 0 00-.572.162.848.848 0 00-.141 1.143.744.744 0 001.08.15.844.844 0 00.145-1.14.767.767 0 00-.512-.315zm26.997 0a.767.767 0 00-.511.315.845.845 0 00.144 1.14.744.744 0 001.08-.15.848.848 0 00-.141-1.143.753.753 0 00-.572-.162zm-23.224 1.108a.733.733 0 00-.288.102c-.368.223-.494.722-.28 1.11a.744.744 0 001.05.3.842.842 0 00.28-1.114.75.75 0 00-.762-.398zm19.45 0a.75.75 0 00-.76.398.842.842 0 00.28 1.114.743.743 0 001.05-.3c.213-.388.087-.887-.28-1.11a.734.734 0 00-.29-.102zm-25.519.926a.748.748 0 00-.548.236c-.3.322-.3.837 0 1.156a.746.746 0 001.093 0c.3-.322.3-.838 0-1.156a.75.75 0 00-.545-.236zm31.59 0a.75.75 0 00-.545.236.853.853 0 000 1.156.744.744 0 001.092 0 .856.856 0 000-1.156.747.747 0 00-.548-.236zM9.95 14.151a.752.752 0 00-.509.309.85.85 0 00.145 1.146.74.74 0 001.077-.153.848.848 0 00-.141-1.143.735.735 0 00-.572-.159zm35.648 0a.728.728 0 00-.568.16.845.845 0 00-.142 1.142c.259.36.74.427 1.077.153a.845.845 0 00.145-1.143.767.767 0 00-.512-.312zm-5.837 2.515s-7.303 6.38-10.96 9.625a2.842 2.842 0 00-1.025-.203c-1.695 0-3.082 1.467-3.082 3.26 0 1.793 1.387 3.26 3.082 3.26 1.694 0 3.08-1.467 3.08-3.26a3.31 3.31 0 00-.192-1.086c3.067-3.868 9.097-11.596 9.097-11.596zm-31.237.054a.757.757 0 00-.762.402c-.213.388-.087.888.283 1.11a.745.745 0 001.05-.295c.214-.389.088-.889-.28-1.111a.739.739 0 00-.291-.106zm38.504 0a.739.739 0 00-.292.106c-.367.222-.494.722-.28 1.11a.745.745 0 001.05.297c.37-.223.497-.723.283-1.111a.757.757 0 00-.761-.402zm-35.835 1.63a.755.755 0 00-.762.402c-.213.388-.087.888.28 1.111.37.226.84.092 1.053-.296.214-.389.088-.889-.282-1.111a.708.708 0 00-.29-.105zm33.166 0a.708.708 0 00-.29.106c-.37.223-.496.722-.282 1.11a.748.748 0 001.053.297c.367-.223.493-.723.28-1.111a.757.757 0 00-.761-.401zM7.134 19.488a.778.778 0 00-.71.503c-.162.417.024.892.419 1.067.394.172.842-.025 1.005-.443.165-.417-.021-.891-.416-1.063a.719.719 0 00-.298-.064zm41.285 0c-.1 0-.202.02-.301.064-.391.172-.578.646-.415 1.063.162.418.613.615 1.008.443.394-.175.58-.65.418-1.067a.778.778 0 00-.71-.503zM6.093 22.423a.793.793 0 00-.64.595c-.109.433.135.882.547 1 .41.118.83-.143.942-.576.111-.433-.136-.882-.545-1a.704.704 0 00-.304-.02zm43.37 0a.718.718 0 00-.307.019c-.412.118-.656.564-.545 1 .112.436.533.694.942.576.413-.118.656-.564.548-1a.788.788 0 00-.638-.595zM5.729 25.454c-.421-.057-.81.255-.863.7-.055.45.24.857.662.914.42.06.81-.251.863-.7.057-.446-.24-.857-.662-.914zm44.095 0c-.421.057-.72.468-.662.914.054.449.442.76.864.7.42-.057.716-.465.662-.914-.055-.445-.443-.757-.864-.7zm-22.047 2.264c.86 0 1.54.72 1.54 1.63 0 .91-.68 1.63-1.54 1.63-.861 0-1.541-.72-1.541-1.63 0-.91.68-1.63 1.54-1.63zm-22.34.815c-.424 0-.77.366-.77.815 0 .449.346.815.77.815.425 0 .77-.366.77-.815 0-.449-.345-.815-.77-.815zm3.082 0c-.425 0-.77.366-.77.815 0 .449.345.815.77.815.424 0 .77-.366.77-.815 0-.449-.346-.815-.77-.815zm38.516 0c-.425 0-.77.366-.77.815 0 .449.345.815.77.815.424 0 .77-.366.77-.815 0-.449-.346-.815-.77-.815zm3.08 0c-.423 0-.77.366-.77.815 0 .449.347.815.77.815.425 0 .771-.366.771-.815 0-.449-.346-.815-.77-.815zM5.529 31.628c-.422.057-.717.465-.662.913.054.446.442.758.863.7.421-.056.72-.467.662-.913-.054-.449-.442-.76-.863-.7zm44.498 0c-.422-.06-.81.251-.864.7-.057.446.24.857.662.914.421.057.81-.255.864-.7.054-.45-.241-.857-.662-.914zm-43.722 3.03a.704.704 0 00-.304.02c-.412.118-.656.563-.548 1 .112.436.533.694.945.576.412-.118.656-.564.545-1a.78.78 0 00-.638-.595zm42.945 0a.785.785 0 00-.638.596c-.111.433.136.882.545 1 .41.118.834-.143.945-.576.108-.437-.136-.882-.548-1a.704.704 0 00-.304-.02zm-42.106 2.92a.803.803 0 00-.3.06c-.395.176-.581.65-.419 1.068.166.417.617.614 1.011.439.392-.172.578-.646.416-1.064a.774.774 0 00-.708-.503zm41.267 0a.774.774 0 00-.707.503c-.163.418.024.892.415 1.064.394.175.845-.022 1.01-.44.163-.417-.023-.891-.417-1.066a.781.781 0 00-.301-.06zm-37.406 1.15a.739.739 0 00-.292.105c-.367.223-.493.723-.28 1.111a.745.745 0 001.05.296c.37-.223.497-.723.283-1.111a.757.757 0 00-.76-.401zm33.548 0a.761.761 0 00-.764.401c-.214.389-.087.888.283 1.111a.745.745 0 001.05-.296c.213-.388.087-.888-.28-1.111a.726.726 0 00-.289-.105zm-24.479.401c-.424 0-.77.366-.77.815 0 .449.346.815.77.815.425 0 .77-.366.77-.815 0-.449-.345-.815-.77-.815zm3.082 0c-.425 0-.77.366-.77.815 0 .449.345.815.77.815.424 0 .77-.366.77-.815 0-.449-.346-.815-.77-.815zm3.081 0c-.424 0-.77.366-.77.815 0 .449.346.815.77.815.424 0 .77-.366.77-.815 0-.449-.346-.815-.77-.815zm3.081 0c-.424 0-.77.366-.77.815 0 .449.346.815.77.815.424 0 .77-.366.77-.815 0-.449-.346-.815-.77-.815zm3.081 0c-.424 0-.77.366-.77.815 0 .449.346.815.77.815.425 0 .77-.366.77-.815 0-.449-.345-.815-.77-.815zm3.082 0c-.424 0-.77.366-.77.815 0 .449.346.815.77.815.424 0 .77-.366.77-.815 0-.449-.346-.815-.77-.815zM8.335 40.358a.71.71 0 00-.289.105c-.37.223-.496.723-.283 1.111a.748.748 0 001.054.296c.367-.222.493-.722.28-1.11a.755.755 0 00-.762-.402zm38.883 0a.755.755 0 00-.761.401c-.214.389-.087.889.28 1.111.37.226.84.093 1.053-.296.214-.388.087-.888-.283-1.11a.709.709 0 00-.289-.106zm-27.145 2.031c-.424 0-.77.366-.77.816 0 .448.346.815.77.815.425 0 .77-.367.77-.816 0-.449-.345-.815-.77-.815zm15.407 0c-.424 0-.77.366-.77.816 0 .448.346.815.77.815.424 0 .77-.367.77-.816 0-.449-.346-.815-.77-.815z" fill="#F7C920"/></svg>