<svg width="36" height="40" fill="none" xmlns="http://www.w3.org/2000/svg"><path d="M6.407.5C2.874.5 0 3.303 0 6.75v5.501C0 15.697 2.874 18.5 6.407 18.5h1.436c3.533 0 6.407-2.803 6.407-6.25V6.748C14.25 3.303 11.376.5 7.843.5H6.407zm18.81.004a1.487 1.487 0 00-1.434.812L6.164 35.96a1.5 1.5 0 00.648 2.014l2.65 1.362c.733.376 1.63.085 2.005-.652L29.086 4.041a1.5 1.5 0 00-.647-2.015L25.787.664a1.481 1.481 0 00-.57-.16zm-.108 1.493L27.76 3.36 10.141 38.003 7.488 36.64l17.62-34.644zM6.407 2h1.436c2.705 0 4.907 2.13 4.907 4.75v5.501C12.75 14.87 10.548 17 7.843 17H6.407C3.702 17 1.5 14.87 1.5 12.25V6.748C1.5 4.13 3.702 2 6.407 2zm0 3C5.356 5 4.5 5.785 4.5 6.75v5.501c0 .965.856 1.749 1.907 1.749h1.436c1.051 0 1.907-.785 1.907-1.75V6.748C9.75 5.785 8.894 5 7.843 5H6.407zm0 1.5h1.436c.248 0 .407.148.407.25v5.501c0 .101-.159.249-.407.249H6.407c-.248 0-.407-.149-.407-.25V6.748c0-.101.159-.249.407-.249zM27 17a.75.75 0 00-.75.75v1.5a.75.75 0 001.5 0v-1.5A.75.75 0 0027 17zm3.75 0a.75.75 0 00-.75.75v1.5a.75.75 0 001.5 0v-1.5a.75.75 0 00-.75-.75zm3.75 0a.75.75 0 00-.75.75v1.5a.75.75 0 001.5 0v-1.5a.75.75 0 00-.75-.75zm-33 3a.75.75 0 00-.75.75v1.5a.75.75 0 001.5 0v-1.5A.75.75 0 001.5 20zm3.75 0a.75.75 0 00-.75.75v1.5a.75.75 0 001.5 0v-1.5a.75.75 0 00-.75-.75zM9 20a.75.75 0 00-.75.75v1.5a.75.75 0 001.5 0v-1.5A.75.75 0 009 20zm19.157 1.5c-3.533 0-6.407 2.803-6.407 6.25v5.501c0 3.446 2.874 6.249 6.407 6.249h1.436c3.533 0 6.407-2.803 6.407-6.25v-5.501c0-3.446-2.874-6.249-6.407-6.249h-1.436zm0 1.5h1.436c2.705 0 4.907 2.13 4.907 4.75v5.501C34.5 35.87 32.298 38 29.593 38h-1.436c-2.705 0-4.907-2.13-4.907-4.75v-5.501c0-2.619 2.202-4.749 4.907-4.749zm0 3c-1.051 0-1.907.785-1.907 1.75v5.501c0 .965.856 1.749 1.907 1.749h1.436c1.051 0 1.907-.785 1.907-1.75v-5.501c0-.964-.856-1.749-1.907-1.749h-1.436zm0 1.5h1.436c.248 0 .407.148.407.25v5.501c0 .101-.159.249-.407.249h-1.436c-.248 0-.407-.148-.407-.25v-5.501c0-.101.159-.249.407-.249z" fill="#FFC32A"/></svg>