<svg width="48" height="56" fill="none" xmlns="http://www.w3.org/2000/svg"><path d="M19.388.727c-3.608 0-6.85 2.052-9.202 4.046-2.353 1.993-3.852 3.995-3.852 3.995l-.672.896 1.05.323s.41.116.896.635c.486.518 1.009 1.4 1.009 3.075 0 2.169.319 3.918.478 4.66a2.163 2.163 0 00-.682 1.572c0 .503.144.93.263 1.352.06.21.117.408.156.557.039.148.047.293.047.181 0 1.054.85 1.875 1.85 1.912.138 3.001 1.529 5.65 3.646 7.396v2.888C11.745 35.019.96 38.64.96 44.085v4.645h24.248a3.973 3.973 0 011.254-1.548H2.451v-3.097c0-3.664 7.9-6.95 11.924-8.245v1.46l.079.163s1.76 3.525 5.883 3.525c4.124 0 5.884-3.525 5.884-3.525l.078-.163v-1.452c2.518.806 6.516 2.37 9.213 4.364.213-.459.434-.934.658-1.41-3.47-2.522-8.284-4.1-9.87-4.583v-2.89c2.117-1.747 3.507-4.397 3.646-7.399a1.92 1.92 0 001.848-1.91c0 .11.01-.034.048-.182.04-.15.097-.346.156-.557.12-.421.262-.849.262-1.352a2.16 2.16 0 00-.701-1.59c.136-.816.703-4.312.703-6.772 0-2.782-1.002-4.776-2.354-6.011-1.213-1.108-2.64-1.554-3.904-1.648-.203-.334-.563-.86-1.313-1.469C23.619 1.57 21.894.727 19.388.727zm0 1.549c2.19 0 3.548.706 4.386 1.385.837.68 1.112 1.28 1.112 1.28l.205.432h.463c.993 0 2.328.394 3.37 1.346 1.042.951 1.847 2.44 1.847 4.848 0 2.16-.496 5.312-.639 6.195l-.013-.001c-.063 0-.052.016-.093.02v-2.343c0-2.65-1.043-4.432-2.09-5.486C26.887 8.898 25.79 8.51 25.79 8.51l-.426-.15-.326.324s-.468.478-1.601 1.016c-1.134.538-2.885 1.092-5.337 1.092-1.34 0-3.11.493-4.643 1.606-1.53 1.11-2.8 2.925-2.806 5.384-.043-.005-.032-.022-.097-.022-.018 0-.034.005-.052.006a20.684 20.684 0 01-.396-4.07c0-2.028-.697-3.373-1.43-4.155-.31-.33-.382-.275-.651-.439.514-.63 1.471-1.747 3.103-3.13 2.215-1.877 5.207-3.697 8.26-3.697zm6.165 7.863c.18.073.652.226 1.346.924.815.82 1.636 2.134 1.636 4.375v4.881l1.122-.682c.192-.116.37-.22.494-.285l.033-.017c.343.036.586.282.585.593v.001c0 .058-.088.513-.202.915-.057.201-.116.403-.164.588-.049.186-.1.314-.1.587 0 .205-.16.387-.417.387h-1.35v1.059c0 4.198-2.916 7.666-6.752 8.377l-.211.038-.16.151c-.292.276-.66.44-1.076.44-.416 0-.784-.164-1.076-.44l-.158-.15-.213-.04c-3.836-.71-6.75-4.178-6.75-8.376v-1.059h-1.352c-.255 0-.419-.182-.419-.387 0-.273-.05-.4-.099-.587-.048-.185-.107-.387-.164-.588a7.311 7.311 0 01-.203-.915c0-.31.244-.558.587-.594.014.007.018.008.033.017.125.066.302.169.494.285l1.122.682v-2.517c0-1.933.927-3.23 2.172-4.133 1.245-.904 2.83-1.328 3.79-1.328 2.67 0 4.644-.608 5.957-1.23.975-.464 1.232-.747 1.495-.972zm-9.315 9.17a1.1 1.1 0 00-.79.34c-.21.218-.328.514-.328.822 0 .308.118.603.328.82.21.219.494.341.79.341.297 0 .581-.122.79-.34.21-.218.328-.513.328-.821a1.19 1.19 0 00-.327-.822 1.097 1.097 0 00-.79-.34zm8.198 0a1.1 1.1 0 00-.79.34c-.21.218-.328.514-.328.822 0 .308.118.603.328.82.21.219.494.341.79.341.297 0 .581-.122.79-.34.21-.218.328-.513.328-.821a1.19 1.19 0 00-.327-.822 1.097 1.097 0 00-.79-.34zm-8.57 13.025a9.316 9.316 0 002.566.957c.524.435 1.176.729 1.905.729.726 0 1.373-.294 1.897-.725a9.316 9.316 0 002.575-.958v4.536c-.092.19-1.27 2.567-4.472 2.567-3.2 0-4.38-2.377-4.471-2.567v-4.54zm26.565.146c-.2.017-.348.005-.628.179h-.001c-.599.374-.644.84-.885 1.343-.131.272-.506 1.06-.872 1.848-.366.786-.694 1.48-.831 1.875-.093.263-.217.574-.17 1.005.048.431.345.851.713 1.106.394.272 1.605 1.327 1.934 1.625l.032.03c-.002-.018.007.02-.078.199-.177.368-.341.853-.705 1.56a13.1 13.1 0 01-1.734 2.559c-1.268 1.479-2.895 2.522-3.377 2.813-.02.011-.008.007-.017.013-.003-.006-.027-.02-.127-.124h-.001v-.001c-.296-.307-.666-.596-.942-.841-.37-.33-.687-.471-1.006-.638h-.001c-.587-.306-1.222-.138-1.571.045.02-.01-.225.104-.51.228-.287.125-.659.283-1.055.453-.791.338-1.679.717-2.198.942v-.002c-.594.257-1.001.592-1.198 1.024-.196.432-.14.818-.14.854-.018.34-.018.704-.018 1.06 0 .55.2 1.345.886 1.995.438.415 1.998 2.069 4.786 2.069 2.89 0 5.423-2.073 5.759-2.334a27.934 27.934 0 003.234-2.704c1.664-1.62 3.584-3.9 4.757-6.72.54-1.303.868-2.332 1.108-3.112h.001v-.001c.436-1.427.371-2.725.23-3.708-.102-.712-.445-1.528-.936-2.323-.49-.795-1.105-1.564-1.993-1.892a6.97 6.97 0 00-1.776-.414 3.977 3.977 0 00-.67-.01zm.122 1.544a2.68 2.68 0 01.42.01c.367.032.868.13 1.404.33h.001c.312.114.844.632 1.237 1.27.394.637.671 1.401.717 1.714.122.857.168 1.883-.177 3.01a31.347 31.347 0 01-1.056 2.97c-1.052 2.53-2.837 4.673-4.408 6.204a26.488 26.488 0 01-2.07 1.815c-.553.435-.856.637-1.04.78-.348.271-2.698 2.023-4.864 2.023-2.266 0-3.191-1.106-3.781-1.665-.343-.325-.4-.69-.4-.85 0-.352.001-.699.015-.983v-.003c.013-.29.01-.287 0-.266-.01.022.017-.08.424-.255.508-.22 1.398-.6 2.192-.94l1.063-.456c.292-.127.456-.196.605-.274h.002c.162-.085.133-.093.228-.044.365.191.48.228.708.431.323.288.692.588.857.76.132.138.328.37.694.512.368.142.864.08 1.255-.157.55-.332 2.287-1.428 3.74-3.121a14.715 14.715 0 001.935-2.858c.41-.795.646-1.434.725-1.6.162-.337.28-.694.232-1.101-.048-.407-.286-.754-.537-.983v-.002h-.002c-.357-.323-1.454-1.309-2.089-1.748-.04-.028-.036-.02-.048-.027.005.007.008-.062.079-.263v-.002c.032-.093.41-.952.773-1.731.362-.78.737-1.57.863-1.831.256-.534.421-.73.303-.669zM5.432 44.085a.731.731 0 00-.527.227.79.79 0 00-.219.547.79.79 0 00.219.548c.14.145.329.227.527.227a.731.731 0 00.527-.227.79.79 0 00.218-.548.79.79 0 00-.218-.547.731.731 0 00-.527-.227zm2.98 0a.731.731 0 00-.526.227.79.79 0 00-.219.547.79.79 0 00.219.548c.14.145.33.227.527.227a.731.731 0 00.527-.227.79.79 0 00.218-.548.79.79 0 00-.218-.547.731.731 0 00-.527-.227zm2.982 0a.732.732 0 00-.527.227.79.79 0 00-.219.547.79.79 0 00.219.548c.14.145.33.227.527.227a.731.731 0 00.527-.227.79.79 0 00.218-.548.79.79 0 00-.218-.547.731.731 0 00-.527-.227zm2.98 0a.732.732 0 00-.526.227.79.79 0 00-.218.547.79.79 0 00.218.548c.14.145.33.227.527.227a.731.731 0 00.527-.227.79.79 0 00.218-.548.79.79 0 00-.218-.547.731.731 0 00-.527-.227zm2.982 0a.732.732 0 00-.527.227.79.79 0 00-.218.547.79.79 0 00.218.548c.14.145.33.227.527.227a.731.731 0 00.527-.227.79.79 0 00.218-.548.79.79 0 00-.218-.547.731.731 0 00-.527-.227zm2.981 0a.732.732 0 00-.527.227.79.79 0 00-.218.547.79.79 0 00.218.548c.14.145.33.227.527.227a.731.731 0 00.527-.227.79.79 0 00.218-.548.79.79 0 00-.218-.547.731.731 0 00-.527-.227zm2.981 0a.731.731 0 00-.527.227.79.79 0 00-.218.547.79.79 0 00.218.548c.14.145.33.227.527.227a.731.731 0 00.527-.227.79.79 0 00.219-.548.79.79 0 00-.219-.547.731.731 0 00-.527-.227zm2.981 0a.731.731 0 00-.527.227.79.79 0 00-.218.547.79.79 0 00.218.548c.14.145.33.227.527.227a.731.731 0 00.527-.227.79.79 0 00.219-.548.79.79 0 00-.219-.547.731.731 0 00-.527-.227zm2.982 0a.731.731 0 00-.527.227.79.79 0 00-.219.547.79.79 0 00.218.548c.14.145.33.227.527.227a.731.731 0 00.527-.227.79.79 0 00.219-.548.79.79 0 00-.219-.547.731.731 0 00-.526-.227z" fill="#F7C920"/></svg>