<svg width="65" height="48" fill="none" xmlns="http://www.w3.org/2000/svg"><path d="M17.749.026c-2.592 0-4.928 1.528-5.891 3.854l-3.586 8.655a3.655 3.655 0 00-1.325-.253h-1.59c-2.208 0-4.106 1.553-4.47 3.656L.31 19.286H4.5l-.262.383a11.105 11.105 0 00-1.954 6.279v18.727c0 1.44 1.228 2.626 2.719 2.626h4.531c1.49 0 2.72-1.187 2.72-2.627v-1.75H52.13v1.75c0 1.44 1.229 2.627 2.72 2.627h4.53c1.491 0 2.72-1.187 2.72-2.627V25.949c0-2.233-.68-4.415-1.954-6.279l-.262-.383h4.191l-.577-3.348c-.361-2.103-2.262-3.656-4.471-3.656h-1.59a3.75 3.75 0 00-1.324.253l-3.586-8.659c-.963-2.322-3.3-3.85-5.891-3.85H17.749zm0 1.75h28.888c1.859 0 3.519 1.088 4.206 2.75l4.45 10.735.963-.8c.325-.27.743-.428 1.182-.428h1.59c1.338 0 2.464.924 2.683 2.192l.227 1.31h-5.424l.928 1.358 1.193 1.744a9.41 9.41 0 011.653 5.31v18.728c0 .495-.393.875-.906.875H54.85c-.513 0-.906-.38-.906-.875v-3.502H10.442v3.502c0 .495-.393.875-.907.875H5.004c-.513 0-.906-.38-.906-.875V25.948c0-1.891.573-3.738 1.653-5.311l2.124-3.102H2.448l.226-1.31c.22-1.269 1.346-2.192 2.684-2.192h1.59c.442 0 .856.158 1.185.428l.96.803 4.45-10.738c.687-1.662 2.347-2.75 4.206-2.75zm-7.307 15.759c-.5 0-.907.393-.907.875 0 .483.408.876.907.876.499 0 .906-.393.906-.876 0-.482-.407-.875-.906-.875zm3.625 0c-.5 0-.906.393-.906.875 0 .483.407.876.906.876.5 0 .906-.393.906-.876 0-.482-.407-.875-.906-.875zm3.625 0c-.5 0-.906.393-.906.875 0 .483.407.876.906.876.5 0 .906-.393.906-.876 0-.482-.407-.875-.906-.875zm3.625 0c-.499 0-.906.393-.906.875 0 .483.407.876.906.876.5 0 .907-.393.907-.876 0-.482-.408-.875-.907-.875zm3.625 0c-.499 0-.906.393-.906.875 0 .483.407.876.906.876.5 0 .907-.393.907-.876 0-.482-.407-.875-.907-.875zm3.626 0c-.5 0-.907.393-.907.875 0 .483.407.876.907.876.499 0 .906-.393.906-.876 0-.482-.407-.875-.906-.875zm3.625 0c-.5 0-.906.393-.906.875 0 .483.407.876.906.876.499 0 .906-.393.906-.876 0-.482-.407-.875-.906-.875zm3.625 0c-.5 0-.906.393-.906.875 0 .483.407.876.906.876.5 0 .906-.393.906-.876 0-.482-.407-.875-.906-.875zm3.625 0c-.499 0-.906.393-.906.875 0 .483.407.876.906.876.5 0 .907-.393.907-.876 0-.482-.408-.875-.907-.875zm3.625 0c-.499 0-.906.393-.906.875 0 .483.407.876.906.876.5 0 .907-.393.907-.876 0-.482-.407-.875-.907-.875zm3.626 0c-.5 0-.907.393-.907.875 0 .483.407.876.907.876.499 0 .906-.393.906-.876 0-.482-.407-.875-.906-.875zm3.625 0c-.5 0-.907.393-.907.875 0 .483.408.876.907.876.499 0 .906-.393.906-.876 0-.482-.407-.875-.906-.875zm3.625 0c-.5 0-.906.393-.906.875 0 .483.407.876.906.876.5 0 .906-.393.906-.876 0-.482-.407-.875-.906-.875zm-41.69 4.377c-2.492 0-4.531 1.97-4.531 4.378 0 2.407 2.039 4.377 4.531 4.377 2.493 0 4.532-1.97 4.532-4.377 0-2.408-2.04-4.378-4.532-4.378zm39.877 0c-2.492 0-4.531 1.97-4.531 4.378 0 2.407 2.04 4.377 4.531 4.377 2.493 0 4.532-1.97 4.532-4.377 0-2.408-2.04-4.378-4.532-4.378zm-39.877 1.751c1.512 0 2.72 1.166 2.72 2.627 0 1.46-1.208 2.626-2.72 2.626-1.511 0-2.719-1.166-2.719-2.626s1.208-2.627 2.72-2.627zm8.157 0v1.751h23.564v-1.75H20.41zm31.72 0c1.512 0 2.72 1.166 2.72 2.627 0 1.46-1.208 2.626-2.72 2.626-1.511 0-2.718-1.166-2.718-2.626s1.207-2.627 2.718-2.627zm-29.907 4.378v1.75h19.938v-1.75H22.224zM6.816 35.92c-.499 0-.906.393-.906.875 0 .483.407.876.906.876.5 0 .907-.393.907-.876 0-.482-.407-.875-.907-.875zm3.626 0c-.5 0-.907.393-.907.875 0 .483.408.876.907.876.499 0 .906-.393.906-.876 0-.482-.407-.875-.906-.875zm3.625 0c-.5 0-.906.393-.906.875 0 .483.407.876.906.876.5 0 .906-.393.906-.876 0-.482-.407-.875-.906-.875zm3.625 0c-.5 0-.906.393-.906.875 0 .483.407.876.906.876.5 0 .906-.393.906-.876 0-.482-.407-.875-.906-.875zm3.625 0c-.499 0-.906.393-.906.875 0 .483.407.876.906.876.5 0 .907-.393.907-.876 0-.482-.408-.875-.907-.875zm3.625 0c-.499 0-.906.393-.906.875 0 .483.407.876.906.876.5 0 .907-.393.907-.876 0-.482-.407-.875-.907-.875zm3.626 0c-.5 0-.907.393-.907.875 0 .483.407.876.907.876.499 0 .906-.393.906-.876 0-.482-.407-.875-.906-.875zm3.625 0c-.5 0-.906.393-.906.875 0 .483.407.876.906.876.499 0 .906-.393.906-.876 0-.482-.407-.875-.906-.875zm3.625 0c-.5 0-.906.393-.906.875 0 .483.407.876.906.876.5 0 .906-.393.906-.876 0-.482-.407-.875-.906-.875zm3.625 0c-.499 0-.906.393-.906.875 0 .483.407.876.906.876.5 0 .907-.393.907-.876 0-.482-.408-.875-.907-.875zm3.625 0c-.499 0-.906.393-.906.875 0 .483.407.876.906.876.5 0 .907-.393.907-.876 0-.482-.407-.875-.907-.875zm3.626 0c-.5 0-.907.393-.907.875 0 .483.407.876.907.876.499 0 .906-.393.906-.876 0-.482-.407-.875-.906-.875zm3.625 0c-.5 0-.907.393-.907.875 0 .483.408.876.907.876.499 0 .906-.393.906-.876 0-.482-.407-.875-.906-.875zm3.625 0c-.5 0-.906.393-.906.875 0 .483.407.876.906.876.5 0 .906-.393.906-.876 0-.482-.407-.875-.906-.875zm3.625 0c-.499 0-.906.393-.906.875 0 .483.407.876.906.876.5 0 .906-.393.906-.876 0-.482-.407-.875-.906-.875z" fill="#F7C920"/></svg>