<svg width="47" height="47" fill="none" xmlns="http://www.w3.org/2000/svg"><path d="M9.574 0a2.612 2.612 0 00-2.611 2.611v2.611H2.611A2.612 2.612 0 000 7.833V44.39A2.612 2.612 0 002.611 47H44.39A2.612 2.612 0 0047 44.389V7.833a2.612 2.612 0 00-2.611-2.61h-4.352V2.61a2.612 2.612 0 00-5.222 0v2.611H26.11v-2.61a2.612 2.612 0 00-5.222 0v2.61h-8.704v-2.61A2.612 2.612 0 009.575 0zm0 1.74c.48 0 .87.392.87.871v6.963a.87.87 0 01-1.74 0V2.611c0-.48.39-.87.87-.87zm13.926 0c.48 0 .87.392.87.871v6.963a.87.87 0 01-1.74 0V2.611c0-.48.39-.87.87-.87zm13.926 0c.48 0 .87.392.87.871v6.963a.87.87 0 01-1.74 0V2.611c0-.48.39-.87.87-.87zM2.61 6.964h4.352v2.611a2.612 2.612 0 005.222 0V6.963h8.704v2.611a2.612 2.612 0 005.222 0V6.963h8.704v2.611a2.612 2.612 0 005.222 0V6.963h4.352c.48 0 .87.39.87.87v6.093a.87.87 0 00-.87.87v1.741c0 .48.39.87.87.87V44.39c0 .48-.39.87-.87.87H2.61a.87.87 0 01-.87-.87V17.407c.48 0 .87-.39.87-.87v-1.74c0-.48-.39-.871-.87-.871V7.833c0-.48.39-.87.87-.87zm3.482 6.963a.87.87 0 00-.87.87v1.741a.87.87 0 001.74 0v-1.74c0-.48-.39-.871-.87-.871zm4.351 0a.87.87 0 00-.87.87v1.741a.87.87 0 001.74 0v-1.74c0-.48-.39-.871-.87-.871zm4.352 0a.87.87 0 00-.87.87v1.741a.87.87 0 001.74 0v-1.74c0-.48-.39-.871-.87-.871zm4.352 0a.87.87 0 00-.87.87v1.741a.87.87 0 001.74 0v-1.74c0-.48-.39-.871-.87-.871zm4.352 0a.87.87 0 00-.87.87v1.741a.87.87 0 001.74 0v-1.74c0-.48-.39-.871-.87-.871zm4.352 0a.87.87 0 00-.87.87v1.741a.87.87 0 001.74 0v-1.74c0-.48-.39-.871-.87-.871zm4.352 0a.87.87 0 00-.87.87v1.741a.87.87 0 001.74 0v-1.74c0-.48-.39-.871-.87-.871zm4.352 0a.87.87 0 00-.87.87v1.741a.87.87 0 001.74 0v-1.74c0-.48-.39-.871-.87-.871zm4.351 0a.87.87 0 00-.87.87v1.741a.87.87 0 001.74 0v-1.74c0-.48-.39-.871-.87-.871zM7.833 20.018a.87.87 0 00-.87.87v15.668c0 .48.39.87.87.87h31.334c.48 0 .87-.39.87-.87V20.889a.87.87 0 00-.87-.87H7.833zm.87 1.741h6.093v6.093H8.704v-6.093zm7.834 0h6.093v6.093h-6.093v-6.093zm7.833 0h6.093v6.093H24.37v-6.093zm7.834 0h6.092v6.093h-6.092v-6.093zm-23.5 7.834h6.092v6.092H8.704v-6.092zm7.833 0h6.093v6.092h-6.093v-6.092zm7.833 0h6.093v6.092H24.37v-6.092zm7.834 0h6.092v6.092h-6.092v-6.092zM4.352 40.037a.87.87 0 000 1.74h38.296a.87.87 0 000-1.74H4.352z" fill="#FFC32A"/></svg>