<svg width="57" height="49" fill="none" xmlns="http://www.w3.org/2000/svg"><path d="M27.33.82c-3.772 0-7.164 2.02-9.624 3.982a21.5 21.5 0 00-.722.605c-.134-.006-.265-.012-.402-.012-3.194 0-6.038 1.704-8.1 3.348-2.064 1.647-3.379 3.3-3.379 3.3l-.722.905 1.133.298s.393.098.84.51c.451.41.923 1.08.923 2.41v5.241h.01c.02.388.13.706.225 1.019.051.173.103.334.134.456.033.119.036.238.036.113 0 .736.545 1.236 1.209 1.486.091 2.46 1.26 4.644 3.063 6.115v2.47c-1.038.306-3.167.982-5.347 1.968-1.51.685-3.035 1.51-4.226 2.493-1.194.986-2.12 2.183-2.12 3.616v3.902h7.796v3.05H48.59v-3.05h7.795v-3.902c0-1.433-.926-2.63-2.12-3.616-1.19-.983-2.715-1.808-4.226-2.493-2.18-.986-4.308-1.662-5.346-1.969v-2.472a8.267 8.267 0 003.063-6.115c.664-.247 1.209-.75 1.209-1.483 0 .122.003.006.036-.113.03-.122.082-.283.134-.456.095-.313.204-.631.226-1.019h.009v-6.99c0-4.349-2.686-6.46-5.094-6.657-.159-.215-.369-.578-1.142-1.09-.984-.65-2.53-1.275-4.726-1.275-.097 0-.195.006-.292.009-1.221-.962-2.619-1.364-3.864-1.45-.213-.331-.591-.85-1.373-1.448C31.755 1.65 29.952.82 27.33.82zm0 1.525c2.29 0 3.712.694 4.586 1.364.877.67 1.167 1.26 1.167 1.26l.213.426h.484c1.038 0 2.436.387 3.523 1.325 1.09.939 1.933 2.404 1.933 4.775 0 2.127-.517 5.23-.67 6.1h-.012c-.067 0-.055.015-.097.02v-2.308c0-2.609-1.09-4.363-2.187-5.403-1.096-1.04-2.244-1.42-2.244-1.42l-.444-.146-.341.318s-.49.47-1.675 1.001c-1.184.53-3.017 1.075-5.581 1.075-1.404 0-3.252.486-4.857 1.582-1.598 1.093-2.929 2.88-2.935 5.305-.043-.006-.034-.024-.1-.024-.019 0-.037.006-.055.006a19.242 19.242 0 01-.414-4.01c0-1.995-.731-3.32-1.495-4.089-.326-.327-.4-.27-.682-.435.539-.62 1.54-1.718 3.245-3.08 2.318-1.85 5.448-3.642 8.639-3.642zM39.557 6.99c1.254.158 2.122.557 2.704.942.746.494.986.905.986.905l.229.37h.438c1.602 0 3.898 1.256 3.898 5.209v3.178c0-4.4-3.496-6.5-3.496-6.5l-.588-.345-.423.524s-.822 1.02-2.573 1.728c.037-.521.064-1.037.064-1.507 0-1.856-.487-3.348-1.24-4.504zm-24.338.072c-.95.962-1.54 1.677-1.54 1.677l-.704.881 1.1.316s.426.116.937.629c.509.509 1.054 1.379 1.054 3.026 0 .018 0 .03.003.044a10.07 10.07 0 01-.606.018c-1.203 0-2.759.411-4.12 1.344-1.364.929-2.506 2.466-2.506 4.539v-3.372c0-1.71-.697-2.865-1.416-3.523-.225-.203-.256-.143-.466-.268.372-.438.975-1.222 2.512-2.449 1.584-1.263 3.62-2.472 5.752-2.862zm18.562 3.026c.189.072.682.223 1.407.908.852.81 1.71 2.103 1.71 4.31v4.808l1.173-.673c.201-.114.387-.215.518-.28.015-.01.021-.01.036-.018.356.036.612.28.612.584v.002c0 .057-.094.504-.213.903-.06.197-.122.396-.174.578-.048.181-.1.31-.1.578 0 .202-.17.38-.438.38h-1.413v1.043c0 4.135-3.048 7.55-7.061 8.25l-.223.037-.167.152a1.666 1.666 0 01-1.124.431c-.435 0-.819-.16-1.123-.431l-.168-.152-.222-.036c-4.013-.7-7.061-4.116-7.061-8.25V22.17h-1.413c-.268 0-.438-.179-.438-.381 0-.268-.052-.397-.104-.578a27.39 27.39 0 00-.173-.578 6.73 6.73 0 01-.21-.902c0-.307.255-.552.611-.587.016.009.022.009.037.018.131.065.317.166.518.28l1.172.673v-2.481c0-1.9.968-3.178 2.271-4.07 1.304-.89 2.96-1.307 3.965-1.307 2.792 0 4.857-.598 6.23-1.212 1.02-.456 1.288-.736 1.565-.956zm10.142 2.68c.591.409 2.33 1.74 2.33 4.826v3.946l1.145-.586a.092.092 0 01.024-.012c.22.032.39.158.39.336 0 .012-.074.387-.17.715-.053.167-.101.33-.147.486-.043.157-.088.259-.088.515 0 .095-.08.19-.238.19h-.916v.998c0 3.384-2.494 6.175-5.777 6.747l-.222.041-.164.146a1.257 1.257 0 01-.853.331c-.329 0-.62-.122-.852-.33l-.165-.147-.222-.041a7.08 7.08 0 01-2.415-.9c1.626-1.67 2.67-3.89 2.79-6.359 1.047-.036 1.936-.846 1.936-1.882 0 .11.01-.033.049-.18.04-.145.1-.339.161-.547.125-.414.277-.837.277-1.332 0-.625-.289-1.176-.734-1.566.083-.477.32-1.907.503-3.48 1.827-.568 2.81-1.387 3.358-1.914zm-27.8 2.39c.104 1.393.32 2.483.445 3.023a2.071 2.071 0 00-.716 1.549c0 .494.153.917.278 1.33.06.21.121.403.161.549.04.146.049.289.049.179 0 1.036.889 1.846 1.936 1.882.119 2.47 1.163 4.685 2.79 6.353a7.06 7.06 0 01-2.415.909l-.223.038-.164.146a1.255 1.255 0 01-.853.331 1.26 1.26 0 01-.852-.33l-.165-.147-.222-.038c-3.282-.572-5.776-3.366-5.776-6.75v-.997H9.48c-.159 0-.238-.093-.238-.191 0-.256-.046-.358-.088-.515a26.315 26.315 0 00-.146-.483 7.381 7.381 0 01-.17-.718c0-.178.173-.303.389-.336.012.006.015.006.024.012l1.145.592v-2.01c0-1.543.777-2.565 1.84-3.288 1.059-.727 2.423-1.07 3.227-1.07.225 0 .447-.009.66-.02zm7.914 3.96c-.645 0-1.17.513-1.17 1.145 0 .631.525 1.143 1.17 1.143.646 0 1.17-.512 1.17-1.143 0-.632-.524-1.144-1.17-1.144zm8.575 0c-.646 0-1.17.513-1.17 1.145 0 .631.524 1.143 1.17 1.143.645 0 1.169-.512 1.169-1.143 0-.632-.524-1.144-1.17-1.144zm-18.708 1.526c-.646 0-1.17.512-1.17 1.144 0 .631.524 1.143 1.17 1.143.645 0 1.169-.512 1.169-1.143 0-.632-.524-1.144-1.17-1.144zm28.84 0c-.645 0-1.168.512-1.168 1.144 0 .631.523 1.143 1.169 1.143.645 0 1.17-.512 1.17-1.143 0-.632-.525-1.144-1.17-1.144zM22.088 31.189v2.61c-1.123.333-3.82 1.184-6.567 2.453-.26.12-.512.248-.768.373-.8-.54-1.157-1.138-1.239-1.281v-3.741a8.655 8.655 0 002.186.76c.475.36 1.057.61 1.711.61.637 0 1.203-.241 1.67-.584a8.691 8.691 0 003.007-1.2zm12.472.003a8.71 8.71 0 003 1.188c.468.349 1.038.593 1.677.593.655 0 1.242-.25 1.718-.614a8.606 8.606 0 002.18-.756v3.74c-.083.15-.457.734-1.255 1.276-.252-.122-.5-.25-.752-.367-2.746-1.269-5.444-2.12-6.568-2.454v-2.606zm-10.913.756c.832.426 1.73.754 2.683.942.551.428 1.233.717 1.994.717.758 0 1.438-.288 1.986-.714A10.062 10.062 0 0033 31.95v4.468c-.094.185-1.327 2.526-4.677 2.526-3.349 0-4.582-2.341-4.677-2.526v-4.47zm-11.692 2.717v1.084l.082.158s.387.75 1.234 1.501c-.996.56-1.943 1.174-2.75 1.853-1.404 1.182-2.463 2.597-2.463 4.259H1.82v-2.377c0-.765.548-1.611 1.565-2.448 1.017-.84 2.439-1.627 3.876-2.276a40.57 40.57 0 014.692-1.754zm32.739 0c1.093.336 2.856.923 4.692 1.754 1.437.65 2.859 1.436 3.876 2.276 1.017.837 1.565 1.683 1.565 2.448v2.377H48.59c0-1.662-1.06-3.077-2.463-4.26-.807-.678-1.751-1.289-2.747-1.852.847-.748 1.23-1.501 1.23-1.501l.083-.158v-1.084zm-22.606.739v1.432l.083.164s1.839 3.47 6.153 3.47c4.315 0 6.154-3.47 6.154-3.47l.082-.164v-1.432c1.252.384 3.544 1.14 5.904 2.23 1.715.793 3.42 1.749 4.647 2.782 1.227 1.034 1.921 2.097 1.921 3.104v3.05H9.616v-3.05c0-1.007.694-2.07 1.92-3.104 1.228-1.033 2.933-1.99 4.647-2.782 2.36-1.09 4.653-1.846 5.904-2.23zM3.38 40.47c-.43 0-.78.343-.78.763s.35.762.78.762c.429 0 .78-.343.78-.762a.774.774 0 00-.78-.763zm3.118 0c-.43 0-.78.343-.78.763s.35.762.78.762c.429 0 .78-.343.78-.762a.774.774 0 00-.78-.763zm42.872 0c-.43 0-.78.343-.78.763s.35.762.78.762c.429 0 .78-.343.78-.762a.774.774 0 00-.78-.763zm3.118 0c-.43 0-.78.343-.78.763s.35.762.78.762c.429 0 .78-.343.78-.762a.774.774 0 00-.78-.763zm-39.754 3.05c-.43 0-.78.342-.78.762s.35.763.78.763c.429 0 .78-.343.78-.763s-.351-.762-.78-.762zm3.117 0c-.429 0-.779.342-.779.762s.35.763.78.763c.429 0 .779-.343.779-.763s-.35-.762-.78-.762zm3.118 0c-.429 0-.779.342-.779.762s.35.763.78.763c.429 0 .779-.343.779-.763s-.35-.762-.78-.762zm3.118 0c-.429 0-.779.342-.779.762s.35.763.78.763c.429 0 .779-.343.779-.763s-.35-.762-.78-.762zm3.118 0c-.429 0-.78.342-.78.762s.351.763.78.763c.43 0 .78-.343.78-.763s-.35-.762-.78-.762zm3.118 0c-.429 0-.78.342-.78.762s.351.763.78.763c.43 0 .78-.343.78-.763s-.35-.762-.78-.762zm3.118 0c-.429 0-.78.342-.78.762s.351.763.78.763c.43 0 .78-.343.78-.763s-.35-.762-.78-.762zm3.118 0c-.429 0-.78.342-.78.762s.351.763.78.763c.43 0 .78-.343.78-.763s-.35-.762-.78-.762zm3.118 0c-.43 0-.78.342-.78.762s.35.763.78.763c.43 0 .78-.343.78-.763s-.35-.762-.78-.762zm3.118 0c-.43 0-.78.342-.78.762s.35.763.78.763c.43 0 .78-.343.78-.763s-.35-.762-.78-.762zm3.118 0c-.43 0-.78.342-.78.762s.35.763.78.763c.43 0 .78-.343.78-.763s-.35-.762-.78-.762z" fill="#F7C920"/></svg>