<svg width="59" height="59" fill="none" xmlns="http://www.w3.org/2000/svg"><path d="M29.808.933a3.953 3.953 0 00-2.774 1.12l-2.328 2.288-3.051-1.238c-1.99-.81-4.296.128-5.119 2.084l-1.262 2.986h-3.3c-2.154 0-3.92 1.733-3.92 3.849v3.235L5.01 16.495c-1.993.807-2.95 3.073-2.123 5.026l1.261 2.99-2.335 2.287a3.812 3.812 0 000 5.44l2.335 2.285-1.261 2.993c-.826 1.953.13 4.215 2.123 5.023l3.044 1.238v3.238c0 2.113 1.766 3.845 3.92 3.845h3.3l1.262 2.987c.823 1.956 3.129 2.894 5.119 2.084l3.05-1.235 2.33 2.288c1.524 1.493 4.022 1.493 5.544 0l2.332-2.288 3.047 1.235c1.99.81 4.3-.128 5.122-2.084l1.262-2.987h3.298c2.156 0 3.922-1.732 3.922-3.845v-3.238l3.044-1.238c1.994-.808 2.95-3.073 2.124-5.026l-1.262-2.99 2.332-2.288a3.808 3.808 0 000-5.437l-2.332-2.287 1.259-2.99c.826-1.953-.13-4.219-2.12-5.026l-3.048-1.238v-3.235c0-2.116-1.763-3.849-3.92-3.849h-3.297L43.08 5.187c-.822-1.956-3.131-2.894-5.122-2.084l-3.047 1.238-2.332-2.288a3.946 3.946 0 00-2.77-1.12zm0 1.621a2.27 2.27 0 011.597.655l3.116 3.06 4.075-1.657c1.16-.472 2.468.061 2.946 1.2l1.688 3.995h4.41c1.255 0 2.254.983 2.254 2.215v4.326l4.075 1.656c1.16.47 1.7 1.752 1.22 2.891l-1.685 3.998 3.115 3.057h.004c.887.871.887 2.26 0 3.134l-3.12 3.056 1.688 3.998c.482 1.14-.061 2.422-1.222 2.891l-4.072 1.656v4.33c0 1.232-1.002 2.212-2.257 2.212h-4.41l-1.688 3.995c-.478 1.139-1.785 1.672-2.946 1.2l-4.075-1.654-3.116 3.057a2.278 2.278 0 01-3.194 0l-3.115-3.057-4.075 1.653c-1.161.473-2.469-.06-2.947-1.2l-1.69-3.994h-4.41c-1.256 0-2.255-.98-2.255-2.212V42.69l-4.071-1.66c-1.161-.469-1.704-1.751-1.223-2.89l1.685-4-3.116-3.056a2.176 2.176 0 010-3.134l3.116-3.057-1.685-3.998c-.481-1.139.062-2.422 1.223-2.89l4.071-1.657v-4.326c0-1.232.999-2.215 2.254-2.215h4.41l1.691-3.995c.478-1.139 1.786-1.672 2.947-1.2l4.075 1.657 3.115-3.06a2.271 2.271 0 011.597-.655zm0 1.64a.826.826 0 00-.832.817c0 .45.374.817.832.817a.826.826 0 00.833-.817.826.826 0 00-.833-.817zm-9.552 1.864a.88.88 0 00-.325.064.813.813 0 00-.452 1.069.842.842 0 001.09.44.806.806 0 00.448-1.066.832.832 0 00-.76-.507zm19.13 0a.832.832 0 00-.787.507.806.806 0 00.449 1.066.842.842 0 001.09-.44.813.813 0 00-.453-1.07.865.865 0 00-.3-.063zm-9.578 2.22a.826.826 0 00-.832.818c0 .45.374.816.832.816a.826.826 0 00.833-.816.826.826 0 00-.833-.817zm-4.058.393a.82.82 0 00-.82.976c.091.444.53.731.979.642a.82.82 0 00.657-.96.835.835 0 00-.816-.658zm8.14 0a.832.832 0 00-.84.658.82.82 0 00.658.96.832.832 0 00.979-.641.82.82 0 00-.797-.977zM21.85 9.833a.82.82 0 00-.325.063.805.805 0 00-.449 1.066.836.836 0 001.086.444.814.814 0 00.452-1.07.837.837 0 00-.764-.503zm15.942 0a.837.837 0 00-.79.504.814.814 0 00.452 1.069.836.836 0 001.086-.444.805.805 0 00-.448-1.066.811.811 0 00-.3-.063zM12.16 11.37a.871.871 0 00-.602.239.815.815 0 000 1.158.854.854 0 001.18 0 .815.815 0 000-1.158.85.85 0 00-.578-.24zm35.322 0a.871.871 0 00-.602.239.815.815 0 000 1.158.854.854 0 001.18 0 .815.815 0 000-1.158.85.85 0 00-.578-.24zm-6.095.348a.827.827 0 00-.706.363.806.806 0 00.228 1.133c.384.249.9.15 1.154-.227a.807.807 0 00-.227-1.132.86.86 0 00-.449-.137zm-23.13.003a.837.837 0 00-.471.134.805.805 0 00-.231 1.132.84.84 0 001.155.227.806.806 0 00.227-1.133.821.821 0 00-.68-.36zm-3.154 2.54a.827.827 0 00-.602.236.81.81 0 000 1.158.84.84 0 00.589.24.853.853 0 00.592-.24.815.815 0 00-.58-1.395zm29.435 0a.855.855 0 00-.601.236.815.815 0 000 1.158.854.854 0 001.18 0 .815.815 0 00-.579-1.395zm2.586 3.091a.821.821 0 00-.472.138.81.81 0 00-.23 1.132.846.846 0 001.157.224.81.81 0 00.231-1.133.845.845 0 00-.686-.36zm-34.603 0a.844.844 0 00-.71.364.807.807 0 00.228 1.133.846.846 0 001.158-.223.81.81 0 00-.23-1.133.825.825 0 00-.446-.14zM6.75 19.32a.832.832 0 00-.787.507.81.81 0 00.452 1.066.838.838 0 001.086-.44.814.814 0 00-.448-1.07.9.9 0 00-.303-.063zm46.139 0a.88.88 0 00-.325.064.814.814 0 00-.449 1.069.838.838 0 001.086.44.81.81 0 00.452-1.066.832.832 0 00-.764-.507zm-3.844 1.567a.806.806 0 00-.325.06.81.81 0 00-.452 1.066.84.84 0 001.09.444.809.809 0 00.448-1.07.825.825 0 00-.761-.5zm-38.448 0a.838.838 0 00-.786.5.814.814 0 00.448 1.07.84.84 0 001.09-.444.81.81 0 00-.452-1.066.861.861 0 00-.3-.06zm-1.183 3.832a.823.823 0 00-.836.654.819.819 0 00.654.964.843.843 0 00.624-.125.807.807 0 00.354-.52.816.816 0 00-.796-.973zm40.815 0a.817.817 0 00-.82.973c.088.444.527.73.979.645a.819.819 0 00.65-.964.822.822 0 00-.81-.654zM14.386 25.73v9.21h1.62v-6.27h.114l4.605 6.267h1.447V25.73H20.56v6.26h-.11l-4.606-6.26h-1.457zm10.775 0v9.21h6.075v-1.424h-4.397v-2.578h4.156v-1.34H26.84v-2.445h4.397V25.73H25.16zm7.97 0l2.518 9.21h1.58l1.9-6.523h.098l1.912 6.522h1.574l2.52-9.209h-1.74l-1.603 6.854h-.09l-1.873-6.854h-1.493l-1.847 6.854h-.094l-1.61-6.854h-1.75zM4.832 28.7a.826.826 0 00-.832.817c0 .45.374.817.832.817a.826.826 0 00.833-.817.826.826 0 00-.833-.817zm4.163 0a.826.826 0 00-.832.817c0 .45.374.817.832.817a.826.826 0 00.833-.817.826.826 0 00-.833-.817zm41.628 0a.826.826 0 00-.832.817c0 .45.374.817.832.817a.826.826 0 00.833-.817.826.826 0 00-.833-.817zm4.163 0a.826.826 0 00-.833.817c0 .45.374.817.833.817a.826.826 0 00.833-.817.826.826 0 00-.833-.817zM9.397 32.682a.819.819 0 00-.82.98c.092.44.528.727.98.641a.817.817 0 00.653-.96.83.83 0 00-.813-.66zm40.848 0a.817.817 0 00-.182 1.62.832.832 0 00.975-.64.809.809 0 00-.65-.964 1.103 1.103 0 00-.143-.016zm-39.66 3.832a.89.89 0 00-.326.061.815.815 0 00-.448 1.069.833.833 0 001.086.44.81.81 0 00.452-1.066.834.834 0 00-.764-.504zm38.473 0a.837.837 0 00-.79.505.81.81 0 00.452 1.065.847.847 0 00.637 0 .813.813 0 00-.3-1.57zM6.74 38.078a.82.82 0 00-.325.064.81.81 0 00-.452 1.065.84.84 0 001.09.444.81.81 0 00.448-1.069.83.83 0 00-.76-.504zm46.162 0a.83.83 0 00-.787.504.815.815 0 00.449 1.069.87.87 0 00.64-.003.81.81 0 00-.003-1.51.86.86 0 00-.299-.06zm-5.77 1.965a.833.833 0 00-.708.361c-.124.182-.17.402-.124.616.042.214.17.399.355.52.38.249.897.15 1.154-.227a.81.81 0 00-.23-1.132.85.85 0 00-.446-.138zm-34.622.004a.83.83 0 00-.472.137.803.803 0 00-.227 1.13.84.84 0 001.154.226.807.807 0 00.231-1.133.832.832 0 00-.686-.36zm2.592 3.092a.871.871 0 00-.602.239.815.815 0 000 1.158.854.854 0 001.18 0 .815.815 0 000-1.158.851.851 0 00-.578-.24zm29.435 0a.872.872 0 00-.601.239.815.815 0 000 1.158.854.854 0 001.18 0 .815.815 0 000-1.158.85.85 0 00-.579-.24zm-26.277 2.54a.827.827 0 00-.706.363c-.124.179-.17.399-.124.613a.81.81 0 00.355.52c.182.121.406.166.624.121a.824.824 0 00.53-.348.807.807 0 00-.23-1.132.851.851 0 00-.45-.138zm23.123 0a.833.833 0 00-.475.137.807.807 0 00-.228 1.132.842.842 0 001.155.227.807.807 0 00.227-1.133.824.824 0 00-.68-.364zm-29.224.35a.828.828 0 00-.602.236.81.81 0 000 1.159.85.85 0 001.177 0 .81.81 0 000-1.158.834.834 0 00-.575-.237zm35.322 0a.854.854 0 00-.602.236.815.815 0 000 1.159.854.854 0 001.18 0 .815.815 0 00-.578-1.395zM21.86 47.564a.83.83 0 00-.784.508.806.806 0 00.449 1.065.842.842 0 001.09-.44.813.813 0 00-.453-1.069.883.883 0 00-.302-.064zm15.923 0a.855.855 0 00-.326.064.813.813 0 00-.452 1.069.84.84 0 001.09.44.811.811 0 00.449-1.066.836.836 0 00-.761-.507zm-12.01 1.165a.836.836 0 00-.843.657.824.824 0 00.657.96.83.83 0 00.979-.64.814.814 0 00-.657-.961.662.662 0 00-.137-.016zm8.1 0a.824.824 0 00-.823.976.823.823 0 00.355.52c.185.122.41.166.628.122a.812.812 0 00.654-.958.83.83 0 00-.814-.66zm-4.065.392a.826.826 0 00-.832.817c0 .45.374.817.832.817a.826.826 0 00.833-.817.826.826 0 00-.833-.817zm9.565 2.218c-.11 0-.221.02-.325.064a.81.81 0 00-.45 1.066.843.843 0 001.087.443.825.825 0 00.452-.444.802.802 0 000-.625.834.834 0 00-.764-.504zm-19.103.003a.834.834 0 00-.79.501.826.826 0 00.003.629.837.837 0 001.538-.003.802.802 0 000-.626.83.83 0 00-.752-.5zm9.538 1.864a.826.826 0 00-.832.816c0 .45.374.817.832.817a.826.826 0 00.833-.817.826.826 0 00-.833-.816z" fill="#F7C920"/></svg>