<svg width="55" height="49" fill="none" xmlns="http://www.w3.org/2000/svg"><path d="M.09.82v37.842h.77c22.264 0 45.94 9.03 45.94 9.03l1.05.403v-7.17c1.747.427 2.863.734 2.863.734l.988.287v-9.338h2.311V.82H.09zm1.54 1.514h50.842v28.76H1.63V2.334zm8.474 1.513a.78.78 0 00-.545.222.75.75 0 000 1.07.777.777 0 001.09 0 .75.75 0 000-1.07.777.777 0 00-.545-.222zm3.081 0c-.204 0-.4.08-.544.222a.75.75 0 000 1.07.777.777 0 001.089 0 .75.75 0 000-1.07.777.777 0 00-.545-.222zm3.082 0c-.205 0-.4.08-.545.222a.75.75 0 000 1.07.777.777 0 001.09 0 .75.75 0 000-1.07.777.777 0 00-.545-.222zm3.08 0c-.204 0-.4.08-.544.222a.75.75 0 000 1.07.777.777 0 001.09 0 .75.75 0 000-1.07.777.777 0 00-.545-.222zm3.082 0a.78.78 0 00-.545.222.75.75 0 000 1.07.777.777 0 001.09 0 .75.75 0 000-1.07.777.777 0 00-.545-.222zm3.081 0c-.204 0-.4.08-.544.222a.75.75 0 000 1.07.777.777 0 001.09 0 .75.75 0 000-1.07.777.777 0 00-.546-.222zm3.082 0c-.205 0-.4.08-.545.222a.75.75 0 000 1.07.777.777 0 001.09 0 .75.75 0 000-1.07.777.777 0 00-.545-.222zm3.081 0a.78.78 0 00-.545.222.75.75 0 000 1.07.777.777 0 001.09 0 .75.75 0 000-1.07.777.777 0 00-.545-.222zm3.081 0c-.204 0-.4.08-.544.222a.75.75 0 000 1.07.777.777 0 001.089 0 .75.75 0 000-1.07.777.777 0 00-.545-.222zm3.082 0c-.205 0-.4.08-.545.222a.75.75 0 000 1.07.777.777 0 001.09 0 .75.75 0 000-1.07.777.777 0 00-.545-.222zm3.08 0c-.203 0-.4.08-.544.222a.75.75 0 000 1.07.777.777 0 001.09 0 .75.75 0 000-1.07.777.777 0 00-.545-.222zm3.082 0a.78.78 0 00-.545.222.75.75 0 000 1.07.777.777 0 001.09 0 .75.75 0 000-1.07.777.777 0 00-.545-.222zm.825 3.026c-.205 0-.4.08-.545.222a.75.75 0 000 1.07.777.777 0 001.09 0 .75.75 0 000-1.07.777.777 0 00-.545-.222zm-35.545.003a.78.78 0 00-.545.222.75.75 0 000 1.07.777.777 0 001.09 0 .75.75 0 000-1.07.777.777 0 00-.545-.222zm17.773 1.512c-4.67 0-8.473 3.737-8.473 8.326s3.802 8.325 8.473 8.325c4.67 0 8.474-3.736 8.474-8.325 0-4.59-3.803-8.326-8.474-8.326zm-20.03.702c-.204 0-.4.08-.544.222a.75.75 0 000 1.07.778.778 0 001.089 0 .75.75 0 000-1.07.777.777 0 00-.545-.222zm40.057.002a.78.78 0 00-.545.222.75.75 0 000 1.07.777.777 0 001.09 0 .75.75 0 000-1.07.777.777 0 00-.545-.222zm-43.137.81c-.204 0-.4.08-.544.222a.75.75 0 000 1.07.777.777 0 001.09 0 .75.75 0 000-1.07.777.777 0 00-.546-.222zm23.11 0c3.838 0 6.933 3.04 6.933 6.812 0 3.77-3.095 6.811-6.933 6.811-3.838 0-6.933-3.04-6.933-6.811s3.095-6.812 6.933-6.812zm23.11 0c-.205 0-.4.08-.545.222a.75.75 0 000 1.07.777.777 0 001.09 0 .75.75 0 000-1.07.777.777 0 00-.545-.222zM3.94 12.929c-.204 0-.4.08-.544.222a.75.75 0 000 1.07.777.777 0 001.09 0 .75.75 0 000-1.07.778.778 0 00-.546-.222zm46.22 0c-.205 0-.4.08-.545.222a.75.75 0 000 1.07.777.777 0 001.09 0 .75.75 0 000-1.07.777.777 0 00-.545-.222zm-39.287.757c-1.692 0-3.081 1.365-3.081 3.028s1.389 3.027 3.081 3.027c1.693 0 3.082-1.364 3.082-3.027s-1.39-3.028-3.082-3.028zm31.583 0c-1.692 0-3.08 1.365-3.08 3.028s1.388 3.027 3.08 3.027c1.693 0 3.082-1.364 3.082-3.027s-1.389-3.028-3.082-3.028zM10.874 15.2c.86 0 1.541.669 1.541 1.514s-.68 1.513-1.54 1.513-1.541-.668-1.541-1.513c0-.845.68-1.514 1.54-1.514zm31.583 0c.86 0 1.541.669 1.541 1.514s-.68 1.513-1.54 1.513-1.541-.668-1.541-1.513c0-.845.68-1.514 1.54-1.514zm-38.516.757c-.204 0-.4.08-.544.221a.75.75 0 000 1.07.777.777 0 001.09 0 .75.75 0 000-1.07.778.778 0 00-.546-.221zm46.22 0c-.205 0-.4.08-.545.221a.75.75 0 000 1.07.777.777 0 001.09 0 .75.75 0 000-1.07.777.777 0 00-.545-.221zM3.94 18.984c-.204 0-.4.08-.544.222a.75.75 0 000 1.07.778.778 0 001.09 0 .75.75 0 000-1.07.778.778 0 00-.546-.222zm46.22 0c-.205 0-.4.08-.545.222a.75.75 0 000 1.07.778.778 0 001.09 0 .75.75 0 000-1.07.777.777 0 00-.545-.222zM3.94 22.012c-.204 0-.4.08-.544.221a.75.75 0 000 1.07.778.778 0 001.09 0 .75.75 0 000-1.07.777.777 0 00-.546-.221zm46.22 0c-.205 0-.4.08-.545.221a.75.75 0 000 1.07.778.778 0 001.09 0 .75.75 0 000-1.07.777.777 0 00-.545-.221zm-3.083.81c-.204 0-.4.08-.545.221a.75.75 0 000 1.07.777.777 0 001.09 0 .75.75 0 000-1.07.778.778 0 00-.545-.221zm-40.057.001c-.204 0-.4.08-.544.222a.75.75 0 000 1.07.777.777 0 001.089 0 .75.75 0 000-1.07.777.777 0 00-.545-.222zm2.256 2.215c-.205 0-.4.08-.545.221a.75.75 0 000 1.07.777.777 0 001.09 0 .75.75 0 000-1.07.777.777 0 00-.545-.221zm35.546.003c-.205 0-.4.08-.545.221a.75.75 0 000 1.07.777.777 0 001.09 0 .75.75 0 000-1.07.778.778 0 00-.545-.221zm-34.719 3.026c-.204 0-.4.08-.545.221a.75.75 0 000 1.07.778.778 0 001.09 0 .75.75 0 000-1.07.777.777 0 00-.545-.221zm3.081 0c-.204 0-.4.08-.544.221a.75.75 0 000 1.07.777.777 0 001.089 0 .75.75 0 000-1.07.777.777 0 00-.545-.221zm3.082 0c-.205 0-.4.08-.545.221a.75.75 0 000 1.07.777.777 0 001.09 0 .75.75 0 000-1.07.777.777 0 00-.545-.221zm3.08 0c-.204 0-.4.08-.544.221a.75.75 0 000 1.07.778.778 0 001.09 0 .75.75 0 000-1.07.777.777 0 00-.545-.221zm3.082 0c-.204 0-.4.08-.545.221a.75.75 0 000 1.07.778.778 0 001.09 0 .75.75 0 000-1.07.777.777 0 00-.545-.221zm3.081 0c-.204 0-.4.08-.544.221a.75.75 0 000 1.07.778.778 0 001.09 0 .75.75 0 000-1.07.777.777 0 00-.546-.221zm3.082 0c-.205 0-.4.08-.545.221a.75.75 0 000 1.07.777.777 0 001.09 0 .75.75 0 000-1.07.777.777 0 00-.545-.221zm3.081 0c-.204 0-.4.08-.545.221a.75.75 0 000 1.07.777.777 0 001.09 0 .75.75 0 000-1.07.777.777 0 00-.545-.221zm3.081 0c-.204 0-.4.08-.544.221a.75.75 0 000 1.07.778.778 0 001.089 0 .75.75 0 000-1.07.777.777 0 00-.545-.221zm3.082 0c-.205 0-.4.08-.545.221a.75.75 0 000 1.07.778.778 0 001.09 0 .75.75 0 000-1.07.777.777 0 00-.545-.221zm3.08 0a.78.78 0 00-.544.221.75.75 0 000 1.07.778.778 0 001.09 0 .75.75 0 000-1.07.777.777 0 00-.545-.221zm3.082 0c-.204 0-.4.08-.545.221a.75.75 0 000 1.07.777.777 0 001.09 0 .75.75 0 000-1.07.777.777 0 00-.545-.221zM1.63 32.607h48.531v7.349c-2.516-.695-21.573-5.714-48.53-5.816v-1.532zm43.909 0c-.205 0-.4.08-.545.222a.75.75 0 000 1.07.777.777 0 001.09 0 .75.75 0 000-1.07.777.777 0 00-.545-.221zm-1.54 2.271a.78.78 0 00-.546.222.75.75 0 000 1.07.777.777 0 001.09 0 .75.75 0 000-1.07.778.778 0 00-.545-.222zm-42.369.767c16.724.062 30.6 2.09 39.287 3.777 0 .2.082.392.227.534a.777.777 0 001.253-.244c1.534.311 2.78.59 3.912.851v5.352c-2.74-1.018-23.69-8.542-44.679-8.73v-1.54zm38.517 5.288c-.205 0-.4.08-.545.222a.75.75 0 000 1.07.777.777 0 001.09 0 .75.75 0 000-1.07.777.777 0 00-.545-.222z" fill="#F7C920"/></svg>