<svg width="43" height="43" fill="none" xmlns="http://www.w3.org/2000/svg"><path d="M21.5 0C9.633 0 0 9.633 0 21.5S9.633 43 21.5 43 43 33.367 43 21.5 33.367 0 21.5 0zm0 1.303c11.162 0 20.197 9.035 20.197 20.197 0 11.162-9.035 20.197-20.197 20.197-11.162 0-20.197-9.035-20.197-20.197 0-11.162 9.035-20.197 20.197-20.197zm0 1.629a.978.978 0 100 1.955.978.978 0 000-1.955zm3.448.662a.654.654 0 00-.142 1.292.655.655 0 00.766-.511.656.656 0 00-.512-.769c-.038-.005-.073-.01-.112-.012zm3.299 1.002a.653.653 0 00-.265 1.255.65.65 0 00.85-.354.65.65 0 00-.585-.9zm3.036 1.624a.652.652 0 00-.552.293.65.65 0 10.904-.18.639.639 0 00-.352-.113zm-9.783.295a.653.653 0 00-.651.652c0 .359.292.651.651.651a.653.653 0 00.651-.651.653.653 0 00-.651-.652zM9.07 8.41a.656.656 0 00-.468.193.648.648 0 000 .919.648.648 0 00.919 0 .648.648 0 000-.919.64.64 0 00-.45-.193zm24.877 0a.656.656 0 00-.468.193.648.648 0 000 .919.648.648 0 00.919 0 .648.648 0 000-.919.64.64 0 00-.45-.193zM21.5 9.12a.653.653 0 10.651.652.653.653 0 00-.651-.652zm14.634 1.955a.648.648 0 00-.547 1.01c.198.3.603.382.9.18a.65.65 0 00-.353-1.19zm-29.25 0a.651.651 0 10-.02 1.298.651.651 0 00.02-1.298zm4.48.287s8.706 10.55 9.215 11.058a1.303 1.303 0 101.842-1.842c-.509-.51-11.058-9.216-11.058-9.216zm26.393 2.754a.65.65 0 10.244 1.252.653.653 0 00.354-.852.653.653 0 00-.598-.4zm-32.494 0a.649.649 0 00-.616.402.653.653 0 10.616-.402zm33.492 3.3a.557.557 0 00-.13.011.655.655 0 00-.511.766.655.655 0 00.766.514.651.651 0 00-.125-1.29zm-34.49 0a.652.652 0 10.621.777.651.651 0 00-.509-.766c-.038-.005-.073-.01-.112-.01zm-.356 3.106a.978.978 0 100 1.955.978.978 0 000-1.955zm35.182 0a.978.978 0 100 1.955.978.978 0 000-1.955zM4.25 24.279a.653.653 0 10-.003 1.305.653.653 0 00.002-1.305zm34.52 0a.654.654 0 00-.146 1.293.656.656 0 00.769-.512.656.656 0 00-.514-.768 1.842 1.842 0 00-.11-.013zm-1.004 3.298a.657.657 0 00-.618.405.65.65 0 00.354.85.653.653 0 10.265-1.255zm-32.514.003a.675.675 0 00-.255.048.655.655 0 00-.353.853.65.65 0 00.852.351.651.651 0 00-.244-1.252zm30.886 3.041a.651.651 0 00-.374 1.191c.142.097.32.133.488.097a.638.638 0 00.415-.277.647.647 0 00-.18-.901.61.61 0 00-.35-.11zm-29.257 0a.654.654 0 00-.55 1.013c.201.298.606.38.906.178a.65.65 0 00-.356-1.19zm2.188 2.667a.648.648 0 00-.468 1.11.648.648 0 00.919 0 .648.648 0 000-.919.628.628 0 00-.45-.19zm24.877 0a.648.648 0 00-.468 1.11.648.648 0 00.919 0 .648.648 0 000-.919.628.628 0 00-.45-.19zM11.74 35.475a.653.653 0 00-.372 1.194.651.651 0 10.372-1.194zm19.54 0a.65.65 0 00-.547 1.013.654.654 0 00.904.18.654.654 0 00.178-.906.64.64 0 00-.535-.288zm-16.496 1.623a.652.652 0 10-.027 1.307.652.652 0 00.027-1.307zm13.453 0a.655.655 0 00-.606.402.67.67 0 00-.003.502.654.654 0 001.207 0 .651.651 0 000-.5.65.65 0 00-.598-.404zm-10.15 1.003a.652.652 0 10-.034 1.304.652.652 0 00.034-1.304zm6.846.002a.654.654 0 00-.641.776.658.658 0 00.769.514.67.67 0 00.414-.277.651.651 0 00-.542-1.013zm-3.433.01a.978.978 0 100 1.956.978.978 0 000-1.955z" fill="#fff"/></svg>