<svg width="44" height="48" fill="none" xmlns="http://www.w3.org/2000/svg"><path d="M4.714 0v1.548H0v44.904h4.714V48H44V11.292L32.54 0H4.714zm1.572 1.548h25.143v10.84h11v34.064H6.286V1.548zM33 2.643l8.318 8.196H33V2.643zm-31.429.454h3.143v41.806H1.571V3.097zm8.643 0a.782.782 0 00-.785.774c0 .426.353.774.785.774A.782.782 0 0011 3.871a.782.782 0 00-.786-.774zm0 3.097a.782.782 0 00-.785.774c0 .426.353.774.785.774A.782.782 0 0011 6.968a.782.782 0 00-.786-.774zm0 3.096a.782.782 0 00-.785.775c0 .426.353.774.785.774a.782.782 0 00.786-.774.782.782 0 00-.786-.775zm0 3.097a.782.782 0 00-.785.774.78.78 0 00.785.774.782.782 0 00.786-.774.782.782 0 00-.786-.774zm0 3.097a.782.782 0 00-.785.774.78.78 0 00.785.774.782.782 0 00.786-.774.782.782 0 00-.786-.774zm0 3.097a.782.782 0 00-.785.774c0 .426.353.774.785.774a.782.782 0 00.786-.774.782.782 0 00-.786-.774zm4.715.774v1.548h21.214v-1.548H14.929zm-4.715 2.322a.782.782 0 00-.785.775c0 .426.353.774.785.774a.782.782 0 00.786-.774.782.782 0 00-.786-.775zM14.93 24v1.548H33V24H14.929zm-4.715.774a.782.782 0 00-.785.774c0 .427.353.775.785.775a.782.782 0 00.786-.775.782.782 0 00-.786-.774zm0 3.097a.782.782 0 00-.785.774.78.78 0 00.785.774.782.782 0 00.786-.774.782.782 0 00-.786-.774zm4.715.774v1.549h21.214v-1.549H14.929zm-4.715 2.323a.782.782 0 00-.785.774c0 .426.353.774.785.774a.782.782 0 00.786-.774.782.782 0 00-.786-.774zm4.715 2.322v1.549H33V33.29H14.929zm-4.715.775a.782.782 0 00-.785.774c0 .426.353.774.785.774a.782.782 0 00.786-.774.782.782 0 00-.786-.774zm0 3.096a.782.782 0 00-.785.774c0 .427.353.775.785.775a.782.782 0 00.786-.775.782.782 0 00-.786-.774zm0 3.097a.781.781 0 00-.785.774.78.78 0 00.785.774.781.781 0 00.786-.774.781.781 0 00-.786-.774zm0 3.097a.782.782 0 00-.785.774c0 .426.353.774.785.774A.782.782 0 0011 44.13a.782.782 0 00-.786-.774z" fill="#fff"/></svg>