<svg width="43" height="47" fill="none" xmlns="http://www.w3.org/2000/svg"><path d="M11.727 0v9.077l-5.53 11.726H0v1.541h7.195l6.096-12.93V1.541h1.564c1.313 0 2.568.945 3.53 2.516.962 1.571 1.56 3.705 1.564 5.682 0 .557-.183 1.95-.458 3.54a189.598 189.598 0 01-.962 5.06l-.19.923h19.8c1.716 0 3.212 1.28 3.295 2.929.08 1.6-1.063 2.916-2.584 3.178l-1.857.322 1.546 1.069a3.056 3.056 0 011.334 2.519c0 1.526-1.117 2.772-2.586 3.024l-1.857.323 1.545 1.068a3.056 3.056 0 011.335 2.52c0 1.654-1.304 2.976-2.963 3.06l-2.08.108 1.637 1.27c.718.554 1.152 1.412 1.045 2.402-.15 1.376-1.43 2.405-2.877 2.405H11.645a4.88 4.88 0 01-4.361-2.658l-.7 1.117v-1.541H0v1.541h6.181C7.345 45.799 9.385 47 11.645 47h21.427c2.202 0 4.19-1.577 4.431-3.78.11-1.036-.26-1.935-.794-2.721 1.824-.632 3.164-2.278 3.164-4.286 0-1.095-.482-2.022-1.133-2.814 1.58-.743 2.697-2.287 2.697-4.12 0-1.099-.486-2.026-1.14-2.82 1.647-.774 2.792-2.414 2.698-4.343-.126-2.514-2.349-4.395-4.856-4.395H20.236c.278-1.393.568-2.859.797-4.183.278-1.616.48-2.962.48-3.799-.004-2.275-.657-4.628-1.787-6.476C18.593 1.412 16.907 0 14.855 0h-3.128zM.782 30.05a.778.778 0 00-.782.77c0 .424.351.77.782.77.43 0 .782-.346.782-.77a.778.778 0 00-.782-.77zm0 3.081a.778.778 0 00-.782.77c0 .425.351.771.782.771.43 0 .782-.346.782-.77a.778.778 0 00-.782-.77zm0 3.082a.778.778 0 00-.782.77c0 .425.351.771.782.771.43 0 .782-.346.782-.77a.778.778 0 00-.782-.77zm5.473 0a.778.778 0 00-.782.77c0 .425.351.771.782.771.43 0 .781-.346.781-.77a.778.778 0 00-.781-.77zM.782 39.295a.778.778 0 00-.782.77c0 .425.351.771.782.771.43 0 .782-.346.782-.77a.778.778 0 00-.782-.77zm5.473 0a.778.778 0 00-.782.77c0 .425.351.771.782.771.43 0 .781-.346.781-.77a.778.778 0 00-.781-.77z" fill="#fff"/></svg>