<svg width="29" height="28" viewBox="0 0 29 28" fill="none" xmlns="http://www.w3.org/2000/svg">
<path fill-rule="evenodd" clip-rule="evenodd" d="M28.0173 14.0032C28.0173 21.3915 21.7483 27.3809 14.0152 27.3809C6.28201 27.3809 0.0130615 21.3915 0.0130615 14.0032C0.0130615 6.61489 6.28201 0.625488 14.0152 0.625488C21.7483 0.625488 28.0173 6.61489 28.0173 14.0032ZM9.38955 12.7777C7.9869 13.3629 6.5457 13.964 5.22785 14.6576L5.22776 14.6577C4.53962 15.139 5.45429 15.4795 6.31231 15.7989C6.44872 15.8496 6.5837 15.8999 6.71058 15.9501C6.81616 15.9811 6.92353 16.0137 7.03233 16.0469C7.98662 16.3373 9.05071 16.6612 9.97715 16.174C11.499 15.3387 12.9353 14.3731 14.3704 13.4081C14.8406 13.092 15.3107 12.7759 15.7836 12.4646C15.8057 12.451 15.8307 12.4355 15.8581 12.4186C16.261 12.1691 17.167 11.608 16.8319 12.3812C16.0393 13.2093 15.1904 13.9423 14.3369 14.6793C13.7617 15.176 13.1844 15.6745 12.6208 16.2052C12.1299 16.5862 11.6202 17.3525 12.1698 17.8861C13.4358 18.7329 14.7216 19.5591 16.0066 20.3848C16.4247 20.6535 16.8428 20.9221 17.2601 21.1914C17.9673 21.7309 19.0726 21.2945 19.2281 20.4515C19.2972 20.0638 19.3666 19.676 19.436 19.2883C19.8197 17.1452 20.2035 15.0014 20.5425 12.8513C20.5886 12.5141 20.6408 12.1768 20.6931 11.8394C20.8197 11.0216 20.9466 10.2028 20.9862 9.38068C20.8841 8.56021 19.8428 8.74061 19.2633 8.9251C16.2848 10.0079 13.3361 11.171 10.3991 12.3546C10.0663 12.4954 9.72908 12.6361 9.38955 12.7777Z" fill="#181C1D"/>
</svg>
