<svg width="28" height="28" viewBox="0 0 28 28" fill="none" xmlns="http://www.w3.org/2000/svg">
<path fill-rule="evenodd" clip-rule="evenodd" d="M14.2055 0.462646C6.83978 0.462646 0.868713 6.43371 0.868713 13.7994C0.868713 21.1651 6.83978 27.1362 14.2055 27.1362C21.5712 27.1362 27.5422 21.1651 27.5422 13.7994C27.5422 6.43371 21.5712 0.462646 14.2055 0.462646ZM11.2732 6.72938C12.0319 6.69485 12.2744 6.68641 14.2062 6.68641H14.2039C16.1363 6.68641 16.3778 6.69485 17.1366 6.72938C17.8938 6.76406 18.411 6.88394 18.8644 7.05984C19.3327 7.24137 19.7284 7.4844 20.124 7.88006C20.5197 8.27542 20.7627 8.67227 20.945 9.1401C21.1199 9.59237 21.2399 10.1092 21.2755 10.8665C21.3095 11.6252 21.3184 11.8676 21.3184 13.7994C21.3184 15.7312 21.3095 15.973 21.2755 16.7318C21.2399 17.4887 21.1199 18.0057 20.945 18.4581C20.7627 18.9258 20.5197 19.3227 20.124 19.718C19.7288 20.1137 19.3326 20.3573 18.8649 20.539C18.4123 20.7149 17.8948 20.8348 17.1376 20.8694C16.3789 20.904 16.1372 20.9124 14.2053 20.9124C12.2736 20.9124 12.0314 20.904 11.2726 20.8694C10.5155 20.8348 9.99852 20.7149 9.54595 20.539C9.07842 20.3573 8.68157 20.1137 8.28635 19.718C7.89084 19.3227 7.64781 18.9258 7.46599 18.458C7.29024 18.0057 7.17035 17.4888 7.13553 16.7316C7.10115 15.9729 7.09255 15.7312 7.09255 13.7994C7.09255 11.8676 7.10145 11.6251 7.13538 10.8663C7.16946 10.1094 7.2895 9.59237 7.46584 9.13995C7.64811 8.67227 7.89114 8.27542 8.2868 7.88006C8.68216 7.48454 9.07901 7.24152 9.54684 7.05984C9.99911 6.88394 10.516 6.76406 11.2732 6.72938Z" fill="#181C1D"/>
<path fill-rule="evenodd" clip-rule="evenodd" d="M13.568 7.96833C13.6919 7.96814 13.8252 7.9682 13.9691 7.96826L14.2061 7.96833C16.1053 7.96833 16.3304 7.97515 17.0804 8.00923C17.7739 8.04094 18.1503 8.15683 18.401 8.25419C18.733 8.38311 18.9696 8.53722 19.2184 8.78618C19.4674 9.03513 19.6215 9.27223 19.7507 9.60417C19.8481 9.85461 19.9641 10.231 19.9957 10.9245C20.0298 11.6744 20.0372 11.8996 20.0372 13.7979C20.0372 15.6962 20.0298 15.9214 19.9957 16.6712C19.964 17.3648 19.8481 17.7412 19.7507 17.9916C19.6218 18.3235 19.4674 18.5599 19.2184 18.8087C18.9695 19.0577 18.7331 19.2118 18.401 19.3407C18.1506 19.4385 17.7739 19.5541 17.0804 19.5858C16.3305 19.6199 16.1053 19.6273 14.2061 19.6273C12.3068 19.6273 12.0817 19.6199 11.3319 19.5858C10.6384 19.5538 10.262 19.4379 10.0111 19.3406C9.67914 19.2116 9.44204 19.0575 9.19308 18.8086C8.94413 18.5596 8.79001 18.3231 8.66079 17.991C8.56343 17.7406 8.4474 17.3642 8.41584 16.6707C8.38176 15.9208 8.37494 15.6956 8.37494 13.7961C8.37494 11.8966 8.38176 11.6726 8.41584 10.9227C8.44755 10.2292 8.56343 9.85283 8.66079 9.6021C8.78972 9.27016 8.94413 9.03306 9.19308 8.7841C9.44204 8.53515 9.67914 8.38103 10.0111 8.25181C10.2618 8.15401 10.6384 8.03842 11.3319 8.00656C11.9881 7.97693 12.2423 7.96803 13.568 7.96655V7.96833ZM18.003 9.14938C17.5318 9.14938 17.1494 9.53125 17.1494 10.0026C17.1494 10.4739 17.5318 10.8562 18.003 10.8562C18.4742 10.8562 18.8566 10.4739 18.8566 10.0026C18.8566 9.5314 18.4742 9.14908 18.003 9.14908V9.14938ZM10.5533 13.7994C10.5533 11.7822 12.1887 10.1467 14.206 10.1466C16.2232 10.1466 17.8583 11.7821 17.8583 13.7994C17.8583 15.8167 16.2234 17.4515 14.2061 17.4515C12.1888 17.4515 10.5533 15.8167 10.5533 13.7994Z" fill="#181C1D"/>
<path d="M14.2061 11.4285C15.5155 11.4285 16.5771 12.4899 16.5771 13.7995C16.5771 15.1089 15.5155 16.1705 14.2061 16.1705C12.8966 16.1705 11.8351 15.1089 11.8351 13.7995C11.8351 12.4899 12.8966 11.4285 14.2061 11.4285Z" fill="#181C1D"/>
</svg>
