<svg width="29" height="28" viewBox="0 0 29 28" fill="none" xmlns="http://www.w3.org/2000/svg">
<path fill-rule="evenodd" clip-rule="evenodd" d="M14.6903 0.625488C22.4234 0.625488 28.6924 6.61489 28.6924 14.0032C28.6924 21.3915 22.4234 27.3809 14.6903 27.3809C6.95712 27.3809 0.688171 21.3915 0.688171 14.0032C0.688171 6.61489 6.95712 0.625488 14.6903 0.625488ZM18.4207 12.3077C18.3526 11.7791 18.1826 11.3641 17.8806 10.9964C17.4884 10.523 16.9873 10.2396 16.2454 10.0714C15.7618 9.95932 15.5665 9.97219 15.3916 10.1248C15.2287 10.2678 15.1969 10.5544 15.3214 10.74C15.409 10.8748 15.5099 10.923 15.7908 10.9757C16.1649 11.0415 16.4233 11.1268 16.6585 11.2552C17.1576 11.5306 17.39 11.9614 17.4149 12.6589C17.4265 12.9864 17.4561 13.0871 17.5758 13.2032C17.7977 13.4156 18.1927 13.3743 18.3602 13.1202C18.4217 13.0244 18.431 12.9827 18.4375 12.7604C18.4418 12.6227 18.4356 12.4178 18.4207 12.3077ZM18.4274 9.06464C19.6139 9.98136 20.2769 11.2843 20.3755 12.9038C20.417 13.5416 20.3619 13.7494 20.1263 13.8677C19.9138 13.9773 19.673 13.9412 19.5078 13.7762C19.3983 13.6688 19.3563 13.522 19.3579 13.262C19.3627 12.543 19.1894 11.7402 18.9075 11.1831C18.5813 10.5347 18.077 9.98294 17.4426 9.57953C16.887 9.22522 16.1516 8.98589 15.4386 8.92629C14.9761 8.88763 14.8109 8.8128 14.7221 8.60097C14.6671 8.47425 14.6817 8.25519 14.7462 8.15707C14.8071 8.0666 14.9439 7.96655 15.0406 7.9401C15.1431 7.91153 15.7405 7.96147 16.065 8.02308C16.9508 8.19533 17.7589 8.54953 18.4274 9.06464ZM22.5386 19.1405C22.5054 19.0479 22.4281 18.9051 22.3728 18.8231C22.0246 18.3208 20.1537 16.9219 19.2197 16.4644C18.6863 16.2027 18.2911 16.1154 17.9982 16.1974C17.6832 16.282 17.5173 16.4221 16.9895 17.0488C16.7768 17.3001 16.5584 17.5354 16.5004 17.5724C16.3567 17.6676 16.0748 17.7443 15.8758 17.7443C15.4143 17.7416 14.577 17.4561 13.9331 17.0806C13.4329 16.7897 12.7918 16.2688 12.2999 15.7532C11.7195 15.1476 11.3244 14.6135 11.0121 14.0106C10.6087 13.2359 10.5064 12.7625 10.675 12.4161C10.7164 12.3289 10.7717 12.2363 10.7965 12.2072C10.8214 12.1808 11.0812 11.9772 11.3686 11.7551C11.9324 11.3267 12.0235 11.2289 12.1286 10.9354C12.2612 10.5625 12.2253 10.1817 12.0208 9.79833C11.8633 9.50745 11.4515 8.87283 11.1531 8.46298C10.7579 7.92358 9.77408 6.77068 9.57784 6.61463C9.22412 6.33965 8.77096 6.29203 8.27072 6.47716C7.74294 6.67284 6.75358 7.43438 6.33076 7.96588C5.9494 8.44712 5.80298 8.78821 5.78085 9.23774C5.76152 9.60792 5.79467 9.76129 5.99917 10.2346C7.59923 13.9471 9.98684 16.9113 13.2671 19.2647C14.9805 20.4943 16.7574 21.4304 18.6006 22.0703C19.6756 22.4431 20.1426 22.4616 20.6926 22.1549C20.9247 22.0227 21.4995 21.4595 21.8201 21.0496C22.3507 20.3674 22.5469 20.0527 22.6021 19.8015C22.6408 19.6297 22.6104 19.3309 22.5386 19.1405ZM21.832 10.7706C22.1686 11.6083 22.33 12.3597 22.3654 13.2758C22.3711 13.4567 22.3684 13.7883 22.3562 14.0129C22.3306 14.4434 22.3062 14.529 22.1764 14.6429C21.9679 14.8298 21.5614 14.7853 21.4073 14.56C21.3268 14.4391 21.3155 14.3506 21.3311 13.8476C21.3758 12.3596 21.0608 11.1945 20.302 10.0296C19.3953 8.63189 18.039 7.69035 16.2753 7.22972C15.8255 7.11248 15.4465 7.04102 14.857 6.9652C14.473 6.91718 14.3889 6.89688 14.2941 6.84115C14.0078 6.66595 14.004 6.22233 14.2894 6.04447C14.4367 5.95058 14.5453 5.94638 15.0254 6.00512C16.4331 6.17319 17.6891 6.57282 18.7213 7.17671C19.4611 7.61014 19.9275 7.99951 20.5281 8.68145C21.1633 9.40877 21.4997 9.94651 21.832 10.7706Z" fill="#181C1D"/>
</svg>
