<svg width="10" height="9" viewBox="0 0 10 9" fill="none" xmlns="http://www.w3.org/2000/svg">
<path d="M1.16096 0.075273C1.06813 0.0752971 0.977409 0.102582 0.900405 0.15364C0.823401 0.204698 0.763611 0.27721 0.728678 0.361903C0.693745 0.446597 0.685257 0.539625 0.704298 0.629094C0.72334 0.718563 0.769046 0.800407 0.835574 0.864163L4.23893 4.21538L0.835574 7.56659C0.790786 7.60893 0.755029 7.65965 0.730396 7.71577C0.705763 7.77189 0.692749 7.83228 0.692117 7.89342C0.691485 7.95455 0.703248 8.0152 0.726716 8.0718C0.750184 8.1284 0.784886 8.17982 0.828789 8.22305C0.872692 8.26628 0.924914 8.30045 0.982397 8.32356C1.03988 8.34667 1.10147 8.35825 1.16355 8.35763C1.22564 8.35701 1.28697 8.34419 1.34397 8.31994C1.40096 8.29568 1.45246 8.26047 1.49546 8.21637L4.89882 4.86516L8.30218 8.21637C8.34518 8.26047 8.39669 8.29568 8.45368 8.31994C8.51068 8.34419 8.57201 8.35701 8.6341 8.35763C8.69618 8.35825 8.75777 8.34667 8.81525 8.32356C8.87274 8.30045 8.92496 8.26628 8.96886 8.22305C9.01276 8.17982 9.04747 8.1284 9.07093 8.0718C9.0944 8.0152 9.10616 7.95455 9.10553 7.89342C9.1049 7.83228 9.09189 7.77189 9.06725 7.71577C9.04262 7.65965 9.00686 7.60893 8.96208 7.56659L5.55872 4.21538L8.96208 0.864163C9.02951 0.799619 9.07557 0.71652 9.09422 0.625757C9.11286 0.534994 9.10323 0.440802 9.06658 0.355523C9.02992 0.270244 8.96796 0.197857 8.88881 0.147848C8.80966 0.0978401 8.71702 0.0725433 8.62302 0.075273C8.50178 0.0788302 8.38671 0.128724 8.30218 0.214383L4.89882 3.5656L1.49546 0.214383C1.45198 0.170365 1.39997 0.135375 1.34252 0.111482C1.28506 0.0875886 1.22333 0.0752766 1.16096 0.075273Z" fill="#777777"/>
</svg>
