<svg width="17" height="14" viewBox="0 0 17 14" fill="none" xmlns="http://www.w3.org/2000/svg">
<path d="M16.2085 2.67362C13.9113 0.924204 11.1861 -0.000411987 8.32753 -0.000411987C5.46949 -0.000411987 2.74461 0.924026 0.44744 2.67291C0.341112 2.75393 0.311367 2.90535 0.37872 3.02307L3.78892 8.98104C3.82807 9.04965 3.89491 9.0961 3.97081 9.10816C4.04653 9.12075 4.1238 9.09628 4.1809 9.04309C4.55612 8.69292 4.96793 8.39559 5.40555 8.15287C5.64522 8.76189 5.6365 9.46932 5.3729 10.0684C5.12264 10.6374 4.9905 11.2795 4.9905 11.9262V12.8151C4.9905 12.9619 5.1052 13.0811 5.24692 13.0811C5.38863 13.0811 5.50333 12.9619 5.50333 12.8151V11.9262C5.50333 11.3552 5.61958 10.7893 5.83959 10.2895C6.16575 9.54839 6.17276 8.67076 5.86779 7.92079C6.51721 7.62966 7.21365 7.45591 7.92889 7.40839C7.98803 7.63197 8.06376 7.84916 8.1559 8.05624C8.43608 8.68566 8.43762 9.43794 8.16 10.0686C7.90974 10.6375 7.7776 11.2797 7.7776 11.9263V12.8153C7.7776 12.9621 7.8923 13.0813 8.03402 13.0813C8.17573 13.0813 8.29044 12.9621 8.29044 12.8153V11.9263C8.29044 11.3554 8.40668 10.7895 8.62669 10.2897C8.96533 9.51985 8.96362 8.60161 8.62173 7.83338C8.55916 7.69296 8.50634 7.54669 8.46104 7.39687C9.31543 7.41584 10.1478 7.61619 10.9115 7.97947C10.9223 8.005 10.9321 8.03107 10.9432 8.05624C11.2234 8.68548 11.2247 9.43776 10.9473 10.0686C10.697 10.6374 10.5649 11.2797 10.5649 11.9263V12.8153C10.5649 12.9621 10.6797 13.0813 10.8213 13.0813C10.9628 13.0813 11.0777 12.9621 11.0777 12.8153V11.9263C11.0777 11.3554 11.194 10.7895 11.4138 10.2897C11.6796 9.68562 11.7326 8.99132 11.5793 8.34896C11.895 8.55091 12.1948 8.78264 12.4743 9.04362C12.5217 9.08777 12.5831 9.11188 12.646 9.11188C12.6588 9.11188 12.6716 9.11082 12.6846 9.10887C12.7605 9.09681 12.8273 9.05018 12.8665 8.98157L16.2774 3.02414C16.3446 2.90605 16.3148 2.75464 16.2085 2.67362ZM12.5812 8.43744C12.1877 8.10287 11.7612 7.81902 11.3111 7.58746C11.1584 7.16443 11.0775 6.70345 11.0775 6.23822V5.04747L11.4579 5.65153C11.5353 5.7744 11.6945 5.80915 11.8128 5.72884C11.9312 5.64852 11.9647 5.48381 11.8873 5.36076L11.036 4.0085C11.0357 4.00797 11.0353 4.00779 11.035 4.00726C11.0242 3.99042 11.0116 3.97535 10.9975 3.96152C10.9936 3.95762 10.9893 3.9546 10.9852 3.95106C10.9745 3.94166 10.9632 3.93315 10.9509 3.9257C10.9456 3.92251 10.9401 3.9195 10.9346 3.91648C10.9221 3.9101 10.9092 3.90496 10.8957 3.9007C10.8904 3.89893 10.8852 3.89698 10.8798 3.89556C10.8609 3.89095 10.8415 3.88794 10.8211 3.88794C10.8009 3.88794 10.7815 3.89095 10.7625 3.89556C10.757 3.89698 10.7519 3.89893 10.7466 3.9007C10.7331 3.90496 10.7201 3.9101 10.7076 3.91648C10.702 3.91932 10.6967 3.92233 10.6914 3.9257C10.6792 3.93315 10.668 3.94166 10.6572 3.95106C10.6531 3.9546 10.6488 3.95779 10.6449 3.96169C10.6309 3.97552 10.6182 3.99059 10.6074 4.00744C10.6071 4.00797 10.6068 4.00815 10.6064 4.00868L9.75476 5.36094C9.67732 5.48381 9.71065 5.6487 9.82929 5.72901C9.87254 5.75845 9.92109 5.77227 9.9693 5.77227C10.0529 5.77227 10.1349 5.7299 10.1842 5.65171L10.5649 5.04747V6.23839C10.5649 6.60097 10.6091 6.96177 10.6922 7.30857C9.94656 7.01762 9.15081 6.86337 8.33864 6.86213C8.30685 6.657 8.29044 6.44814 8.29044 6.23839V5.04747L8.67096 5.65171C8.72019 5.72972 8.80225 5.77227 8.88584 5.77227C8.93388 5.77227 8.9826 5.75827 9.02585 5.72901C9.14431 5.6487 9.17782 5.48399 9.10038 5.36094L8.2489 4.00868C8.20154 3.9335 8.12069 3.88812 8.03419 3.88812C7.94769 3.88812 7.86683 3.9335 7.81948 4.00868L6.96783 5.36094C6.89039 5.48381 6.92372 5.6487 7.04236 5.72901C7.161 5.80951 7.31998 5.77476 7.39724 5.65171L7.77777 5.04747V6.23839C7.77777 6.4547 7.79418 6.67012 7.8241 6.8827C7.08134 6.94032 6.35858 7.12507 5.68231 7.42594C5.56522 7.0483 5.50351 6.64494 5.50351 6.23839V5.04765L5.88386 5.65171C5.93309 5.72972 6.01515 5.77227 6.09874 5.77227C6.14677 5.77227 6.19549 5.75827 6.23874 5.72901C6.35721 5.6487 6.39071 5.48399 6.31328 5.36094L5.4618 4.00868C5.46162 4.00832 5.46111 4.00797 5.46094 4.00762C5.41513 3.93563 5.33649 3.88812 5.24709 3.88812C5.15768 3.88812 5.07922 3.93563 5.03323 4.00762C5.03306 4.00797 5.03255 4.00832 5.03238 4.00868L4.1809 5.36094C4.10346 5.48399 4.13679 5.6487 4.25543 5.72901C4.37424 5.80951 4.53305 5.77476 4.61031 5.65171L4.99067 5.04765V6.23839C4.99067 6.72384 5.06811 7.20609 5.21546 7.65555C4.81288 7.87416 4.42997 8.13496 4.07406 8.43744L0.939593 2.96066C3.10804 1.37064 5.65736 0.531486 8.32753 0.531486C10.9984 0.531486 13.548 1.37082 15.7165 2.96155L12.5812 8.43744Z" fill="#686868"/>
</svg>
