<svg width="17" height="10" viewBox="0 0 17 10" fill="none" xmlns="http://www.w3.org/2000/svg">
<path d="M16.3376 3.49769H15.1402C15.0001 3.49769 14.8863 3.61295 14.8863 3.75536V5.56279H13.8131L12.2145 3.59577C12.1663 3.53651 12.0945 3.50216 12.0187 3.50216H9.46271V2.14736C9.46271 2.00495 9.34897 1.88969 9.20883 1.88969H6.89112V0.968454H9.22508C9.36522 0.968454 9.47895 0.853192 9.47895 0.71079C9.47895 0.568387 9.36522 0.453125 9.22508 0.453125H4.04942C3.90911 0.453125 3.79554 0.568387 3.79554 0.71079C3.79554 0.853192 3.90911 0.968454 4.04942 0.968454H6.38337V1.88969H4.04942C3.90911 1.88969 3.79554 2.00495 3.79554 2.14736V3.50216H2.46067C2.32036 3.50216 2.2068 3.61742 2.2068 3.75982V5.64885H1.12884V4.11025C1.12884 3.96784 1.01528 3.85258 0.874968 3.85258C0.73466 3.85258 0.621094 3.96784 0.621094 4.11025V7.70278C0.621094 7.84501 0.73466 7.96044 0.874968 7.96044C1.01528 7.96044 1.12884 7.84501 1.12884 7.70278V6.16418H2.2068V8.32341C2.2068 8.46564 2.32036 8.58107 2.46067 8.58107H3.95362L4.84185 9.7969C4.88974 9.86235 4.9654 9.901 5.04579 9.901H13.6934C13.8336 9.901 13.9473 9.78557 13.9473 9.64334V7.2608H14.8863V9.04092C14.8863 9.18315 15.0001 9.29858 15.1402 9.29858H16.3376C16.4778 9.29858 16.5915 9.18315 16.5915 9.04092V3.75536C16.5915 3.61312 16.4778 3.49769 16.3376 3.49769ZM13.6934 6.74547C13.5533 6.74547 13.4396 6.8609 13.4396 7.00313V9.38567H5.17358L4.28535 8.16984C4.23746 8.10422 4.1618 8.06574 4.08141 8.06574H2.71455V4.01749H4.04942C4.18973 4.01749 4.30329 3.90222 4.30329 3.75982V2.40502H8.95496V3.75982C8.95496 3.90222 9.06869 4.01749 9.20883 4.01749H11.8991L13.4976 5.9845C13.5459 6.04393 13.6176 6.07829 13.6934 6.07829H14.8863V6.74564H13.6934V6.74547ZM16.0838 8.78325H15.3941V4.01302H16.0838V8.78325Z" fill="#686868"/>
</svg>
