<svg width="14" height="16" viewBox="0 0 14 16" fill="none" xmlns="http://www.w3.org/2000/svg">
<path d="M12.1137 6.66692C11.2589 5.87347 10.1477 5.39117 8.93672 5.39117C8.56632 5.39117 8.21016 5.43785 7.86825 5.51564C7.68304 4.47325 6.95648 3.71092 5.74554 3.32197C4.83377 3.02637 3.96474 3.05748 3.93625 3.05748C3.82228 3.05748 3.7368 3.16639 3.72255 3.29085C3.72255 3.41531 3.80803 3.52422 3.922 3.52422C4.67706 3.57089 4.87651 4.61328 4.93349 4.92444C5.04746 5.70233 4.87651 6.30909 4.74829 6.35577C4.62007 6.418 4.46336 6.38688 4.30665 6.30909C3.96474 6.1224 3.50886 5.57787 3.25242 4.58216C2.58284 2.17068 0.887524 2.34182 0.859031 2.34182C0.759306 2.35737 0.673828 2.45072 0.673828 2.55963C0.673828 2.66853 0.730814 2.77744 0.844785 2.80855C1.74231 3.02637 1.5571 4.65995 1.40039 6.10684C1.34341 6.65137 1.28642 7.16478 1.28642 7.58484C1.34341 11.1632 3.63707 11.5832 4.09296 11.6299C4.30665 13.0612 5.04746 14.3525 6.17293 15.1927C6.20142 15.2238 6.24416 15.2394 6.2869 15.2394H11.5865C11.6435 15.2394 11.7005 15.2082 11.7433 15.1616C13.0539 14.1503 13.8375 12.5167 13.8375 10.7587C13.8375 9.29622 13.2961 7.95823 12.4128 6.97808L12.1137 6.66692ZM1.71381 7.56929C1.71381 7.19589 1.75655 6.68248 1.81354 6.16907C1.92751 5.08001 2.06997 3.80426 1.69957 3.02637C2.09847 3.25973 2.55435 3.74203 2.81078 4.73774C3.06722 5.70233 3.5516 6.44911 4.09296 6.74471C4.36364 6.88474 4.63432 6.91585 4.87651 6.80695C5.31815 6.62025 5.44636 5.67122 5.33239 4.8622C5.26116 4.34879 5.0902 3.91317 4.87651 3.61757C5.83101 3.77315 7.19867 4.25544 7.44085 5.65566C5.46061 6.34021 4.02173 8.3783 4.02173 10.7742C4.02173 10.9142 4.02173 11.0387 4.03597 11.1787C3.5231 11.0854 1.7708 10.6186 1.71381 7.56929ZM11.5153 14.7571H6.35813C5.18993 13.8547 4.49186 12.4078 4.44912 10.852H5.28965C5.40362 10.852 5.50335 10.7431 5.50335 10.6186C5.50335 10.4942 5.40362 10.3853 5.28965 10.3853H4.46336C4.53459 9.29622 4.94774 8.30051 5.57458 7.52261L6.20142 8.20716C6.24416 8.25383 6.30114 8.26939 6.35813 8.26939C6.41512 8.26939 6.4721 8.25383 6.51484 8.20716C6.60032 8.11381 6.60032 7.97379 6.51484 7.88044L5.87375 7.18034C6.62881 6.40244 7.62606 5.92014 8.72303 5.85791V6.85362C8.72303 6.97808 8.82275 7.08699 8.93672 7.08699C9.05069 7.08699 9.15042 6.97808 9.15042 6.85362V5.85791C10.1619 5.90459 11.0737 6.32465 11.8002 6.99364L11.0167 7.84933C10.9312 7.94268 10.9312 8.0827 11.0167 8.17604C11.0594 8.22272 11.1164 8.23828 11.1734 8.23828C11.2304 8.23828 11.2874 8.22272 11.3301 8.17604L12.1279 7.3048C12.7548 7.98935 13.1964 8.89171 13.3531 9.88742C13.3531 9.90298 13.3958 10.3542 13.3958 10.3697H12.5838C12.4698 10.3697 12.3701 10.4786 12.3701 10.6031C12.3701 10.7275 12.4698 10.8365 12.5838 10.8365H13.4243C13.4386 10.9609 13.4243 10.6342 13.4243 10.7587C13.4243 12.3456 12.712 13.8391 11.5153 14.7571Z" fill="#686868"/>
<path d="M11.8144 10.3847H9.91964C9.81992 9.88682 9.42104 9.52899 8.93667 9.52899C8.38108 9.52899 7.93945 10.0268 7.93945 10.618C7.93945 11.2092 8.39532 11.7071 8.93667 11.7071C9.42104 11.7071 9.81992 11.3337 9.91964 10.8514H11.8286C11.9426 10.8514 12.0423 10.7425 12.0423 10.618C12.0423 10.4936 11.9283 10.3847 11.8144 10.3847ZM8.93667 11.2403C8.62326 11.2403 8.36683 10.9603 8.36683 10.618C8.36683 10.2758 8.62326 9.99573 8.93667 9.99573C9.25008 9.99573 9.52076 10.2758 9.52076 10.618C9.52076 10.9603 9.25008 11.2403 8.93667 11.2403Z" fill="#686868"/>
<path d="M8.31027 3.61691C8.69491 3.92807 9.0653 4.22367 9.16502 4.51927C9.19351 4.61262 9.27899 4.65929 9.36446 4.65929C9.44994 4.65929 9.52117 4.61262 9.56391 4.51927C9.79184 3.9903 9.9343 2.77678 8.8801 2.01444C8.59519 1.81219 8.32451 1.64105 8.09658 1.50103C7.71194 1.26766 7.39853 1.08097 7.17059 0.785368C7.11361 0.723136 7.02813 0.69202 6.94266 0.707578C6.85718 0.738694 6.8002 0.800926 6.78595 0.894273C6.78595 0.940947 6.65774 1.95221 7.52674 2.90125C7.75468 3.18129 8.03959 3.3991 8.31027 3.61691ZM7.88289 1.9211C8.11082 2.06112 8.36725 2.2167 8.63792 2.41895C9.26474 2.87013 9.32173 3.49245 9.27899 3.89695C9.07955 3.67914 8.82312 3.46133 8.56669 3.25908C8.31027 3.05683 8.03959 2.83901 7.84015 2.60565C7.484 2.2167 7.3273 1.82775 7.25607 1.51659C7.44127 1.65661 7.65495 1.78108 7.88289 1.9211Z" fill="#686868"/>
</svg>
