<svg width="10" height="16" viewBox="0 0 10 16" fill="none" xmlns="http://www.w3.org/2000/svg">
<path d="M1.2528 2.11664L1.2528 2.98757H1.24794C0.929719 2.98757 0.670898 3.24547 0.670898 3.56255L0.670898 5.62472C0.670898 5.94181 0.929719 6.19971 1.24794 6.19971H1.2528V9.75156H1.24794C0.929719 9.75156 0.670898 10.0095 0.670898 10.3265L0.670898 12.3889C0.670898 12.706 0.929719 12.9639 1.24794 12.9639H1.2528V14.1027C1.2528 14.8054 1.92756 15.3772 2.75694 15.3772H7.90167C8.73104 15.3772 9.4058 14.8054 9.4058 14.1027V12.9639H9.41067C9.72889 12.9639 9.98771 12.706 9.98771 12.3889V10.3265C9.98771 10.0095 9.72889 9.75156 9.41067 9.75156H9.4058V6.19971H9.41067C9.72889 6.19971 9.98771 5.94181 9.98771 5.62472V3.56226C9.98771 3.24532 9.72889 2.98742 9.41067 2.98742H9.4058V2.11649C9.4058 1.41373 8.73104 0.841975 7.90167 0.841975H2.75694C1.92756 0.842122 1.2528 1.41373 1.2528 2.11664ZM1.24794 5.75911C1.17365 5.75911 1.11308 5.69889 1.11308 5.62472L1.11308 3.56241C1.11308 3.48824 1.17365 3.42802 1.24794 3.42802H1.69984C1.77413 3.42802 1.83471 3.48824 1.83471 3.56226L1.83471 5.62472C1.83471 5.69889 1.77413 5.75911 1.69984 5.75911H1.24794ZM5.68695 4.59342C5.68695 4.81651 5.50492 4.99789 5.28103 4.99789C5.05714 4.99789 4.87511 4.81651 4.87511 4.59342C4.87511 4.37033 5.05714 4.18894 5.28103 4.18894C5.50492 4.18894 5.68695 4.37033 5.68695 4.59342ZM1.69498 6.19971H1.69984C2.01806 6.19971 2.27688 5.94181 2.27688 5.62472L2.27688 4.81372H4.46315C4.54171 5.10261 4.76988 5.33011 5.05994 5.40839L5.05994 10.2456H4.38621C4.26403 10.2456 4.16513 10.3442 4.16513 10.4659V11.1374H2.27688V10.3265C2.27688 10.0095 2.01806 9.75156 1.69984 9.75156H1.69498L1.69498 6.19971ZM5.95491 12.029H4.6073V10.6862H5.27956C5.28 10.6862 5.28044 10.6864 5.28103 10.6864C5.28162 10.6864 5.28192 10.6862 5.28251 10.6862H5.95506V12.029H5.95491ZM1.24794 12.5232C1.17365 12.5232 1.11308 12.4629 1.11308 12.3889V10.3265C1.11308 10.2525 1.17365 10.1922 1.24794 10.1922H1.69984C1.77413 10.1922 1.83471 10.2525 1.83471 10.3265V12.3889C1.83471 12.4629 1.77413 12.5232 1.69984 12.5232H1.24794ZM8.96363 14.1027C8.96363 14.5625 8.48726 14.9366 7.90167 14.9366H2.75694C2.17135 14.9366 1.69498 14.5625 1.69498 14.1027L1.69498 12.9639H1.69984C2.01806 12.9639 2.27688 12.706 2.27688 12.3889V11.578H4.16513V12.2493C4.16513 12.3711 4.26403 12.4696 4.38621 12.4696H6.176C6.29804 12.4696 6.39709 12.3711 6.39709 12.2493V11.578H8.38172V12.3889C8.38172 12.706 8.64054 12.9639 8.95876 12.9639H8.96363V14.1027ZM9.41067 10.1922C9.4851 10.1922 9.54553 10.2525 9.54553 10.3265V12.3889C9.54553 12.4629 9.4851 12.5232 9.41067 12.5232H8.95876C8.88433 12.5232 8.8239 12.4629 8.8239 12.3889V10.3265C8.8239 10.2525 8.88433 10.1922 8.95876 10.1922H9.41067ZM8.96363 9.75156H8.95876C8.64054 9.75156 8.38172 10.0095 8.38172 10.3265V11.1374H6.39709V10.4659C6.39709 10.3442 6.29804 10.2456 6.176 10.2456H5.50212L5.50212 5.40824C5.79204 5.32996 6.02035 5.10261 6.09891 4.81357H8.38172V5.62458C8.38172 5.94166 8.64054 6.19956 8.95876 6.19956H8.96363V9.75156ZM9.41067 3.42802C9.4851 3.42802 9.54553 3.48824 9.54553 3.56226V5.62472C9.54553 5.69889 9.4851 5.75911 9.41067 5.75911H8.95876C8.88433 5.75911 8.8239 5.69889 8.8239 5.62472V3.56241C8.8239 3.48824 8.88433 3.42802 8.95876 3.42802H9.41067ZM7.90167 1.28273C8.48726 1.28273 8.96363 1.6568 8.96363 2.11664V2.98757H8.95876C8.64054 2.98757 8.38172 3.24547 8.38172 3.56255V4.37326H6.09891C6.00134 4.01388 5.67221 3.74849 5.28103 3.74849C4.88985 3.74849 4.56087 4.01388 4.46315 4.37326H2.27688V3.56241C2.27688 3.24547 2.01806 2.98757 1.69984 2.98757H1.69498V2.11664C1.69498 1.6568 2.17135 1.28273 2.75694 1.28273H7.90167Z" fill="#686868"/>
</svg>
