<svg width="16" height="16" viewBox="0 0 16 16" fill="none" xmlns="http://www.w3.org/2000/svg">
<path d="M15.5917 3.02932C15.5917 1.824 14.6986 0.843208 13.601 0.843208C12.5034 0.843208 11.6103 1.824 11.6103 3.02932C11.6103 4.13949 12.3684 5.05708 13.3455 5.19543V7.83043H8.52729V5.19543C9.50451 5.05708 10.2626 4.13949 10.2626 3.02932C10.2626 1.824 9.3695 0.843208 8.27192 0.843208C7.17434 0.843208 6.28122 1.824 6.28122 3.02932C6.28122 4.13949 7.03933 5.05708 8.01655 5.19543V7.83043H3.19822V5.19543C4.17544 5.05708 4.93355 4.13949 4.93355 3.02932C4.93355 1.824 4.04043 0.843208 2.94285 0.843208C1.84509 0.843208 0.952148 1.824 0.952148 3.02932C0.952148 4.13949 1.71026 5.05708 2.68748 5.19543V11.0263C1.71026 11.1647 0.952148 12.0821 0.952148 13.1922C0.952148 14.3976 1.84526 15.3783 2.94285 15.3783C4.04043 15.3783 4.93355 14.3976 4.93355 13.1922C4.93355 12.0821 4.17544 11.1647 3.19822 11.0263V8.39131H8.01655V11.0263C7.03933 11.1647 6.28122 12.0821 6.28122 13.1922C6.28122 14.3976 7.17434 15.3783 8.27192 15.3783C9.3695 15.3783 10.2626 14.3976 10.2626 13.1922C10.2626 12.0821 9.50451 11.1647 8.52729 11.0263V8.39131H13.601C13.742 8.39131 13.8564 8.26567 13.8564 8.11087V5.19543C14.8336 5.05708 15.5917 4.13949 15.5917 3.02932ZM6.79196 3.02932C6.79196 2.13323 7.45576 1.40409 8.27192 1.40409C9.08809 1.40409 9.75188 2.13304 9.75188 3.02932C9.75188 3.9256 9.08809 4.65456 8.27192 4.65456C7.45593 4.65456 6.79196 3.92542 6.79196 3.02932ZM1.46289 3.02932C1.46289 2.13323 2.12685 1.40409 2.94285 1.40409C3.75884 1.40409 4.42281 2.13304 4.42281 3.02932C4.42281 3.9256 3.75901 4.65456 2.94285 4.65456C2.12668 4.65456 1.46289 3.92542 1.46289 3.02932ZM4.42281 13.1922C4.42281 14.0885 3.75901 14.8175 2.94285 14.8175C2.12668 14.8175 1.46289 14.0885 1.46289 13.1922C1.46289 12.2961 2.12685 11.5672 2.94285 11.5672C3.75884 11.5672 4.42281 12.2961 4.42281 13.1922ZM9.75188 13.1922C9.75188 14.0885 9.08809 14.8175 8.27192 14.8175C7.45593 14.8175 6.79196 14.0885 6.79196 13.1922C6.79196 12.2961 7.45576 11.5672 8.27192 11.5672C9.08809 11.567 9.75188 12.2961 9.75188 13.1922ZM13.601 4.65456C12.785 4.65456 12.1212 3.92542 12.1212 3.02932C12.1212 2.13323 12.785 1.40409 13.601 1.40409C14.4172 1.40409 15.081 2.13304 15.081 3.02932C15.081 3.9256 14.4172 4.65456 13.601 4.65456Z" fill="#686868"/>
</svg>
