<svg width="10" height="16" viewBox="0 0 10 16" fill="none" xmlns="http://www.w3.org/2000/svg">
<path d="M9.74186 0.703735H4.39626C4.32057 0.703735 4.2492 0.742614 4.20382 0.808812L0.997328 5.47966C0.966057 5.5252 0.949219 5.58054 0.949219 5.63728V10.405C0.949219 10.55 1.05682 10.6677 1.18977 10.6677C5.16954 10.6677 5.22502 14.8007 5.22534 14.9765C5.22566 15.1214 5.33327 15.2389 5.46589 15.2389H9.74202C9.8748 15.2389 9.98256 15.1212 9.98256 14.9762V0.966428C9.9824 0.821247 9.87464 0.703735 9.74186 0.703735ZM9.50131 14.7135H5.69216C5.61086 13.7265 5.06578 10.2922 1.43015 10.147V5.72484L4.51637 1.22912H9.50115V14.7135H9.50131Z" fill="#686868"/>
<path d="M2.42849 5.72369C2.46906 5.81301 2.55261 5.86958 2.64386 5.86958H8.61196C8.74475 5.86958 8.85251 5.75207 8.85251 5.60688V2.21641C8.85251 2.07123 8.74475 1.95372 8.61196 1.95372H4.99576C4.92039 1.95372 4.8495 1.99225 4.80396 2.05775L2.45206 5.44804C2.39706 5.52755 2.38776 5.63438 2.42849 5.72369ZM5.11539 2.4791H8.37158V5.34402H3.12784L5.11539 2.4791Z" fill="#686868"/>
<path d="M8.61307 6.85867H7.1879C7.05507 6.85867 6.94727 6.97622 6.94727 7.12145C6.94727 7.26667 7.05507 7.38422 7.1879 7.38422H8.61307C8.7459 7.38422 8.8537 7.26667 8.8537 7.12145C8.8537 6.97622 8.74606 6.85867 8.61307 6.85867Z" fill="#686868"/>
</svg>
