<svg width="10" height="15" viewBox="0 0 10 15" fill="none" xmlns="http://www.w3.org/2000/svg">
<path d="M1.16759 1.91072L1.16759 2.70721H1.16273C0.844918 2.70721 0.586426 2.94307 0.586426 3.23305L0.586426 5.11896C0.586426 5.40894 0.844918 5.6448 1.16273 5.6448H1.16759V8.89306H1.16273C0.844918 8.89306 0.586426 9.12892 0.586426 9.4189L0.586426 11.3049C0.586426 11.5949 0.844918 11.8308 1.16273 11.8308H1.16759V12.8723C1.16759 13.515 1.8415 14.0378 2.66982 14.0378H7.80802C8.63634 14.0378 9.31024 13.515 9.31024 12.8723V11.8308H9.3151C9.63292 11.8308 9.89141 11.5949 9.89141 11.3049V9.4189C9.89141 9.12892 9.63292 8.89306 9.3151 8.89306H9.31024V5.6448H9.3151C9.63292 5.6448 9.89141 5.40894 9.89141 5.11896V3.23278C9.89141 2.94293 9.63292 2.70708 9.3151 2.70708H9.31024V1.91059C9.31024 1.2679 8.63634 0.745009 7.80802 0.745009H2.66982C1.8415 0.745144 1.16759 1.2679 1.16759 1.91072ZM1.16273 5.24186C1.08854 5.24186 1.02804 5.18679 1.02804 5.11896L1.02804 3.23292C1.02804 3.16509 1.08854 3.11002 1.16273 3.11002H1.61407C1.68826 3.11002 1.74876 3.16509 1.74876 3.23278L1.74876 5.11896C1.74876 5.18679 1.68826 5.24186 1.61407 5.24186H1.16273ZM5.59611 4.1758C5.59611 4.37983 5.41431 4.54571 5.19071 4.54571C4.9671 4.54571 4.78531 4.37983 4.78531 4.1758C4.78531 3.97178 4.9671 3.8059 5.19071 3.8059C5.41431 3.8059 5.59611 3.97178 5.59611 4.1758ZM1.60921 5.6448H1.61407C1.93188 5.6448 2.19037 5.40894 2.19037 5.11896L2.19037 4.37728H4.37387C4.45233 4.64147 4.6802 4.84952 4.9699 4.92111L4.9699 9.3449H4.29703C4.17499 9.3449 4.07622 9.43502 4.07622 9.54637V10.1605H2.19037V9.4189C2.19037 9.12892 1.93188 8.89306 1.61407 8.89306H1.60921L1.60921 5.6448ZM5.86373 10.9759H4.51783V9.74784H5.18924C5.18968 9.74784 5.19012 9.74797 5.19071 9.74797C5.1913 9.74797 5.19159 9.74784 5.19218 9.74784H5.86388V10.9759H5.86373ZM1.16273 11.4278C1.08854 11.4278 1.02804 11.3726 1.02804 11.3049V9.4189C1.02804 9.35121 1.08854 9.296 1.16273 9.296H1.61407C1.68826 9.296 1.74876 9.35121 1.74876 9.4189V11.3049C1.74876 11.3726 1.68826 11.4278 1.61407 11.4278H1.16273ZM8.86863 12.8723C8.86863 13.2928 8.39286 13.6349 7.80802 13.6349H2.66982C2.08497 13.6349 1.60921 13.2928 1.60921 12.8723L1.60921 11.8308H1.61407C1.93188 11.8308 2.19037 11.5949 2.19037 11.3049V10.5634H4.07622V11.1773C4.07622 11.2887 4.17499 11.3788 4.29703 11.3788H6.08454C6.20642 11.3788 6.30535 11.2887 6.30535 11.1773V10.5634H8.28746V11.3049C8.28746 11.5949 8.54596 11.8308 8.86377 11.8308H8.86863V12.8723ZM9.3151 9.296C9.38944 9.296 9.4498 9.35121 9.4498 9.4189V11.3049C9.4498 11.3726 9.38944 11.4278 9.3151 11.4278H8.86377C8.78943 11.4278 8.72908 11.3726 8.72908 11.3049V9.4189C8.72908 9.35121 8.78943 9.296 8.86377 9.296H9.3151ZM8.86863 8.89306H8.86377C8.54596 8.89306 8.28746 9.12892 8.28746 9.4189V10.1605H6.30535V9.54637C6.30535 9.43502 6.20642 9.3449 6.08454 9.3449H5.41152L5.41152 4.92098C5.70107 4.84939 5.92909 4.64147 6.00755 4.37714H8.28746V5.11882C8.28746 5.40881 8.54596 5.64467 8.86377 5.64467H8.86863V8.89306ZM9.3151 3.11002C9.38944 3.11002 9.4498 3.16509 9.4498 3.23278V5.11896C9.4498 5.18679 9.38944 5.24186 9.3151 5.24186H8.86377C8.78943 5.24186 8.72908 5.18679 8.72908 5.11896V3.23292C8.72908 3.16509 8.78943 3.11002 8.86377 3.11002H9.3151ZM7.80802 1.14809C8.39286 1.14809 8.86863 1.49019 8.86863 1.91072V2.70721H8.86377C8.54596 2.70721 8.28746 2.94307 8.28746 3.23305V3.97447H6.00755C5.9101 3.6458 5.58139 3.40309 5.19071 3.40309C4.80003 3.40309 4.47146 3.6458 4.37387 3.97447H2.19037V3.23292C2.19037 2.94307 1.93188 2.70721 1.61407 2.70721H1.60921V1.91072C1.60921 1.49019 2.08497 1.14809 2.66982 1.14809H7.80802Z" fill="#FFC32A"/>
</svg>
