<svg width="10" height="15" viewBox="0 0 10 15" fill="none" xmlns="http://www.w3.org/2000/svg">
<path d="M8.82318 0.89209H3.4844C3.4088 0.89209 3.33753 0.927645 3.2922 0.988186L0.089796 5.25982C0.0585648 5.30147 0.041748 5.35208 0.041748 5.40397V9.76418C0.041748 9.89679 0.149216 10.0044 0.281989 10.0044C4.25669 10.0044 4.3121 13.7842 4.31242 13.945C4.31275 14.0775 4.42021 14.1849 4.55267 14.1849H8.82334C8.95596 14.1849 9.06358 14.0773 9.06358 13.9447V1.13233C9.06342 0.999557 8.9558 0.89209 8.82318 0.89209ZM8.58294 13.7044H4.77865C4.69745 12.8018 4.15307 9.66103 0.522069 9.52826V5.48405L3.60436 1.37257H8.58278V13.7044H8.58294Z" fill="#FFC32A"/>
<path d="M1.51781 5.48116C1.55833 5.56284 1.64178 5.61457 1.73291 5.61457H7.69344C7.82605 5.61457 7.93368 5.50711 7.93368 5.37433V2.27363C7.93368 2.14085 7.82605 2.03339 7.69344 2.03339H4.08182C4.00655 2.03339 3.93576 2.06862 3.89027 2.12852L1.54136 5.22907C1.48642 5.30178 1.47713 5.39948 1.51781 5.48116ZM4.2013 2.51387H7.45336V5.13393H2.21627L4.2013 2.51387Z" fill="#FFC32A"/>
<path d="M7.69458 6.52087H6.27173C6.13912 6.52087 6.03149 6.62834 6.03149 6.76111C6.03149 6.89388 6.13912 7.00135 6.27173 7.00135H7.69458C7.82719 7.00135 7.93482 6.89388 7.93482 6.76111C7.93482 6.62834 7.82735 6.52087 7.69458 6.52087Z" fill="#FFC32A"/>
</svg>
