<svg width="17" height="13" viewBox="0 0 17 13" fill="none" xmlns="http://www.w3.org/2000/svg">
<path d="M16.1088 3.42857C13.8143 1.82868 11.0924 0.983093 8.23721 0.983093C5.38257 0.983093 2.66094 1.82852 0.366505 3.42792C0.260303 3.50202 0.230594 3.64049 0.297867 3.74815L3.70401 9.19688C3.74311 9.25963 3.80987 9.30211 3.88568 9.31313C3.96131 9.32465 4.03849 9.30227 4.09552 9.25363C4.4703 8.93339 4.88162 8.66147 5.31872 8.4395C5.5581 8.99646 5.54939 9.64342 5.2861 10.1913C5.03614 10.7116 4.90415 11.2989 4.90415 11.8903V12.7033C4.90415 12.8375 5.01872 12.9465 5.16027 12.9465C5.30181 12.9465 5.41638 12.8375 5.41638 12.7033V11.8903C5.41638 11.3682 5.53249 10.8506 5.75223 10.3935C6.07801 9.71574 6.08501 8.91312 5.7804 8.22725C6.42905 7.96101 7.12466 7.8021 7.83904 7.75865C7.89812 7.96311 7.97376 8.16174 8.06579 8.35113C8.34564 8.92674 8.34717 9.61472 8.06989 10.1915C7.81992 10.7118 7.68794 11.2991 7.68794 11.8904V12.7034C7.68794 12.8377 7.8025 12.9466 7.94405 12.9466C8.0856 12.9466 8.20016 12.8377 8.20016 12.7034V11.8904C8.20016 11.3683 8.31627 10.8508 8.53601 10.3937C8.87425 9.68964 8.87255 8.84988 8.53106 8.14731C8.46857 8.01889 8.41581 7.88512 8.37056 7.74811C9.22393 7.76546 10.0553 7.94868 10.8182 8.28092C10.8289 8.30427 10.8386 8.3281 10.8497 8.35113C11.1296 8.92658 11.131 9.61456 10.8538 10.1915C10.6039 10.7116 10.4719 11.2991 10.4719 11.8904V12.7034C10.4719 12.8377 10.5866 12.9466 10.728 12.9466C10.8694 12.9466 10.9841 12.8377 10.9841 12.7034V11.8904C10.9841 11.3683 11.1002 10.8508 11.3198 10.3937C11.5853 9.84124 11.6382 9.20628 11.4851 8.61883C11.8004 8.80351 12.0999 9.01544 12.3791 9.25411C12.4264 9.29449 12.4877 9.31654 12.5505 9.31654C12.5633 9.31654 12.5761 9.31557 12.5891 9.31378C12.6649 9.30276 12.7317 9.26011 12.7708 9.19736L16.1776 3.74913C16.2447 3.64114 16.215 3.50267 16.1088 3.42857ZM12.4858 8.69974C12.0927 8.39377 11.6667 8.13418 11.2172 7.92242C11.0647 7.53554 10.9839 7.11396 10.9839 6.68849V5.59952L11.3638 6.15195C11.4412 6.26432 11.6002 6.2961 11.7183 6.22265C11.8366 6.1492 11.8701 5.99856 11.7928 5.88604L10.9425 4.64936C10.9421 4.64887 10.9418 4.64871 10.9414 4.64822C10.9307 4.63282 10.918 4.61903 10.904 4.60639C10.9001 4.60282 10.8958 4.60006 10.8917 4.59682C10.881 4.58823 10.8697 4.58044 10.8574 4.57363C10.8521 4.57071 10.8467 4.56796 10.8412 4.5652C10.8287 4.55937 10.8158 4.55466 10.8023 4.55077C10.797 4.54915 10.7919 4.54737 10.7864 4.54607C10.7676 4.54185 10.7482 4.5391 10.7278 4.5391C10.7077 4.5391 10.6882 4.54185 10.6693 4.54607C10.6638 4.54737 10.6587 4.54915 10.6534 4.55077C10.6399 4.55466 10.6269 4.55937 10.6145 4.5652C10.6088 4.5678 10.6035 4.57055 10.5982 4.57363C10.5861 4.58044 10.5748 4.58823 10.5641 4.59682C10.56 4.60006 10.5557 4.60298 10.5518 4.60655C10.5378 4.6192 10.5252 4.63298 10.5144 4.64838C10.5141 4.64887 10.5137 4.64903 10.5134 4.64952L9.66274 5.8862C9.5854 5.99856 9.61869 6.14936 9.73719 6.22281C9.78038 6.24973 9.82887 6.26237 9.87702 6.26237C9.96052 6.26237 10.0425 6.22362 10.0916 6.15212L10.4719 5.59952V6.68865C10.4719 7.02024 10.5161 7.35021 10.5991 7.66736C9.85432 7.40128 9.05951 7.26022 8.24831 7.25908C8.21655 7.07148 8.20016 6.88047 8.20016 6.68865V5.59952L8.58024 6.15212C8.62941 6.22346 8.71137 6.26237 8.79486 6.26237C8.84284 6.26237 8.8915 6.24957 8.9347 6.22281C9.05302 6.14936 9.08649 5.99873 9.00914 5.8862L8.15867 4.64952C8.11138 4.58077 8.03062 4.53926 7.94422 4.53926C7.85783 4.53926 7.77706 4.58077 7.72977 4.64952L6.87913 5.8862C6.80178 5.99856 6.83508 6.14936 6.95357 6.22281C7.07207 6.29643 7.23086 6.26464 7.30803 6.15212L7.68811 5.59952V6.68865C7.68811 6.88647 7.7045 7.08348 7.73438 7.27789C6.9925 7.33059 6.2706 7.49954 5.59515 7.7747C5.47819 7.42933 5.41655 7.06045 5.41655 6.68865V5.59969L5.79645 6.15212C5.84563 6.22346 5.92758 6.26237 6.01108 6.26237C6.05905 6.26237 6.10772 6.24957 6.15091 6.22281C6.26924 6.14936 6.3027 5.99873 6.22536 5.8862L5.37489 4.64952C5.37472 4.64919 5.37421 4.64887 5.37404 4.64854C5.32828 4.58271 5.24974 4.53926 5.16044 4.53926C5.07114 4.53926 4.99277 4.58271 4.94684 4.64854C4.94667 4.64887 4.94616 4.64919 4.94599 4.64952L4.09552 5.8862C4.01817 5.99873 4.05147 6.14936 4.16996 6.22281C4.28863 6.29643 4.44725 6.26464 4.52442 6.15212L4.90432 5.59969V6.68865C4.90432 7.13261 4.98167 7.57364 5.12885 7.98468C4.72675 8.1846 4.34429 8.42312 3.9888 8.69974L0.858072 3.69108C3.02394 2.23696 5.57022 1.46953 8.23721 1.46953C10.9049 1.46953 13.4515 2.23712 15.6174 3.69189L12.4858 8.69974Z" fill="#FFC32A"/>
</svg>
