<svg width="15" height="15" viewBox="0 0 15 15" fill="none" xmlns="http://www.w3.org/2000/svg">
<path d="M14.67 2.7442C14.67 1.64189 13.7779 0.744934 12.6816 0.744934C11.5854 0.744934 10.6933 1.64189 10.6933 2.7442C10.6933 3.75948 11.4505 4.59865 12.4264 4.72517V7.13497H7.61398V4.72517C8.59003 4.59865 9.34724 3.75948 9.34724 2.7442C9.34724 1.64189 8.45518 0.744934 7.35891 0.744934C6.26263 0.744934 5.37058 1.64189 5.37058 2.7442C5.37058 3.75948 6.12779 4.59865 7.10384 4.72517V7.13497H2.29125V4.72517C3.2673 4.59865 4.02451 3.75948 4.02451 2.7442C4.02451 1.64189 3.13246 0.744934 2.03618 0.744934C0.939734 0.744934 0.0478516 1.64189 0.0478516 2.7442C0.0478516 3.75948 0.805059 4.59865 1.78111 4.72517V10.0577C0.805059 10.1842 0.0478516 11.0232 0.0478516 12.0385C0.0478516 13.1408 0.939904 14.0378 2.03618 14.0378C3.13246 14.0378 4.02451 13.1408 4.02451 12.0385C4.02451 11.0232 3.2673 10.1842 2.29125 10.0577V7.64791H7.10384V10.0577C6.12779 10.1842 5.37058 11.0232 5.37058 12.0385C5.37058 13.1408 6.26263 14.0378 7.35891 14.0378C8.45518 14.0378 9.34724 13.1408 9.34724 12.0385C9.34724 11.0232 8.59003 10.1842 7.61398 10.0577V7.64791H12.6816C12.8224 7.64791 12.9367 7.53301 12.9367 7.39144V4.72517C13.9128 4.59865 14.67 3.75948 14.67 2.7442ZM5.88071 2.7442C5.88071 1.9247 6.54372 1.25787 7.35891 1.25787C8.1741 1.25787 8.8371 1.92452 8.8371 2.7442C8.8371 3.56388 8.1741 4.23053 7.35891 4.23053C6.54389 4.23053 5.88071 3.56371 5.88071 2.7442ZM0.557985 2.7442C0.557985 1.9247 1.22116 1.25787 2.03618 1.25787C2.8512 1.25787 3.51438 1.92452 3.51438 2.7442C3.51438 3.56388 2.85137 4.23053 2.03618 4.23053C1.22099 4.23053 0.557985 3.56371 0.557985 2.7442ZM3.51438 12.0385C3.51438 12.8582 2.85137 13.5248 2.03618 13.5248C1.22099 13.5248 0.557985 12.8582 0.557985 12.0385C0.557985 11.219 1.22116 10.5523 2.03618 10.5523C2.8512 10.5523 3.51438 11.219 3.51438 12.0385ZM8.8371 12.0385C8.8371 12.8582 8.1741 13.5248 7.35891 13.5248C6.54389 13.5248 5.88071 12.8582 5.88071 12.0385C5.88071 11.219 6.54372 10.5523 7.35891 10.5523C8.1741 10.5522 8.8371 11.219 8.8371 12.0385ZM12.6816 4.23053C11.8666 4.23053 11.2036 3.56371 11.2036 2.7442C11.2036 1.9247 11.8666 1.25787 12.6816 1.25787C13.4968 1.25787 14.1598 1.92452 14.1598 2.7442C14.1598 3.56388 13.4968 4.23053 12.6816 4.23053Z" fill="#FFC32A"/>
</svg>
