<svg width="17" height="9" viewBox="0 0 17 9" fill="none" xmlns="http://www.w3.org/2000/svg">
<path d="M16.4156 3.09666H15.2196C15.0796 3.09666 14.966 3.20207 14.966 3.3323V4.98524H13.8941L12.2974 3.18636C12.2492 3.13216 12.1776 3.10074 12.1018 3.10074H9.54886V1.86174C9.54886 1.73151 9.43526 1.6261 9.29529 1.6261H6.98034V0.7836H9.31151C9.45149 0.7836 9.56509 0.678189 9.56509 0.547958C9.56509 0.417727 9.45149 0.312317 9.31151 0.312317H4.14202C4.00188 0.312317 3.88844 0.417727 3.88844 0.547958C3.88844 0.678189 4.00188 0.7836 4.14202 0.7836H6.47319V1.6261H4.14202C4.00188 1.6261 3.88844 1.73151 3.88844 1.86174V3.10074H2.55516C2.41502 3.10074 2.30159 3.20615 2.30159 3.33638V5.06395H1.22492V3.65685C1.22492 3.52662 1.11149 3.42121 0.971346 3.42121C0.831205 3.42121 0.717773 3.52662 0.717773 3.65685V6.94232C0.717773 7.0724 0.831205 7.17797 0.971346 7.17797C1.11149 7.17797 1.22492 7.0724 1.22492 6.94232V5.53523H2.30159V7.50991C2.30159 7.63998 2.41502 7.74555 2.55516 7.74555H4.04634L4.9335 8.85746C4.98134 8.91731 5.05691 8.95266 5.1372 8.95266H13.7746C13.9145 8.95266 14.0281 8.84709 14.0281 8.71702V6.53812H14.966V8.16609C14.966 8.29616 15.0796 8.40173 15.2196 8.40173H16.4156C16.5556 8.40173 16.6692 8.29616 16.6692 8.16609V3.3323C16.6692 3.20222 16.5556 3.09666 16.4156 3.09666ZM13.7746 6.06684C13.6346 6.06684 13.521 6.1724 13.521 6.30248V8.48138H5.26484L4.37767 7.36946C4.32983 7.30945 4.25427 7.27426 4.17397 7.27426H2.80873V3.57202H4.14202C4.28216 3.57202 4.39559 3.46661 4.39559 3.33638V2.09738H9.04171V3.33638C9.04171 3.46661 9.15531 3.57202 9.29529 3.57202H11.9823L13.579 5.37091C13.6272 5.42526 13.6988 5.45668 13.7746 5.45668H14.966V6.06699H13.7746V6.06684ZM16.162 7.93045H15.4732V3.56794H16.162V7.93045Z" fill="#FFC32A"/>
</svg>
