<svg width="14" height="15" viewBox="0 0 14 15" fill="none" xmlns="http://www.w3.org/2000/svg">
<path d="M12.0168 6.34521C11.1632 5.61956 10.0533 5.17849 8.84395 5.17849C8.47401 5.17849 8.1183 5.22117 7.77683 5.29231C7.59186 4.33902 6.86622 3.64183 5.65682 3.28613C4.74621 3.01579 3.87828 3.04425 3.84983 3.04425C3.736 3.04425 3.65063 3.14385 3.6364 3.25767C3.6364 3.3715 3.72177 3.4711 3.8356 3.4711C4.5897 3.51378 4.78889 4.46707 4.8458 4.75164C4.95963 5.46305 4.78889 6.01795 4.66084 6.06064C4.53278 6.11755 4.37627 6.0891 4.21976 6.01795C3.87828 5.84722 3.42298 5.34923 3.16687 4.43862C2.49814 2.23324 0.804977 2.38975 0.77652 2.38975C0.676922 2.40398 0.591553 2.48934 0.591553 2.58894C0.591553 2.68854 0.648466 2.78814 0.762292 2.81659C1.65867 3.01579 1.47371 4.50976 1.31719 5.83299C1.26028 6.33098 1.20337 6.80051 1.20337 7.18467C1.26028 10.4572 3.55103 10.8413 4.00634 10.884C4.21976 12.193 4.95963 13.374 6.08366 14.1423C6.11212 14.1707 6.1548 14.185 6.19749 14.185H11.4904C11.5473 14.185 11.6042 14.1565 11.6469 14.1138C12.9559 13.189 13.7385 11.695 13.7385 10.0872C13.7385 8.74978 13.1978 7.52615 12.3156 6.62977L12.0168 6.34521ZM1.63022 7.17044C1.63022 6.82897 1.6729 6.35943 1.72981 5.8899C1.84364 4.89392 1.98592 3.7272 1.61599 3.01579C2.01438 3.22921 2.46968 3.67029 2.72579 4.5809C2.9819 5.46305 3.46566 6.14601 4.00634 6.41635C4.27667 6.5444 4.54701 6.57286 4.78889 6.47326C5.22997 6.30252 5.35802 5.4346 5.2442 4.69473C5.17305 4.22519 5.00232 3.8268 4.78889 3.55646C5.74218 3.69875 7.1081 4.13982 7.34998 5.42037C5.37225 6.04641 3.93519 7.91031 3.93519 10.1015C3.93519 10.2295 3.93519 10.3433 3.94942 10.4714C3.43721 10.386 1.68713 9.95918 1.63022 7.17044ZM11.4193 13.7439H6.26863C5.10191 12.9187 4.40473 11.5954 4.36204 10.1726H5.20151C5.31534 10.1726 5.41493 10.073 5.41493 9.95918C5.41493 9.84536 5.31534 9.74576 5.20151 9.74576H4.37627C4.44741 8.74978 4.86003 7.83917 5.48608 7.12776L6.11212 7.7538C6.1548 7.79649 6.21172 7.81072 6.26863 7.81072C6.32554 7.81072 6.38246 7.79649 6.42514 7.7538C6.51051 7.66843 6.51051 7.54038 6.42514 7.45501L5.78487 6.81474C6.53897 6.10332 7.53495 5.66225 8.63052 5.60533V6.51594C8.63052 6.62977 8.73012 6.72937 8.84395 6.72937C8.95777 6.72937 9.05737 6.62977 9.05737 6.51594V5.60533C10.0676 5.64802 10.9782 6.03218 11.7038 6.644L10.9213 7.42655C10.8359 7.51192 10.8359 7.63998 10.9213 7.72535C10.964 7.76803 11.0209 7.78226 11.0778 7.78226C11.1347 7.78226 11.1916 7.76803 11.2343 7.72535L12.0311 6.92856C12.6571 7.55461 13.0982 8.37985 13.2547 9.29045C13.2547 9.30468 13.2974 9.7173 13.2974 9.73153H12.4864C12.3726 9.73153 12.273 9.83113 12.273 9.94495C12.273 10.0588 12.3726 10.1584 12.4864 10.1584H13.3258C13.3401 10.2722 13.3258 9.97341 13.3258 10.0872C13.3258 11.5385 12.6144 12.9044 11.4193 13.7439Z" fill="#FFC32A"/>
<path d="M11.718 9.74569H9.82563C9.72603 9.29039 9.32764 8.96313 8.84388 8.96313C8.28898 8.96313 7.8479 9.41844 7.8479 9.95911C7.8479 10.4998 8.3032 10.9551 8.84388 10.9551C9.32764 10.9551 9.72603 10.6136 9.82563 10.1725H11.7322C11.846 10.1725 11.9456 10.0729 11.9456 9.95911C11.9456 9.84529 11.8318 9.74569 11.718 9.74569ZM8.84388 10.5282C8.53086 10.5282 8.27475 10.2721 8.27475 9.95911C8.27475 9.64609 8.53086 9.38998 8.84388 9.38998C9.1569 9.38998 9.42724 9.64609 9.42724 9.95911C9.42724 10.2721 9.1569 10.5282 8.84388 10.5282Z" fill="#FFC32A"/>
<path d="M8.21755 3.55634C8.60171 3.84091 8.97165 4.11124 9.07124 4.38158C9.0997 4.46695 9.18507 4.50963 9.27044 4.50963C9.35581 4.50963 9.42695 4.46695 9.46964 4.38158C9.69729 3.89782 9.83957 2.78801 8.78668 2.09083C8.50211 1.90586 8.23178 1.74935 8.00412 1.6213C7.61996 1.40787 7.30694 1.23713 7.07929 0.966796C7.02237 0.909883 6.93701 0.881426 6.85164 0.895655C6.76627 0.924111 6.70935 0.981024 6.69512 1.06639C6.69512 1.10908 6.56707 2.03392 7.43499 2.90184C7.66265 3.15795 7.94721 3.35714 8.21755 3.55634ZM7.7907 2.00546C8.01835 2.13351 8.27446 2.2758 8.5448 2.46076C9.17084 2.87338 9.22776 3.44251 9.18507 3.81245C8.98588 3.61325 8.72977 3.41406 8.47366 3.22909C8.21755 3.04412 7.94721 2.84493 7.74802 2.6315C7.39231 2.2758 7.2358 1.92009 7.16466 1.63552C7.34963 1.76358 7.56305 1.8774 7.7907 2.00546Z" fill="#FFC32A"/>
</svg>
