<svg width="17" height="16" viewBox="0 0 17 16" fill="none" xmlns="http://www.w3.org/2000/svg">
<path d="M8.50616 0.396973C4.15437 0.396973 0.614395 3.85785 0.614395 8.11242C0.614395 12.367 4.15437 15.8279 8.50616 15.8279C12.858 15.8279 16.3979 12.367 16.3979 8.11242C16.3979 3.85785 12.858 0.396973 8.50616 0.396973ZM8.50616 9.11878C8.34764 9.11878 8.19907 9.08088 8.06491 9.01815L6.00379 11.0332C5.93688 11.0986 5.84904 11.1315 5.7612 11.1315C5.67336 11.1315 5.58552 11.0986 5.51861 11.0332C5.38445 10.9021 5.38445 10.6901 5.51861 10.5589L7.57974 8.54382C7.51557 8.41265 7.4768 8.2674 7.4768 8.11242C7.4768 7.67499 7.76399 7.30632 8.16304 7.16778V2.4097C8.16304 2.22419 8.31642 2.07424 8.50616 2.07424C8.69591 2.07424 8.84928 2.22419 8.84928 2.4097V7.16778C9.24833 7.30632 9.53552 7.67499 9.53552 8.11242C9.53552 8.66827 9.07471 9.11878 8.50616 9.11878Z" fill="#F6C135"/>
</svg>
