<svg width="16" height="17" viewBox="0 0 16 17" fill="none" xmlns="http://www.w3.org/2000/svg">
<path d="M12.9248 16.1575C12.9192 16.1575 12.9136 16.1575 12.908 16.1575C10.2119 16.0712 7.05325 13.5161 4.87697 11.3871C2.69789 9.25803 0.0844012 6.16862 0.000321008 3.54501C-0.0305082 2.62435 2.2803 0.987168 2.30412 0.970728C2.90389 0.562459 3.56953 0.707683 3.84279 1.07759C4.02776 1.32831 5.77943 3.92314 5.97002 4.21769C6.1676 4.52321 6.13818 4.97806 5.89154 5.43428C5.75561 5.68774 5.30438 6.46317 5.09278 6.82486C5.3212 7.14271 5.92517 7.92225 7.17236 9.14158C8.42095 10.3609 9.21691 10.9528 9.54342 11.1761C9.91338 10.9692 10.7065 10.528 10.9658 10.3952C11.4254 10.1568 11.8879 10.1266 12.2032 10.3157C12.5255 10.5089 15.1726 12.2296 15.4164 12.3954C15.621 12.5365 15.7527 12.7776 15.7794 13.0585C15.8046 13.3421 15.7149 13.6421 15.5285 13.9038C15.5131 13.9257 13.8581 16.1575 12.9248 16.1575Z" fill="#F6C135"/>
</svg>
