<svg width="16" height="16" viewBox="0 0 16 16" fill="none" xmlns="http://www.w3.org/2000/svg">
<path d="M8.89567 0.395996C7.15495 0.395996 5.7397 1.77963 5.7397 3.48145C5.7397 6.14145 8.53939 9.4089 8.65897 9.5463C8.71938 9.615 8.80321 9.65236 8.89567 9.65236C8.98936 9.65236 9.08182 9.60657 9.14223 9.53666C9.26058 9.39685 12.0516 6.08119 12.0516 3.48145C12.0516 1.77963 10.6364 0.395996 8.89567 0.395996ZM0.364694 2.24727C0.311684 2.24968 0.253742 2.26776 0.206896 2.29548C0.114436 2.35213 0.05896 2.44855 0.05896 2.55582V13.6635C0.05896 13.7804 0.129229 13.89 0.236483 13.9431L4.02364 15.7944C4.1124 15.8377 4.21103 15.8377 4.29979 15.7944L7.95874 14.0106L11.9234 15.7944C11.9653 15.8136 12.006 15.8233 12.0516 15.8233C12.1034 15.8233 12.1527 15.81 12.1996 15.7847L15.6711 13.9334C15.7722 13.8792 15.8388 13.7768 15.8388 13.6635V2.55582C15.8388 2.44734 15.7759 2.34128 15.681 2.28584C15.5848 2.2304 15.4727 2.23401 15.3753 2.28584L12.673 3.7225C12.5213 6.44036 9.92999 9.57402 9.62548 9.93198C9.4455 10.1429 9.17921 10.2683 8.89567 10.2695C8.61705 10.2695 8.35693 10.1501 8.17571 9.94163C7.86751 9.58608 5.21823 6.43795 5.11837 3.64537L4.17158 4.06962L0.51263 2.2762C0.463318 2.25209 0.417705 2.24486 0.364694 2.24727ZM8.89567 2.55582C9.59343 2.55582 10.1581 3.10782 10.1581 3.79C10.1581 4.47217 9.59343 5.02418 8.89567 5.02418C8.1979 5.02418 7.63328 4.47217 7.63328 3.79C7.63328 3.10782 8.1979 2.55582 8.89567 2.55582Z" fill="#F6C135"/>
</svg>
