<svg width="17" height="16" viewBox="0 0 17 16" fill="none" xmlns="http://www.w3.org/2000/svg">
<path d="M8.75999 0.395996C8.43284 0.395996 7.80489 0.462553 7.28869 0.896021C7.28651 0.897635 7.27211 0.910027 7.26978 0.911775C7.10843 1.03166 6.75175 1.33835 6.24407 1.76867L6.20834 1.7988H3.73796C3.53959 1.7988 3.37924 1.95557 3.37924 2.14951V4.24071C2.14562 5.30684 1.09828 6.21889 0.99784 6.30656L4.09668 8.66695V2.50021H6.24477C6.3007 2.51356 6.35909 2.51356 6.41502 2.50021H11.0966C11.1376 2.50725 11.1795 2.50725 11.2206 2.50021H13.4233V8.66695L16.5221 6.30656C16.4213 6.21889 15.3744 5.30684 14.1407 4.24071V2.14951C14.1407 1.95557 13.9804 1.7988 13.782 1.7988H11.2913C11.2313 1.7461 11.1761 1.6997 11.1155 1.64674C10.7078 1.2896 10.3922 1.01682 10.2488 0.910405C10.2476 0.909424 10.2465 0.908643 10.2453 0.907665C10.2335 0.897837 10.2214 0.890414 10.2096 0.880951C10.1545 0.836983 10.0986 0.794817 10.0421 0.758343C9.97406 0.714268 9.90541 0.675448 9.83684 0.641214L9.83614 0.640529H9.83544C9.6973 0.571936 9.55988 0.521188 9.42838 0.485042C9.29572 0.448514 9.16983 0.426331 9.05565 0.41312C8.94242 0.399881 8.84178 0.395996 8.75999 0.395996ZM5.53154 4.25372C5.48401 4.25306 5.43681 4.26165 5.3927 4.27898C5.34859 4.29631 5.30844 4.32204 5.27459 4.35467C5.24074 4.3873 5.21386 4.42618 5.19551 4.46906C5.17717 4.51193 5.16772 4.55795 5.16772 4.60442C5.16772 4.6509 5.17717 4.69691 5.19551 4.73979C5.21386 4.78266 5.24074 4.82155 5.27459 4.85418C5.30844 4.88681 5.34859 4.91254 5.3927 4.92987C5.43681 4.9472 5.48401 4.95578 5.53154 4.95512H11.9884C12.036 4.95578 12.0832 4.9472 12.1273 4.92987C12.1714 4.91254 12.2115 4.88681 12.2454 4.85418C12.2792 4.82155 12.3061 4.78266 12.3245 4.73979C12.3428 4.69691 12.3523 4.6509 12.3523 4.60442C12.3523 4.55795 12.3428 4.51193 12.3245 4.46906C12.3061 4.42618 12.2792 4.3873 12.2454 4.35467C12.2115 4.32204 12.1714 4.29631 12.1273 4.27898C12.0832 4.26165 12.036 4.25306 11.9884 4.25372H5.53154ZM5.53154 6.00723C5.48401 6.00657 5.43681 6.01516 5.3927 6.03249C5.34859 6.04982 5.30844 6.07555 5.27459 6.10818C5.24074 6.14081 5.21386 6.17969 5.19551 6.22257C5.17717 6.26544 5.16772 6.31146 5.16772 6.35793C5.16772 6.40441 5.17717 6.45042 5.19551 6.4933C5.21386 6.53618 5.24074 6.57506 5.27459 6.60769C5.30844 6.64032 5.34859 6.66605 5.3927 6.68338C5.43681 6.70071 5.48401 6.70929 5.53154 6.70864H9.47743C9.52496 6.70929 9.57215 6.70071 9.61626 6.68338C9.66038 6.66605 9.70052 6.64032 9.73438 6.60769C9.76823 6.57506 9.79511 6.53618 9.81346 6.4933C9.8318 6.45042 9.84125 6.40441 9.84125 6.35793C9.84125 6.31146 9.8318 6.26544 9.81346 6.22257C9.79511 6.17969 9.76823 6.14081 9.73438 6.10818C9.70052 6.07555 9.66038 6.04982 9.61626 6.03249C9.57215 6.01516 9.52496 6.00657 9.47743 6.00723H5.53154ZM0.868225 7.1066V13.7706C0.896922 13.7492 0.923243 13.7283 0.952299 13.7062C2.19848 12.7586 3.90916 11.4579 5.24359 10.4451L0.868225 7.1066ZM16.6518 7.1066L12.254 10.4622C13.5626 11.4719 15.2707 12.7885 16.6518 13.8515V7.1066ZM8.75999 9.10122C8.66995 9.10122 8.19781 9.11884 7.71677 9.46288C7.38711 9.70101 3.48789 12.6671 1.39299 14.2604C1.19498 14.4108 1.02247 14.5426 0.868225 14.659V15.4762C0.868225 15.6701 1.02857 15.8269 1.22694 15.8269H16.293C16.4914 15.8269 16.6518 15.6701 16.6518 15.4762V14.744C14.1303 12.8039 10.0718 9.67422 9.7913 9.45398C9.39887 9.14746 8.97666 9.10122 8.75999 9.10122Z" fill="#F6C135"/>
</svg>
