<svg width="18" height="18" viewBox="0 0 18 18" fill="none" xmlns="http://www.w3.org/2000/svg">
<path d="M9.25904 0.618668C4.6317 0.618668 0.872681 4.37769 0.872681 9.00503C0.872681 13.6324 4.6317 17.3914 9.25904 17.3914C13.8864 17.3914 17.6454 13.6324 17.6454 9.00503C17.6454 4.37769 13.8864 0.618668 9.25904 0.618668ZM9.25904 1.34792C13.4923 1.34792 16.9162 4.7718 16.9162 9.00503C16.9162 13.2383 13.4923 16.6621 9.25904 16.6621C5.02582 16.6621 1.60193 13.2383 1.60193 9.00503C1.60193 4.7718 5.02582 1.34792 9.25904 1.34792ZM8.89442 2.12559C7.94931 2.35822 7.11297 3.47773 6.58062 5.06822C7.31461 5.21845 8.09407 5.30666 8.89442 5.32745V2.12559ZM9.62366 2.12559V5.32745C10.432 5.30703 11.2118 5.22123 11.9396 5.07392C11.4072 3.48051 10.5695 2.35822 9.62366 2.12559ZM7.2237 2.38339C6.05471 2.74328 5.02195 3.40876 4.20629 4.28058C4.70254 4.52743 5.25973 4.73359 5.86063 4.89731C6.20082 3.85922 6.66728 2.99815 7.2237 2.38339ZM11.2944 2.38339C11.8519 2.99924 12.3194 3.86308 12.6596 4.90372C13.266 4.73854 13.8229 4.5293 14.3104 4.27844C13.4951 3.40735 12.4623 2.74291 11.2944 2.38339ZM14.7875 4.84817C14.2238 5.15409 13.5743 5.40727 12.8611 5.60234C13.0949 6.52083 13.2348 7.54653 13.2606 8.6404H16.1684C16.094 7.22128 15.5926 5.91615 14.7875 4.84817ZM3.72701 4.85244C2.92374 5.9197 2.42408 7.22311 2.34969 8.6404H5.25743C5.28332 7.54434 5.42356 6.51659 5.65837 5.59664C4.95173 5.40339 4.30056 5.15326 3.72701 4.85244ZM6.37196 5.76827C6.14771 6.6379 6.0133 7.61435 5.98668 8.6404H8.89442V6.0567C8.02369 6.03482 7.17267 5.93637 6.37196 5.76827ZM12.1468 5.77397C11.3527 5.93915 10.5024 6.03555 9.62366 6.0567V8.6404H12.5314C12.5048 7.61654 12.3704 6.64214 12.1468 5.77397ZM2.34969 9.36965C2.42408 10.7888 2.92548 12.0939 3.73057 13.1619C4.29428 12.856 4.94375 12.6028 5.65695 12.4077C5.42323 11.4892 5.28332 10.4635 5.25743 9.36965H2.34969ZM5.98668 9.36965C6.0133 10.3935 6.14773 11.3679 6.37124 12.2361C7.1654 12.0709 8.01567 11.9745 8.89442 11.9534V9.36965H5.98668ZM9.62366 9.36965V11.9534C10.4944 11.9752 11.3447 12.0737 12.1454 12.2418C12.3697 11.3722 12.5048 10.3957 12.5314 9.36965H9.62366ZM13.2606 9.36965C13.2348 10.4657 13.0945 11.4935 12.8597 12.4134C13.5663 12.6067 14.2175 12.8568 14.7911 13.1576C15.5943 12.0904 16.094 10.7869 16.1684 9.36965H13.2606ZM8.89442 12.6826C8.08604 12.703 7.30627 12.7888 6.57848 12.9361C7.11083 14.5295 7.94858 15.6518 8.89442 15.8845V12.6826ZM9.62366 12.6826V15.8845C10.5688 15.6518 11.4051 14.5323 11.9375 12.9418C11.2035 12.7916 10.424 12.7034 9.62366 12.6826ZM5.85849 13.1063C5.25212 13.2715 4.69521 13.4808 4.20771 13.7316C5.02301 14.6027 6.0558 15.2671 7.2237 15.6267C6.66618 15.0108 6.19869 14.147 5.85849 13.1063ZM12.6575 13.1127C12.3173 14.1508 11.8501 15.0119 11.2937 15.6267C12.4627 15.2668 13.4961 14.6013 14.3118 13.7295C13.8155 13.4826 13.2584 13.2765 12.6575 13.1127Z" fill="#FFC32A"/>
</svg>
