<svg width="33" height="29" viewBox="0 0 33 29" fill="none" xmlns="http://www.w3.org/2000/svg">
<path d="M1.59288 0.203552V2.39185H0.279907V24.2748H15.598V23.3995H1.15523V6.56328L13.8473 15.4088C14.897 16.1422 16.2989 16.1405 17.3486 15.4088L30.0407 6.56328V17.4227L30.916 18.298V2.39185H29.6031V0.203552H1.59288ZM2.4682 1.07887H28.7277V2.39185H2.4682V1.07887ZM1.15523 3.26717H30.0407V5.49649L16.8494 14.6908C16.0972 15.2156 15.1005 15.2156 14.3465 14.6908L1.15523 5.49649V3.26717ZM3.34352 8.51907C3.10247 8.51907 2.90586 8.71568 2.90586 8.95673C2.90586 9.19779 3.10247 9.39439 3.34352 9.39439C3.58457 9.39439 3.78118 9.19779 3.78118 8.95673C3.78118 8.71568 3.58457 8.51907 3.34352 8.51907ZM27.8524 8.51907C27.6114 8.51907 27.4148 8.71568 27.4148 8.95673C27.4148 9.19779 27.6114 9.39439 27.8524 9.39439C28.0935 9.39439 28.2901 9.19779 28.2901 8.95673C28.2901 8.71568 28.0935 8.51907 27.8524 8.51907ZM3.34352 10.2697C3.10247 10.2697 2.90586 10.4663 2.90586 10.7074C2.90586 10.9484 3.10247 11.145 3.34352 11.145C3.58457 11.145 3.78118 10.9484 3.78118 10.7074C3.78118 10.4663 3.58457 10.2697 3.34352 10.2697ZM27.8524 10.2697C27.6114 10.2697 27.4148 10.4663 27.4148 10.7074C27.4148 10.9484 27.6114 11.145 27.8524 11.145C28.0935 11.145 28.2901 10.9484 28.2901 10.7074C28.2901 10.4663 28.0935 10.2697 27.8524 10.2697ZM3.34352 12.0203C3.10247 12.0203 2.90586 12.217 2.90586 12.458C2.90586 12.6991 3.10247 12.8957 3.34352 12.8957C3.58457 12.8957 3.78118 12.6991 3.78118 12.458C3.78118 12.217 3.58457 12.0203 3.34352 12.0203ZM27.8524 12.0203C27.6114 12.0203 27.4148 12.217 27.4148 12.458C27.4148 12.6991 27.6114 12.8957 27.8524 12.8957C28.0935 12.8957 28.2901 12.6991 28.2901 12.458C28.2901 12.217 28.0935 12.0203 27.8524 12.0203ZM3.34352 13.771C3.10247 13.771 2.90586 13.9676 2.90586 14.2086C2.90586 14.4497 3.10247 14.6463 3.34352 14.6463C3.58457 14.6463 3.78118 14.4497 3.78118 14.2086C3.78118 13.9676 3.58457 13.771 3.34352 13.771ZM27.8524 13.771C27.6114 13.771 27.4148 13.9676 27.4148 14.2086C27.4148 14.4497 27.6114 14.6463 27.8524 14.6463C28.0935 14.6463 28.2901 14.4497 28.2901 14.2086C28.2901 13.9676 28.0935 13.771 27.8524 13.771ZM25.2265 14.4651V19.0229H16.9109V24.2748H25.2265V28.8326L32.4102 21.6488L25.2265 14.4651ZM3.34352 15.5216C3.10247 15.5216 2.90586 15.7182 2.90586 15.9593C2.90586 16.2003 3.10247 16.3969 3.34352 16.3969C3.58457 16.3969 3.78118 16.2003 3.78118 15.9593C3.78118 15.7182 3.58457 15.5216 3.34352 15.5216ZM26.1018 16.5782L31.1725 21.6488L26.1018 26.7195V23.3995H17.7863V19.8982H26.1018V16.5782ZM3.34352 17.2723C3.10247 17.2723 2.90586 17.4689 2.90586 17.7099C2.90586 17.951 3.10247 18.1476 3.34352 18.1476C3.58457 18.1476 3.78118 17.951 3.78118 17.7099C3.78118 17.4689 3.58457 17.2723 3.34352 17.2723ZM3.34352 19.0229C3.10247 19.0229 2.90586 19.2195 2.90586 19.4605C2.90586 19.7016 3.10247 19.8982 3.34352 19.8982C3.58457 19.8982 3.78118 19.7016 3.78118 19.4605C3.78118 19.2195 3.58457 19.0229 3.34352 19.0229ZM3.34352 20.7735C3.10247 20.7735 2.90586 20.9701 2.90586 21.2112C2.90586 21.4522 3.10247 21.6488 3.34352 21.6488C3.58457 21.6488 3.78118 21.4522 3.78118 21.2112C3.78118 20.9701 3.58457 20.7735 3.34352 20.7735ZM5.09416 20.7735C4.8531 20.7735 4.6565 20.9701 4.6565 21.2112C4.6565 21.4522 4.8531 21.6488 5.09416 21.6488C5.33521 21.6488 5.53182 21.4522 5.53182 21.2112C5.53182 20.9701 5.33521 20.7735 5.09416 20.7735ZM6.84479 20.7735C6.60374 20.7735 6.40713 20.9701 6.40713 21.2112C6.40713 21.4522 6.60374 21.6488 6.84479 21.6488C7.08585 21.6488 7.28245 21.4522 7.28245 21.2112C7.28245 20.9701 7.08585 20.7735 6.84479 20.7735ZM8.59543 20.7735C8.35437 20.7735 8.15777 20.9701 8.15777 21.2112C8.15777 21.4522 8.35437 21.6488 8.59543 21.6488C8.83648 21.6488 9.03309 21.4522 9.03309 21.2112C9.03309 20.9701 8.83648 20.7735 8.59543 20.7735ZM10.3461 20.7735C10.105 20.7735 9.90841 20.9701 9.90841 21.2112C9.90841 21.4522 10.105 21.6488 10.3461 21.6488C10.5871 21.6488 10.7837 21.4522 10.7837 21.2112C10.7837 20.9701 10.5871 20.7735 10.3461 20.7735ZM12.0967 20.7735C11.8556 20.7735 11.659 20.9701 11.659 21.2112C11.659 21.4522 11.8556 21.6488 12.0967 21.6488C12.3378 21.6488 12.5344 21.4522 12.5344 21.2112C12.5344 20.9701 12.3378 20.7735 12.0967 20.7735ZM13.8473 20.7735C13.6063 20.7735 13.4097 20.9701 13.4097 21.2112C13.4097 21.4522 13.6063 21.6488 13.8473 21.6488C14.0884 21.6488 14.285 21.4522 14.285 21.2112C14.285 20.9701 14.0884 20.7735 13.8473 20.7735Z" fill="#FFC32A"/>
</svg>
