<svg width="50" height="50" viewBox="0 0 50 50" fill="none" xmlns="http://www.w3.org/2000/svg">
<path d="M24.9453 0.242554C11.3225 0.242554 0.264771 11.3644 0.264771 25.0662C0.264771 38.7679 11.3225 49.8898 24.9453 49.8898C38.5681 49.8898 49.6258 38.7679 49.6258 25.0662C49.6258 11.3644 38.5681 0.242554 24.9453 0.242554ZM24.9453 1.74702C37.7588 1.74702 48.13 12.1783 48.13 25.0662C48.13 37.954 37.7588 48.3853 24.9453 48.3853C12.1318 48.3853 1.76056 37.954 1.76056 25.0662C1.76056 12.1783 12.1318 1.74702 24.9453 1.74702ZM24.9453 4.00371C24.5334 4.00371 24.1974 4.34162 24.1974 4.75594C24.1974 5.17025 24.5334 5.50817 24.9453 5.50817C25.3572 5.50817 25.6932 5.17025 25.6932 4.75594C25.6932 4.34162 25.3572 4.00371 24.9453 4.00371ZM28.9039 4.39158C28.5387 4.38276 28.2232 4.6384 28.1502 4.99983C28.0713 5.40532 28.3342 5.80201 28.7403 5.88428C29.1434 5.96362 29.5378 5.69917 29.6196 5.29367C29.6985 4.88523 29.4356 4.48854 29.0324 4.40627C28.9886 4.40039 28.9477 4.39452 28.9039 4.39158ZM21.0101 4.39452C20.9604 4.39452 20.9108 4.39745 20.8611 4.40627C20.455 4.48854 20.1921 4.88523 20.2739 5.29367C20.3119 5.4876 20.4258 5.66097 20.5923 5.77263C20.7559 5.88135 20.9575 5.92248 21.1532 5.88428C21.5593 5.80201 21.8223 5.40826 21.7405 4.99983C21.6703 4.65016 21.3665 4.39745 21.0101 4.39452ZM17.2239 5.54931C17.1245 5.54931 17.0252 5.56694 16.9317 5.60514C16.549 5.76675 16.3679 6.20457 16.5286 6.5895C16.6863 6.97443 17.1216 7.15661 17.5043 6.99794C17.887 6.83633 18.0682 6.39851 17.9104 6.01357C17.7936 5.73443 17.5248 5.55225 17.2239 5.54931ZM32.6901 5.54931C32.3804 5.54343 32.1 5.72561 31.9802 6.01357C31.8224 6.39851 32.0036 6.83633 32.3863 6.99794C32.769 7.15661 33.2043 6.97443 33.362 6.5895C33.5227 6.20457 33.3416 5.76675 32.9589 5.60514C32.8742 5.56988 32.7807 5.55225 32.6901 5.54931ZM13.7356 7.42401C13.5837 7.42401 13.4347 7.46808 13.3091 7.5533C12.9673 7.78249 12.8738 8.2497 13.1046 8.59643C13.3325 8.94022 13.797 9.03425 14.1417 8.80212C14.4865 8.57292 14.577 8.10572 14.3492 7.76192C14.2118 7.5533 13.981 7.42695 13.7356 7.42401ZM36.1754 7.42401C35.9212 7.42107 35.6817 7.54742 35.5415 7.76192C35.3107 8.10572 35.4041 8.57292 35.746 8.80212C36.0907 9.03425 36.5552 8.94022 36.7831 8.59643C36.8941 8.43188 36.935 8.22619 36.897 8.03226C36.859 7.83538 36.7451 7.66202 36.5786 7.5533C36.4588 7.47102 36.3215 7.42695 36.1754 7.42401ZM10.6769 9.95103C10.4753 9.95103 10.2796 10.0304 10.1393 10.1744C9.84717 10.4653 9.84717 10.9442 10.1393 11.2351C10.4285 11.529 10.9047 11.529 11.194 11.2351C11.4861 10.9442 11.4861 10.4653 11.194 10.1744C11.0567 10.0333 10.8726 9.95397 10.6769 9.95103ZM39.2342 9.95103C39.0326 9.95103 38.8369 10.0304 38.6966 10.1744C38.4045 10.4653 38.4045 10.9442 38.6966 11.2351C38.9859 11.529 39.4621 11.529 39.7513 11.2351C40.0434 10.9442 40.0434 10.4653 39.7513 10.1744C39.614 10.0333 39.4299 9.95397 39.2342 9.95103ZM41.7437 13.0305C41.5918 13.0275 41.4457 13.0716 41.3201 13.1568C40.9783 13.386 40.8848 13.8532 41.1156 14.197C41.3435 14.5438 41.808 14.6378 42.1498 14.4057C42.4945 14.1735 42.588 13.7092 42.3572 13.3625C42.2199 13.1568 41.9891 13.0305 41.7437 13.0305ZM8.16733 13.0305C7.91317 13.0246 7.6736 13.151 7.53337 13.3625C7.3055 13.7092 7.39607 14.1765 7.7408 14.4057C8.08553 14.6378 8.54712 14.5438 8.77792 14.2C9.00579 13.8532 8.91523 13.386 8.57049 13.1568C8.45071 13.0775 8.31341 13.0334 8.16733 13.0305ZM23.5459 14.0207L16.6308 33.1027H19.4179L21.2321 27.8283H28.6059L30.4201 33.1027H33.2598L26.3447 14.0207H23.5459ZM43.6076 16.5419C43.5083 16.5389 43.409 16.5595 43.3155 16.5977C42.9328 16.7564 42.7516 17.1971 42.9094 17.5791C43.0701 17.9641 43.5054 18.1462 43.8881 17.9876C44.2708 17.8289 44.4519 17.3881 44.2942 17.0032C44.1773 16.727 43.9085 16.5419 43.6076 16.5419ZM6.30636 16.5419C5.99668 16.536 5.71622 16.7182 5.59937 17.0061C5.44161 17.3911 5.62274 17.8289 6.00253 17.9905C6.38524 18.1492 6.82346 17.967 6.98122 17.5821C7.13898 17.1971 6.95785 16.7593 6.57513 16.6006C6.49041 16.5624 6.39985 16.5448 6.30636 16.5419ZM24.8197 17.2735H25.03L27.8843 25.5921H21.9537L24.8197 17.2735ZM44.7528 20.353C44.7032 20.35 44.6535 20.3559 44.6038 20.3647C44.2007 20.447 43.9377 20.8437 44.0166 21.2492C44.0984 21.6576 44.4928 21.9221 44.896 21.8427C45.3021 21.7605 45.565 21.3638 45.4861 20.9553C45.416 20.6057 45.1093 20.353 44.7528 20.353ZM5.16115 20.353C4.79596 20.3442 4.48044 20.5969 4.40741 20.9553C4.36943 21.1522 4.40741 21.3579 4.51842 21.5225C4.62944 21.6899 4.80181 21.8045 4.99754 21.8427C5.19036 21.8809 5.39194 21.8398 5.55846 21.7311C5.72207 21.6194 5.836 21.4461 5.87398 21.2492C5.95578 20.8437 5.69285 20.447 5.28969 20.3647C5.24587 20.3589 5.20497 20.353 5.16115 20.353ZM4.75214 24.3139C4.34021 24.3139 4.00425 24.6519 4.00425 25.0662C4.00425 25.4805 4.34021 25.8184 4.75214 25.8184C5.16407 25.8184 5.50004 25.4805 5.50004 25.0662C5.50004 24.6519 5.16407 24.3139 4.75214 24.3139ZM45.1385 24.3139C44.7265 24.3139 44.3906 24.6519 44.3906 25.0662C44.3906 25.4805 44.7265 25.8184 45.1385 25.8184C45.5504 25.8184 45.8864 25.4805 45.8864 25.0662C45.8864 24.6519 45.5504 24.3139 45.1385 24.3139ZM5.14362 28.2749C5.09395 28.2749 5.04429 28.2808 4.99462 28.2896C4.58854 28.3719 4.32561 28.7686 4.40741 29.177C4.48921 29.5825 4.88068 29.847 5.28677 29.7676C5.69285 29.6853 5.95578 29.2887 5.87398 28.8832C5.80387 28.5305 5.50004 28.2778 5.14362 28.2749ZM44.7704 28.2749C44.4052 28.2661 44.0897 28.5217 44.0166 28.8832C43.9377 29.2887 44.2007 29.6853 44.6038 29.7676C45.0099 29.847 45.4043 29.5825 45.4861 29.177C45.565 28.7686 45.3021 28.3719 44.896 28.2896C44.8551 28.2837 44.8142 28.2778 44.7704 28.2749ZM43.6193 32.0831C43.3096 32.0772 43.0292 32.2623 42.9094 32.5503C42.7516 32.9323 42.9328 33.373 43.3155 33.5317C43.6982 33.6904 44.1335 33.5082 44.2942 33.1262C44.4519 32.7413 44.2708 32.3005 43.8881 32.1418C43.8034 32.1066 43.7099 32.086 43.6193 32.0831ZM6.29467 32.086C6.19534 32.086 6.09601 32.1036 6.00253 32.1418C5.8214 32.2182 5.67532 32.3652 5.59937 32.5503C5.52341 32.7354 5.52341 32.9411 5.59644 33.1262C5.75712 33.5111 6.19242 33.6933 6.57513 33.5317C6.75919 33.4582 6.90526 33.3113 6.98122 33.1262C7.05718 32.9411 7.05718 32.7354 6.98122 32.5503C6.86728 32.2711 6.59558 32.089 6.29467 32.086ZM41.7496 35.5974C41.4954 35.5915 41.2558 35.7179 41.1156 35.9294C40.8848 36.2762 40.9783 36.7404 41.3201 36.9726C41.4837 37.0842 41.6882 37.1254 41.881 37.0842C42.0768 37.046 42.2491 36.9314 42.3572 36.7639C42.588 36.4202 42.4945 35.9529 42.1498 35.7238C42.033 35.6415 41.8927 35.5974 41.7496 35.5974ZM8.16441 35.5974C8.01249 35.5945 7.86642 35.6385 7.7408 35.7238C7.39899 35.9559 7.3055 36.4202 7.53337 36.7669C7.76417 37.1107 8.22868 37.2047 8.57342 36.9726C8.91523 36.7434 9.00871 36.2762 8.77792 35.9294C8.64061 35.7238 8.40981 35.6003 8.16441 35.5974ZM10.6769 38.6768C10.4753 38.6739 10.2796 38.7532 10.1393 38.8972C9.84717 39.1881 9.84717 39.6671 10.1393 39.958C10.4285 40.2518 10.9047 40.2518 11.194 39.958C11.4861 39.6671 11.4861 39.1881 11.194 38.8972C11.0567 38.7562 10.8726 38.6768 10.6769 38.6768ZM39.2342 38.6768C39.0326 38.6739 38.8369 38.7532 38.6966 38.8972C38.4045 39.1881 38.4045 39.6671 38.6966 39.958C38.9859 40.2518 39.4621 40.2518 39.7513 39.958C40.0434 39.6671 40.0434 39.1881 39.7513 38.8972C39.614 38.7562 39.4299 38.6768 39.2342 38.6768ZM13.7415 41.2009C13.4873 41.1951 13.2478 41.3214 13.1075 41.533C12.8767 41.8797 12.9702 42.3469 13.315 42.579C13.6568 42.8082 14.1213 42.7142 14.3492 42.3704C14.5799 42.0237 14.4865 41.5594 14.1446 41.3273C14.0249 41.2479 13.8846 41.2009 13.7415 41.2009ZM36.1725 41.2009C36.0206 41.198 35.8745 41.2421 35.7489 41.3243C35.5824 41.436 35.4684 41.6094 35.4304 41.8062C35.3925 42.0002 35.4334 42.2059 35.5444 42.3704C35.7723 42.7142 36.2368 42.8082 36.5815 42.579C36.9233 42.3469 37.0168 41.8797 36.786 41.533C36.6516 41.3273 36.4208 41.2009 36.1725 41.2009ZM17.2356 43.0756C16.9259 43.0698 16.6454 43.2549 16.5286 43.5428C16.3708 43.9248 16.5519 44.3656 16.9317 44.5243C17.3144 44.6829 17.7527 44.5008 17.9104 44.1188C18.0682 43.7338 17.887 43.2931 17.5043 43.1344C17.4196 43.0991 17.329 43.0786 17.2356 43.0756ZM32.6784 43.0756C32.5791 43.0756 32.4798 43.0962 32.3892 43.1344C32.2051 43.2108 32.0591 43.3577 31.9831 43.5399C31.9072 43.725 31.9072 43.9336 31.9802 44.1188C32.1409 44.5008 32.5762 44.6829 32.9589 44.5243C33.1429 44.4479 33.289 44.3009 33.365 44.1188C33.4409 43.9336 33.4409 43.725 33.365 43.5428C33.251 43.2608 32.9793 43.0786 32.6784 43.0756ZM21.0276 44.2334C20.6624 44.2245 20.344 44.4802 20.2739 44.8387C20.1921 45.2471 20.455 45.6409 20.8611 45.7231C21.2672 45.8054 21.6587 45.541 21.7405 45.1325C21.8223 44.7241 21.5593 44.3303 21.1532 44.2481C21.1123 44.2392 21.0685 44.2334 21.0276 44.2334ZM28.8864 44.2363C28.8367 44.2334 28.787 44.2392 28.7403 44.2481C28.3342 44.3303 28.0713 44.7241 28.1502 45.1325C28.1911 45.3294 28.305 45.4998 28.4686 45.6115C28.6351 45.7231 28.8367 45.7643 29.0324 45.7261C29.2252 45.6849 29.3976 45.5703 29.5086 45.4058C29.6167 45.2383 29.6576 45.0355 29.6196 44.8387C29.5495 44.489 29.2428 44.2363 28.8864 44.2363ZM24.9453 44.6242C24.5334 44.6242 24.1974 44.9621 24.1974 45.3764C24.1974 45.7907 24.5334 46.1286 24.9453 46.1286C25.3572 46.1286 25.6932 45.7907 25.6932 45.3764C25.6932 44.9621 25.3572 44.6242 24.9453 44.6242Z" fill="white"/>
</svg>
