<svg width="16" height="10" viewBox="0 0 16 10" fill="none" xmlns="http://www.w3.org/2000/svg">
<path d="M8.29421 9.28524C8.1182 9.28237 7.9502 9.2095 7.82576 9.08205L1.05052 2.14648C0.985494 2.08257 0.93358 2.00603 0.897817 1.92132C0.862054 1.83662 0.843161 1.74547 0.842244 1.65319C0.841327 1.56092 0.858404 1.46939 0.892477 1.38396C0.926549 1.29853 0.97693 1.22092 1.04067 1.15567C1.10441 1.09042 1.18023 1.03885 1.26369 1.00397C1.34714 0.969089 1.43656 0.951608 1.52669 0.952546C1.61683 0.953485 1.70588 0.972825 1.78863 1.00943C1.87137 1.04604 1.94615 1.09919 2.00858 1.16575L8.30479 7.61095L14.601 1.16575C14.6634 1.09919 14.7382 1.04604 14.821 1.00943C14.9037 0.972823 14.9928 0.953482 15.0829 0.952542C15.173 0.951603 15.2624 0.969086 15.3459 1.00396C15.4294 1.03884 15.5052 1.09042 15.5689 1.15567C15.6327 1.22091 15.683 1.29853 15.7171 1.38396C15.7512 1.46939 15.7683 1.56092 15.7673 1.65319C15.7664 1.74546 15.7475 1.83662 15.7118 1.92132C15.676 2.00603 15.6241 2.08257 15.5591 2.14648L8.78382 9.08205C8.71967 9.14776 8.64327 9.1996 8.55916 9.23451C8.47505 9.26941 8.38495 9.28667 8.29421 9.28524Z" fill="black"/>
</svg>
