<svg width="61" height="46" viewBox="0 0 61 46" fill="none" xmlns="http://www.w3.org/2000/svg">
<path d="M16.5123 0.128174C14.0777 0.128174 11.8825 1.60336 10.9779 3.84748L7.60864 12.2003C7.2195 12.0451 6.80043 11.956 6.36472 11.956H4.87135C2.79594 11.956 1.01321 13.4543 0.67063 15.4839L0.128494 18.7148H4.06647L3.82034 19.0844C2.62299 20.8798 1.9844 22.9886 1.9844 25.1436V43.2154C1.9844 44.6048 3.13851 45.75 4.53876 45.75H8.79602C10.1963 45.75 11.3504 44.6048 11.3504 43.2154V41.5257H48.8143V43.2154C48.8143 44.6048 49.9684 45.75 51.3687 45.75H55.6259C57.0262 45.75 58.1803 44.6048 58.1803 43.2154V25.1436C58.1803 22.9886 57.5417 20.8831 56.3444 19.0844L56.0982 18.7148H60.0362L59.4941 15.4839C59.1548 13.4543 57.3688 11.956 55.2934 11.956H53.8C53.3643 11.956 52.9485 12.0484 52.5561 12.2003L49.1868 3.84418C48.2822 1.60336 46.087 0.128174 43.6524 0.128174H16.5123ZM16.5123 1.81787H43.6524C45.3985 1.81787 46.9584 2.86733 47.6037 4.47122L51.7844 14.8305L52.6891 14.0583C52.9951 13.7975 53.3876 13.6457 53.8 13.6457H55.2934C56.5506 13.6457 57.6082 14.5368 57.8145 15.7612L58.0273 17.0251H52.9319L53.8033 18.3353L54.9242 20.0184C55.9353 21.5398 56.4774 23.3186 56.4774 25.1436V43.2154C56.4774 43.6939 56.1082 44.0603 55.6259 44.0603H51.3687C50.8864 44.0603 50.5172 43.6939 50.5172 43.2154V39.836H9.64748V43.2154C9.64748 43.6939 9.27829 44.0603 8.79602 44.0603H4.53876C4.05649 44.0603 3.6873 43.6939 3.6873 43.2154V25.1436C3.6873 23.3186 4.22611 21.5365 5.24054 20.0184L7.23613 17.0251H2.13739L2.35026 15.7612C2.55647 14.5368 3.61413 13.6457 4.87135 13.6457H6.36472C6.78047 13.6457 7.16961 13.7975 7.47893 14.0583L8.38027 14.8338L12.561 4.47122C13.2063 2.86733 14.7662 1.81787 16.5123 1.81787ZM9.64748 17.0251C9.17851 17.0251 8.79602 17.4047 8.79602 17.87C8.79602 18.3353 9.17851 18.7148 9.64748 18.7148C10.1164 18.7148 10.4989 18.3353 10.4989 17.87C10.4989 17.4047 10.1164 17.0251 9.64748 17.0251ZM13.0533 17.0251C12.5843 17.0251 12.2018 17.4047 12.2018 17.87C12.2018 18.3353 12.5843 18.7148 13.0533 18.7148C13.5223 18.7148 13.9047 18.3353 13.9047 17.87C13.9047 17.4047 13.5223 17.0251 13.0533 17.0251ZM16.4591 17.0251C15.9901 17.0251 15.6076 17.4047 15.6076 17.87C15.6076 18.3353 15.9901 18.7148 16.4591 18.7148C16.9281 18.7148 17.3106 18.3353 17.3106 17.87C17.3106 17.4047 16.9281 17.0251 16.4591 17.0251ZM19.8649 17.0251C19.396 17.0251 19.0135 17.4047 19.0135 17.87C19.0135 18.3353 19.396 18.7148 19.8649 18.7148C20.3339 18.7148 20.7164 18.3353 20.7164 17.87C20.7164 17.4047 20.3339 17.0251 19.8649 17.0251ZM23.2707 17.0251C22.8018 17.0251 22.4193 17.4047 22.4193 17.87C22.4193 18.3353 22.8018 18.7148 23.2707 18.7148C23.7397 18.7148 24.1222 18.3353 24.1222 17.87C24.1222 17.4047 23.7397 17.0251 23.2707 17.0251ZM26.6765 17.0251C26.2076 17.0251 25.8251 17.4047 25.8251 17.87C25.8251 18.3353 26.2076 18.7148 26.6765 18.7148C27.1455 18.7148 27.528 18.3353 27.528 17.87C27.528 17.4047 27.1455 17.0251 26.6765 17.0251ZM30.0824 17.0251C29.6134 17.0251 29.2309 17.4047 29.2309 17.87C29.2309 18.3353 29.6134 18.7148 30.0824 18.7148C30.5513 18.7148 30.9338 18.3353 30.9338 17.87C30.9338 17.4047 30.5513 17.0251 30.0824 17.0251ZM33.4882 17.0251C33.0192 17.0251 32.6367 17.4047 32.6367 17.87C32.6367 18.3353 33.0192 18.7148 33.4882 18.7148C33.9571 18.7148 34.3396 18.3353 34.3396 17.87C34.3396 17.4047 33.9571 17.0251 33.4882 17.0251ZM36.894 17.0251C36.425 17.0251 36.0425 17.4047 36.0425 17.87C36.0425 18.3353 36.425 18.7148 36.894 18.7148C37.3629 18.7148 37.7454 18.3353 37.7454 17.87C37.7454 17.4047 37.3629 17.0251 36.894 17.0251ZM40.2998 17.0251C39.8308 17.0251 39.4483 17.4047 39.4483 17.87C39.4483 18.3353 39.8308 18.7148 40.2998 18.7148C40.7688 18.7148 41.1512 18.3353 41.1512 17.87C41.1512 17.4047 40.7688 17.0251 40.2998 17.0251ZM43.7056 17.0251C43.2366 17.0251 42.8542 17.4047 42.8542 17.87C42.8542 18.3353 43.2366 18.7148 43.7056 18.7148C44.1746 18.7148 44.5571 18.3353 44.5571 17.87C44.5571 17.4047 44.1746 17.0251 43.7056 17.0251ZM47.1114 17.0251C46.6425 17.0251 46.26 17.4047 46.26 17.87C46.26 18.3353 46.6425 18.7148 47.1114 18.7148C47.5804 18.7148 47.9629 18.3353 47.9629 17.87C47.9629 17.4047 47.5804 17.0251 47.1114 17.0251ZM50.5172 17.0251C50.0483 17.0251 49.6658 17.4047 49.6658 17.87C49.6658 18.3353 50.0483 18.7148 50.5172 18.7148C50.9862 18.7148 51.3687 18.3353 51.3687 17.87C51.3687 17.4047 50.9862 17.0251 50.5172 17.0251ZM11.3504 21.2494C9.00889 21.2494 7.09312 23.1503 7.09312 25.4736C7.09312 27.7969 9.00889 29.6979 11.3504 29.6979C13.6919 29.6979 15.6076 27.7969 15.6076 25.4736C15.6076 23.1503 13.6919 21.2494 11.3504 21.2494ZM48.8143 21.2494C46.4728 21.2494 44.5571 23.1503 44.5571 25.4736C44.5571 27.7969 46.4728 29.6979 48.8143 29.6979C51.1558 29.6979 53.0716 27.7969 53.0716 25.4736C53.0716 23.1503 51.1558 21.2494 48.8143 21.2494ZM11.3504 22.9391C12.7706 22.9391 13.9047 24.0644 13.9047 25.4736C13.9047 26.8828 12.7706 28.0082 11.3504 28.0082C9.93018 28.0082 8.79602 26.8828 8.79602 25.4736C8.79602 24.0644 9.93018 22.9391 11.3504 22.9391ZM19.0135 22.9391V24.6288H41.1512V22.9391H19.0135ZM48.8143 22.9391C50.2345 22.9391 51.3687 24.0644 51.3687 25.4736C51.3687 26.8828 50.2345 28.0082 48.8143 28.0082C47.3941 28.0082 46.26 26.8828 46.26 25.4736C46.26 24.0644 47.3941 22.9391 48.8143 22.9391ZM20.7164 27.1633V28.853H39.4483V27.1633H20.7164ZM6.24166 34.7669C5.7727 34.7669 5.39021 35.1465 5.39021 35.6118C5.39021 36.0771 5.7727 36.4566 6.24166 36.4566C6.71063 36.4566 7.09312 36.0771 7.09312 35.6118C7.09312 35.1465 6.71063 34.7669 6.24166 34.7669ZM9.64748 34.7669C9.17851 34.7669 8.79602 35.1465 8.79602 35.6118C8.79602 36.0771 9.17851 36.4566 9.64748 36.4566C10.1164 36.4566 10.4989 36.0771 10.4989 35.6118C10.4989 35.1465 10.1164 34.7669 9.64748 34.7669ZM13.0533 34.7669C12.5843 34.7669 12.2018 35.1465 12.2018 35.6118C12.2018 36.0771 12.5843 36.4566 13.0533 36.4566C13.5223 36.4566 13.9047 36.0771 13.9047 35.6118C13.9047 35.1465 13.5223 34.7669 13.0533 34.7669ZM16.4591 34.7669C15.9901 34.7669 15.6076 35.1465 15.6076 35.6118C15.6076 36.0771 15.9901 36.4566 16.4591 36.4566C16.9281 36.4566 17.3106 36.0771 17.3106 35.6118C17.3106 35.1465 16.9281 34.7669 16.4591 34.7669ZM19.8649 34.7669C19.396 34.7669 19.0135 35.1465 19.0135 35.6118C19.0135 36.0771 19.396 36.4566 19.8649 36.4566C20.3339 36.4566 20.7164 36.0771 20.7164 35.6118C20.7164 35.1465 20.3339 34.7669 19.8649 34.7669ZM23.2707 34.7669C22.8018 34.7669 22.4193 35.1465 22.4193 35.6118C22.4193 36.0771 22.8018 36.4566 23.2707 36.4566C23.7397 36.4566 24.1222 36.0771 24.1222 35.6118C24.1222 35.1465 23.7397 34.7669 23.2707 34.7669ZM26.6765 34.7669C26.2076 34.7669 25.8251 35.1465 25.8251 35.6118C25.8251 36.0771 26.2076 36.4566 26.6765 36.4566C27.1455 36.4566 27.528 36.0771 27.528 35.6118C27.528 35.1465 27.1455 34.7669 26.6765 34.7669ZM30.0824 34.7669C29.6134 34.7669 29.2309 35.1465 29.2309 35.6118C29.2309 36.0771 29.6134 36.4566 30.0824 36.4566C30.5513 36.4566 30.9338 36.0771 30.9338 35.6118C30.9338 35.1465 30.5513 34.7669 30.0824 34.7669ZM33.4882 34.7669C33.0192 34.7669 32.6367 35.1465 32.6367 35.6118C32.6367 36.0771 33.0192 36.4566 33.4882 36.4566C33.9571 36.4566 34.3396 36.0771 34.3396 35.6118C34.3396 35.1465 33.9571 34.7669 33.4882 34.7669ZM36.894 34.7669C36.425 34.7669 36.0425 35.1465 36.0425 35.6118C36.0425 36.0771 36.425 36.4566 36.894 36.4566C37.3629 36.4566 37.7454 36.0771 37.7454 35.6118C37.7454 35.1465 37.3629 34.7669 36.894 34.7669ZM40.2998 34.7669C39.8308 34.7669 39.4483 35.1465 39.4483 35.6118C39.4483 36.0771 39.8308 36.4566 40.2998 36.4566C40.7688 36.4566 41.1512 36.0771 41.1512 35.6118C41.1512 35.1465 40.7688 34.7669 40.2998 34.7669ZM43.7056 34.7669C43.2366 34.7669 42.8542 35.1465 42.8542 35.6118C42.8542 36.0771 43.2366 36.4566 43.7056 36.4566C44.1746 36.4566 44.5571 36.0771 44.5571 35.6118C44.5571 35.1465 44.1746 34.7669 43.7056 34.7669ZM47.1114 34.7669C46.6425 34.7669 46.26 35.1465 46.26 35.6118C46.26 36.0771 46.6425 36.4566 47.1114 36.4566C47.5804 36.4566 47.9629 36.0771 47.9629 35.6118C47.9629 35.1465 47.5804 34.7669 47.1114 34.7669ZM50.5172 34.7669C50.0483 34.7669 49.6658 35.1465 49.6658 35.6118C49.6658 36.0771 50.0483 36.4566 50.5172 36.4566C50.9862 36.4566 51.3687 36.0771 51.3687 35.6118C51.3687 35.1465 50.9862 34.7669 50.5172 34.7669ZM53.923 34.7669C53.4541 34.7669 53.0716 35.1465 53.0716 35.6118C53.0716 36.0771 53.4541 36.4566 53.923 36.4566C54.392 36.4566 54.7745 36.0771 54.7745 35.6118C54.7745 35.1465 54.392 34.7669 53.923 34.7669Z" fill="white"/>
</svg>
