<svg width="23" height="22" viewBox="0 0 23 22" fill="none" xmlns="http://www.w3.org/2000/svg">
<path fill-rule="evenodd" clip-rule="evenodd" d="M11.3756 0.416046C17.4112 0.416046 22.3041 5.0907 22.3041 10.8572C22.3041 16.6237 17.4112 21.2983 11.3756 21.2983C5.33998 21.2983 0.447144 16.6237 0.447144 10.8572C0.447144 5.0907 5.33998 0.416046 11.3756 0.416046ZM14.2872 9.53395C14.234 9.12138 14.1013 8.79744 13.8656 8.5105C13.5595 8.14103 13.1684 7.91978 12.5894 7.78854C12.212 7.70106 12.0595 7.7111 11.923 7.83021C11.7959 7.94181 11.7711 8.16553 11.8682 8.3104C11.9365 8.41555 12.0154 8.45322 12.2346 8.49434C12.5265 8.54565 12.7283 8.61225 12.9118 8.71251C13.3013 8.92739 13.4827 9.26366 13.5021 9.80805C13.5112 10.0637 13.5343 10.1422 13.6278 10.2329C13.801 10.3986 14.1092 10.3664 14.2399 10.1681C14.2879 10.0933 14.2952 10.0608 14.3003 9.88723C14.3036 9.77978 14.2988 9.61983 14.2872 9.53395ZM14.2924 7.00273C15.2185 7.71822 15.7359 8.73514 15.8128 9.99912C15.8452 10.497 15.8022 10.6591 15.6184 10.7515C15.4525 10.837 15.2646 10.8089 15.1356 10.68C15.0502 10.5962 15.0174 10.4816 15.0186 10.2787C15.0224 9.71757 14.8871 9.09096 14.6671 8.65616C14.4125 8.1501 14.0189 7.71945 13.5238 7.4046C13.0901 7.12806 12.5161 6.94127 11.9596 6.89475C11.5987 6.86458 11.4698 6.80617 11.4005 6.64084C11.3575 6.54194 11.3689 6.37096 11.4192 6.29439C11.4668 6.22377 11.5736 6.14568 11.649 6.12504C11.729 6.10275 12.1953 6.14172 12.4485 6.1898C13.1399 6.32425 13.7706 6.6007 14.2924 7.00273ZM17.5011 14.8667C17.4753 14.7945 17.4149 14.683 17.3717 14.619C17.1 14.227 15.6398 13.1352 14.9107 12.7781C14.4945 12.5738 14.1861 12.5057 13.9574 12.5697C13.7115 12.6358 13.5821 12.7451 13.1702 13.2342C13.0041 13.4303 12.8337 13.614 12.7884 13.6429C12.6762 13.7172 12.4562 13.777 12.301 13.777C11.9408 13.775 11.2872 13.5521 10.7847 13.259C10.3943 13.032 9.89392 12.6254 9.50997 12.223C9.05701 11.7504 8.74862 11.3335 8.50487 10.8629C8.18998 10.2583 8.11018 9.88882 8.24173 9.61845C8.27409 9.55036 8.31723 9.47814 8.33662 9.45541C8.35604 9.4348 8.5588 9.27587 8.78309 9.10251C9.22311 8.76819 9.29428 8.69183 9.37624 8.46274C9.47976 8.17173 9.45174 7.87454 9.29213 7.57531C9.16918 7.34828 8.84781 6.85297 8.61488 6.53309C8.30644 6.11209 7.5386 5.21227 7.38544 5.09047C7.10936 4.87585 6.75567 4.83868 6.36524 4.98318C5.95332 5.1359 5.18114 5.73027 4.85113 6.1451C4.55348 6.52071 4.43921 6.78692 4.42193 7.13778C4.40685 7.42669 4.43272 7.5464 4.59233 7.91583C5.84115 10.8134 7.70466 13.1269 10.2649 14.9637C11.6021 15.9234 12.989 16.654 14.4276 17.1534C15.2666 17.4444 15.6311 17.4588 16.0603 17.2195C16.2415 17.1163 16.6902 16.6767 16.9403 16.3568C17.3545 15.8243 17.5076 15.5787 17.5507 15.3827C17.5809 15.2485 17.5572 15.0153 17.5011 14.8667ZM16.9496 8.33414C17.2123 8.98798 17.3383 9.57444 17.366 10.2894C17.3703 10.4307 17.3683 10.6894 17.3587 10.8647C17.3388 11.2008 17.3197 11.2675 17.2184 11.3564C17.0557 11.5023 16.7385 11.4676 16.6182 11.2917C16.5553 11.1974 16.5465 11.1283 16.5587 10.7357C16.5936 9.57435 16.3477 8.66504 15.7555 7.75579C15.0478 6.66493 13.9892 5.93007 12.6127 5.57056C12.2616 5.47905 11.9658 5.42328 11.5057 5.3641C11.206 5.32662 11.1404 5.31077 11.0664 5.26728C10.843 5.13054 10.84 4.7843 11.0627 4.64548C11.1777 4.5722 11.2625 4.56893 11.6371 4.61477C12.7358 4.74595 13.7162 5.05785 14.5217 5.52918C15.0991 5.86747 15.4632 6.17137 15.9319 6.70361C16.4277 7.27127 16.6902 7.69097 16.9496 8.33414Z" fill="#FFC32A"/>
</svg>
