<svg width="8" height="8" viewBox="0 0 8 8" fill="none" xmlns="http://www.w3.org/2000/svg">
<path fill-rule="evenodd" clip-rule="evenodd" d="M7.38031 5.1081L5.04752 1.12022C4.81332 0.714219 4.37681 0.462225 3.90475 0.461671C3.43263 0.46112 2.99597 0.712074 2.75885 1.12024L0.425202 5.10958C0.183218 5.51646 0.177744 6.02631 0.412132 6.44211C0.646714 6.85826 1.08595 7.11724 1.56372 7.12113L6.23835 7.12115C6.72109 7.11646 7.1595 6.85827 7.39404 6.44249C7.62831 6.0272 7.62307 5.51848 7.38031 5.1081ZM0.99887 5.44793L3.33425 1.45565C3.45252 1.25206 3.66944 1.1274 3.90399 1.12767C4.13851 1.12795 4.35535 1.25313 4.47166 1.45475L6.80629 5.44579C6.92866 5.65266 6.93128 5.90734 6.81399 6.11526C6.69653 6.32348 6.47694 6.4528 6.23513 6.45516L1.56645 6.45513C1.32982 6.4532 1.10981 6.32348 0.992328 6.11507C0.874977 5.90689 0.877718 5.65165 0.99887 5.44793ZM3.90342 5.78914C4.08739 5.78914 4.23653 5.64005 4.23653 5.45614C4.23653 5.27223 4.08739 5.12314 3.90342 5.12314C3.71945 5.12314 3.57031 5.27223 3.57031 5.45614C3.57031 5.64005 3.71945 5.78914 3.90342 5.78914ZM4.23749 2.45913H3.57127V4.79014H4.23749V2.45913Z" fill="white"/>
</svg>
