<svg width="23" height="22" viewBox="0 0 23 22" fill="none" xmlns="http://www.w3.org/2000/svg">
<path fill-rule="evenodd" clip-rule="evenodd" d="M22.4357 10.8572C22.4357 16.6237 17.5428 21.2983 11.5072 21.2983C5.47157 21.2983 0.578735 16.6237 0.578735 10.8572C0.578735 5.0907 5.47157 0.416046 11.5072 0.416046C17.5428 0.416046 22.4357 5.0907 22.4357 10.8572ZM7.89697 9.90074C6.80222 10.3574 5.67738 10.8266 4.64882 11.3679L4.64875 11.368C4.11167 11.7437 4.82555 12.0094 5.49523 12.2587C5.6017 12.2983 5.70704 12.3375 5.80607 12.3767C5.88847 12.4009 5.97228 12.4264 6.0572 12.4522C6.802 12.679 7.63251 12.9318 8.35559 12.5515C9.54341 11.8996 10.6644 11.1459 11.7845 10.3928C12.1514 10.146 12.5183 9.89934 12.8874 9.65632C12.9047 9.64575 12.9242 9.63366 12.9456 9.62046C13.26 9.42571 13.9672 8.98775 13.7056 9.59122C13.0871 10.2375 12.4245 10.8096 11.7583 11.3849C11.3094 11.7726 10.8588 12.1617 10.4189 12.5758C10.0358 12.8732 9.63797 13.4713 10.067 13.8878C11.055 14.5486 12.0586 15.1935 13.0615 15.838C13.3879 16.0477 13.7141 16.2573 14.0398 16.4675C14.5918 16.8885 15.4545 16.548 15.5758 15.89C15.6298 15.5873 15.684 15.2847 15.7382 14.982C16.0376 13.3094 16.3371 11.6362 16.6017 9.95815C16.6377 9.69494 16.6784 9.43173 16.7192 9.16839C16.8181 8.53012 16.9171 7.89108 16.948 7.24937C16.8683 6.60901 16.0556 6.74981 15.6033 6.8938C13.2787 7.73892 10.9772 8.64669 8.68488 9.57047C8.4252 9.68039 8.16197 9.7902 7.89697 9.90074Z" fill="#FFC32A"/>
</svg>
