<svg width="16" height="16" viewBox="0 0 16 16" fill="none" xmlns="http://www.w3.org/2000/svg">
<path d="M15.8115 8.88968C15.8115 9.44933 14.1822 10.2312 11.5294 10.2312C10.8817 10.2312 10.2627 10.1819 9.68535 10.087C9.69489 10.0342 9.70562 9.98255 9.70562 9.92851V8.40088C10.2829 8.48975 10.8936 8.53659 11.5294 8.53659C13.1898 8.53659 14.9217 8.19912 15.8115 7.56141V8.88968ZM9.09491 9.92851C9.09491 10.4858 7.47152 11.2652 4.82829 11.2652C2.18506 11.2652 0.562866 10.487 0.562866 9.92851V8.60745C1.4503 9.24276 3.17389 9.57783 4.82829 9.57783C6.4827 9.57783 8.20628 9.24276 9.09491 8.60745V9.92851ZM0.562866 10.9085C1.4515 11.5438 3.17508 11.8801 4.82829 11.8801C6.4827 11.8801 8.20628 11.5438 9.09491 10.9085V12.2296C9.09491 12.788 7.47152 13.5662 4.82829 13.5662C2.18626 13.5662 0.562866 12.788 0.562866 12.2296V10.9085ZM15.8115 4.27076C15.8115 4.83041 14.1822 5.61224 11.5294 5.61224C8.87663 5.61224 7.24728 4.83041 7.24728 4.27076V2.94249C8.1371 3.5802 9.86784 3.91768 11.5294 3.91768C13.1898 3.91768 14.9217 3.5802 15.8115 2.94249V4.27076ZM11.5294 0.618622C14.1822 0.618622 15.8115 1.40045 15.8115 1.9601C15.8115 2.52095 14.1822 3.30278 11.5294 3.30278C8.87663 3.30278 7.24728 2.52095 7.24728 1.9601C7.24728 1.40045 8.87544 0.618622 11.5294 0.618622ZM7.24728 5.25075C8.1371 5.88966 9.86784 6.22713 11.5294 6.22713C13.1898 6.22713 14.9217 5.88966 15.8115 5.25075V6.58022C15.8115 7.13987 14.1822 7.9217 11.5294 7.9217C10.8936 7.9217 10.2627 7.87005 9.68654 7.77638C9.69489 7.72714 9.70562 7.6791 9.70562 7.62746C9.70562 6.8036 8.64046 6.22833 7.24728 5.92449V5.25075ZM4.82829 6.29078C7.47152 6.29078 9.09491 7.06901 9.09491 7.62746C9.09491 8.18471 7.47152 8.96293 4.82829 8.96293C2.18506 8.96293 0.562866 8.18471 0.562866 7.62746C0.562866 7.06901 2.18626 6.29078 4.82829 6.29078ZM4.82829 15.8673C2.18626 15.8673 0.562866 15.0891 0.562866 14.5306V13.2095C1.4503 13.8449 3.17389 14.1811 4.82829 14.1811C6.4827 14.1811 8.20628 13.8449 9.09491 13.2095V14.5306C9.09491 15.0891 7.47152 15.8673 4.82829 15.8673ZM11.5294 12.5406C10.8853 12.5406 10.2662 12.4914 9.68415 12.3965C9.69489 12.3413 9.70562 12.2872 9.70562 12.2296V10.7115C10.2806 10.7992 10.8925 10.846 11.5294 10.846C13.1898 10.846 14.9217 10.5086 15.8115 9.87086V11.1991C15.8115 11.7588 14.1822 12.5406 11.5294 12.5406Z" fill="#FFC32A"/>
</svg>
