<svg width="53" height="40" viewBox="0 0 53 40" fill="none" xmlns="http://www.w3.org/2000/svg">
<path d="M4.4966 0.609741V5.09967H2.27145V9.58959H0.788025V39.5224H52.708V9.58959H51.2246V5.09967H49.7412V0.609741H4.4966ZM5.98003 2.10638H48.2578V5.09967H5.98003V2.10638ZM3.75488 6.59631H49.7412V9.58959H3.75488V6.59631ZM2.27145 11.0862H51.2246V38.0258H2.27145V11.0862ZM8.94689 12.5829C8.53836 12.5829 8.20517 12.919 8.20517 13.3312C8.20517 13.7434 8.53836 14.0795 8.94689 14.0795C9.35541 14.0795 9.6886 13.7434 9.6886 13.3312C9.6886 12.919 9.35541 12.5829 8.94689 12.5829ZM11.172 12.5829C10.7635 12.5829 10.4303 12.919 10.4303 13.3312C10.4303 13.7434 10.7635 14.0795 11.172 14.0795C11.5806 14.0795 11.9137 13.7434 11.9137 13.3312C11.9137 12.919 11.5806 12.5829 11.172 12.5829ZM13.3972 12.5829C12.9887 12.5829 12.6555 12.919 12.6555 13.3312C12.6555 13.7434 12.9887 14.0795 13.3972 14.0795C13.8057 14.0795 14.1389 13.7434 14.1389 13.3312C14.1389 12.919 13.8057 12.5829 13.3972 12.5829ZM15.6223 12.5829C15.2138 12.5829 14.8806 12.919 14.8806 13.3312C14.8806 13.7434 15.2138 14.0795 15.6223 14.0795C16.0308 14.0795 16.364 13.7434 16.364 13.3312C16.364 12.919 16.0308 12.5829 15.6223 12.5829ZM17.8475 12.5829C17.4389 12.5829 17.1057 12.919 17.1057 13.3312C17.1057 13.7434 17.4389 14.0795 17.8475 14.0795C18.256 14.0795 18.5892 13.7434 18.5892 13.3312C18.5892 12.919 18.256 12.5829 17.8475 12.5829ZM20.0726 12.5829C19.6641 12.5829 19.3309 12.919 19.3309 13.3312C19.3309 13.7434 19.6641 14.0795 20.0726 14.0795C20.4811 14.0795 20.8143 13.7434 20.8143 13.3312C20.8143 12.919 20.4811 12.5829 20.0726 12.5829ZM22.2978 12.5829C21.8892 12.5829 21.556 12.919 21.556 13.3312C21.556 13.7434 21.8892 14.0795 22.2978 14.0795C22.7063 14.0795 23.0395 13.7434 23.0395 13.3312C23.0395 12.919 22.7063 12.5829 22.2978 12.5829ZM24.5229 12.5829C24.1144 12.5829 23.7812 12.919 23.7812 13.3312C23.7812 13.7434 24.1144 14.0795 24.5229 14.0795C24.9314 14.0795 25.2646 13.7434 25.2646 13.3312C25.2646 12.919 24.9314 12.5829 24.5229 12.5829ZM26.748 12.5829C26.3395 12.5829 26.0063 12.919 26.0063 13.3312C26.0063 13.7434 26.3395 14.0795 26.748 14.0795C27.1566 14.0795 27.4898 13.7434 27.4898 13.3312C27.4898 12.919 27.1566 12.5829 26.748 12.5829ZM28.9732 12.5829C28.5647 12.5829 28.2315 12.919 28.2315 13.3312C28.2315 13.7434 28.5647 14.0795 28.9732 14.0795C29.3817 14.0795 29.7149 13.7434 29.7149 13.3312C29.7149 12.919 29.3817 12.5829 28.9732 12.5829ZM31.1983 12.5829C30.7898 12.5829 30.4566 12.919 30.4566 13.3312C30.4566 13.7434 30.7898 14.0795 31.1983 14.0795C31.6068 14.0795 31.94 13.7434 31.94 13.3312C31.94 12.919 31.6068 12.5829 31.1983 12.5829ZM33.4235 12.5829C33.0149 12.5829 32.6818 12.919 32.6818 13.3312C32.6818 13.7434 33.0149 14.0795 33.4235 14.0795C33.832 14.0795 34.1652 13.7434 34.1652 13.3312C34.1652 12.919 33.832 12.5829 33.4235 12.5829ZM35.6486 12.5829C35.2401 12.5829 34.9069 12.919 34.9069 13.3312C34.9069 13.7434 35.2401 14.0795 35.6486 14.0795C36.0571 14.0795 36.3903 13.7434 36.3903 13.3312C36.3903 12.919 36.0571 12.5829 35.6486 12.5829ZM37.8738 12.5829C37.4652 12.5829 37.132 12.919 37.132 13.3312C37.132 13.7434 37.4652 14.0795 37.8738 14.0795C38.2823 14.0795 38.6155 13.7434 38.6155 13.3312C38.6155 12.919 38.2823 12.5829 37.8738 12.5829ZM40.0989 12.5829C39.6904 12.5829 39.3572 12.919 39.3572 13.3312C39.3572 13.7434 39.6904 14.0795 40.0989 14.0795C40.5074 14.0795 40.8406 13.7434 40.8406 13.3312C40.8406 12.919 40.5074 12.5829 40.0989 12.5829ZM42.324 12.5829C41.9155 12.5829 41.5823 12.919 41.5823 13.3312C41.5823 13.7434 41.9155 14.0795 42.324 14.0795C42.7326 14.0795 43.0658 13.7434 43.0658 13.3312C43.0658 12.919 42.7326 12.5829 42.324 12.5829ZM44.5492 12.5829C44.1407 12.5829 43.8075 12.919 43.8075 13.3312C43.8075 13.7434 44.1407 14.0795 44.5492 14.0795C44.9577 14.0795 45.2909 13.7434 45.2909 13.3312C45.2909 12.919 44.9577 12.5829 44.5492 12.5829ZM8.20517 14.8278C7.79665 14.8278 7.46346 15.164 7.46346 15.5762C7.46346 15.9883 7.79665 16.3245 8.20517 16.3245C8.61369 16.3245 8.94689 15.9883 8.94689 15.5762C8.94689 15.164 8.61369 14.8278 8.20517 14.8278ZM45.2909 14.8278C44.8824 14.8278 44.5492 15.164 44.5492 15.5762C44.5492 15.9883 44.8824 16.3245 45.2909 16.3245C45.6994 16.3245 46.0326 15.9883 46.0326 15.5762C46.0326 15.164 45.6994 14.8278 45.2909 14.8278ZM6.72174 16.3245C6.31322 16.3245 5.98003 16.6606 5.98003 17.0728C5.98003 17.485 6.31322 17.8211 6.72174 17.8211C7.13026 17.8211 7.46346 17.485 7.46346 17.0728C7.46346 16.6606 7.13026 16.3245 6.72174 16.3245ZM26.748 16.3245C22.2514 16.3245 18.5892 20.0193 18.5892 24.556C18.5892 29.0927 22.2514 32.7875 26.748 32.7875C31.2447 32.7875 34.9069 29.0927 34.9069 24.556C34.9069 20.0193 31.2447 16.3245 26.748 16.3245ZM46.7743 16.3245C46.3658 16.3245 46.0326 16.6606 46.0326 17.0728C46.0326 17.485 46.3658 17.8211 46.7743 17.8211C47.1829 17.8211 47.516 17.485 47.516 17.0728C47.516 16.6606 47.1829 16.3245 46.7743 16.3245ZM4.4966 17.0728C4.08808 17.0728 3.75488 17.409 3.75488 17.8211C3.75488 18.2333 4.08808 18.5694 4.4966 18.5694C4.90512 18.5694 5.23831 18.2333 5.23831 17.8211C5.23831 17.409 4.90512 17.0728 4.4966 17.0728ZM48.9995 17.0728C48.591 17.0728 48.2578 17.409 48.2578 17.8211C48.2578 18.2333 48.591 18.5694 48.9995 18.5694C49.408 18.5694 49.7412 18.2333 49.7412 17.8211C49.7412 17.409 49.408 17.0728 48.9995 17.0728ZM26.748 17.8211C30.4421 17.8211 33.4235 20.829 33.4235 24.556C33.4235 28.283 30.4421 31.2909 26.748 31.2909C23.0539 31.2909 20.0726 28.283 20.0726 24.556C20.0726 20.829 23.0539 17.8211 26.748 17.8211ZM4.4966 19.3178C4.08808 19.3178 3.75488 19.6539 3.75488 20.0661C3.75488 20.4783 4.08808 20.8144 4.4966 20.8144C4.90512 20.8144 5.23831 20.4783 5.23831 20.0661C5.23831 19.6539 4.90512 19.3178 4.4966 19.3178ZM48.9995 19.3178C48.591 19.3178 48.2578 19.6539 48.2578 20.0661C48.2578 20.4783 48.591 20.8144 48.9995 20.8144C49.408 20.8144 49.7412 20.4783 49.7412 20.0661C49.7412 19.6539 49.408 19.3178 48.9995 19.3178ZM4.4966 21.5627C4.08808 21.5627 3.75488 21.8989 3.75488 22.3111C3.75488 22.7232 4.08808 23.0594 4.4966 23.0594C4.90512 23.0594 5.23831 22.7232 5.23831 22.3111C5.23831 21.8989 4.90512 21.5627 4.4966 21.5627ZM11.172 21.5627C9.54084 21.5627 8.20517 22.9103 8.20517 24.556C8.20517 26.2017 9.54084 27.5493 11.172 27.5493C12.8032 27.5493 14.1389 26.2017 14.1389 24.556C14.1389 22.9103 12.8032 21.5627 11.172 21.5627ZM41.5823 21.5627C39.9511 21.5627 38.6155 22.9103 38.6155 24.556C38.6155 26.2017 39.9511 27.5493 41.5823 27.5493C43.2135 27.5493 44.5492 26.2017 44.5492 24.556C44.5492 22.9103 43.2135 21.5627 41.5823 21.5627ZM48.9995 21.5627C48.591 21.5627 48.2578 21.8989 48.2578 22.3111C48.2578 22.7232 48.591 23.0594 48.9995 23.0594C49.408 23.0594 49.7412 22.7232 49.7412 22.3111C49.7412 21.8989 49.408 21.5627 48.9995 21.5627ZM11.172 23.0594C12.0007 23.0594 12.6555 23.72 12.6555 24.556C12.6555 25.392 12.0007 26.0527 11.172 26.0527C10.3434 26.0527 9.6886 25.392 9.6886 24.556C9.6886 23.72 10.3434 23.0594 11.172 23.0594ZM41.5823 23.0594C42.411 23.0594 43.0658 23.72 43.0658 24.556C43.0658 25.392 42.411 26.0527 41.5823 26.0527C40.7537 26.0527 40.0989 25.392 40.0989 24.556C40.0989 23.72 40.7537 23.0594 41.5823 23.0594ZM4.4966 23.8077C4.08808 23.8077 3.75488 24.1439 3.75488 24.556C3.75488 24.9682 4.08808 25.3043 4.4966 25.3043C4.90512 25.3043 5.23831 24.9682 5.23831 24.556C5.23831 24.1439 4.90512 23.8077 4.4966 23.8077ZM48.9995 23.8077C48.591 23.8077 48.2578 24.1439 48.2578 24.556C48.2578 24.9682 48.591 25.3043 48.9995 25.3043C49.408 25.3043 49.7412 24.9682 49.7412 24.556C49.7412 24.1439 49.408 23.8077 48.9995 23.8077ZM4.4966 26.0527C4.08808 26.0527 3.75488 26.3888 3.75488 26.801C3.75488 27.2131 4.08808 27.5493 4.4966 27.5493C4.90512 27.5493 5.23831 27.2131 5.23831 26.801C5.23831 26.3888 4.90512 26.0527 4.4966 26.0527ZM48.9995 26.0527C48.591 26.0527 48.2578 26.3888 48.2578 26.801C48.2578 27.2131 48.591 27.5493 48.9995 27.5493C49.408 27.5493 49.7412 27.2131 49.7412 26.801C49.7412 26.3888 49.408 26.0527 48.9995 26.0527ZM4.4966 28.2976C4.08808 28.2976 3.75488 28.6338 3.75488 29.0459C3.75488 29.4581 4.08808 29.7943 4.4966 29.7943C4.90512 29.7943 5.23831 29.4581 5.23831 29.0459C5.23831 28.6338 4.90512 28.2976 4.4966 28.2976ZM48.9995 28.2976C48.591 28.2976 48.2578 28.6338 48.2578 29.0459C48.2578 29.4581 48.591 29.7943 48.9995 29.7943C49.408 29.7943 49.7412 29.4581 49.7412 29.0459C49.7412 28.6338 49.408 28.2976 48.9995 28.2976ZM4.4966 30.5426C4.08808 30.5426 3.75488 30.8787 3.75488 31.2909C3.75488 31.7031 4.08808 32.0392 4.4966 32.0392C4.90512 32.0392 5.23831 31.7031 5.23831 31.2909C5.23831 30.8787 4.90512 30.5426 4.4966 30.5426ZM48.9995 30.5426C48.591 30.5426 48.2578 30.8787 48.2578 31.2909C48.2578 31.7031 48.591 32.0392 48.9995 32.0392C49.408 32.0392 49.7412 31.7031 49.7412 31.2909C49.7412 30.8787 49.408 30.5426 48.9995 30.5426ZM6.72174 31.2909C6.31322 31.2909 5.98003 31.6271 5.98003 32.0392C5.98003 32.4514 6.31322 32.7875 6.72174 32.7875C7.13026 32.7875 7.46346 32.4514 7.46346 32.0392C7.46346 31.6271 7.13026 31.2909 6.72174 31.2909ZM46.7743 31.2909C46.3658 31.2909 46.0326 31.6271 46.0326 32.0392C46.0326 32.4514 46.3658 32.7875 46.7743 32.7875C47.1829 32.7875 47.516 32.4514 47.516 32.0392C47.516 31.6271 47.1829 31.2909 46.7743 31.2909ZM8.20517 32.7875C7.79665 32.7875 7.46346 33.1237 7.46346 33.5359C7.46346 33.948 7.79665 34.2842 8.20517 34.2842C8.61369 34.2842 8.94689 33.948 8.94689 33.5359C8.94689 33.1237 8.61369 32.7875 8.20517 32.7875ZM45.2909 32.7875C44.8824 32.7875 44.5492 33.1237 44.5492 33.5359C44.5492 33.948 44.8824 34.2842 45.2909 34.2842C45.6994 34.2842 46.0326 33.948 46.0326 33.5359C46.0326 33.1237 45.6994 32.7875 45.2909 32.7875ZM8.94689 35.0325C8.53836 35.0325 8.20517 35.3687 8.20517 35.7808C8.20517 36.193 8.53836 36.5292 8.94689 36.5292C9.35541 36.5292 9.6886 36.193 9.6886 35.7808C9.6886 35.3687 9.35541 35.0325 8.94689 35.0325ZM11.172 35.0325C10.7635 35.0325 10.4303 35.3687 10.4303 35.7808C10.4303 36.193 10.7635 36.5292 11.172 36.5292C11.5806 36.5292 11.9137 36.193 11.9137 35.7808C11.9137 35.3687 11.5806 35.0325 11.172 35.0325ZM13.3972 35.0325C12.9887 35.0325 12.6555 35.3687 12.6555 35.7808C12.6555 36.193 12.9887 36.5292 13.3972 36.5292C13.8057 36.5292 14.1389 36.193 14.1389 35.7808C14.1389 35.3687 13.8057 35.0325 13.3972 35.0325ZM15.6223 35.0325C15.2138 35.0325 14.8806 35.3687 14.8806 35.7808C14.8806 36.193 15.2138 36.5292 15.6223 36.5292C16.0308 36.5292 16.364 36.193 16.364 35.7808C16.364 35.3687 16.0308 35.0325 15.6223 35.0325ZM17.8475 35.0325C17.4389 35.0325 17.1057 35.3687 17.1057 35.7808C17.1057 36.193 17.4389 36.5292 17.8475 36.5292C18.256 36.5292 18.5892 36.193 18.5892 35.7808C18.5892 35.3687 18.256 35.0325 17.8475 35.0325ZM20.0726 35.0325C19.6641 35.0325 19.3309 35.3687 19.3309 35.7808C19.3309 36.193 19.6641 36.5292 20.0726 36.5292C20.4811 36.5292 20.8143 36.193 20.8143 35.7808C20.8143 35.3687 20.4811 35.0325 20.0726 35.0325ZM22.2978 35.0325C21.8892 35.0325 21.556 35.3687 21.556 35.7808C21.556 36.193 21.8892 36.5292 22.2978 36.5292C22.7063 36.5292 23.0395 36.193 23.0395 35.7808C23.0395 35.3687 22.7063 35.0325 22.2978 35.0325ZM24.5229 35.0325C24.1144 35.0325 23.7812 35.3687 23.7812 35.7808C23.7812 36.193 24.1144 36.5292 24.5229 36.5292C24.9314 36.5292 25.2646 36.193 25.2646 35.7808C25.2646 35.3687 24.9314 35.0325 24.5229 35.0325ZM26.748 35.0325C26.3395 35.0325 26.0063 35.3687 26.0063 35.7808C26.0063 36.193 26.3395 36.5292 26.748 36.5292C27.1566 36.5292 27.4898 36.193 27.4898 35.7808C27.4898 35.3687 27.1566 35.0325 26.748 35.0325ZM28.9732 35.0325C28.5647 35.0325 28.2315 35.3687 28.2315 35.7808C28.2315 36.193 28.5647 36.5292 28.9732 36.5292C29.3817 36.5292 29.7149 36.193 29.7149 35.7808C29.7149 35.3687 29.3817 35.0325 28.9732 35.0325ZM31.1983 35.0325C30.7898 35.0325 30.4566 35.3687 30.4566 35.7808C30.4566 36.193 30.7898 36.5292 31.1983 36.5292C31.6068 36.5292 31.94 36.193 31.94 35.7808C31.94 35.3687 31.6068 35.0325 31.1983 35.0325ZM33.4235 35.0325C33.0149 35.0325 32.6818 35.3687 32.6818 35.7808C32.6818 36.193 33.0149 36.5292 33.4235 36.5292C33.832 36.5292 34.1652 36.193 34.1652 35.7808C34.1652 35.3687 33.832 35.0325 33.4235 35.0325ZM35.6486 35.0325C35.2401 35.0325 34.9069 35.3687 34.9069 35.7808C34.9069 36.193 35.2401 36.5292 35.6486 36.5292C36.0571 36.5292 36.3903 36.193 36.3903 35.7808C36.3903 35.3687 36.0571 35.0325 35.6486 35.0325ZM37.8738 35.0325C37.4652 35.0325 37.132 35.3687 37.132 35.7808C37.132 36.193 37.4652 36.5292 37.8738 36.5292C38.2823 36.5292 38.6155 36.193 38.6155 35.7808C38.6155 35.3687 38.2823 35.0325 37.8738 35.0325ZM40.0989 35.0325C39.6904 35.0325 39.3572 35.3687 39.3572 35.7808C39.3572 36.193 39.6904 36.5292 40.0989 36.5292C40.5074 36.5292 40.8406 36.193 40.8406 35.7808C40.8406 35.3687 40.5074 35.0325 40.0989 35.0325ZM42.324 35.0325C41.9155 35.0325 41.5823 35.3687 41.5823 35.7808C41.5823 36.193 41.9155 36.5292 42.324 36.5292C42.7326 36.5292 43.0658 36.193 43.0658 35.7808C43.0658 35.3687 42.7326 35.0325 42.324 35.0325ZM44.5492 35.0325C44.1407 35.0325 43.8075 35.3687 43.8075 35.7808C43.8075 36.193 44.1407 36.5292 44.5492 36.5292C44.9577 36.5292 45.2909 36.193 45.2909 35.7808C45.2909 35.3687 44.9577 35.0325 44.5492 35.0325Z" fill="white"/>
</svg>
