<svg width="22" height="21" viewBox="0 0 22 21" fill="none" xmlns="http://www.w3.org/2000/svg">
<path fill-rule="evenodd" clip-rule="evenodd" d="M10.9725 0.0691833C5.2237 0.0691833 0.563354 4.72953 0.563354 10.4784C0.563354 16.2272 5.2237 20.8875 10.9725 20.8875C16.7214 20.8875 21.3817 16.2272 21.3817 10.4784C21.3817 4.72953 16.7214 0.0691833 10.9725 0.0691833ZM8.68394 4.96029C9.27611 4.93334 9.46533 4.92675 10.9731 4.92675H10.9713C12.4795 4.92675 12.668 4.93334 13.2602 4.96029C13.8512 4.98735 14.2549 5.08092 14.6088 5.21821C14.9743 5.35989 15.2831 5.54957 15.5919 5.85838C15.9007 6.16696 16.0904 6.47669 16.2326 6.84183C16.3691 7.19482 16.4628 7.59823 16.4905 8.18925C16.5172 8.78142 16.5241 8.97064 16.5241 10.4784C16.5241 11.9861 16.5172 12.1748 16.4905 12.767C16.4628 13.3578 16.3691 13.7613 16.2326 14.1144C16.0904 14.4795 15.9007 14.7892 15.5919 15.0978C15.2834 15.4066 14.9741 15.5967 14.6091 15.7385C14.2559 15.8758 13.852 15.9694 13.261 15.9964C12.6688 16.0234 12.4802 16.03 10.9724 16.03C9.46475 16.03 9.27565 16.0234 8.68347 15.9964C8.09257 15.9694 7.68904 15.8758 7.33582 15.7385C6.97091 15.5967 6.66118 15.4066 6.35272 15.0978C6.04403 14.7892 5.85435 14.4795 5.71243 14.1143C5.57526 13.7613 5.48169 13.3579 5.45451 12.7669C5.42768 12.1747 5.42097 11.9861 5.42097 10.4784C5.42097 8.97064 5.42791 8.78131 5.4544 8.18913C5.481 7.59835 5.57468 7.19482 5.71232 6.84171C5.85458 6.47669 6.04426 6.16696 6.35307 5.85838C6.66164 5.54969 6.97138 5.36001 7.33651 5.21821C7.6895 5.08092 8.09292 4.98735 8.68394 4.96029Z" fill="#FFC32A"/>
<path fill-rule="evenodd" clip-rule="evenodd" d="M10.475 5.92726C10.5717 5.92711 10.6757 5.92716 10.788 5.92721L10.973 5.92726C12.4553 5.92726 12.631 5.93258 13.2164 5.95918C13.7576 5.98393 14.0514 6.07438 14.2471 6.15037C14.5062 6.25099 14.6909 6.37127 14.8851 6.56558C15.0794 6.75989 15.1997 6.94494 15.3005 7.20402C15.3765 7.39948 15.4671 7.69325 15.4917 8.23454C15.5183 8.81977 15.5241 8.99557 15.5241 10.4772C15.5241 11.9587 15.5183 12.1345 15.4917 12.7198C15.467 13.2611 15.3765 13.5548 15.3005 13.7503C15.1999 14.0094 15.0794 14.1938 14.8851 14.388C14.6908 14.5823 14.5063 14.7026 14.2471 14.8033C14.0516 14.8796 13.7576 14.9698 13.2164 14.9946C12.6311 15.0212 12.4553 15.0269 10.973 15.0269C9.49065 15.0269 9.31496 15.0212 8.72973 14.9946C8.18845 14.9696 7.89467 14.8791 7.69886 14.8031C7.43979 14.7025 7.25473 14.5822 7.06043 14.3879C6.86612 14.1936 6.74583 14.009 6.64498 13.7498C6.56899 13.5544 6.47843 13.2606 6.4538 12.7193C6.4272 12.1341 6.42188 11.9583 6.42188 10.4758C6.42188 8.99326 6.4272 8.81838 6.4538 8.23315C6.47855 7.69187 6.56899 7.39809 6.64498 7.2024C6.7456 6.94332 6.86612 6.75827 7.06043 6.56396C7.25473 6.36966 7.43979 6.24937 7.69886 6.14852C7.89456 6.07218 8.18845 5.98197 8.72973 5.9571C9.24187 5.93397 9.44034 5.92703 10.475 5.92587V5.92726ZM13.9364 6.84908C13.5686 6.84908 13.2702 7.14713 13.2702 7.51504C13.2702 7.88283 13.5686 8.18123 13.9364 8.18123C14.3042 8.18123 14.6026 7.88283 14.6026 7.51504C14.6026 7.14724 14.3042 6.84885 13.9364 6.84885V6.84908ZM8.12201 10.4784C8.12201 8.90399 9.39847 7.62749 10.9729 7.62743C12.5473 7.62743 13.8235 8.90395 13.8235 10.4784C13.8235 12.0529 12.5475 13.3288 10.973 13.3288C9.39853 13.3288 8.12201 12.0529 8.12201 10.4784Z" fill="#FFC32A"/>
<path d="M10.973 8.62787C11.995 8.62787 12.8236 9.45633 12.8236 10.4784C12.8236 11.5004 11.995 12.3289 10.973 12.3289C9.95096 12.3289 9.1225 11.5004 9.1225 10.4784C9.1225 9.45633 9.95096 8.62787 10.973 8.62787Z" fill="#FFC32A"/>
</svg>
