<svg width="22" height="22" viewBox="0 0 22 22" fill="none" xmlns="http://www.w3.org/2000/svg">
<g clip-path="url(#clip0)">
<path d="M21.567 10.8572C21.567 5.09009 16.8277 0.416046 10.98 0.416046C5.13239 0.416046 0.393066 5.09009 0.393066 10.8572C0.393066 16.0696 4.26393 20.3888 9.32583 21.1719V13.8753H6.63773V10.8572H9.32583V8.55687C9.32583 5.94047 10.9056 4.49461 13.3249 4.49461C14.4828 4.49461 15.6946 4.69854 15.6946 4.69854V7.26804H14.3588C13.0437 7.26804 12.6343 8.07356 12.6343 8.89947V10.8572H15.5705L15.1011 13.8753H12.6343V21.1719C17.6962 20.3888 21.567 16.0696 21.567 10.8572Z" fill="#FFC32A"/>
</g>
<defs>
<clipPath id="clip0">
<rect width="21.174" height="20.8823" fill="white" transform="translate(0.393066 0.416046)"/>
</clipPath>
</defs>
</svg>
