<svg width="59" height="51" viewBox="0 0 59 51" fill="none" xmlns="http://www.w3.org/2000/svg">
<path d="M29.4717 0.231812L0.886719 9.05017V15.3253L2.01178 15.0111L2.61914 14.841V50.8053H56.3243V14.8395L58.0567 15.3253V9.05017L29.4717 0.231812ZM29.4717 1.87462L56.3243 10.1585V13.2103L29.4717 5.68103L2.61914 13.2103V10.1585L29.4717 1.87462ZM29.4717 7.30866L54.5919 14.3536V49.2505H4.35157V14.3551L29.4717 7.30866ZM29.4717 13.4912C29.2985 13.4912 29.1332 13.5378 28.9946 13.6233C28.9426 13.6466 28.8992 13.6848 28.8559 13.7159C28.2755 14.1279 26.7086 15.046 25.4959 15.046C24.0407 15.046 22.9578 14.6886 22.1089 13.9346C22.0916 13.9113 22.0655 13.8956 22.0395 13.8723C21.8836 13.7479 21.6843 13.678 21.4677 13.678C21.2252 13.678 21.018 13.7628 20.862 13.9027C20.8534 13.9027 20.8536 13.9103 20.8536 13.9103L16.8677 17.4874C16.859 17.4874 16.8592 17.495 16.8592 17.495C16.7033 17.6349 16.6088 17.8287 16.6088 18.0386C16.6088 18.2018 16.6607 18.3499 16.756 18.4743C16.7647 18.4821 16.7642 18.4893 16.7729 18.4971C17.7171 19.6476 18.211 21.0085 18.211 22.431V22.5237C18.2023 22.9668 18.0807 23.4102 17.8641 23.8066C17.405 24.6229 17.0508 25.4934 16.8169 26.403C16.5917 27.2425 16.4785 28.1292 16.4785 29.0387C16.4785 36.9757 27.8688 41.6873 29.0555 42.1615C29.0815 42.1693 29.1074 42.1841 29.1333 42.1919C29.2373 42.2307 29.3504 42.2541 29.4717 42.2541C29.593 42.2541 29.7061 42.2307 29.8101 42.1919C29.8361 42.1841 29.8619 42.1693 29.8879 42.1615C31.0746 41.6873 42.4649 36.9757 42.4649 29.0387C42.4649 28.1292 42.3517 27.2425 42.1265 26.403C41.8927 25.4934 41.5384 24.6229 41.0793 23.8066C40.8627 23.4102 40.7411 22.9668 40.7325 22.5237V22.431C40.7325 21.0085 41.2263 19.6476 42.1705 18.4971C42.1705 18.4893 42.1788 18.4821 42.1874 18.4743C42.2827 18.3499 42.3346 18.2018 42.3346 18.0386C42.3346 17.8442 42.2567 17.6653 42.1181 17.5254L42.0402 17.4555L38.0898 13.9103C38.0898 13.9025 38.0814 13.9027 38.0814 13.9027C37.9255 13.7628 37.7096 13.678 37.4757 13.678C37.2505 13.678 37.0511 13.7479 36.9039 13.8723C36.8779 13.8879 36.8518 13.9113 36.8345 13.9346C35.9856 14.6886 34.9027 15.046 33.4475 15.046C32.2435 15.046 30.6766 14.1279 30.0875 13.7159L29.9573 13.6233C29.8187 13.5378 29.6536 13.4912 29.4717 13.4912ZM29.4717 15.2403C30.2946 15.7534 31.897 16.6007 33.4475 16.6007C35.05 16.6007 36.3576 16.2427 37.4317 15.5197L40.3518 18.1403C39.4683 19.423 39 20.8996 39 22.431V22.548C39.0087 23.2243 39.1985 23.9002 39.5364 24.5066C39.9348 25.214 40.2387 25.9684 40.4466 26.7613C40.6371 27.4842 40.7325 28.2536 40.7325 29.0387C40.7325 35.4987 31.386 39.8057 29.4717 40.6219C27.5487 39.8057 18.211 35.5143 18.211 29.0387C18.211 28.2536 18.3063 27.4842 18.4969 26.7613C18.7048 25.9684 19.0086 25.214 19.4071 24.5066C19.7449 23.9002 19.9347 23.2243 19.9434 22.548V22.431C19.9434 20.8996 19.4752 19.423 18.5916 18.1403L21.5117 15.5197C22.5858 16.2427 23.8934 16.6007 25.4959 16.6007C27.0465 16.6007 28.6488 15.7534 29.4717 15.2403ZM29.4717 18.9207L28.6799 20.5134L26.621 24.663L19.6524 25.3234L24.8564 29.5322L23.4032 35.6814L29.4717 32.5415L35.5403 35.6814L34.087 29.5322L39.291 25.3234L32.3224 24.663L29.4717 18.9207ZM29.4717 22.7408L31.1466 26.1145L35.2425 26.5032L32.1854 28.9765L33.0398 32.5931L29.4717 30.7468L25.9037 32.5946L26.758 28.9765L23.7009 26.5032L27.7968 26.1145L29.4717 22.7408ZM6.9502 45.3636C6.72047 45.3636 6.50014 45.4455 6.3377 45.5913C6.17525 45.7371 6.08399 45.9348 6.08399 46.141C6.08399 46.3472 6.17525 46.5449 6.3377 46.6907C6.50014 46.8365 6.72047 46.9184 6.9502 46.9184C7.17994 46.9184 7.40026 46.8365 7.56271 46.6907C7.72515 46.5449 7.81641 46.3472 7.81641 46.141C7.81641 45.9348 7.72515 45.7371 7.56271 45.5913C7.40026 45.4455 7.17994 45.3636 6.9502 45.3636ZM10.4151 45.3636C10.1853 45.3636 9.96499 45.4455 9.80255 45.5913C9.6401 45.7371 9.54884 45.9348 9.54884 46.141C9.54884 46.3472 9.6401 46.5449 9.80255 46.6907C9.96499 46.8365 10.1853 46.9184 10.4151 46.9184C10.6448 46.9184 10.8651 46.8365 11.0276 46.6907C11.19 46.5449 11.2813 46.3472 11.2813 46.141C11.2813 45.9348 11.19 45.7371 11.0276 45.5913C10.8651 45.4455 10.6448 45.3636 10.4151 45.3636ZM13.8799 45.3636C13.6502 45.3636 13.4298 45.4455 13.2674 45.5913C13.1049 45.7371 13.0137 45.9348 13.0137 46.141C13.0137 46.3472 13.1049 46.5449 13.2674 46.6907C13.4298 46.8365 13.6502 46.9184 13.8799 46.9184C14.1096 46.9184 14.33 46.8365 14.4924 46.6907C14.6548 46.5449 14.7461 46.3472 14.7461 46.141C14.7461 45.9348 14.6548 45.7371 14.4924 45.5913C14.33 45.4455 14.1096 45.3636 13.8799 45.3636ZM17.3447 45.3636C17.115 45.3636 16.8947 45.4455 16.7322 45.5913C16.5698 45.7371 16.4785 45.9348 16.4785 46.141C16.4785 46.3472 16.5698 46.5449 16.7322 46.6907C16.8947 46.8365 17.115 46.9184 17.3447 46.9184C17.5745 46.9184 17.7948 46.8365 17.9573 46.6907C18.1197 46.5449 18.211 46.3472 18.211 46.141C18.211 45.9348 18.1197 45.7371 17.9573 45.5913C17.7948 45.4455 17.5745 45.3636 17.3447 45.3636ZM20.8096 45.3636C20.5799 45.3636 20.3595 45.4455 20.1971 45.5913C20.0346 45.7371 19.9434 45.9348 19.9434 46.141C19.9434 46.3472 20.0346 46.5449 20.1971 46.6907C20.3595 46.8365 20.5799 46.9184 20.8096 46.9184C21.0393 46.9184 21.2597 46.8365 21.4221 46.6907C21.5845 46.5449 21.6758 46.3472 21.6758 46.141C21.6758 45.9348 21.5845 45.7371 21.4221 45.5913C21.2597 45.4455 21.0393 45.3636 20.8096 45.3636ZM24.2744 45.3636C24.0447 45.3636 23.8244 45.4455 23.6619 45.5913C23.4995 45.7371 23.4082 45.9348 23.4082 46.141C23.4082 46.3472 23.4995 46.5449 23.6619 46.6907C23.8244 46.8365 24.0447 46.9184 24.2744 46.9184C24.5042 46.9184 24.7245 46.8365 24.8869 46.6907C25.0494 46.5449 25.1407 46.3472 25.1407 46.141C25.1407 45.9348 25.0494 45.7371 24.8869 45.5913C24.7245 45.4455 24.5042 45.3636 24.2744 45.3636ZM27.7393 45.3636C27.5096 45.3636 27.2892 45.4455 27.1268 45.5913C26.9643 45.7371 26.8731 45.9348 26.8731 46.141C26.8731 46.3472 26.9643 46.5449 27.1268 46.6907C27.2892 46.8365 27.5096 46.9184 27.7393 46.9184C27.969 46.9184 28.1893 46.8365 28.3518 46.6907C28.5142 46.5449 28.6055 46.3472 28.6055 46.141C28.6055 45.9348 28.5142 45.7371 28.3518 45.5913C28.1893 45.4455 27.969 45.3636 27.7393 45.3636ZM31.2041 45.3636C30.9744 45.3636 30.7541 45.4455 30.5916 45.5913C30.4292 45.7371 30.3379 45.9348 30.3379 46.141C30.3379 46.3472 30.4292 46.5449 30.5916 46.6907C30.7541 46.8365 30.9744 46.9184 31.2041 46.9184C31.4339 46.9184 31.6542 46.8365 31.8166 46.6907C31.9791 46.5449 32.0703 46.3472 32.0703 46.141C32.0703 45.9348 31.9791 45.7371 31.8166 45.5913C31.6542 45.4455 31.4339 45.3636 31.2041 45.3636ZM34.669 45.3636C34.4393 45.3636 34.2189 45.4455 34.0565 45.5913C33.894 45.7371 33.8028 45.9348 33.8028 46.141C33.8028 46.3472 33.894 46.5449 34.0565 46.6907C34.2189 46.8365 34.4393 46.9184 34.669 46.9184C34.8987 46.9184 35.119 46.8365 35.2815 46.6907C35.4439 46.5449 35.5352 46.3472 35.5352 46.141C35.5352 45.9348 35.4439 45.7371 35.2815 45.5913C35.119 45.4455 34.8987 45.3636 34.669 45.3636ZM38.1338 45.3636C37.9041 45.3636 37.6838 45.4455 37.5213 45.5913C37.3589 45.7371 37.2676 45.9348 37.2676 46.141C37.2676 46.3472 37.3589 46.5449 37.5213 46.6907C37.6838 46.8365 37.9041 46.9184 38.1338 46.9184C38.3636 46.9184 38.5839 46.8365 38.7463 46.6907C38.9088 46.5449 39 46.3472 39 46.141C39 45.9348 38.9088 45.7371 38.7463 45.5913C38.5839 45.4455 38.3636 45.3636 38.1338 45.3636ZM41.5987 45.3636C41.3689 45.3636 41.1486 45.4455 40.9862 45.5913C40.8237 45.7371 40.7325 45.9348 40.7325 46.141C40.7325 46.3472 40.8237 46.5449 40.9862 46.6907C41.1486 46.8365 41.3689 46.9184 41.5987 46.9184C41.8284 46.9184 42.0487 46.8365 42.2112 46.6907C42.3736 46.5449 42.4649 46.3472 42.4649 46.141C42.4649 45.9348 42.3736 45.7371 42.2112 45.5913C42.0487 45.4455 41.8284 45.3636 41.5987 45.3636ZM45.0635 45.3636C44.8338 45.3636 44.6135 45.4455 44.451 45.5913C44.2886 45.7371 44.1973 45.9348 44.1973 46.141C44.1973 46.3472 44.2886 46.5449 44.451 46.6907C44.6135 46.8365 44.8338 46.9184 45.0635 46.9184C45.2933 46.9184 45.5136 46.8365 45.676 46.6907C45.8385 46.5449 45.9297 46.3472 45.9297 46.141C45.9297 45.9348 45.8385 45.7371 45.676 45.5913C45.5136 45.4455 45.2933 45.3636 45.0635 45.3636ZM48.5284 45.3636C48.2986 45.3636 48.0783 45.4455 47.9159 45.5913C47.7534 45.7371 47.6622 45.9348 47.6622 46.141C47.6622 46.3472 47.7534 46.5449 47.9159 46.6907C48.0783 46.8365 48.2986 46.9184 48.5284 46.9184C48.7581 46.9184 48.9784 46.8365 49.1409 46.6907C49.3033 46.5449 49.3946 46.3472 49.3946 46.141C49.3946 45.9348 49.3033 45.7371 49.1409 45.5913C48.9784 45.4455 48.7581 45.3636 48.5284 45.3636ZM51.9932 45.3636C51.7635 45.3636 51.5432 45.4455 51.3807 45.5913C51.2183 45.7371 51.127 45.9348 51.127 46.141C51.127 46.3472 51.2183 46.5449 51.3807 46.6907C51.5432 46.8365 51.7635 46.9184 51.9932 46.9184C52.223 46.9184 52.4433 46.8365 52.6057 46.6907C52.7682 46.5449 52.8594 46.3472 52.8594 46.141C52.8594 45.9348 52.7682 45.7371 52.6057 45.5913C52.4433 45.4455 52.223 45.3636 51.9932 45.3636Z" fill="#F7C920"/>
</svg>
