<svg width="50" height="51" viewBox="0 0 50 51" fill="none" xmlns="http://www.w3.org/2000/svg">
<path d="M35.4461 0.231689C31.7887 0.231689 28.4727 0.998852 26.001 2.28953C23.5322 3.5835 21.7919 5.48659 21.7919 7.81771V19.1177C19.6524 18.3604 17.1105 17.9324 14.3797 17.9324C10.7224 17.9324 7.40635 18.6996 4.93459 19.9902C2.46588 21.2842 0.725586 23.1873 0.725586 25.5184V43.2191C0.725586 45.5502 2.46588 47.4533 4.93459 48.7473C7.40635 50.038 10.7224 50.8051 14.3797 50.8051C18.0371 50.8051 21.3531 50.038 23.8248 48.7473C26.1168 47.5455 27.7778 45.8169 28.0064 43.7097C30.1521 44.4736 32.7031 44.9049 35.4461 44.9049C39.1034 44.9049 42.4194 44.1377 44.8912 42.8471C47.3599 41.5531 49.1002 39.65 49.1002 37.3189V7.81771C49.1002 5.48659 47.3599 3.5835 44.8912 2.28953C42.4194 0.998852 39.1034 0.231689 35.4461 0.231689ZM35.4461 1.91747C38.8992 1.91747 42.0202 2.66159 44.2085 3.80739C46.3968 4.9532 47.5397 6.42496 47.5397 7.81771C47.5397 9.21045 46.3968 10.6822 44.2085 11.828C42.0202 12.9738 38.8992 13.7179 35.4461 13.7179C31.9929 13.7179 28.872 12.9738 26.6837 11.828C24.4953 10.6822 23.3524 9.21045 23.3524 7.81771C23.3524 6.42496 24.4953 4.9532 26.6837 3.80739C28.872 2.66159 31.9929 1.91747 35.4461 1.91747ZM31.1548 4.44614C30.725 4.44614 30.3745 4.82479 30.3745 5.28903C30.3745 5.75328 30.725 6.13193 31.1548 6.13193C31.5845 6.13193 31.935 5.75328 31.935 5.28903C31.935 4.82479 31.5845 4.44614 31.1548 4.44614ZM34.2757 4.44614C33.846 4.44614 33.4955 4.82479 33.4955 5.28903C33.4955 5.75328 33.846 6.13193 34.2757 6.13193C34.7055 6.13193 35.056 5.75328 35.056 5.28903C35.056 4.82479 34.7055 4.44614 34.2757 4.44614ZM37.3967 4.44614C36.9669 4.44614 36.6164 4.82479 36.6164 5.28903C36.6164 5.75328 36.9669 6.13193 37.3967 6.13193C37.8264 6.13193 38.1769 5.75328 38.1769 5.28903C38.1769 4.82479 37.8264 4.44614 37.3967 4.44614ZM40.5176 4.44614C40.0879 4.44614 39.7374 4.82479 39.7374 5.28903C39.7374 5.75328 40.0879 6.13193 40.5176 6.13193C40.9473 6.13193 41.2978 5.75328 41.2978 5.28903C41.2978 4.82479 40.9473 4.44614 40.5176 4.44614ZM29.5943 6.97482C29.1646 6.97482 28.8141 7.35346 28.8141 7.81771C28.8141 8.28195 29.1646 8.6606 29.5943 8.6606C30.024 8.6606 30.3745 8.28195 30.3745 7.81771C30.3745 7.35346 30.024 6.97482 29.5943 6.97482ZM32.7152 6.97482C32.2855 6.97482 31.935 7.35346 31.935 7.81771C31.935 8.28195 32.2855 8.6606 32.7152 8.6606C33.145 8.6606 33.4955 8.28195 33.4955 7.81771C33.4955 7.35346 33.145 6.97482 32.7152 6.97482ZM35.8362 6.97482C35.4064 6.97482 35.056 7.35346 35.056 7.81771C35.056 8.28195 35.4064 8.6606 35.8362 8.6606C36.2659 8.6606 36.6164 8.28195 36.6164 7.81771C36.6164 7.35346 36.2659 6.97482 35.8362 6.97482ZM38.9571 6.97482C38.5274 6.97482 38.1769 7.35346 38.1769 7.81771C38.1769 8.28195 38.5274 8.6606 38.9571 8.6606C39.3869 8.6606 39.7374 8.28195 39.7374 7.81771C39.7374 7.35346 39.3869 6.97482 38.9571 6.97482ZM42.0781 6.97482C41.6483 6.97482 41.2978 7.35346 41.2978 7.81771C41.2978 8.28195 41.6483 8.6606 42.0781 8.6606C42.5078 8.6606 42.8583 8.28195 42.8583 7.81771C42.8583 7.35346 42.5078 6.97482 42.0781 6.97482ZM31.1548 9.50349C30.725 9.50349 30.3745 9.88213 30.3745 10.3464C30.3745 10.8106 30.725 11.1893 31.1548 11.1893C31.5845 11.1893 31.935 10.8106 31.935 10.3464C31.935 9.88213 31.5845 9.50349 31.1548 9.50349ZM34.2757 9.50349C33.846 9.50349 33.4955 9.88213 33.4955 10.3464C33.4955 10.8106 33.846 11.1893 34.2757 11.1893C34.7055 11.1893 35.056 10.8106 35.056 10.3464C35.056 9.88213 34.7055 9.50349 34.2757 9.50349ZM37.3967 9.50349C36.9669 9.50349 36.6164 9.88213 36.6164 10.3464C36.6164 10.8106 36.9669 11.1893 37.3967 11.1893C37.8264 11.1893 38.1769 10.8106 38.1769 10.3464C38.1769 9.88213 37.8264 9.50349 37.3967 9.50349ZM40.5176 9.50349C40.0879 9.50349 39.7374 9.88213 39.7374 10.3464C39.7374 10.8106 40.0879 11.1893 40.5176 11.1893C40.9473 11.1893 41.2978 10.8106 41.2978 10.3464C41.2978 9.88213 40.9473 9.50349 40.5176 9.50349ZM23.3524 11.3868C24.0595 12.1375 24.9586 12.7993 26.001 13.3459C28.4727 14.6366 31.7887 15.4037 35.4461 15.4037C39.1034 15.4037 42.4194 14.6366 44.8912 13.3459C45.9335 12.7993 46.8326 12.1375 47.5397 11.3868V13.7179C47.5397 15.1107 46.3968 16.5825 44.2085 17.7283C42.0202 18.8741 38.8992 19.6182 35.4461 19.6182C31.9929 19.6182 28.872 18.8741 26.6837 17.7283C24.4953 16.5825 23.3524 15.1107 23.3524 13.7179V11.3868ZM37.3967 16.2466C36.9669 16.2466 36.6164 16.6253 36.6164 17.0895C36.6164 17.5538 36.9669 17.9324 37.3967 17.9324C37.8264 17.9324 38.1769 17.5538 38.1769 17.0895C38.1769 16.6253 37.8264 16.2466 37.3967 16.2466ZM40.5176 16.2466C40.0879 16.2466 39.7374 16.6253 39.7374 17.0895C39.7374 17.5538 40.0879 17.9324 40.5176 17.9324C40.9473 17.9324 41.2978 17.5538 41.2978 17.0895C41.2978 16.6253 40.9473 16.2466 40.5176 16.2466ZM23.3524 17.2871C24.0595 18.0378 24.9586 18.6963 26.001 19.2461C28.4727 20.5368 31.7887 21.304 35.4461 21.304C39.1034 21.304 42.4194 20.5368 44.8912 19.2461C45.9335 18.6963 46.8326 18.0378 47.5397 17.2871V19.6182C47.5397 21.0109 46.3968 22.4827 44.2085 23.6285C42.0202 24.7743 38.8992 25.5184 35.4461 25.5184C32.5446 25.5184 29.8838 24.9916 27.8052 24.1388C27.2719 22.4333 25.7846 21.0208 23.8248 19.9902C23.6755 19.9145 23.517 19.8454 23.3646 19.7729C23.3616 19.7202 23.3524 19.6709 23.3524 19.6182V17.2871ZM14.3797 19.6182C17.8329 19.6182 20.9538 20.3623 23.1421 21.5081C25.3304 22.6539 26.4734 24.1257 26.4734 25.5184C26.4734 26.9112 25.3304 28.3829 23.1421 29.5287C20.9538 30.6745 17.8329 31.4186 14.3797 31.4186C10.9266 31.4186 7.80561 30.6745 5.6173 29.5287C3.42898 28.3829 2.28606 26.9112 2.28606 25.5184C2.28606 24.1257 3.42898 22.6539 5.6173 21.5081C7.80561 20.3623 10.9266 19.6182 14.3797 19.6182ZM10.0884 22.1469C9.65867 22.1469 9.30818 22.5255 9.30818 22.9897C9.30818 23.454 9.65867 23.8326 10.0884 23.8326C10.5182 23.8326 10.8686 23.454 10.8686 22.9897C10.8686 22.5255 10.5182 22.1469 10.0884 22.1469ZM13.2094 22.1469C12.7796 22.1469 12.4291 22.5255 12.4291 22.9897C12.4291 23.454 12.7796 23.8326 13.2094 23.8326C13.6391 23.8326 13.9896 23.454 13.9896 22.9897C13.9896 22.5255 13.6391 22.1469 13.2094 22.1469ZM16.3303 22.1469C15.9006 22.1469 15.5501 22.5255 15.5501 22.9897C15.5501 23.454 15.9006 23.8326 16.3303 23.8326C16.76 23.8326 17.1105 23.454 17.1105 22.9897C17.1105 22.5255 16.76 22.1469 16.3303 22.1469ZM19.4512 22.1469C19.0215 22.1469 18.671 22.5255 18.671 22.9897C18.671 23.454 19.0215 23.8326 19.4512 23.8326C19.881 23.8326 20.2315 23.454 20.2315 22.9897C20.2315 22.5255 19.881 22.1469 19.4512 22.1469ZM37.3967 22.1469C36.9669 22.1469 36.6164 22.5255 36.6164 22.9897C36.6164 23.454 36.9669 23.8326 37.3967 23.8326C37.8264 23.8326 38.1769 23.454 38.1769 22.9897C38.1769 22.5255 37.8264 22.1469 37.3967 22.1469ZM40.5176 22.1469C40.0879 22.1469 39.7374 22.5255 39.7374 22.9897C39.7374 23.454 40.0879 23.8326 40.5176 23.8326C40.9473 23.8326 41.2978 23.454 41.2978 22.9897C41.2978 22.5255 40.9473 22.1469 40.5176 22.1469ZM47.5397 23.1873V25.5184C47.5397 26.9112 46.3968 28.3829 44.2085 29.5287C42.0202 30.6745 38.8992 31.4186 35.4461 31.4186C32.6482 31.4186 30.0789 30.9281 28.0338 30.1313V26.0189C30.1734 26.7729 32.7152 27.2042 35.4461 27.2042C39.1034 27.2042 42.4194 26.437 44.8912 25.1464C45.9335 24.5965 46.8326 23.938 47.5397 23.1873ZM8.52794 24.6755C8.0982 24.6755 7.74771 25.0542 7.74771 25.5184C7.74771 25.9827 8.0982 26.3613 8.52794 26.3613C8.95768 26.3613 9.30818 25.9827 9.30818 25.5184C9.30818 25.0542 8.95768 24.6755 8.52794 24.6755ZM11.6489 24.6755C11.2191 24.6755 10.8686 25.0542 10.8686 25.5184C10.8686 25.9827 11.2191 26.3613 11.6489 26.3613C12.0786 26.3613 12.4291 25.9827 12.4291 25.5184C12.4291 25.0542 12.0786 24.6755 11.6489 24.6755ZM14.7698 24.6755C14.3401 24.6755 13.9896 25.0542 13.9896 25.5184C13.9896 25.9827 14.3401 26.3613 14.7698 26.3613C15.1996 26.3613 15.5501 25.9827 15.5501 25.5184C15.5501 25.0542 15.1996 24.6755 14.7698 24.6755ZM17.8908 24.6755C17.461 24.6755 17.1105 25.0542 17.1105 25.5184C17.1105 25.9827 17.461 26.3613 17.8908 26.3613C18.3205 26.3613 18.671 25.9827 18.671 25.5184C18.671 25.0542 18.3205 24.6755 17.8908 24.6755ZM21.0117 24.6755C20.582 24.6755 20.2315 25.0542 20.2315 25.5184C20.2315 25.9827 20.582 26.3613 21.0117 26.3613C21.4415 26.3613 21.7919 25.9827 21.7919 25.5184C21.7919 25.0542 21.4415 24.6755 21.0117 24.6755ZM10.0884 27.2042C9.65867 27.2042 9.30818 27.5828 9.30818 28.0471C9.30818 28.5113 9.65867 28.89 10.0884 28.89C10.5182 28.89 10.8686 28.5113 10.8686 28.0471C10.8686 27.5828 10.5182 27.2042 10.0884 27.2042ZM13.2094 27.2042C12.7796 27.2042 12.4291 27.5828 12.4291 28.0471C12.4291 28.5113 12.7796 28.89 13.2094 28.89C13.6391 28.89 13.9896 28.5113 13.9896 28.0471C13.9896 27.5828 13.6391 27.2042 13.2094 27.2042ZM16.3303 27.2042C15.9006 27.2042 15.5501 27.5828 15.5501 28.0471C15.5501 28.5113 15.9006 28.89 16.3303 28.89C16.76 28.89 17.1105 28.5113 17.1105 28.0471C17.1105 27.5828 16.76 27.2042 16.3303 27.2042ZM19.4512 27.2042C19.0215 27.2042 18.671 27.5828 18.671 28.0471C18.671 28.5113 19.0215 28.89 19.4512 28.89C19.881 28.89 20.2315 28.5113 20.2315 28.0471C20.2315 27.5828 19.881 27.2042 19.4512 27.2042ZM37.3967 28.0471C36.9669 28.0471 36.6164 28.4257 36.6164 28.89C36.6164 29.3542 36.9669 29.7329 37.3967 29.7329C37.8264 29.7329 38.1769 29.3542 38.1769 28.89C38.1769 28.4257 37.8264 28.0471 37.3967 28.0471ZM40.5176 28.0471C40.0879 28.0471 39.7374 28.4257 39.7374 28.89C39.7374 29.3542 40.0879 29.7329 40.5176 29.7329C40.9473 29.7329 41.2978 29.3542 41.2978 28.89C41.2978 28.4257 40.9473 28.0471 40.5176 28.0471ZM2.28606 29.0875C2.99315 29.8382 3.89225 30.5 4.93459 31.0466C7.40635 32.3373 10.7224 33.1044 14.3797 33.1044C18.0371 33.1044 21.3531 32.3373 23.8248 31.0466C24.8672 30.5 25.7663 29.8382 26.4734 29.0875V31.4186C26.4734 32.8114 25.3304 34.2832 23.1421 35.429C20.9538 36.5748 17.8329 37.3189 14.3797 37.3189C10.9266 37.3189 7.80561 36.5748 5.6173 35.429C3.42898 34.2832 2.28606 32.8114 2.28606 31.4186V29.0875ZM47.5397 29.0875V31.4186C47.5397 32.8114 46.3968 34.2832 44.2085 35.429C42.0202 36.5748 38.8992 37.3189 35.4461 37.3189C32.6482 37.3189 30.0759 36.8283 28.0338 36.0315V31.9191C30.1734 32.6731 32.7152 33.1044 35.4461 33.1044C39.1034 33.1044 42.4194 32.3373 44.8912 31.0466C45.9335 30.4967 46.8326 29.8382 47.5397 29.0875ZM16.3303 33.9473C15.9006 33.9473 15.5501 34.326 15.5501 34.7902C15.5501 35.2545 15.9006 35.6331 16.3303 35.6331C16.76 35.6331 17.1105 35.2545 17.1105 34.7902C17.1105 34.326 16.76 33.9473 16.3303 33.9473ZM19.4512 33.9473C19.0215 33.9473 18.671 34.326 18.671 34.7902C18.671 35.2545 19.0215 35.6331 19.4512 35.6331C19.881 35.6331 20.2315 35.2545 20.2315 34.7902C20.2315 34.326 19.881 33.9473 19.4512 33.9473ZM37.3967 33.9473C36.9669 33.9473 36.6164 34.326 36.6164 34.7902C36.6164 35.2545 36.9669 35.6331 37.3967 35.6331C37.8264 35.6331 38.1769 35.2545 38.1769 34.7902C38.1769 34.326 37.8264 33.9473 37.3967 33.9473ZM40.5176 33.9473C40.0879 33.9473 39.7374 34.326 39.7374 34.7902C39.7374 35.2545 40.0879 35.6331 40.5176 35.6331C40.9473 35.6331 41.2978 35.2545 41.2978 34.7902C41.2978 34.326 40.9473 33.9473 40.5176 33.9473ZM2.28606 34.9878C2.99315 35.7385 3.89225 36.397 4.93459 36.9468C7.40635 38.2375 10.7224 39.0047 14.3797 39.0047C18.0371 39.0047 21.3531 38.2375 23.8248 36.9468C24.8672 36.397 25.7663 35.7385 26.4734 34.9878V37.3189C26.4734 38.7116 25.3304 40.1834 23.1421 41.3292C20.9538 42.475 17.8329 43.2191 14.3797 43.2191C10.9266 43.2191 7.80561 42.475 5.6173 41.3292C3.42898 40.1834 2.28606 38.7116 2.28606 37.3189V34.9878ZM47.5397 34.9878V37.3189C47.5397 38.7116 46.3968 40.1834 44.2085 41.3292C42.0202 42.475 38.8992 43.2191 35.4461 43.2191C32.6482 43.2191 30.0759 42.7318 28.0338 41.9317V37.8194C30.1734 38.5733 32.7152 39.0047 35.4461 39.0047C39.1034 39.0047 42.4194 38.2375 44.8912 36.9468C45.9335 36.397 46.8326 35.7385 47.5397 34.9878ZM16.3303 39.8476C15.9006 39.8476 15.5501 40.2262 15.5501 40.6904C15.5501 41.1547 15.9006 41.5333 16.3303 41.5333C16.76 41.5333 17.1105 41.1547 17.1105 40.6904C17.1105 40.2262 16.76 39.8476 16.3303 39.8476ZM19.4512 39.8476C19.0215 39.8476 18.671 40.2262 18.671 40.6904C18.671 41.1547 19.0215 41.5333 19.4512 41.5333C19.881 41.5333 20.2315 41.1547 20.2315 40.6904C20.2315 40.2262 19.881 39.8476 19.4512 39.8476ZM37.3967 39.8476C36.9669 39.8476 36.6164 40.2262 36.6164 40.6904C36.6164 41.1547 36.9669 41.5333 37.3967 41.5333C37.8264 41.5333 38.1769 41.1547 38.1769 40.6904C38.1769 40.2262 37.8264 39.8476 37.3967 39.8476ZM40.5176 39.8476C40.0879 39.8476 39.7374 40.2262 39.7374 40.6904C39.7374 41.1547 40.0879 41.5333 40.5176 41.5333C40.9473 41.5333 41.2978 41.1547 41.2978 40.6904C41.2978 40.2262 40.9473 39.8476 40.5176 39.8476ZM2.28606 40.888C2.99315 41.6387 3.89225 42.2972 4.93459 42.8471C7.40635 44.1377 10.7224 44.9049 14.3797 44.9049C18.0371 44.9049 21.3531 44.1377 23.8248 42.8471C24.8672 42.2972 25.7663 41.6387 26.4734 40.888V43.2191C26.4734 44.6119 25.3304 46.0836 23.1421 47.2294C20.9538 48.3752 17.8329 49.1194 14.3797 49.1194C10.9266 49.1194 7.80561 48.3752 5.6173 47.2294C3.42898 46.0836 2.28606 44.6119 2.28606 43.2191V40.888ZM16.3303 45.7478C15.9006 45.7478 15.5501 46.1264 15.5501 46.5907C15.5501 47.0549 15.9006 47.4336 16.3303 47.4336C16.76 47.4336 17.1105 47.0549 17.1105 46.5907C17.1105 46.1264 16.76 45.7478 16.3303 45.7478ZM19.4512 45.7478C19.0215 45.7478 18.671 46.1264 18.671 46.5907C18.671 47.0549 19.0215 47.4336 19.4512 47.4336C19.881 47.4336 20.2315 47.0549 20.2315 46.5907C20.2315 46.1264 19.881 45.7478 19.4512 45.7478Z" fill="#F7C920"/>
</svg>
