<svg width="36" height="58" viewBox="0 0 36 58" fill="none" xmlns="http://www.w3.org/2000/svg">
<path d="M4.5 0C2.02544 0 0 2.0395 0 4.53125V53.4688C0 55.9605 2.02544 58 4.5 58H31.5C33.9746 58 36 55.9605 36 53.4688V4.53125C36 2.0395 33.9746 0 31.5 0H4.5ZM4.5 1.8125H31.5C33.0016 1.8125 34.2 3.01919 34.2 4.53125V7.25H1.8V4.53125C1.8 3.01919 2.99836 1.8125 4.5 1.8125ZM10.7525 3.625C10.5138 3.625 10.2849 3.72048 10.1161 3.89043C9.94736 4.06039 9.85254 4.2909 9.85254 4.53125C9.85254 4.7716 9.94736 5.00211 10.1161 5.17207C10.2849 5.34202 10.5138 5.4375 10.7525 5.4375C10.9912 5.4375 11.2202 5.34202 11.3889 5.17207C11.5577 5.00211 11.6525 4.7716 11.6525 4.53125C11.6525 4.2909 11.5577 4.06039 11.3889 3.89043C11.2202 3.72048 10.9912 3.625 10.7525 3.625ZM14.4 3.625C14.2807 3.6233 14.1623 3.64549 14.0517 3.69027C13.941 3.73505 13.8403 3.80153 13.7553 3.88585C13.6704 3.97018 13.603 4.07065 13.5569 4.18145C13.5109 4.29225 13.4872 4.41115 13.4872 4.53125C13.4872 4.65135 13.5109 4.77025 13.5569 4.88105C13.603 4.99185 13.6704 5.09232 13.7553 5.17665C13.8403 5.26097 13.941 5.32745 14.0517 5.37223C14.1623 5.41701 14.2807 5.4392 14.4 5.4375H21.6C21.7193 5.4392 21.8377 5.41701 21.9483 5.37223C22.059 5.32745 22.1597 5.26097 22.2447 5.17665C22.3296 5.09232 22.397 4.99185 22.4431 4.88105C22.4891 4.77025 22.5128 4.65135 22.5128 4.53125C22.5128 4.41115 22.4891 4.29225 22.4431 4.18145C22.397 4.07065 22.3296 3.97018 22.2447 3.88585C22.1597 3.80153 22.059 3.73505 21.9483 3.69027C21.8377 3.64549 21.7193 3.6233 21.6 3.625H14.4ZM1.8 9.0625H34.2V47.125H1.8V9.0625ZM5.4 10.875C5.1613 10.875 4.93239 10.9705 4.7636 11.1404C4.59482 11.3104 4.5 11.5409 4.5 11.7812C4.5 12.0216 4.59482 12.2521 4.7636 12.4221C4.93239 12.592 5.1613 12.6875 5.4 12.6875C5.63869 12.6875 5.86761 12.592 6.0364 12.4221C6.20518 12.2521 6.3 12.0216 6.3 11.7812C6.3 11.5409 6.20518 11.3104 6.0364 11.1404C5.86761 10.9705 5.63869 10.875 5.4 10.875ZM5.4 14.5C5.1613 14.5 4.93239 14.5955 4.7636 14.7654C4.59482 14.9354 4.5 15.1659 4.5 15.4062C4.5 15.6466 4.59482 15.8771 4.7636 16.0471C4.93239 16.217 5.1613 16.3125 5.4 16.3125C5.63869 16.3125 5.86761 16.217 6.0364 16.0471C6.20518 15.8771 6.3 15.6466 6.3 15.4062C6.3 15.1659 6.20518 14.9354 6.0364 14.7654C5.86761 14.5955 5.63869 14.5 5.4 14.5ZM18 15.4062C13.0405 15.4062 9 19.4748 9 24.4688C9 25.8683 9.56324 27.4553 10.3465 29.1788C11.1297 30.9022 12.1575 32.732 13.1818 34.4163C15.2304 37.7849 17.2758 40.5777 17.2758 40.5777L18 41.5671L18.7242 40.5777C18.7242 40.5777 20.7696 37.7848 22.8182 34.4163C23.8425 32.732 24.8703 30.9022 25.6535 29.1788C26.4368 27.4553 27 25.8683 27 24.4688C27 19.4748 22.9595 15.4062 18 15.4062ZM18 17.2188C21.9865 17.2188 25.2 20.4546 25.2 24.4688C25.2 25.3212 24.7507 26.8063 24.0152 28.4247C23.2797 30.0431 22.2825 31.8238 21.2818 33.4693C19.6422 36.1654 18.5402 37.658 18 38.4112C17.4598 37.658 16.3578 36.1654 14.7182 33.4693C13.7175 31.8238 12.7203 30.0431 11.9848 28.4247C11.2493 26.8063 10.8 25.3212 10.8 24.4688C10.8 20.4546 14.0135 17.2188 18 17.2188ZM5.4 18.125C5.1613 18.125 4.93239 18.2205 4.7636 18.3904C4.59482 18.5604 4.5 18.7909 4.5 19.0312C4.5 19.2716 4.59482 19.5021 4.7636 19.6721C4.93239 19.842 5.1613 19.9375 5.4 19.9375C5.63869 19.9375 5.86761 19.842 6.0364 19.6721C6.20518 19.5021 6.3 19.2716 6.3 19.0312C6.3 18.7909 6.20518 18.5604 6.0364 18.3904C5.86761 18.2205 5.63869 18.125 5.4 18.125ZM5.4 21.75C5.1613 21.75 4.93239 21.8455 4.7636 22.0154C4.59482 22.1854 4.5 22.4159 4.5 22.6562C4.5 22.8966 4.59482 23.1271 4.7636 23.2971C4.93239 23.467 5.1613 23.5625 5.4 23.5625C5.63869 23.5625 5.86761 23.467 6.0364 23.2971C6.20518 23.1271 6.3 22.8966 6.3 22.6562C6.3 22.4159 6.20518 22.1854 6.0364 22.0154C5.86761 21.8455 5.63869 21.75 5.4 21.75ZM18 21.75C16.5195 21.75 15.3 22.978 15.3 24.4688C15.3 25.9595 16.5195 27.1875 18 27.1875C19.4805 27.1875 20.7 25.9595 20.7 24.4688C20.7 22.978 19.4805 21.75 18 21.75ZM18 23.5625C18.5077 23.5625 18.9 23.9575 18.9 24.4688C18.9 24.98 18.5077 25.375 18 25.375C17.4923 25.375 17.1 24.98 17.1 24.4688C17.1 23.9575 17.4923 23.5625 18 23.5625ZM5.4 25.375C5.1613 25.375 4.93239 25.4705 4.7636 25.6404C4.59482 25.8104 4.5 26.0409 4.5 26.2812C4.5 26.5216 4.59482 26.7521 4.7636 26.9221C4.93239 27.092 5.1613 27.1875 5.4 27.1875C5.63869 27.1875 5.86761 27.092 6.0364 26.9221C6.20518 26.7521 6.3 26.5216 6.3 26.2812C6.3 26.0409 6.20518 25.8104 6.0364 25.6404C5.86761 25.4705 5.63869 25.375 5.4 25.375ZM5.4 29C5.1613 29 4.93239 29.0955 4.7636 29.2654C4.59482 29.4354 4.5 29.6659 4.5 29.9062C4.5 30.1466 4.59482 30.3771 4.7636 30.5471C4.93239 30.717 5.1613 30.8125 5.4 30.8125C5.63869 30.8125 5.86761 30.717 6.0364 30.5471C6.20518 30.3771 6.3 30.1466 6.3 29.9062C6.3 29.6659 6.20518 29.4354 6.0364 29.2654C5.86761 29.0955 5.63869 29 5.4 29ZM5.4 32.625C5.1613 32.625 4.93239 32.7205 4.7636 32.8904C4.59482 33.0604 4.5 33.2909 4.5 33.5312C4.5 33.7716 4.59482 34.0021 4.7636 34.1721C4.93239 34.342 5.1613 34.4375 5.4 34.4375C5.63869 34.4375 5.86761 34.342 6.0364 34.1721C6.20518 34.0021 6.3 33.7716 6.3 33.5312C6.3 33.2909 6.20518 33.0604 6.0364 32.8904C5.86761 32.7205 5.63869 32.625 5.4 32.625ZM5.4 36.25C5.1613 36.25 4.93239 36.3455 4.7636 36.5154C4.59482 36.6854 4.5 36.9159 4.5 37.1562C4.5 37.3966 4.59482 37.6271 4.7636 37.7971C4.93239 37.967 5.1613 38.0625 5.4 38.0625C5.63869 38.0625 5.86761 37.967 6.0364 37.7971C6.20518 37.6271 6.3 37.3966 6.3 37.1562C6.3 36.9159 6.20518 36.6854 6.0364 36.5154C5.86761 36.3455 5.63869 36.25 5.4 36.25ZM5.4 39.875C5.1613 39.875 4.93239 39.9705 4.7636 40.1404C4.59482 40.3104 4.5 40.5409 4.5 40.7812C4.5 41.0216 4.59482 41.2521 4.7636 41.4221C4.93239 41.592 5.1613 41.6875 5.4 41.6875C5.63869 41.6875 5.86761 41.592 6.0364 41.4221C6.20518 41.2521 6.3 41.0216 6.3 40.7812C6.3 40.5409 6.20518 40.3104 6.0364 40.1404C5.86761 39.9705 5.63869 39.875 5.4 39.875ZM5.4 43.5C5.1613 43.5 4.93239 43.5955 4.7636 43.7654C4.59482 43.9354 4.5 44.1659 4.5 44.4062C4.5 44.6466 4.59482 44.8771 4.7636 45.0471C4.93239 45.217 5.1613 45.3125 5.4 45.3125C5.63869 45.3125 5.86761 45.217 6.0364 45.0471C6.20518 44.8771 6.3 44.6466 6.3 44.4062C6.3 44.1659 6.20518 43.9354 6.0364 43.7654C5.86761 43.5955 5.63869 43.5 5.4 43.5ZM1.8 48.9375H34.2V53.4688C34.2 54.9808 33.0016 56.1875 31.5 56.1875H4.5C2.99836 56.1875 1.8 54.9808 1.8 53.4688V48.9375ZM18 50.75C17.5226 50.75 17.0648 50.941 16.7272 51.2809C16.3896 51.6208 16.2 52.0818 16.2 52.5625C16.2 53.0432 16.3896 53.5042 16.7272 53.8441C17.0648 54.184 17.5226 54.375 18 54.375C18.4774 54.375 18.9352 54.184 19.2728 53.8441C19.6104 53.5042 19.8 53.0432 19.8 52.5625C19.8 52.0818 19.6104 51.6208 19.2728 51.2809C18.9352 50.941 18.4774 50.75 18 50.75Z" fill="#FFC32A"/>
</svg>
