<svg width="55" height="55" viewBox="0 0 55 55" fill="none" xmlns="http://www.w3.org/2000/svg">
<circle cx="27.5" cy="27.5" r="27.5" fill="#FFC32A"/>
<path d="M15.9252 15.7145C15.7836 15.7125 15.643 15.7386 15.5116 15.7914C15.3801 15.8442 15.2605 15.9226 15.1597 16.0221C15.0588 16.1215 14.9787 16.24 14.9241 16.3707C14.8694 16.5013 14.8413 16.6415 14.8413 16.7832C14.8413 16.9248 14.8694 17.065 14.9241 17.1957C14.9787 17.3263 15.0588 17.4448 15.1597 17.5442C15.2605 17.6437 15.3801 17.7221 15.5116 17.7749C15.643 17.8277 15.7836 17.8538 15.9252 17.8518H16.781L24.4747 27.4701H30.8869L38.5806 17.8518H39.4364C39.578 17.8538 39.7186 17.8277 39.85 17.7749C39.9815 17.7221 40.1011 17.6437 40.2019 17.5442C40.3028 17.4448 40.3829 17.3263 40.4375 17.1957C40.4922 17.065 40.5203 16.9248 40.5203 16.7832C40.5203 16.6415 40.4922 16.5013 40.4375 16.3707C40.3829 16.24 40.3028 16.1215 40.2019 16.0221C40.1011 15.9226 39.9815 15.8442 39.85 15.7914C39.7186 15.7386 39.578 15.7125 39.4364 15.7145H15.9252ZM24.4747 29.6075V39.2257L30.8869 37.0883V29.6075H24.4747Z" fill="white"/>
</svg>
