<svg width="59" height="59" viewBox="0 0 59 59" fill="none" xmlns="http://www.w3.org/2000/svg">
<path d="M29.1826 0.528564C13.1037 0.528564 0.0478516 13.5844 0.0478516 29.6633C0.0478516 45.7421 13.1037 58.798 29.1826 58.798C45.2614 58.798 58.3173 45.7421 58.3173 29.6633C58.3173 13.5844 45.2614 0.528564 29.1826 0.528564ZM29.1826 2.34948C44.2798 2.34948 56.4963 14.566 56.4963 29.6633C56.4963 44.7605 44.2798 56.9771 29.1826 56.9771C14.0853 56.9771 1.86877 44.7605 1.86877 29.6633C1.86877 14.566 14.0853 2.34948 29.1826 2.34948ZM29.1826 5.08086C28.6811 5.08086 28.2721 5.48986 28.2721 5.99132C28.2721 6.49279 28.6811 6.90178 29.1826 6.90178C29.684 6.90178 30.093 6.49279 30.093 5.99132C30.093 5.48986 29.684 5.08086 29.1826 5.08086ZM26.0635 5.28358C26.0315 5.28358 26.0031 5.28714 25.9711 5.29425C25.498 5.35471 25.1566 5.77082 25.1851 6.24739C25.1851 6.27228 25.1851 6.29362 25.1886 6.31496C25.2206 6.55325 25.3451 6.77019 25.5372 6.91601C25.7292 7.06538 25.9711 7.1294 26.2093 7.09739C26.4512 7.06538 26.6681 6.9409 26.8139 6.74885C26.9633 6.5568 27.0273 6.31496 26.9953 6.07668C26.9349 5.61078 26.533 5.26936 26.0635 5.28358ZM32.2376 5.28358C31.793 5.30492 31.4267 5.63567 31.3698 6.07668C31.3058 6.57458 31.6543 7.03337 32.1558 7.09739C32.6537 7.1614 33.1089 6.81287 33.1765 6.31496C33.2405 5.8135 32.8884 5.35827 32.3905 5.29425C32.3407 5.28714 32.2874 5.28358 32.2376 5.28358ZM23.0903 5.88818C22.9978 5.88463 22.9089 5.8953 22.82 5.92019C22.3328 6.04823 22.0447 6.54613 22.1763 7.03337C22.3079 7.52061 22.8058 7.80869 23.293 7.6771C23.7767 7.54551 24.0648 7.0476 23.9332 6.56036C23.8301 6.17626 23.4886 5.90241 23.0903 5.88818ZM35.2997 5.89174C34.8943 5.89174 34.5351 6.16915 34.4319 6.56392C34.3003 7.05115 34.5884 7.54906 35.0721 7.68065C35.5593 7.80868 36.0572 7.52061 36.1888 7.03337C36.3204 6.54969 36.0323 6.05178 35.5451 5.92019C35.4669 5.89885 35.3851 5.88818 35.2997 5.89174ZM20.1313 6.884C20.0068 6.88044 19.8895 6.90534 19.7757 6.95157C19.3098 7.14362 19.0893 7.67709 19.2813 8.13944C19.4769 8.60534 20.0068 8.82584 20.4727 8.63379C20.6932 8.54132 20.8711 8.3635 20.9635 8.14299C21.056 7.91894 21.056 7.66643 20.9635 7.44237C20.8248 7.1045 20.4941 6.884 20.1313 6.884ZM38.2587 6.884C37.8853 6.87333 37.5438 7.09739 37.4016 7.44237C37.206 7.90827 37.4265 8.44174 37.8924 8.63379C38.3583 8.82584 38.8882 8.60534 39.0838 8.13944C39.2759 7.67709 39.0554 7.14362 38.5895 6.95157C38.4863 6.9089 38.3725 6.884 38.2587 6.884ZM17.3252 8.25324C17.1723 8.2568 17.0229 8.29592 16.8914 8.37417C16.4575 8.62667 16.3045 9.18149 16.557 9.61893C16.678 9.82521 16.8771 9.97814 17.1119 10.0422C17.343 10.1062 17.592 10.0742 17.8018 9.94969C18.0116 9.83232 18.1646 9.63316 18.225 9.39843C18.2891 9.1637 18.257 8.91475 18.1326 8.70848C17.969 8.41684 17.6596 8.24258 17.3252 8.25324ZM40.9759 8.25324C40.6629 8.26747 40.3819 8.43818 40.229 8.70848C39.9765 9.14237 40.1294 9.70073 40.5633 9.94969C40.9972 10.2022 41.5556 10.0528 41.8045 9.61893C41.929 9.4091 41.961 9.16015 41.897 8.92898C41.8365 8.69425 41.6836 8.49509 41.4738 8.37417C41.3208 8.28525 41.1501 8.24613 40.9759 8.25324ZM14.7859 9.97103C14.7646 9.97103 14.7432 9.97103 14.7219 9.97458C14.537 9.9817 14.3627 10.0493 14.2169 10.1595C13.8186 10.4654 13.7439 11.038 14.0497 11.4363C14.3556 11.8346 14.9282 11.9093 15.3265 11.6035C15.7248 11.2976 15.7995 10.7286 15.4937 10.3302C15.3265 10.1062 15.0633 9.97458 14.7859 9.97103ZM43.5792 9.97103C43.3018 9.97458 43.0386 10.1062 42.8715 10.3267C42.5656 10.725 42.6403 11.2976 43.0386 11.6035C43.4369 11.9093 44.0095 11.8346 44.3154 11.4363C44.6213 11.0344 44.5466 10.4618 44.1482 10.1595C43.9846 10.0315 43.7819 9.96747 43.5792 9.97103ZM25.1246 10.0493L24.3031 10.2555C19.2351 11.5252 14.9424 14.7154 12.2324 19.0223L11.7842 19.7371L17.4817 23.9444L22.1265 25.456L22.5142 24.9118C23.542 23.475 25.0108 22.3832 26.725 21.8426L27.3616 21.6434V16.771L25.1246 10.0493ZM33.2405 10.0493L31.0035 16.771V21.6434L31.6436 21.8461C33.3579 22.3832 34.8231 23.4785 35.851 24.9118L36.2386 25.456L40.8834 23.948L46.5809 19.7371L46.1328 19.0223C43.4227 14.7189 39.13 11.5252 34.0621 10.2555L33.2405 10.0493ZM12.4564 12.0124C12.211 12.0089 11.9727 12.1049 11.7985 12.2792C11.4428 12.6348 11.4428 13.2145 11.7985 13.5702C11.9692 13.7409 12.2004 13.8369 12.4422 13.8369C12.684 13.8369 12.9152 13.7409 13.0895 13.5702C13.4416 13.2145 13.4416 12.6348 13.0895 12.2792C12.9188 12.112 12.6947 12.016 12.4564 12.0124ZM45.9336 12.0124C45.6882 12.0124 45.4499 12.1085 45.2756 12.2792C44.9235 12.6348 44.9235 13.2145 45.2756 13.5702C45.6313 13.9223 46.211 13.9223 46.5666 13.5702C46.9187 13.2145 46.9187 12.6348 46.5666 12.2792C46.3959 12.112 46.1719 12.016 45.9336 12.0124ZM23.9545 12.3041L25.5407 17.0627V20.4306C23.9581 21.0601 22.596 22.0595 21.5326 23.347L18.3282 22.3085L14.288 19.3246C16.6068 15.9957 19.9819 13.4991 23.9545 12.3041ZM34.4106 12.3041C38.3832 13.4991 41.7583 15.9957 44.0771 19.3246L40.0369 22.3085L36.8326 23.347C35.7656 22.0595 34.407 21.0601 32.8244 20.4306V17.0627L34.4106 12.3041ZM47.975 14.3384C47.9537 14.3384 47.9323 14.3384 47.9146 14.3419C47.7296 14.3491 47.5553 14.4166 47.4095 14.5269C47.0112 14.8327 46.933 15.4053 47.2388 15.8037C47.5447 16.202 48.1173 16.2802 48.5156 15.9744C48.9175 15.665 48.9922 15.0959 48.6863 14.6976C48.5156 14.4735 48.256 14.3419 47.975 14.3384ZM10.3901 14.3419C10.1091 14.3455 9.84952 14.4771 9.67881 14.6976C9.37651 15.0959 9.45119 15.6685 9.84952 15.9744C10.2478 16.2802 10.8204 16.2055 11.1263 15.8072C11.4322 15.4053 11.3575 14.8327 10.9591 14.5269C10.7955 14.4024 10.5928 14.3384 10.3901 14.3419ZM49.6608 16.9168C49.5079 16.9204 49.3585 16.9631 49.2269 17.0378C48.793 17.2903 48.6401 17.8451 48.8926 18.2825C49.0135 18.4888 49.2127 18.6417 49.4474 18.7057C49.6786 18.7698 49.9275 18.7378 50.1374 18.6133C50.3472 18.4959 50.5001 18.2968 50.5606 18.062C50.6246 17.8273 50.5926 17.5783 50.4681 17.3721C50.3045 17.084 49.9915 16.9097 49.6608 16.9168ZM8.64031 16.9168C8.3309 16.9346 8.04994 17.1053 7.89345 17.3721C7.64094 17.806 7.79031 18.3643 8.22776 18.6133C8.43404 18.7378 8.68299 18.7698 8.91772 18.7057C9.15245 18.6453 9.35161 18.4924 9.46897 18.2825C9.72149 17.8486 9.57211 17.2903 9.13822 17.0413C8.98529 16.9524 8.81102 16.9097 8.64031 16.9168ZM51.0585 19.6909C50.9376 19.6909 50.8166 19.7158 50.7064 19.762C50.2405 19.9541 50.02 20.4875 50.212 20.9534C50.4041 21.4158 50.9376 21.6363 51.4035 21.4442C51.8658 21.2522 52.0863 20.7187 51.8943 20.2564C51.7556 19.915 51.4248 19.6945 51.0585 19.6909ZM7.33153 19.6945C6.95454 19.6873 6.61312 19.9078 6.47086 20.2564C6.27881 20.7223 6.49931 21.2522 6.96165 21.4442C7.42755 21.6398 7.96103 21.4193 8.15308 20.9534C8.34513 20.4875 8.12462 19.9576 7.65872 19.762C7.55559 19.7193 7.44534 19.698 7.33153 19.6945ZM6.30726 22.625C5.89827 22.6321 5.54262 22.906 5.43948 23.3043C5.30789 23.788 5.59596 24.2859 6.07965 24.4175C6.56688 24.549 7.06479 24.261 7.19638 23.7737C7.32797 23.2865 7.0399 22.7886 6.55266 22.6606C6.47442 22.6357 6.39262 22.625 6.30726 22.625ZM52.0579 22.625C52.033 22.625 52.0116 22.6285 51.9903 22.6285C51.9298 22.6321 51.8729 22.6428 51.8125 22.6606C51.3252 22.7886 51.0371 23.2865 51.1687 23.7737C51.3003 24.261 51.7982 24.549 52.2855 24.4175C52.7691 24.2859 53.0572 23.788 52.9256 23.3043C52.8225 22.906 52.4669 22.6321 52.0579 22.625ZM26.1951 24.0014C25.6296 24.0298 25.146 24.4068 24.9717 24.9403C24.737 25.6587 25.1317 26.4304 25.8501 26.6616C26.565 26.8963 27.3367 26.5051 27.5715 25.7867C27.8026 25.0683 27.4114 24.3001 26.693 24.0654C26.5757 24.0262 26.4547 24.0049 26.3303 24.0014C26.284 23.9978 26.2378 23.9978 26.1951 24.0014ZM32.3692 24.2005C31.6152 24.2005 31.0035 24.8122 31.0035 25.5662C31.0035 26.3202 31.6152 26.9319 32.3692 26.9319C33.1231 26.9319 33.7349 26.3202 33.7349 25.5662C33.7349 24.8122 33.1231 24.2005 32.3692 24.2005ZM52.6233 25.6658C52.5913 25.6658 52.5629 25.6693 52.5309 25.6729C52.0579 25.7369 51.7164 26.153 51.7449 26.6296C51.7449 26.6509 51.7449 26.6723 51.7484 26.6936C51.752 26.7221 51.7591 26.7541 51.7627 26.7825C51.7698 26.811 51.7804 26.843 51.7876 26.8714C51.9298 27.2804 52.3424 27.5365 52.7691 27.476C53.011 27.4476 53.2279 27.3195 53.3738 27.1275C53.5231 26.939 53.5871 26.6936 53.5551 26.4553C53.4947 25.993 53.0928 25.648 52.6233 25.6658ZM5.67776 25.6658C5.2332 25.6836 4.86689 26.0179 4.80998 26.4589C4.74241 26.9568 5.0945 27.412 5.59241 27.476C5.83069 27.508 6.07609 27.444 6.26458 27.2982C6.45663 27.1488 6.58467 26.9319 6.61668 26.6936C6.68069 26.1957 6.3286 25.7369 5.83069 25.6729C5.7809 25.6658 5.72755 25.6622 5.67776 25.6658ZM16.3543 27.412L9.27692 27.4654L9.22002 28.3083C9.19157 28.7244 9.15245 29.176 9.15245 29.6633C9.15245 34.5463 10.9094 39.0275 13.815 42.5057L14.3591 43.1495L20.1313 39.0239L23.0049 35.0691L22.6066 34.5321C21.593 33.1664 20.9884 31.4913 20.9884 29.6633C20.9884 29.7131 20.9884 29.6953 20.992 29.6064L21.0169 28.9235L16.3543 27.412ZM42.0108 27.412L37.3482 28.9235L37.3731 29.6064C37.3767 29.6953 37.3767 29.7131 37.3767 29.6633C37.3767 31.4913 36.7721 33.1664 35.7585 34.5321L35.3602 35.0691L38.2338 39.0239L44.006 43.1495L44.5466 42.5057C47.4558 39.0275 49.2127 34.5463 49.2127 29.6633C49.2127 29.176 49.1735 28.7244 49.1451 28.3083L49.0882 27.4654L42.0108 27.412ZM5.51061 28.7528C5.03404 28.7528 4.63571 29.1227 4.60015 29.5993C4.60015 29.6206 4.60015 29.6419 4.60015 29.6633C4.60015 30.1647 5.00915 30.5737 5.51061 30.5737C6.01207 30.5737 6.42107 30.1647 6.42107 29.6633C6.42107 29.1618 6.01207 28.7528 5.51061 28.7528ZM52.8545 28.7528C52.3779 28.7528 51.9796 29.1227 51.944 29.5993C51.944 29.6206 51.944 29.6419 51.944 29.6633C51.944 30.1647 52.353 30.5737 52.8545 30.5737C53.356 30.5737 53.765 30.1647 53.765 29.6633C53.765 29.1618 53.356 28.7528 52.8545 28.7528ZM16.0769 29.2329L19.2671 30.2714C19.3773 32.0105 19.9286 33.6039 20.8106 34.9873L18.8296 37.7151L14.729 40.6457C12.3995 37.5871 10.9734 33.8101 10.9734 29.6633C10.9734 29.5424 10.9876 29.4001 10.9911 29.2721L16.0769 29.2329ZM42.2882 29.2329L47.374 29.2721C47.3775 29.4001 47.3918 29.5424 47.3918 29.6633C47.3918 33.8101 45.9656 37.5871 43.6361 40.6457L39.5355 37.7151L37.551 34.9873C38.4365 33.6039 38.9878 32.0105 39.098 30.2714L42.2882 29.2329ZM24.1359 29.7415C23.7198 29.7593 23.3357 29.9656 23.0903 30.3034C22.6493 30.9152 22.7844 31.7652 23.3926 32.2097C24.0008 32.6543 24.8579 32.5191 25.2989 31.911C25.7434 31.2993 25.6083 30.4457 25.0001 30.0011C24.7476 29.8198 24.4453 29.7273 24.1359 29.7415ZM34.0443 30.0616C33.9056 30.0652 33.7704 30.0865 33.6388 30.1292C32.924 30.3639 32.5292 31.1321 32.7639 31.8505C32.9987 32.5689 33.7669 32.9601 34.4853 32.7254C35.2037 32.4942 35.5949 31.7225 35.3602 31.0041C35.1752 30.4386 34.6418 30.0545 34.0443 30.0616ZM5.68132 31.8434C5.65287 31.8434 5.62086 31.847 5.59241 31.8505C5.0945 31.9181 4.74241 32.3733 4.80998 32.8748C4.874 33.3727 5.33279 33.7212 5.83069 33.6572C6.06898 33.6252 6.28592 33.5007 6.43529 33.3087C6.58111 33.1166 6.64513 32.8748 6.61668 32.6365C6.55266 32.1706 6.15078 31.8292 5.68132 31.8434ZM52.6162 31.847C52.1752 31.8647 51.8089 32.199 51.7484 32.6365C51.6844 33.1344 52.0365 33.5932 52.5309 33.6608C52.7727 33.6892 53.0145 33.6252 53.2066 33.4794C53.3986 33.33 53.5231 33.1131 53.5551 32.8748C53.6192 32.3769 53.2706 31.9181 52.7691 31.8541C52.7194 31.847 52.6696 31.8434 52.6162 31.847ZM28.9727 33.4865C28.6989 33.4936 28.4321 33.5825 28.2116 33.7461C27.5999 34.1871 27.4648 35.0407 27.9058 35.6524C28.3503 36.2641 29.2039 36.3993 29.8156 35.9547C30.4273 35.5101 30.5625 34.6566 30.1179 34.0449C29.8512 33.6821 29.4244 33.4723 28.9727 33.4865ZM6.32504 34.8806C6.30371 34.8771 6.28237 34.8806 6.26103 34.8806C6.20057 34.8842 6.14011 34.8949 6.07965 34.9126C5.59596 35.0407 5.30789 35.5386 5.43948 36.0258C5.56751 36.5131 6.06542 36.8011 6.55266 36.6695C7.0399 36.538 7.32797 36.04 7.19638 35.5528C7.08969 35.158 6.73404 34.8842 6.32504 34.8806ZM52.0401 34.8806C51.6311 34.8842 51.2754 35.1616 51.1687 35.5564C51.0371 36.0436 51.3252 36.5415 51.8125 36.6731C52.2997 36.8011 52.7976 36.5131 52.9256 36.0258C53.0572 35.5421 52.7691 35.0442 52.2855 34.9126C52.2037 34.8913 52.1219 34.8806 52.0401 34.8806ZM32.419 37.2172L31.7859 37.4271C30.9644 37.7045 30.093 37.8574 29.1826 37.8574C28.2721 37.8574 27.4008 37.7045 26.5792 37.4306L25.9462 37.2172L23.0761 41.1649L20.9351 47.9294L21.7175 48.2423C24.0257 49.1706 26.5436 49.6934 29.1826 49.6934C31.8215 49.6934 34.3395 49.167 36.6476 48.2423L37.43 47.9258L35.289 41.1649L32.419 37.2172ZM7.3173 37.8112C7.19638 37.8112 7.07902 37.8325 6.96521 37.8823C6.49931 38.0744 6.27881 38.6043 6.47442 39.0702C6.66647 39.5361 7.19638 39.7566 7.66228 39.5645C8.12818 39.3689 8.34868 38.839 8.15663 38.3731C8.01437 38.0352 7.68362 37.8147 7.3173 37.8112ZM51.0727 37.8112C50.6957 37.8041 50.3543 38.0246 50.212 38.3731C50.02 38.839 50.2405 39.3689 50.7064 39.5645C51.1687 39.7566 51.7022 39.5361 51.8943 39.0702C52.0863 38.6043 51.8658 38.0744 51.4035 37.8823C51.2968 37.8361 51.1865 37.8147 51.0727 37.8112ZM31.6579 39.2693L33.6424 41.9972L35.1574 46.7913C33.2796 47.4528 31.288 47.8725 29.1826 47.8725C27.0771 47.8725 25.0855 47.4528 23.2041 46.7913L24.7227 41.9972L26.7037 39.2693C27.5039 39.4792 28.3148 39.6783 29.1826 39.6783C30.0503 39.6783 30.8577 39.4792 31.6579 39.2693ZM8.6581 40.5888C8.50872 40.5923 8.35935 40.6315 8.22776 40.7097C7.79031 40.9622 7.64094 41.517 7.89345 41.9545C8.14596 42.3884 8.70077 42.5377 9.13822 42.2852C9.3445 42.1679 9.49743 41.9687 9.56144 41.734C9.6219 41.4992 9.5899 41.2503 9.46897 41.044C9.30182 40.7524 8.99241 40.5781 8.6581 40.5888ZM49.6394 40.5888C49.33 40.6066 49.0491 40.7773 48.8926 41.044C48.6401 41.4815 48.793 42.0363 49.2269 42.2888C49.6608 42.5413 50.2192 42.3919 50.4681 41.9545C50.5926 41.7482 50.6246 41.4992 50.5606 41.2645C50.5001 41.0298 50.3472 40.8306 50.1374 40.7133C49.988 40.6244 49.8137 40.5817 49.6394 40.5888ZM47.9466 43.1601C47.6692 43.1637 47.4095 43.2953 47.2388 43.5158C46.933 43.9141 47.0112 44.4867 47.4095 44.7925C47.8079 45.0984 48.3805 45.0237 48.6863 44.6254C48.9922 44.2271 48.9175 43.6545 48.5156 43.3486C48.3556 43.2241 48.1528 43.1566 47.9466 43.1601ZM10.3545 43.1637C10.1696 43.1708 9.99533 43.2384 9.84952 43.3486C9.45119 43.658 9.37651 44.2271 9.68236 44.629C9.98822 45.0273 10.5608 45.102 10.9591 44.7961C11.3575 44.4867 11.4322 43.9177 11.1263 43.5193C10.9627 43.3059 10.7137 43.1744 10.447 43.1637C10.415 43.1601 10.383 43.1601 10.3545 43.1637ZM12.4564 45.4932C12.211 45.4896 11.9727 45.5856 11.7985 45.7564C11.4464 46.112 11.4464 46.6917 11.7985 47.0474C12.1541 47.3995 12.7338 47.3995 13.0895 47.0474C13.4416 46.6917 13.4416 46.112 13.0895 45.7564C12.9188 45.5892 12.6947 45.4932 12.4564 45.4932ZM45.9336 45.4932C45.6882 45.4896 45.4499 45.5856 45.2756 45.7564C44.9235 46.112 44.9235 46.6917 45.2756 47.0474C45.6313 47.3995 46.211 47.3995 46.5666 47.0474C46.9187 46.6917 46.9187 46.112 46.5666 45.7564C46.3959 45.5892 46.1719 45.4932 45.9336 45.4932ZM43.6077 47.531C43.5863 47.5275 43.565 47.531 43.5472 47.531C43.3623 47.5417 43.1844 47.6057 43.0386 47.716C42.6403 48.0254 42.5656 48.5944 42.8715 48.9963C43.1773 49.3911 43.7499 49.4693 44.1482 49.1635C44.5466 48.8576 44.6248 48.285 44.3189 47.8867C44.1482 47.6662 43.8886 47.5346 43.6077 47.531ZM14.7575 47.531C14.4801 47.5346 14.2204 47.6662 14.0497 47.8867C13.7439 48.285 13.8186 48.8576 14.2169 49.1635C14.6188 49.4693 15.1914 49.3946 15.4972 48.9963C15.8031 48.5944 15.7284 48.0254 15.3265 47.716C15.1665 47.5915 14.9637 47.5275 14.7575 47.531ZM40.9936 49.2524C40.8443 49.2559 40.6949 49.2986 40.5633 49.3733C40.3535 49.4942 40.2005 49.6934 40.1365 49.9281C40.0761 50.1593 40.1081 50.4082 40.229 50.6181C40.4815 51.052 41.0363 51.2013 41.4738 50.9488C41.9077 50.6999 42.057 50.1415 41.8045 49.7076C41.6409 49.4195 41.3279 49.2453 40.9936 49.2524ZM17.3039 49.2559C16.9945 49.2702 16.7135 49.4409 16.557 49.7076C16.3045 50.1451 16.4575 50.6999 16.8914 50.9524C17.3252 51.2049 17.8836 51.0555 18.1326 50.6181C18.3851 50.1842 18.2357 49.6294 17.8018 49.3769C17.6489 49.2879 17.4782 49.2488 17.3039 49.2559ZM38.248 50.6216C38.1876 50.6216 38.1271 50.6252 38.0702 50.6358C38.0097 50.6501 37.9493 50.6679 37.8924 50.6892C37.5154 50.8492 37.2913 51.2369 37.3376 51.6423C37.3447 51.6743 37.3482 51.7028 37.3554 51.7312C37.366 51.7846 37.3802 51.8344 37.4016 51.8806C37.5936 52.3465 38.1271 52.567 38.5895 52.3714C39.0554 52.1794 39.2759 51.6494 39.0838 51.1835C38.9451 50.8457 38.6143 50.6252 38.248 50.6216ZM20.1455 50.6216C19.7685 50.6145 19.4271 50.8386 19.2813 51.1871C19.0928 51.6494 19.3133 52.1794 19.7757 52.3714C20.2416 52.567 20.7715 52.3465 20.9635 51.8806C21.1591 51.4147 20.9386 50.8848 20.4727 50.6892C20.3696 50.6465 20.2558 50.6252 20.1455 50.6216ZM23.0476 51.6174C22.6351 51.6246 22.2794 51.8984 22.1727 52.2967C22.0447 52.7804 22.3328 53.2783 22.82 53.4099C23.3037 53.5415 23.8016 53.2534 23.9332 52.7662C24.0648 52.2789 23.7767 51.781 23.2895 51.653C23.2112 51.6281 23.1294 51.6174 23.0476 51.6174ZM35.3424 51.6174C35.2499 51.6174 35.161 51.6245 35.0721 51.6494C34.5849 51.781 34.2968 52.2789 34.4284 52.7662C34.4888 52.9974 34.6418 53.1965 34.8516 53.3174C35.0614 53.4384 35.3104 53.4739 35.5415 53.4099C35.7763 53.3459 35.9754 53.193 36.0964 52.9867C36.2173 52.7769 36.2493 52.5279 36.1853 52.2932C36.0821 51.9091 35.7407 51.6352 35.3424 51.6174ZM32.2411 52.2256C32.2127 52.2256 32.1807 52.2256 32.1522 52.2292C31.9139 52.2612 31.697 52.3892 31.5476 52.5812C31.4018 52.7697 31.3378 53.0151 31.3698 53.2534C31.3982 53.4917 31.5263 53.7086 31.7183 53.858C31.9068 54.0038 32.1522 54.0679 32.3905 54.0358C32.6288 54.0074 32.8457 53.8794 32.9951 53.6873C33.1409 53.4988 33.2049 53.2534 33.1765 53.0151C33.1125 52.5528 32.7106 52.2078 32.2411 52.2256ZM26.0529 52.2256C25.6118 52.2434 25.2455 52.5777 25.1886 53.0187C25.1246 53.5166 25.4731 53.9718 25.9711 54.0358C26.469 54.1034 26.9277 53.7513 26.9918 53.2534C27.0593 52.7555 26.7108 52.3003 26.2093 52.2327C26.1595 52.2256 26.1062 52.222 26.0529 52.2256ZM29.1826 52.4248C28.6811 52.4248 28.2721 52.8338 28.2721 53.3352C28.2721 53.8367 28.6811 54.2457 29.1826 54.2457C29.684 54.2457 30.093 53.8367 30.093 53.3352C30.093 52.8338 29.684 52.4248 29.1826 52.4248Z" fill="#F7C920"/>
</svg>
