<svg width="65" height="57" viewBox="0 0 65 57" fill="none" xmlns="http://www.w3.org/2000/svg">
<path d="M32.2768 0.631961C29.683 0.67034 27.0766 0.988697 24.506 1.59414C20.8296 2.46055 17.4292 3.87229 14.4066 5.74147L9.57017 1.48963L6.67169 13.3808L20.1979 10.8327L15.7993 6.96576C18.5688 5.29388 21.6647 4.02214 25.0061 3.23482C32.7334 1.41547 40.8051 2.34864 47.7335 5.86589C59.6153 11.8964 65.008 24.0535 61.7598 35.2057C61.9607 35.2372 63.6072 35.7233 63.6072 35.7233C64.2931 33.4105 64.6337 31.0577 64.6337 28.7177C64.6337 19.0229 58.9168 9.58069 48.6996 4.39442C43.6289 1.82098 37.9832 0.547526 32.2768 0.631961ZM32.758 4.88712C32.5018 4.88712 32.256 4.97661 32.0748 5.13589C31.8936 5.29518 31.7918 5.51122 31.7918 5.73649C31.7918 5.96176 31.8936 6.1778 32.0748 6.33709C32.256 6.49638 32.5018 6.58586 32.758 6.58586C33.0142 6.58586 33.26 6.49638 33.4412 6.33709C33.6224 6.1778 33.7242 5.96176 33.7242 5.73649C33.7242 5.51122 33.6224 5.29518 33.4412 5.13589C33.26 4.97661 33.0142 4.88712 32.758 4.88712ZM27.6668 5.32839C27.4106 5.32839 27.1648 5.41788 26.9836 5.57717C26.8024 5.73646 26.7006 5.9525 26.7006 6.17777C26.7006 6.40303 26.8024 6.61908 26.9836 6.77836C27.1648 6.93765 27.4106 7.02714 27.6668 7.02714C27.923 7.02714 28.1688 6.93765 28.35 6.77836C28.5312 6.61908 28.633 6.40303 28.633 6.17777C28.633 5.9525 28.5312 5.73646 28.35 5.57717C28.1688 5.41788 27.923 5.32839 27.6668 5.32839ZM37.8454 5.32839C37.5892 5.32839 37.3434 5.41788 37.1623 5.57717C36.9811 5.73646 36.8793 5.9525 36.8793 6.17777C36.8793 6.40303 36.9811 6.61908 37.1623 6.77836C37.3434 6.93765 37.5892 7.02714 37.8454 7.02714C38.1017 7.02714 38.3474 6.93765 38.5286 6.77836C38.7098 6.61908 38.8116 6.40303 38.8116 6.17777C38.8116 5.9525 38.7098 5.73646 38.5286 5.57717C38.3474 5.41788 38.1017 5.32839 37.8454 5.32839ZM22.7737 6.63231C22.5175 6.63231 22.2717 6.7218 22.0905 6.88109C21.9094 7.04038 21.8076 7.25642 21.8076 7.48169C21.8076 7.70695 21.9094 7.923 22.0905 8.08228C22.2717 8.24157 22.5175 8.33106 22.7737 8.33106C23.03 8.33106 23.2757 8.24157 23.4569 8.08228C23.6381 7.923 23.7399 7.70695 23.7399 7.48169C23.7399 7.25642 23.6381 7.04038 23.4569 6.88109C23.2757 6.7218 23.03 6.63231 22.7737 6.63231ZM42.7385 6.63231C42.4823 6.63231 42.2365 6.7218 42.0553 6.88109C41.8741 7.04038 41.7723 7.25642 41.7723 7.48169C41.7723 7.70695 41.8741 7.923 42.0553 8.08228C42.2365 8.24157 42.4823 8.33106 42.7385 8.33106C42.9947 8.33106 43.2405 8.24157 43.4217 8.08228C43.6029 7.923 43.7047 7.70695 43.7047 7.48169C43.7047 7.25642 43.6029 7.04038 43.4217 6.88109C43.2405 6.7218 42.9947 6.63231 42.7385 6.63231ZM47.2485 8.75243C46.9923 8.75243 46.7465 8.84191 46.5653 9.0012C46.3841 9.16049 46.2823 9.37653 46.2823 9.6018C46.2823 9.82707 46.3841 10.0431 46.5653 10.2024C46.7465 10.3617 46.9923 10.4512 47.2485 10.4512C47.5047 10.4512 47.7505 10.3617 47.9317 10.2024C48.1129 10.0431 48.2147 9.82707 48.2147 9.6018C48.2147 9.37653 48.1129 9.16049 47.9317 9.0012C47.7505 8.84191 47.5047 8.75243 47.2485 8.75243ZM51.2037 11.6041C50.9475 11.6041 50.7017 11.6936 50.5205 11.8529C50.3394 12.0122 50.2376 12.2282 50.2376 12.4535C50.2376 12.6788 50.3394 12.8948 50.5205 13.0541C50.7017 13.2134 50.9475 13.3029 51.2037 13.3029C51.46 13.3029 51.7057 13.2134 51.8869 13.0541C52.0681 12.8948 52.1699 12.6788 52.1699 12.4535C52.1699 12.2282 52.0681 12.0122 51.8869 11.8529C51.7057 11.6936 51.46 11.6041 51.2037 11.6041ZM30.3218 14.2302L28.9424 17.2611C26.8449 17.7962 24.9298 18.7662 23.3549 20.0929L19.6865 19.6284L17.2919 23.2714L19.5846 25.8344C19.3209 26.7747 19.1884 27.7259 19.1884 28.6696C19.1884 29.6132 19.3209 30.5644 19.5846 31.5047L17.2919 34.0677L19.6865 37.7107L23.3568 37.2462C24.9317 38.5729 26.8449 39.5438 28.9424 40.078L30.32 43.1089H35.1055L36.4849 40.078C38.5824 39.5438 40.4957 38.5746 42.0705 37.2479L45.7408 37.7124L48.1354 34.0677L45.8427 31.5063C46.1064 30.5652 46.2408 29.6132 46.2408 28.6696C46.2408 27.7259 46.1064 26.7747 45.8427 25.8344L48.1354 23.2714L45.7408 19.6284L42.0705 20.0929C40.4957 18.7662 38.5824 17.7953 36.4849 17.2611L35.1074 14.2302H30.3218ZM54.4456 15.0796C54.1894 15.0796 53.9436 15.1691 53.7625 15.3284C53.5813 15.4877 53.4795 15.7037 53.4795 15.929C53.4795 16.1542 53.5813 16.3703 53.7625 16.5296C53.9436 16.6888 54.1894 16.7783 54.4456 16.7783C54.7019 16.7783 54.9476 16.6888 55.1288 16.5296C55.31 16.3703 55.4118 16.1542 55.4118 15.929C55.4118 15.7037 55.31 15.4877 55.1288 15.3284C54.9476 15.1691 54.7019 15.0796 54.4456 15.0796ZM31.6296 15.929H33.7996L35.0545 18.6894L35.5338 18.7939C37.6333 19.2551 39.535 20.221 41.0364 21.5843L41.3798 21.8961L44.7218 21.4731L45.8068 23.1254L43.7198 25.4579L43.8537 25.8759C44.1552 26.8017 44.3085 27.7412 44.3085 28.6696C44.3085 29.5979 44.1552 30.5374 43.8537 31.4632L43.7198 31.8812L45.8068 34.2137L44.7218 35.866L41.3798 35.443L41.0364 35.7548C39.534 37.1181 37.6333 38.084 35.5338 38.5452L35.0545 38.6497L33.7996 41.4101H31.6296L30.3728 38.6497L29.8954 38.5452C27.7959 38.084 25.8923 37.1181 24.3909 35.7548L24.0475 35.443L20.7055 35.866L19.6205 34.2137L21.7076 31.8812L21.5736 31.4632C21.2721 30.5374 21.1207 29.5979 21.1207 28.6696C21.1207 27.7412 21.2721 26.8017 21.5736 25.8759L21.7076 25.4579L19.6205 23.1254L20.7055 21.4731L24.0475 21.8961L24.3909 21.5843C25.8933 20.221 27.7959 19.2551 29.8954 18.7939L30.3728 18.6894L31.6296 15.929ZM56.8554 19.0444C56.5991 19.0444 56.3534 19.1339 56.1722 19.2932C55.991 19.4525 55.8892 19.6685 55.8892 19.8938C55.8892 20.1191 55.991 20.3351 56.1722 20.4944C56.3534 20.6537 56.5991 20.7432 56.8554 20.7432C57.1116 20.7432 57.3574 20.6537 57.5386 20.4944C57.7197 20.3351 57.8215 20.1191 57.8215 19.8938C57.8215 19.6685 57.7197 19.4525 57.5386 19.2932C57.3574 19.1339 57.1116 19.0444 56.8554 19.0444ZM1.83523 21.7949C1.18791 24.0458 0.867188 26.3344 0.867188 28.6098C0.867188 38.3046 6.58413 47.7451 16.8013 52.9314C24.1769 56.6746 32.769 57.6691 40.9949 55.7317C44.8254 54.829 48.358 53.3367 51.4736 51.3488L55.9477 55.2821L58.8462 43.3909L45.32 45.939L50.0904 50.1328C47.2251 51.9216 43.9909 53.2672 40.4948 54.091C32.7675 55.9104 24.6958 54.9772 17.7674 51.4599C5.90879 45.4404 0.514615 33.3209 3.72226 22.1865C3.08557 22.0879 2.45744 21.9546 1.83523 21.7949ZM32.7146 21.8746C28.4529 21.8746 24.9853 24.923 24.9853 28.6696C24.9853 32.4161 28.4529 35.4645 32.7146 35.4645C36.9763 35.4645 40.4439 32.4161 40.4439 28.6696C40.4439 24.923 36.9763 21.8746 32.7146 21.8746ZM7.17553 22.7787C6.91929 22.7787 6.67354 22.8682 6.49235 23.0275C6.31116 23.1868 6.20937 23.4028 6.20937 23.6281C6.20937 23.8533 6.31116 24.0694 6.49235 24.2287C6.67354 24.3879 6.91929 24.4774 7.17553 24.4774C7.43177 24.4774 7.67752 24.3879 7.85871 24.2287C8.0399 24.0694 8.14169 23.8533 8.14169 23.6281C8.14169 23.4028 8.0399 23.1868 7.85871 23.0275C7.67752 22.8682 7.43177 22.7787 7.17553 22.7787ZM58.3405 23.346C58.0842 23.346 57.8385 23.4355 57.6573 23.5948C57.4761 23.7541 57.3743 23.9701 57.3743 24.1954C57.3743 24.4207 57.4761 24.6367 57.6573 24.796C57.8385 24.9553 58.0842 25.0448 58.3405 25.0448C58.5967 25.0448 58.8425 24.9553 59.0236 24.796C59.2048 24.6367 59.3066 24.4207 59.3066 24.1954C59.3066 23.9701 59.2048 23.7541 59.0236 23.5948C58.8425 23.4355 58.5967 23.346 58.3405 23.346ZM32.7146 23.5733C35.9116 23.5733 38.5116 25.859 38.5116 28.6696C38.5116 31.4801 35.9116 33.7658 32.7146 33.7658C29.5176 33.7658 26.9176 31.4801 26.9176 28.6696C26.9176 25.859 29.5176 23.5733 32.7146 23.5733ZM6.67169 27.2545C6.41545 27.2545 6.1697 27.344 5.98851 27.5033C5.80732 27.6625 5.70553 27.8786 5.70553 28.1039C5.70553 28.3291 5.80732 28.5452 5.98851 28.7045C6.1697 28.8637 6.41545 28.9532 6.67169 28.9532C6.92793 28.9532 7.17368 28.8637 7.35487 28.7045C7.53606 28.5452 7.63785 28.3291 7.63785 28.1039C7.63785 27.8786 7.53606 27.6625 7.35487 27.5033C7.17368 27.344 6.92793 27.2545 6.67169 27.2545ZM58.8443 27.8202C58.5881 27.8202 58.3423 27.9097 58.1611 28.069C57.9799 28.2282 57.8781 28.4443 57.8781 28.6696C57.8781 28.8948 57.9799 29.1109 58.1611 29.2702C58.3423 29.4294 58.5881 29.5189 58.8443 29.5189C59.1005 29.5189 59.3463 29.4294 59.5275 29.2702C59.7087 29.1109 59.8105 28.8948 59.8105 28.6696C59.8105 28.4443 59.7087 28.2282 59.5275 28.069C59.3463 27.9097 59.1005 27.8202 58.8443 27.8202ZM7.17176 31.7286C6.91551 31.7286 6.66977 31.8181 6.48858 31.9774C6.30739 32.1367 6.2056 32.3527 6.2056 32.578C6.2056 32.8033 6.30739 33.0193 6.48858 33.1786C6.66977 33.3379 6.91551 33.4274 7.17176 33.4274C7.428 33.4274 7.67374 33.3379 7.85493 33.1786C8.03612 33.0193 8.13792 32.8033 8.13792 32.578C8.13792 32.3527 8.03612 32.1367 7.85493 31.9774C7.67374 31.8181 7.428 31.7286 7.17176 31.7286ZM58.3405 32.2943C58.0842 32.2943 57.8385 32.3838 57.6573 32.5431C57.4761 32.7024 57.3743 32.9184 57.3743 33.1437C57.3743 33.369 57.4761 33.585 57.6573 33.7443C57.8385 33.9036 58.0842 33.9931 58.3405 33.9931C58.5967 33.9931 58.8425 33.9036 59.0236 33.7443C59.2048 33.585 59.3066 33.369 59.3066 33.1437C59.3066 32.9184 59.2048 32.7024 59.0236 32.5431C58.8425 32.3838 58.5967 32.2943 58.3405 32.2943ZM8.65496 36.5959C8.39872 36.5959 8.15297 36.6854 7.97178 36.8447C7.79059 37.004 7.6888 37.22 7.6888 37.4453C7.6888 37.6706 7.79059 37.8866 7.97178 38.0459C8.15297 38.2052 8.39872 38.2947 8.65496 38.2947C8.9112 38.2947 9.15695 38.2052 9.33814 38.0459C9.51933 37.8866 9.62112 37.6706 9.62112 37.4453C9.62112 37.22 9.51933 37.004 9.33814 36.8447C9.15695 36.6854 8.9112 36.5959 8.65496 36.5959ZM11.0647 40.5608C10.8085 40.5608 10.5627 40.6503 10.3815 40.8095C10.2003 40.9688 10.0985 41.1849 10.0985 41.4101C10.0985 41.6354 10.2003 41.8515 10.3815 42.0107C10.5627 42.17 10.8085 42.2595 11.0647 42.2595C11.3209 42.2595 11.5667 42.17 11.7479 42.0107C11.9291 41.8515 12.0309 41.6354 12.0309 41.4101C12.0309 41.1849 11.9291 40.9688 11.7479 40.8095C11.5667 40.6503 11.3209 40.5608 11.0647 40.5608ZM14.3104 44.0362C14.0541 44.0362 13.8084 44.1257 13.6272 44.285C13.446 44.4443 13.3442 44.6603 13.3442 44.8856C13.3442 45.1109 13.446 45.3269 13.6272 45.4862C13.8084 45.6455 14.0541 45.735 14.3104 45.735C14.5666 45.735 14.8124 45.6455 14.9936 45.4862C15.1748 45.3269 15.2766 45.1109 15.2766 44.8856C15.2766 44.6603 15.1748 44.4443 14.9936 44.285C14.8124 44.1257 14.5666 44.0362 14.3104 44.0362ZM18.2618 46.8879C18.0056 46.8879 17.7598 46.9774 17.5787 47.1367C17.3975 47.296 17.2957 47.512 17.2957 47.7373C17.2957 47.9626 17.3975 48.1786 17.5787 48.3379C17.7598 48.4972 18.0056 48.5867 18.2618 48.5867C18.5181 48.5867 18.7638 48.4972 18.945 48.3379C19.1262 48.1786 19.228 47.9626 19.228 47.7373C19.228 47.512 19.1262 47.296 18.945 47.1367C18.7638 46.9774 18.5181 46.8879 18.2618 46.8879ZM22.7718 49.008C22.5156 49.008 22.2698 49.0975 22.0887 49.2568C21.9075 49.4161 21.8057 49.6321 21.8057 49.8574C21.8057 50.0827 21.9075 50.2987 22.0887 50.458C22.2698 50.6173 22.5156 50.7068 22.7718 50.7068C23.0281 50.7068 23.2738 50.6173 23.455 50.458C23.6362 50.2987 23.738 50.0827 23.738 49.8574C23.738 49.6321 23.6362 49.4161 23.455 49.2568C23.2738 49.0975 23.0281 49.008 22.7718 49.008ZM42.7385 49.008C42.4823 49.008 42.2365 49.0975 42.0553 49.2568C41.8741 49.4161 41.7723 49.6321 41.7723 49.8574C41.7723 50.0827 41.8741 50.2987 42.0553 50.458C42.2365 50.6173 42.4823 50.7068 42.7385 50.7068C42.9947 50.7068 43.2405 50.6173 43.4217 50.458C43.6029 50.2987 43.7047 50.0827 43.7047 49.8574C43.7047 49.6321 43.6029 49.4161 43.4217 49.2568C43.2405 49.0975 42.9947 49.008 42.7385 49.008ZM37.8454 50.312C37.5892 50.312 37.3434 50.4015 37.1623 50.5607C36.9811 50.72 36.8793 50.9361 36.8793 51.1613C36.8793 51.3866 36.9811 51.6026 37.1623 51.7619C37.3434 51.9212 37.5892 52.0107 37.8454 52.0107C38.1017 52.0107 38.3474 51.9212 38.5286 51.7619C38.7098 51.6026 38.8116 51.3866 38.8116 51.1613C38.8116 50.9361 38.7098 50.72 38.5286 50.5607C38.3474 50.4015 38.1017 50.312 37.8454 50.312ZM27.6668 50.3136C27.4106 50.3136 27.1648 50.4031 26.9836 50.5624C26.8024 50.7217 26.7006 50.9377 26.7006 51.163C26.7006 51.3883 26.8024 51.6043 26.9836 51.7636C27.1648 51.9229 27.4106 52.0124 27.6668 52.0124C27.923 52.0124 28.1688 51.9229 28.35 51.7636C28.5312 51.6043 28.633 51.3883 28.633 51.163C28.633 50.9377 28.5312 50.7217 28.35 50.5624C28.1688 50.4031 27.923 50.3136 27.6668 50.3136ZM32.758 50.7532C32.5018 50.7532 32.256 50.8427 32.0748 51.002C31.8936 51.1613 31.7918 51.3773 31.7918 51.6026C31.7918 51.8279 31.8936 52.0439 32.0748 52.2032C32.256 52.3625 32.5018 52.452 32.758 52.452C33.0142 52.452 33.26 52.3625 33.4412 52.2032C33.6224 52.0439 33.7242 51.8279 33.7242 51.6026C33.7242 51.3773 33.6224 51.1613 33.4412 51.002C33.26 50.8427 33.0142 50.7532 32.758 50.7532Z" fill="#F7C920"/>
</svg>
