<svg width="58" height="38" viewBox="0 0 58 38" fill="none" xmlns="http://www.w3.org/2000/svg">
<path d="M2.71875 0C1.17883 0 0 1.1769 0 2.71429V28.0476C0 29.585 1.17883 30.7619 2.71875 30.7619H3.625V31.6667C3.625 33.2041 4.80383 34.381 6.34375 34.381H7.25V35.2857C7.25 36.8231 8.42883 38 9.96875 38H55.2812C56.8212 38 58 36.8231 58 35.2857V9.95238C58 8.41499 56.8212 7.2381 55.2812 7.2381H54.375V6.33333C54.375 4.79594 53.1962 3.61905 51.6562 3.61905H50.75V2.71429C50.75 1.1769 49.5712 0 48.0312 0H2.71875ZM2.71875 1.80952H48.0312C48.5764 1.80952 48.9375 2.17002 48.9375 2.71429V28.0476C48.9375 28.5919 48.5764 28.9524 48.0312 28.9524H2.71875C2.17358 28.9524 1.8125 28.5919 1.8125 28.0476V2.71429C1.8125 2.17002 2.17358 1.80952 2.71875 1.80952ZM13.5938 3.61905C13.0486 3.61905 12.6875 3.97954 12.6875 4.52381V6.33333C12.6875 6.8776 13.0486 7.2381 13.5938 7.2381C14.1389 7.2381 14.5 6.8776 14.5 6.33333V4.52381C14.5 3.97954 14.1389 3.61905 13.5938 3.61905ZM18.125 3.61905C17.5798 3.61905 17.2188 3.97954 17.2188 4.52381V6.33333C17.2188 6.8776 17.5798 7.2381 18.125 7.2381C18.6702 7.2381 19.0312 6.8776 19.0312 6.33333V4.52381C19.0312 3.97954 18.6702 3.61905 18.125 3.61905ZM22.6562 3.61905C22.1111 3.61905 21.75 3.97954 21.75 4.52381V6.42169C19.0312 8.05097 17.2188 11.4014 17.2188 15.381C17.2188 19.3605 19.1233 22.7109 21.75 24.3402V26.2381C21.75 26.7824 22.1111 27.1429 22.6562 27.1429C23.2014 27.1429 23.5625 26.7824 23.5625 26.2381V25.0612C24.1077 25.2414 24.7413 25.3333 25.375 25.3333C26.0087 25.3333 26.6423 25.2414 27.1875 25.0612V26.2381C27.1875 26.7824 27.5486 27.1429 28.0938 27.1429C28.6389 27.1429 29 26.7824 29 26.2381V24.3402C31.7188 22.7109 33.5312 19.3605 33.5312 15.381C33.5312 11.4014 31.6267 8.05097 29 6.42169V4.52381C29 3.97954 28.6389 3.61905 28.0938 3.61905C27.5486 3.61905 27.1875 3.97954 27.1875 4.52381V5.70071C26.6423 5.52046 26.0087 5.42857 25.375 5.42857C24.7413 5.42857 24.1077 5.52046 23.5625 5.70071V4.52381C23.5625 3.97954 23.2014 3.61905 22.6562 3.61905ZM32.625 3.61905C32.0798 3.61905 31.7188 3.97954 31.7188 4.52381V6.33333C31.7188 6.8776 32.0798 7.2381 32.625 7.2381C33.1702 7.2381 33.5312 6.8776 33.5312 6.33333V4.52381C33.5312 3.97954 33.1702 3.61905 32.625 3.61905ZM37.1562 3.61905C36.6111 3.61905 36.25 3.97954 36.25 4.52381V6.33333C36.25 6.8776 36.6111 7.2381 37.1562 7.2381C37.7014 7.2381 38.0625 6.8776 38.0625 6.33333V4.52381C38.0625 3.97954 37.7014 3.61905 37.1562 3.61905ZM4.53125 4.52381C3.98608 4.52381 3.625 4.8843 3.625 5.42857C3.625 5.97284 3.98608 6.33333 4.53125 6.33333H9.0625C9.60767 6.33333 9.96875 5.97284 9.96875 5.42857C9.96875 4.8843 9.60767 4.52381 9.0625 4.52381H4.53125ZM41.6875 4.52381C41.1423 4.52381 40.7812 4.8843 40.7812 5.42857C40.7812 5.97284 41.1423 6.33333 41.6875 6.33333H46.2188C46.7639 6.33333 47.125 5.97284 47.125 5.42857C47.125 4.8843 46.7639 4.52381 46.2188 4.52381H41.6875ZM50.75 5.42857H51.6562C52.2014 5.42857 52.5625 5.78906 52.5625 6.33333V31.6667C52.5625 32.2109 52.2014 32.5714 51.6562 32.5714H6.34375C5.79858 32.5714 5.4375 32.2109 5.4375 31.6667V30.7619H48.0312C49.5712 30.7619 50.75 29.585 50.75 28.0476V5.42857ZM25.375 7.05785C28.908 7.05785 31.8073 10.7653 31.8073 15.381C31.8073 19.9967 28.908 23.7041 25.375 23.7041C21.842 23.7041 18.9427 19.9967 18.9427 15.381C18.9427 10.7653 21.842 7.05785 25.375 7.05785ZM54.375 9.04762H55.2812C55.8264 9.04762 56.1875 9.40811 56.1875 9.95238V35.2857C56.1875 35.83 55.8264 36.1905 55.2812 36.1905H9.96875C9.42358 36.1905 9.0625 35.83 9.0625 35.2857V34.381H51.6562C53.1962 34.381 54.375 33.2041 54.375 31.6667V9.04762ZM9.0625 12.6667C7.06946 12.6667 5.4375 14.2959 5.4375 16.2857C5.4375 18.2755 7.06946 19.9048 9.0625 19.9048C11.0555 19.9048 12.6875 18.2755 12.6875 16.2857C12.6875 14.2959 11.0555 12.6667 9.0625 12.6667ZM41.6875 12.6667C39.6945 12.6667 38.0625 14.2959 38.0625 16.2857C38.0625 18.2755 39.6945 19.9048 41.6875 19.9048C43.6805 19.9048 45.3125 18.2755 45.3125 16.2857C45.3125 14.2959 43.6805 12.6667 41.6875 12.6667ZM9.0625 14.2959C10.1493 14.2959 11.0555 15.2007 11.0555 16.2857C11.0555 17.3707 10.1493 18.2755 9.0625 18.2755C7.97571 18.2755 7.06946 17.3707 7.06946 16.2857C7.06946 15.2007 7.97571 14.2959 9.0625 14.2959ZM41.6875 14.2959C42.7743 14.2959 43.6805 15.2007 43.6805 16.2857C43.6805 17.3707 42.7743 18.2755 41.6875 18.2755C40.6007 18.2755 39.6945 17.3707 39.6945 16.2857C39.6945 15.2007 40.6007 14.2959 41.6875 14.2959ZM13.5938 23.5238C13.0486 23.5238 12.6875 23.8843 12.6875 24.4286V26.2381C12.6875 26.7824 13.0486 27.1429 13.5938 27.1429C14.1389 27.1429 14.5 26.7824 14.5 26.2381V24.4286C14.5 23.8843 14.1389 23.5238 13.5938 23.5238ZM18.125 23.5238C17.5798 23.5238 17.2188 23.8843 17.2188 24.4286V26.2381C17.2188 26.7824 17.5798 27.1429 18.125 27.1429C18.6702 27.1429 19.0312 26.7824 19.0312 26.2381V24.4286C19.0312 23.8843 18.6702 23.5238 18.125 23.5238ZM32.625 23.5238C32.0798 23.5238 31.7188 23.8843 31.7188 24.4286V26.2381C31.7188 26.7824 32.0798 27.1429 32.625 27.1429C33.1702 27.1429 33.5312 26.7824 33.5312 26.2381V24.4286C33.5312 23.8843 33.1702 23.5238 32.625 23.5238ZM37.1562 23.5238C36.6111 23.5238 36.25 23.8843 36.25 24.4286V26.2381C36.25 26.7824 36.6111 27.1429 37.1562 27.1429C37.7014 27.1429 38.0625 26.7824 38.0625 26.2381V24.4286C38.0625 23.8843 37.7014 23.5238 37.1562 23.5238ZM4.53125 24.4286C3.98608 24.4286 3.625 24.7891 3.625 25.3333C3.625 25.8776 3.98608 26.2381 4.53125 26.2381H9.0625C9.60767 26.2381 9.96875 25.8776 9.96875 25.3333C9.96875 24.7891 9.60767 24.4286 9.0625 24.4286H4.53125ZM41.6875 24.4286C41.1423 24.4286 40.7812 24.7891 40.7812 25.3333C40.7812 25.8776 41.1423 26.2381 41.6875 26.2381H46.2188C46.7639 26.2381 47.125 25.8776 47.125 25.3333C47.125 24.7891 46.7639 24.4286 46.2188 24.4286H41.6875Z" fill="#FFC32A"/>
</svg>
