<svg width="65" height="48" viewBox="0 0 65 48" fill="none" xmlns="http://www.w3.org/2000/svg">
<path d="M17.7487 0.0256958C15.1573 0.0256958 12.8207 1.55434 11.8578 3.8798L8.27154 12.5353C7.85733 12.3746 7.41126 12.2822 6.94749 12.2822H5.35793C3.14883 12.2822 1.25127 13.8348 0.886626 15.938L0.30957 19.286H4.5012L4.23922 19.669C2.96474 21.5293 2.28502 23.7146 2.28502 25.9477V44.6745C2.28502 46.1142 3.51347 47.3009 5.00391 47.3009H9.5354C11.0258 47.3009 12.2543 46.1142 12.2543 44.6745V42.9235H52.1314V44.6745C52.1314 46.1142 53.3598 47.3009 54.8503 47.3009H59.3818C60.8722 47.3009 62.1007 46.1142 62.1007 44.6745V25.9477C62.1007 23.7146 61.4209 21.5328 60.1465 19.669L59.8845 19.286H64.0761L63.499 15.938C63.1379 13.8348 61.2368 12.2822 59.0277 12.2822H57.4382C56.9744 12.2822 56.5319 12.378 56.1141 12.5353L52.5279 3.87638C51.5649 1.55434 49.2284 0.0256958 46.637 0.0256958H17.7487ZM17.7487 1.77663H46.637C48.4956 1.77663 50.1559 2.86412 50.8427 4.52614L55.2928 15.2609L56.2557 14.4606C56.5814 14.1905 56.9992 14.0332 57.4382 14.0332H59.0277C60.3659 14.0332 61.4917 14.9565 61.7112 16.2252L61.9378 17.535H56.5142L57.4417 18.8927L58.6348 20.6368C59.711 22.2133 60.2881 24.0566 60.2881 25.9477V44.6745C60.2881 45.1704 59.8951 45.5499 59.3818 45.5499H54.8503C54.3369 45.5499 53.944 45.1704 53.944 44.6745V41.1726H10.4417V44.6745C10.4417 45.1704 10.0487 45.5499 9.5354 45.5499H5.00391C4.49058 45.5499 4.09761 45.1704 4.09761 44.6745V25.9477C4.09761 24.0566 4.67113 22.2099 5.7509 20.6368L7.87503 17.535H2.44787L2.67444 16.2252C2.89393 14.9565 4.01973 14.0332 5.35793 14.0332H6.94749C7.39002 14.0332 7.80423 14.1905 8.13347 14.4606L9.09287 15.2643L13.5429 4.52614C14.2297 2.86412 15.8901 1.77663 17.7487 1.77663ZM10.4417 17.535C9.94252 17.535 9.5354 17.9283 9.5354 18.4105C9.5354 18.8927 9.94252 19.286 10.4417 19.286C10.9409 19.286 11.348 18.8927 11.348 18.4105C11.348 17.9283 10.9409 17.535 10.4417 17.535ZM14.0669 17.535C13.5677 17.535 13.1606 17.9283 13.1606 18.4105C13.1606 18.8927 13.5677 19.286 14.0669 19.286C14.5661 19.286 14.9732 18.8927 14.9732 18.4105C14.9732 17.9283 14.5661 17.535 14.0669 17.535ZM17.6921 17.535C17.1929 17.535 16.7858 17.9283 16.7858 18.4105C16.7858 18.8927 17.1929 19.286 17.6921 19.286C18.1912 19.286 18.5984 18.8927 18.5984 18.4105C18.5984 17.9283 18.1912 17.535 17.6921 17.535ZM21.3173 17.535C20.8181 17.535 20.411 17.9283 20.411 18.4105C20.411 18.8927 20.8181 19.286 21.3173 19.286C21.8164 19.286 22.2236 18.8927 22.2236 18.4105C22.2236 17.9283 21.8164 17.535 21.3173 17.535ZM24.9425 17.535C24.4433 17.535 24.0362 17.9283 24.0362 18.4105C24.0362 18.8927 24.4433 19.286 24.9425 19.286C25.4416 19.286 25.8488 18.8927 25.8488 18.4105C25.8488 17.9283 25.4416 17.535 24.9425 17.535ZM28.5676 17.535C28.0685 17.535 27.6613 17.9283 27.6613 18.4105C27.6613 18.8927 28.0685 19.286 28.5676 19.286C29.0668 19.286 29.4739 18.8927 29.4739 18.4105C29.4739 17.9283 29.0668 17.535 28.5676 17.535ZM32.1928 17.535C31.6937 17.535 31.2865 17.9283 31.2865 18.4105C31.2865 18.8927 31.6937 19.286 32.1928 19.286C32.692 19.286 33.0991 18.8927 33.0991 18.4105C33.0991 17.9283 32.692 17.535 32.1928 17.535ZM35.818 17.535C35.3189 17.535 34.9117 17.9283 34.9117 18.4105C34.9117 18.8927 35.3189 19.286 35.818 19.286C36.3172 19.286 36.7243 18.8927 36.7243 18.4105C36.7243 17.9283 36.3172 17.535 35.818 17.535ZM39.4432 17.535C38.944 17.535 38.5369 17.9283 38.5369 18.4105C38.5369 18.8927 38.944 19.286 39.4432 19.286C39.9424 19.286 40.3495 18.8927 40.3495 18.4105C40.3495 17.9283 39.9424 17.535 39.4432 17.535ZM43.0684 17.535C42.5692 17.535 42.1621 17.9283 42.1621 18.4105C42.1621 18.8927 42.5692 19.286 43.0684 19.286C43.5676 19.286 43.9747 18.8927 43.9747 18.4105C43.9747 17.9283 43.5676 17.535 43.0684 17.535ZM46.6936 17.535C46.1944 17.535 45.7873 17.9283 45.7873 18.4105C45.7873 18.8927 46.1944 19.286 46.6936 19.286C47.1928 19.286 47.5999 18.8927 47.5999 18.4105C47.5999 17.9283 47.1928 17.535 46.6936 17.535ZM50.3188 17.535C49.8196 17.535 49.4125 17.9283 49.4125 18.4105C49.4125 18.8927 49.8196 19.286 50.3188 19.286C50.818 19.286 51.2251 18.8927 51.2251 18.4105C51.2251 17.9283 50.818 17.535 50.3188 17.535ZM53.944 17.535C53.4448 17.535 53.0377 17.9283 53.0377 18.4105C53.0377 18.8927 53.4448 19.286 53.944 19.286C54.4431 19.286 54.8503 18.8927 54.8503 18.4105C54.8503 17.9283 54.4431 17.535 53.944 17.535ZM12.2543 21.9124C9.76197 21.9124 7.7228 23.8822 7.7228 26.2897C7.7228 28.6972 9.76197 30.667 12.2543 30.667C14.7466 30.667 16.7858 28.6972 16.7858 26.2897C16.7858 23.8822 14.7466 21.9124 12.2543 21.9124ZM52.1314 21.9124C49.6391 21.9124 47.5999 23.8822 47.5999 26.2897C47.5999 28.6972 49.6391 30.667 52.1314 30.667C54.6237 30.667 56.6629 28.6972 56.6629 26.2897C56.6629 23.8822 54.6237 21.9124 52.1314 21.9124ZM12.2543 23.6633C13.766 23.6633 14.9732 24.8294 14.9732 26.2897C14.9732 27.7499 13.766 28.9161 12.2543 28.9161C10.7426 28.9161 9.5354 27.7499 9.5354 26.2897C9.5354 24.8294 10.7426 23.6633 12.2543 23.6633ZM20.411 23.6633V25.4142H43.9747V23.6633H20.411ZM52.1314 23.6633C53.6431 23.6633 54.8503 24.8294 54.8503 26.2897C54.8503 27.7499 53.6431 28.9161 52.1314 28.9161C50.6197 28.9161 49.4125 27.7499 49.4125 26.2897C49.4125 24.8294 50.6197 23.6633 52.1314 23.6633ZM22.2236 28.0406V29.7916H42.1621V28.0406H22.2236ZM6.8165 35.9198C6.31733 35.9198 5.91021 36.3131 5.91021 36.7953C5.91021 37.2775 6.31733 37.6707 6.8165 37.6707C7.31567 37.6707 7.7228 37.2775 7.7228 36.7953C7.7228 36.3131 7.31567 35.9198 6.8165 35.9198ZM10.4417 35.9198C9.94252 35.9198 9.5354 36.3131 9.5354 36.7953C9.5354 37.2775 9.94252 37.6707 10.4417 37.6707C10.9409 37.6707 11.348 37.2775 11.348 36.7953C11.348 36.3131 10.9409 35.9198 10.4417 35.9198ZM14.0669 35.9198C13.5677 35.9198 13.1606 36.3131 13.1606 36.7953C13.1606 37.2775 13.5677 37.6707 14.0669 37.6707C14.5661 37.6707 14.9732 37.2775 14.9732 36.7953C14.9732 36.3131 14.5661 35.9198 14.0669 35.9198ZM17.6921 35.9198C17.1929 35.9198 16.7858 36.3131 16.7858 36.7953C16.7858 37.2775 17.1929 37.6707 17.6921 37.6707C18.1912 37.6707 18.5984 37.2775 18.5984 36.7953C18.5984 36.3131 18.1912 35.9198 17.6921 35.9198ZM21.3173 35.9198C20.8181 35.9198 20.411 36.3131 20.411 36.7953C20.411 37.2775 20.8181 37.6707 21.3173 37.6707C21.8164 37.6707 22.2236 37.2775 22.2236 36.7953C22.2236 36.3131 21.8164 35.9198 21.3173 35.9198ZM24.9425 35.9198C24.4433 35.9198 24.0362 36.3131 24.0362 36.7953C24.0362 37.2775 24.4433 37.6707 24.9425 37.6707C25.4416 37.6707 25.8488 37.2775 25.8488 36.7953C25.8488 36.3131 25.4416 35.9198 24.9425 35.9198ZM28.5676 35.9198C28.0685 35.9198 27.6613 36.3131 27.6613 36.7953C27.6613 37.2775 28.0685 37.6707 28.5676 37.6707C29.0668 37.6707 29.4739 37.2775 29.4739 36.7953C29.4739 36.3131 29.0668 35.9198 28.5676 35.9198ZM32.1928 35.9198C31.6937 35.9198 31.2865 36.3131 31.2865 36.7953C31.2865 37.2775 31.6937 37.6707 32.1928 37.6707C32.692 37.6707 33.0991 37.2775 33.0991 36.7953C33.0991 36.3131 32.692 35.9198 32.1928 35.9198ZM35.818 35.9198C35.3189 35.9198 34.9117 36.3131 34.9117 36.7953C34.9117 37.2775 35.3189 37.6707 35.818 37.6707C36.3172 37.6707 36.7243 37.2775 36.7243 36.7953C36.7243 36.3131 36.3172 35.9198 35.818 35.9198ZM39.4432 35.9198C38.944 35.9198 38.5369 36.3131 38.5369 36.7953C38.5369 37.2775 38.944 37.6707 39.4432 37.6707C39.9424 37.6707 40.3495 37.2775 40.3495 36.7953C40.3495 36.3131 39.9424 35.9198 39.4432 35.9198ZM43.0684 35.9198C42.5692 35.9198 42.1621 36.3131 42.1621 36.7953C42.1621 37.2775 42.5692 37.6707 43.0684 37.6707C43.5676 37.6707 43.9747 37.2775 43.9747 36.7953C43.9747 36.3131 43.5676 35.9198 43.0684 35.9198ZM46.6936 35.9198C46.1944 35.9198 45.7873 36.3131 45.7873 36.7953C45.7873 37.2775 46.1944 37.6707 46.6936 37.6707C47.1928 37.6707 47.5999 37.2775 47.5999 36.7953C47.5999 36.3131 47.1928 35.9198 46.6936 35.9198ZM50.3188 35.9198C49.8196 35.9198 49.4125 36.3131 49.4125 36.7953C49.4125 37.2775 49.8196 37.6707 50.3188 37.6707C50.818 37.6707 51.2251 37.2775 51.2251 36.7953C51.2251 36.3131 50.818 35.9198 50.3188 35.9198ZM53.944 35.9198C53.4448 35.9198 53.0377 36.3131 53.0377 36.7953C53.0377 37.2775 53.4448 37.6707 53.944 37.6707C54.4431 37.6707 54.8503 37.2775 54.8503 36.7953C54.8503 36.3131 54.4431 35.9198 53.944 35.9198ZM57.5692 35.9198C57.07 35.9198 56.6629 36.3131 56.6629 36.7953C56.6629 37.2775 57.07 37.6707 57.5692 37.6707C58.0683 37.6707 58.4755 37.2775 58.4755 36.7953C58.4755 36.3131 58.0683 35.9198 57.5692 35.9198Z" fill="#F7C920"/>
</svg>
