<svg width="36" height="40" viewBox="0 0 36 40" fill="none" xmlns="http://www.w3.org/2000/svg">
<path d="M6.40723 0.5C2.87398 0.5 0 3.30349 0 6.75049V12.251C0 15.6972 2.87398 18.5 6.40723 18.5H7.84277C11.376 18.5 14.25 15.6965 14.25 12.2495V6.74902C14.25 3.30277 11.376 0.5 7.84277 0.5H6.40723ZM25.2173 0.504395C24.6386 0.462242 24.0639 0.763543 23.7832 1.31592L6.16406 35.9595C5.78981 36.6952 6.07952 37.5971 6.81152 37.9736L9.46289 39.3359C10.1949 39.7124 11.0925 39.4206 11.4668 38.6841L29.0859 4.04053C29.4602 3.30478 29.1705 2.40287 28.4385 2.02637L25.7871 0.664063C25.6041 0.570125 25.4102 0.518445 25.2173 0.504395ZM25.1089 1.99707L27.7603 3.35938L10.1411 38.0029L7.48828 36.6406L25.1089 1.99707ZM6.40723 2H7.84277C10.548 2 12.75 4.13074 12.75 6.75049V12.251C12.75 14.87 10.548 17 7.84277 17H6.40723C3.70198 17 1.5 14.8693 1.5 12.2495V6.74902C1.5 4.13002 3.70198 2 6.40723 2ZM6.40723 5C5.35573 5 4.5 5.78524 4.5 6.75049V12.251C4.5 13.2155 5.35573 14 6.40723 14H7.84277C8.89427 14 9.75 13.2148 9.75 12.2495V6.74902C9.75 5.78452 8.89427 5 7.84277 5H6.40723ZM6.40723 6.5H7.84277C8.09102 6.5 8.25 6.64849 8.25 6.75049V12.251C8.25 12.3522 8.09102 12.5 7.84277 12.5H6.40723C6.15898 12.5 6 12.3515 6 12.2495V6.74902C6 6.64777 6.15898 6.5 6.40723 6.5ZM27 17C26.586 17 26.25 17.336 26.25 17.75V19.25C26.25 19.664 26.586 20 27 20C27.414 20 27.75 19.664 27.75 19.25V17.75C27.75 17.336 27.414 17 27 17ZM30.75 17C30.336 17 30 17.336 30 17.75V19.25C30 19.664 30.336 20 30.75 20C31.164 20 31.5 19.664 31.5 19.25V17.75C31.5 17.336 31.164 17 30.75 17ZM34.5 17C34.086 17 33.75 17.336 33.75 17.75V19.25C33.75 19.664 34.086 20 34.5 20C34.914 20 35.25 19.664 35.25 19.25V17.75C35.25 17.336 34.914 17 34.5 17ZM1.5 20C1.086 20 0.75 20.336 0.75 20.75V22.25C0.75 22.664 1.086 23 1.5 23C1.914 23 2.25 22.664 2.25 22.25V20.75C2.25 20.336 1.914 20 1.5 20ZM5.25 20C4.836 20 4.5 20.336 4.5 20.75V22.25C4.5 22.664 4.836 23 5.25 23C5.664 23 6 22.664 6 22.25V20.75C6 20.336 5.664 20 5.25 20ZM9 20C8.586 20 8.25 20.336 8.25 20.75V22.25C8.25 22.664 8.586 23 9 23C9.414 23 9.75 22.664 9.75 22.25V20.75C9.75 20.336 9.414 20 9 20ZM28.1572 21.5C24.624 21.5 21.75 24.3035 21.75 27.7505V33.251C21.75 36.6972 24.624 39.5 28.1572 39.5H29.5928C33.126 39.5 36 36.6965 36 33.2495V27.749C36 24.3028 33.126 21.5 29.5928 21.5H28.1572ZM28.1572 23H29.5928C32.298 23 34.5 25.1307 34.5 27.7505V33.251C34.5 35.87 32.298 38 29.5928 38H28.1572C25.452 38 23.25 35.8693 23.25 33.2495V27.749C23.25 25.13 25.452 23 28.1572 23ZM28.1572 26C27.1057 26 26.25 26.7852 26.25 27.7505V33.251C26.25 34.2155 27.1057 35 28.1572 35H29.5928C30.6443 35 31.5 34.2148 31.5 33.2495V27.749C31.5 26.7845 30.6443 26 29.5928 26H28.1572ZM28.1572 27.5H29.5928C29.841 27.5 30 27.6485 30 27.7505V33.251C30 33.3522 29.841 33.5 29.5928 33.5H28.1572C27.909 33.5 27.75 33.3515 27.75 33.2495V27.749C27.75 27.6478 27.909 27.5 28.1572 27.5Z" fill="#FFC32A"/>
</svg>
