<svg width="27" height="25" viewBox="0 0 27 25" fill="none" xmlns="http://www.w3.org/2000/svg">
<path d="M1.92519 0.714462C1.78358 0.71246 1.64298 0.738623 1.51156 0.791431C1.38015 0.844239 1.26054 0.922639 1.15968 1.02207C1.05883 1.12151 0.978749 1.24 0.924088 1.37065C0.869426 1.50131 0.841278 1.64153 0.841278 1.78315C0.841278 1.92478 0.869426 2.065 0.924088 2.19565C0.978749 2.32631 1.05883 2.4448 1.15968 2.54423C1.26054 2.64367 1.38015 2.72207 1.51156 2.77488C1.64298 2.82769 1.78358 2.85385 1.92519 2.85185H2.78098L10.4747 12.4701H16.8869L24.5806 2.85185H25.4364C25.578 2.85385 25.7186 2.82769 25.85 2.77488C25.9815 2.72207 26.1011 2.64367 26.2019 2.54423C26.3028 2.4448 26.3829 2.32631 26.4375 2.19565C26.4922 2.065 26.5203 1.92478 26.5203 1.78315C26.5203 1.64153 26.4922 1.50131 26.4375 1.37065C26.3829 1.24 26.3028 1.12151 26.2019 1.02207C26.1011 0.922639 25.9815 0.844239 25.85 0.791431C25.7186 0.738623 25.578 0.71246 25.4364 0.714462H1.92519ZM10.4747 14.6075V24.2257L16.8869 22.0883V14.6075H10.4747Z" fill="white"/>
</svg>
