<svg width="59" height="59" viewBox="0 0 59 59" fill="none" xmlns="http://www.w3.org/2000/svg">
<path d="M33.9301 0.322662L23.3283 6.70715L33.9301 13.0916V7.82319C37.1669 8.3003 40.3151 9.30579 43.2387 10.8362C49.5629 14.1489 54.0844 19.4886 55.9664 25.8746C59.8515 39.0554 51.1512 52.6348 36.5697 56.1495C29.5067 57.851 22.1334 56.9644 15.8075 53.6524C9.48341 50.3397 4.96365 45.0001 3.08159 38.614C0.473909 29.7691 3.53314 20.7423 10.2351 14.7002C10.4319 14.5231 10.6432 14.3567 10.8472 14.1843L9.59198 13.0464C2.04258 19.4732 -1.47925 29.3506 1.37296 39.0255C3.37684 45.8226 8.19021 51.5076 14.923 55.0335C21.6568 58.5601 29.5064 59.5042 37.0249 57.6926C42.1299 56.4628 46.5577 54.0732 50.0543 50.92C57.1888 44.4877 60.447 34.8794 57.6716 25.4631C55.6677 18.666 50.8561 12.9794 44.1232 9.4536C40.9258 7.77975 37.4753 6.69996 33.9301 6.20992V0.322662ZM38.6422 11.5392C38.408 11.5392 38.1835 11.6232 38.018 11.7729C37.8524 11.9226 37.7594 12.1256 37.7594 12.3372C37.7594 12.5489 37.8524 12.7519 38.018 12.9015C38.1835 13.0512 38.408 13.1353 38.6422 13.1353C38.8763 13.1353 39.1008 13.0512 39.2664 12.9015C39.4319 12.7519 39.5249 12.5489 39.5249 12.3372C39.5249 12.1256 39.4319 11.9226 39.2664 11.7729C39.1008 11.6232 38.8763 11.5392 38.6422 11.5392ZM42.7629 13.5312C42.5288 13.5312 42.3042 13.6153 42.1387 13.7649C41.9731 13.9146 41.8801 14.1176 41.8801 14.3293C41.8801 14.5409 41.9731 14.7439 42.1387 14.8936C42.3042 15.0432 42.5288 15.1273 42.7629 15.1273C42.997 15.1273 43.2215 15.0432 43.3871 14.8936C43.5526 14.7439 43.6456 14.5409 43.6456 14.3293C43.6456 14.1176 43.5526 13.9146 43.3871 13.7649C43.2215 13.6153 42.997 13.5312 42.7629 13.5312ZM12.6679 16.2106C12.4337 16.2106 12.2092 16.2947 12.0437 16.4444C11.8781 16.594 11.7851 16.797 11.7851 17.0087C11.7851 17.2203 11.8781 17.4233 12.0437 17.573C12.2092 17.7227 12.4337 17.8067 12.6679 17.8067C12.902 17.8067 13.1265 17.7227 13.2921 17.573C13.4576 17.4233 13.5506 17.2203 13.5506 17.0087C13.5506 16.797 13.4576 16.594 13.2921 16.4444C13.1265 16.2947 12.902 16.2106 12.6679 16.2106ZM46.3767 16.2106C46.1426 16.2106 45.918 16.2947 45.7525 16.4444C45.5869 16.594 45.4939 16.797 45.4939 17.0087C45.4939 17.2203 45.5869 17.4233 45.7525 17.573C45.918 17.7227 46.1426 17.8067 46.3767 17.8067C46.6108 17.8067 46.8354 17.7227 47.0009 17.573C47.1665 17.4233 47.2595 17.2203 47.2595 17.0087C47.2595 16.797 47.1665 16.594 47.0009 16.4444C46.8354 16.2947 46.6108 16.2106 46.3767 16.2106ZM9.70577 19.4761C9.47165 19.4761 9.24712 19.5602 9.08157 19.7099C8.91602 19.8595 8.82301 20.0625 8.82301 20.2742C8.82301 20.4858 8.91602 20.6888 9.08157 20.8385C9.24712 20.9882 9.47165 21.0722 9.70577 21.0722C9.9399 21.0722 10.1644 20.9882 10.33 20.8385C10.4955 20.6888 10.5885 20.4858 10.5885 20.2742C10.5885 20.0625 10.4955 19.8595 10.33 19.7099C10.1644 19.5602 9.9399 19.4761 9.70577 19.4761ZM49.3388 19.4761C49.1047 19.4761 48.8801 19.5602 48.7146 19.7099C48.549 19.8595 48.456 20.0625 48.456 20.2742C48.456 20.4858 48.549 20.6888 48.7146 20.8385C48.8801 20.9882 49.1047 21.0722 49.3388 21.0722C49.5729 21.0722 49.7974 20.9882 49.963 20.8385C50.1285 20.6888 50.2215 20.4858 50.2215 20.2742C50.2215 20.0625 50.1285 19.8595 49.963 19.7099C49.7974 19.5602 49.5729 19.4761 49.3388 19.4761ZM7.50404 23.2014C7.26991 23.2014 7.04538 23.2855 6.87983 23.4352C6.71428 23.5849 6.62127 23.7878 6.62127 23.9995C6.62127 24.2112 6.71428 24.4142 6.87983 24.5638C7.04538 24.7135 7.26991 24.7976 7.50404 24.7976C7.73816 24.7976 7.9627 24.7135 8.12825 24.5638C8.2938 24.4142 8.3868 24.2112 8.3868 23.9995C8.3868 23.7878 8.2938 23.5849 8.12825 23.4352C7.9627 23.2855 7.73816 23.2014 7.50404 23.2014ZM51.5405 23.2014C51.3064 23.2014 51.0819 23.2855 50.9163 23.4352C50.7508 23.5849 50.6578 23.7878 50.6578 23.9995C50.6578 24.2112 50.7508 24.4142 50.9163 24.5638C51.0819 24.7135 51.3064 24.7976 51.5405 24.7976C51.7747 24.7976 51.9992 24.7135 52.1647 24.5638C52.3303 24.4142 52.4233 24.2112 52.4233 23.9995C52.4233 23.7878 52.3303 23.5849 52.1647 23.4352C51.9992 23.2855 51.7747 23.2014 51.5405 23.2014ZM36.3077 25.0625C32.8419 25.0625 30.7835 27.6623 30.7835 32.1235C30.7835 36.6126 32.8208 39.2133 36.3077 39.2125C39.7831 39.2125 41.8112 36.6217 41.8112 32.1422C41.8112 27.6723 39.7522 25.0625 36.3077 25.0625ZM21.5731 25.0641C18.5832 25.0641 16.637 26.5679 16.4817 29.0092H18.6851C18.8096 27.6812 19.8764 26.8675 21.5007 26.8675C23.125 26.8675 24.1903 27.6908 24.1903 28.9437C24.1903 30.215 23.0831 31.0948 21.48 31.0948H19.6696V32.8249H21.5524C23.5077 32.8249 24.7179 33.6948 24.7179 35.0882C24.7179 36.4162 23.4347 37.3608 21.6145 37.3608C19.8039 37.3608 18.5627 36.5287 18.4179 35.2191H16.1937C16.3288 37.6324 18.4798 39.2125 21.6145 39.2125C24.728 39.2125 27.0869 37.4916 27.0869 35.2004C27.0869 33.396 25.8459 32.1348 23.8076 31.9193V31.7603C25.4522 31.4235 26.4766 30.2264 26.4766 28.6367C26.4766 26.6072 24.3459 25.0641 21.5731 25.0641ZM36.3077 26.8956C38.3151 26.8956 39.4732 28.7381 39.4732 32.1235C39.4732 35.5464 38.3354 37.3795 36.3077 37.3795C34.28 37.3795 33.1214 35.5368 33.1214 32.1235C33.1214 28.7469 34.3003 26.8956 36.3077 26.8956ZM6.14713 27.2432C5.91301 27.2432 5.68847 27.3273 5.52292 27.4769C5.35737 27.6266 5.26437 27.8296 5.26437 28.0412C5.26437 28.2529 5.35737 28.4559 5.52292 28.6056C5.68847 28.7552 5.91301 28.8393 6.14713 28.8393C6.38125 28.8393 6.60579 28.7552 6.77134 28.6056C6.93689 28.4559 7.0299 28.2529 7.0299 28.0412C7.0299 27.8296 6.93689 27.6266 6.77134 27.4769C6.60579 27.3273 6.38125 27.2432 6.14713 27.2432ZM52.8974 27.2432C52.6633 27.2432 52.4388 27.3273 52.2732 27.4769C52.1077 27.6266 52.0147 27.8296 52.0147 28.0412C52.0147 28.2529 52.1077 28.4559 52.2732 28.6056C52.4388 28.7552 52.6633 28.8393 52.8974 28.8393C53.1316 28.8393 53.3561 28.7552 53.5216 28.6056C53.6872 28.4559 53.7802 28.2529 53.7802 28.0412C53.7802 27.8296 53.6872 27.6266 53.5216 27.4769C53.3561 27.3273 53.1316 27.2432 52.8974 27.2432ZM5.68851 31.447C5.45438 31.447 5.22985 31.5311 5.0643 31.6808C4.89875 31.8304 4.80574 32.0334 4.80574 32.2451C4.80574 32.4567 4.89875 32.6597 5.0643 32.8094C5.22985 32.9591 5.45438 33.0431 5.68851 33.0431C5.92263 33.0431 6.14717 32.9591 6.31272 32.8094C6.47827 32.6597 6.57127 32.4567 6.57127 32.2451C6.57127 32.0334 6.47827 31.8304 6.31272 31.6808C6.14717 31.5311 5.92263 31.447 5.68851 31.447ZM53.3578 31.447C53.1237 31.447 52.8991 31.5311 52.7336 31.6808C52.568 31.8304 52.475 32.0334 52.475 32.2451C52.475 32.4567 52.568 32.6597 52.7336 32.8094C52.8991 32.9591 53.1237 33.0431 53.3578 33.0431C53.5919 33.0431 53.8164 32.9591 53.982 32.8094C54.1475 32.6597 54.2405 32.4567 54.2405 32.2451C54.2405 32.0334 54.1475 31.8304 53.982 31.6808C53.8164 31.5311 53.5919 31.447 53.3578 31.447ZM6.14541 35.6509C5.91128 35.6509 5.68675 35.735 5.5212 35.8846C5.35565 36.0343 5.26264 36.2373 5.26264 36.4489C5.26264 36.6606 5.35565 36.8636 5.5212 37.0132C5.68675 37.1629 5.91128 37.247 6.14541 37.247C6.37953 37.247 6.60407 37.1629 6.76962 37.0132C6.93517 36.8636 7.02817 36.6606 7.02817 36.4489C7.02817 36.2373 6.93517 36.0343 6.76962 35.8846C6.60407 35.735 6.37953 35.6509 6.14541 35.6509ZM52.8974 35.6509C52.6633 35.6509 52.4388 35.735 52.2732 35.8846C52.1077 36.0343 52.0147 36.2373 52.0147 36.4489C52.0147 36.6606 52.1077 36.8636 52.2732 37.0132C52.4388 37.1629 52.6633 37.247 52.8974 37.247C53.1316 37.247 53.3561 37.1629 53.5216 37.0132C53.6872 36.8636 53.7802 36.6606 53.7802 36.4489C53.7802 36.2373 53.6872 36.0343 53.5216 35.8846C53.3561 35.735 53.1316 35.6509 52.8974 35.6509ZM7.50059 39.6926C7.26646 39.6926 7.04193 39.7767 6.87638 39.9264C6.71083 40.076 6.61782 40.279 6.61782 40.4907C6.61782 40.7023 6.71083 40.9053 6.87638 41.055C7.04193 41.2047 7.26646 41.2887 7.50059 41.2887C7.73471 41.2887 7.95925 41.2047 8.1248 41.055C8.29035 40.9053 8.38335 40.7023 8.38335 40.4907C8.38335 40.279 8.29035 40.076 8.1248 39.9264C7.95925 39.7767 7.73471 39.6926 7.50059 39.6926ZM51.5422 39.6926C51.3081 39.6926 51.0836 39.7767 50.918 39.9264C50.7525 40.076 50.6595 40.279 50.6595 40.4907C50.6595 40.7023 50.7525 40.9053 50.918 41.055C51.0836 41.2047 51.3081 41.2887 51.5422 41.2887C51.7764 41.2887 52.0009 41.2047 52.1665 41.055C52.332 40.9053 52.425 40.7023 52.425 40.4907C52.425 40.279 52.332 40.076 52.1665 39.9264C52.0009 39.7767 51.7764 39.6926 51.5422 39.6926ZM9.70233 43.4179C9.4682 43.4179 9.24367 43.502 9.07812 43.6517C8.91257 43.8013 8.81956 44.0043 8.81956 44.216C8.81956 44.4277 8.91257 44.6306 9.07812 44.7803C9.24367 44.93 9.4682 45.0141 9.70233 45.0141C9.93645 45.0141 10.161 44.93 10.3265 44.7803C10.4921 44.6306 10.5851 44.4277 10.5851 44.216C10.5851 44.0043 10.4921 43.8013 10.3265 43.6517C10.161 43.502 9.93645 43.4179 9.70233 43.4179ZM49.3388 43.4195C49.1047 43.4195 48.8801 43.5036 48.7146 43.6532C48.549 43.8029 48.456 44.0059 48.456 44.2176C48.456 44.4292 48.549 44.6322 48.7146 44.7819C48.8801 44.9315 49.1047 45.0156 49.3388 45.0156C49.5729 45.0156 49.7974 44.9315 49.963 44.7819C50.1285 44.6322 50.2215 44.4292 50.2215 44.2176C50.2215 44.0059 50.1285 43.8029 49.963 43.6532C49.7974 43.5036 49.5729 43.4195 49.3388 43.4195ZM12.6679 46.6834C12.4337 46.6834 12.2092 46.7675 12.0437 46.9172C11.8781 47.0669 11.7851 47.2698 11.7851 47.4815C11.7851 47.6932 11.8781 47.8961 12.0437 48.0458C12.2092 48.1955 12.4337 48.2796 12.6679 48.2796C12.902 48.2796 13.1265 48.1955 13.2921 48.0458C13.4576 47.8961 13.5506 47.6932 13.5506 47.4815C13.5506 47.2698 13.4576 47.0669 13.2921 46.9172C13.1265 46.7675 12.902 46.6834 12.6679 46.6834ZM46.3767 46.6834C46.1426 46.6834 45.918 46.7675 45.7525 46.9172C45.5869 47.0669 45.4939 47.2698 45.4939 47.4815C45.4939 47.6932 45.5869 47.8961 45.7525 48.0458C45.918 48.1955 46.1426 48.2796 46.3767 48.2796C46.6108 48.2796 46.8354 48.1955 47.0009 48.0458C47.1665 47.8961 47.2595 47.6932 47.2595 47.4815C47.2595 47.2698 47.1665 47.0669 47.0009 46.9172C46.8354 46.7675 46.6108 46.6834 46.3767 46.6834ZM16.2782 49.3629C16.0441 49.3629 15.8196 49.4469 15.654 49.5966C15.4885 49.7463 15.3955 49.9493 15.3955 50.1609C15.3955 50.3726 15.4885 50.5756 15.654 50.7252C15.8196 50.8749 16.0441 50.959 16.2782 50.959C16.5124 50.959 16.7369 50.8749 16.9024 50.7252C17.068 50.5756 17.161 50.3726 17.161 50.1609C17.161 49.9493 17.068 49.7463 16.9024 49.5966C16.7369 49.4469 16.5124 49.3629 16.2782 49.3629ZM42.7612 49.3644C42.527 49.3644 42.3025 49.4485 42.1369 49.5982C41.9714 49.7478 41.8784 49.9508 41.8784 50.1625C41.8784 50.3741 41.9714 50.5771 42.1369 50.7268C42.3025 50.8765 42.527 50.9605 42.7612 50.9605C42.9953 50.9605 43.2198 50.8765 43.3854 50.7268C43.5509 50.5771 43.6439 50.3741 43.6439 50.1625C43.6439 49.9508 43.5509 49.7478 43.3854 49.5982C43.2198 49.4485 42.9953 49.3644 42.7612 49.3644ZM20.3989 51.3549C20.1648 51.3549 19.9403 51.439 19.7747 51.5886C19.6092 51.7383 19.5162 51.9413 19.5162 52.153C19.5162 52.3646 19.6092 52.5676 19.7747 52.7173C19.9403 52.8669 20.1648 52.951 20.3989 52.951C20.6331 52.951 20.8576 52.8669 21.0232 52.7173C21.1887 52.5676 21.2817 52.3646 21.2817 52.153C21.2817 51.9413 21.1887 51.7383 21.0232 51.5886C20.8576 51.439 20.6331 51.3549 20.3989 51.3549ZM38.6422 51.3549C38.408 51.3549 38.1835 51.439 38.018 51.5886C37.8524 51.7383 37.7594 51.9413 37.7594 52.153C37.7594 52.3646 37.8524 52.5676 38.018 52.7173C38.1835 52.8669 38.408 52.951 38.6422 52.951C38.8763 52.951 39.1008 52.8669 39.2664 52.7173C39.4319 52.5676 39.5249 52.3646 39.5249 52.153C39.5249 51.9413 39.4319 51.7383 39.2664 51.5886C39.1008 51.439 38.8763 51.3549 38.6422 51.3549ZM34.1714 52.58C33.9373 52.58 33.7128 52.6641 33.5472 52.8138C33.3817 52.9635 33.2887 53.1665 33.2887 53.3781C33.2887 53.5898 33.3817 53.7928 33.5472 53.9424C33.7128 54.0921 33.9373 54.1762 34.1714 54.1762C34.4056 54.1762 34.6301 54.0921 34.7957 53.9424C34.9612 53.7928 35.0542 53.5898 35.0542 53.3781C35.0542 53.1665 34.9612 52.9635 34.7957 52.8138C34.6301 52.6641 34.4056 52.58 34.1714 52.58ZM24.8714 52.5816C24.6373 52.5816 24.4127 52.6657 24.2472 52.8154C24.0816 52.965 23.9886 53.168 23.9886 53.3797C23.9886 53.5913 24.0816 53.7943 24.2472 53.944C24.4127 54.0936 24.6373 54.1777 24.8714 54.1777C25.1055 54.1777 25.33 54.0936 25.4956 53.944C25.6611 53.7943 25.7542 53.5913 25.7542 53.3797C25.7542 53.168 25.6611 52.965 25.4956 52.8154C25.33 52.6657 25.1055 52.5816 24.8714 52.5816ZM29.5231 52.9947C29.289 52.9947 29.0645 53.0787 28.8989 53.2284C28.7334 53.3781 28.6404 53.5811 28.6404 53.7927C28.6404 54.0044 28.7334 54.2074 28.8989 54.357C29.0645 54.5067 29.289 54.5908 29.5231 54.5908C29.7573 54.5908 29.9818 54.5067 30.1474 54.357C30.3129 54.2074 30.4059 54.0044 30.4059 53.7927C30.4059 53.5811 30.3129 53.3781 30.1474 53.2284C29.9818 53.0787 29.7573 52.9947 29.5231 52.9947Z" fill="#F7C920"/>
</svg>
