<svg width="55" height="49" viewBox="0 0 55 49" fill="none" xmlns="http://www.w3.org/2000/svg">
<path d="M0.0898438 0.819794V1.57665V32.6076V34.8781V35.635V38.6624H0.860164C23.1238 38.6624 46.7995 47.6929 46.7995 47.6929L47.8497 48.095V40.9256C49.5973 41.3522 50.7128 41.6588 50.7128 41.6588L51.7013 41.9456V32.6076H54.0122V0.819794H0.0898438ZM1.63048 2.3335H52.4716V31.0939H1.63048V2.3335ZM10.104 3.8472C9.8997 3.8472 9.70377 3.92694 9.5593 4.06888C9.41484 4.21082 9.33368 4.40333 9.33368 4.60406C9.33368 4.80479 9.41484 4.99729 9.5593 5.13923C9.70377 5.28117 9.8997 5.36091 10.104 5.36091C10.3083 5.36091 10.5042 5.28117 10.6487 5.13923C10.7932 4.99729 10.8743 4.80479 10.8743 4.60406C10.8743 4.40333 10.7932 4.21082 10.6487 4.06888C10.5042 3.92694 10.3083 3.8472 10.104 3.8472ZM13.1853 3.8472C12.981 3.8472 12.785 3.92694 12.6406 4.06888C12.4961 4.21082 12.415 4.40333 12.415 4.60406C12.415 4.80479 12.4961 4.99729 12.6406 5.13923C12.785 5.28117 12.981 5.36091 13.1853 5.36091C13.3896 5.36091 13.5855 5.28117 13.73 5.13923C13.8744 4.99729 13.9556 4.80479 13.9556 4.60406C13.9556 4.40333 13.8744 4.21082 13.73 4.06888C13.5855 3.92694 13.3896 3.8472 13.1853 3.8472ZM16.2666 3.8472C16.0623 3.8472 15.8663 3.92694 15.7219 4.06888C15.5774 4.21082 15.4962 4.40333 15.4962 4.60406C15.4962 4.80479 15.5774 4.99729 15.7219 5.13923C15.8663 5.28117 16.0623 5.36091 16.2666 5.36091C16.4709 5.36091 16.6668 5.28117 16.8113 5.13923C16.9557 4.99729 17.0369 4.80479 17.0369 4.60406C17.0369 4.40333 16.9557 4.21082 16.8113 4.06888C16.6668 3.92694 16.4709 3.8472 16.2666 3.8472ZM19.3478 3.8472C19.1435 3.8472 18.9476 3.92694 18.8031 4.06888C18.6587 4.21082 18.5775 4.40333 18.5775 4.60406C18.5775 4.80479 18.6587 4.99729 18.8031 5.13923C18.9476 5.28117 19.1435 5.36091 19.3478 5.36091C19.5521 5.36091 19.7481 5.28117 19.8925 5.13923C20.037 4.99729 20.1182 4.80479 20.1182 4.60406C20.1182 4.40333 20.037 4.21082 19.8925 4.06888C19.7481 3.92694 19.5521 3.8472 19.3478 3.8472ZM22.4291 3.8472C22.2248 3.8472 22.0289 3.92694 21.8844 4.06888C21.74 4.21082 21.6588 4.40333 21.6588 4.60406C21.6588 4.80479 21.74 4.99729 21.8844 5.13923C22.0289 5.28117 22.2248 5.36091 22.4291 5.36091C22.6334 5.36091 22.8294 5.28117 22.9738 5.13923C23.1183 4.99729 23.1994 4.80479 23.1994 4.60406C23.1994 4.40333 23.1183 4.21082 22.9738 4.06888C22.8294 3.92694 22.6334 3.8472 22.4291 3.8472ZM25.5104 3.8472C25.3061 3.8472 25.1102 3.92694 24.9657 4.06888C24.8212 4.21082 24.7401 4.40333 24.7401 4.60406C24.7401 4.80479 24.8212 4.99729 24.9657 5.13923C25.1102 5.28117 25.3061 5.36091 25.5104 5.36091C25.7147 5.36091 25.9106 5.28117 26.0551 5.13923C26.1996 4.99729 26.2807 4.80479 26.2807 4.60406C26.2807 4.40333 26.1996 4.21082 26.0551 4.06888C25.9106 3.92694 25.7147 3.8472 25.5104 3.8472ZM28.5917 3.8472C28.3874 3.8472 28.1914 3.92694 28.047 4.06888C27.9025 4.21082 27.8214 4.40333 27.8214 4.60406C27.8214 4.80479 27.9025 4.99729 28.047 5.13923C28.1914 5.28117 28.3874 5.36091 28.5917 5.36091C28.796 5.36091 28.9919 5.28117 29.1364 5.13923C29.2808 4.99729 29.362 4.80479 29.362 4.60406C29.362 4.40333 29.2808 4.21082 29.1364 4.06888C28.9919 3.92694 28.796 3.8472 28.5917 3.8472ZM31.673 3.8472C31.4687 3.8472 31.2727 3.92694 31.1283 4.06888C30.9838 4.21082 30.9026 4.40333 30.9026 4.60406C30.9026 4.80479 30.9838 4.99729 31.1283 5.13923C31.2727 5.28117 31.4687 5.36091 31.673 5.36091C31.8773 5.36091 32.0732 5.28117 32.2177 5.13923C32.3621 4.99729 32.4433 4.80479 32.4433 4.60406C32.4433 4.40333 32.3621 4.21082 32.2177 4.06888C32.0732 3.92694 31.8773 3.8472 31.673 3.8472ZM34.7542 3.8472C34.5499 3.8472 34.354 3.92694 34.2095 4.06888C34.0651 4.21082 33.9839 4.40333 33.9839 4.60406C33.9839 4.80479 34.0651 4.99729 34.2095 5.13923C34.354 5.28117 34.5499 5.36091 34.7542 5.36091C34.9585 5.36091 35.1545 5.28117 35.2989 5.13923C35.4434 4.99729 35.5246 4.80479 35.5246 4.60406C35.5246 4.40333 35.4434 4.21082 35.2989 4.06888C35.1545 3.92694 34.9585 3.8472 34.7542 3.8472ZM37.8355 3.8472C37.6312 3.8472 37.4353 3.92694 37.2908 4.06888C37.1464 4.21082 37.0652 4.40333 37.0652 4.60406C37.0652 4.80479 37.1464 4.99729 37.2908 5.13923C37.4353 5.28117 37.6312 5.36091 37.8355 5.36091C38.0398 5.36091 38.2358 5.28117 38.3802 5.13923C38.5247 4.99729 38.6058 4.80479 38.6058 4.60406C38.6058 4.40333 38.5247 4.21082 38.3802 4.06888C38.2358 3.92694 38.0398 3.8472 37.8355 3.8472ZM40.9168 3.8472C40.7125 3.8472 40.5166 3.92694 40.3721 4.06888C40.2276 4.21082 40.1465 4.40333 40.1465 4.60406C40.1465 4.80479 40.2276 4.99729 40.3721 5.13923C40.5166 5.28117 40.7125 5.36091 40.9168 5.36091C41.1211 5.36091 41.317 5.28117 41.4615 5.13923C41.606 4.99729 41.6871 4.80479 41.6871 4.60406C41.6871 4.40333 41.606 4.21082 41.4615 4.06888C41.317 3.92694 41.1211 3.8472 40.9168 3.8472ZM43.9981 3.8472C43.7938 3.8472 43.5978 3.92694 43.4534 4.06888C43.3089 4.21082 43.2278 4.40333 43.2278 4.60406C43.2278 4.80479 43.3089 4.99729 43.4534 5.13923C43.5978 5.28117 43.7938 5.36091 43.9981 5.36091C44.2024 5.36091 44.3983 5.28117 44.5428 5.13923C44.6872 4.99729 44.7684 4.80479 44.7684 4.60406C44.7684 4.40333 44.6872 4.21082 44.5428 4.06888C44.3983 3.92694 44.2024 3.8472 43.9981 3.8472ZM44.8226 6.87313C44.6183 6.87313 44.4223 6.95287 44.2779 7.09481C44.1334 7.23675 44.0522 7.42926 44.0522 7.62999C44.0522 7.83072 44.1334 8.02323 44.2779 8.16516C44.4223 8.3071 44.6183 8.38684 44.8226 8.38684C45.0269 8.38684 45.2228 8.3071 45.3673 8.16516C45.5117 8.02323 45.5929 7.83072 45.5929 7.62999C45.5929 7.42926 45.5117 7.23675 45.3673 7.09481C45.2228 6.95287 45.0269 6.87313 44.8226 6.87313ZM9.27801 6.87609C9.07371 6.87609 8.87778 6.95583 8.73332 7.09777C8.58885 7.2397 8.5077 7.43221 8.5077 7.63294C8.5077 7.83367 8.58885 8.02618 8.73332 8.16812C8.87778 8.31006 9.07371 8.3898 9.27801 8.3898C9.48232 8.3898 9.67825 8.31006 9.82271 8.16812C9.96718 8.02618 10.0483 7.83367 10.0483 7.63294C10.0483 7.43221 9.96718 7.2397 9.82271 7.09777C9.67825 6.95583 9.48232 6.87609 9.27801 6.87609ZM27.051 8.38832C22.3804 8.38832 18.5775 12.1247 18.5775 16.7137C18.5775 21.3027 22.3804 25.0391 27.051 25.0391C31.7217 25.0391 35.5246 21.3027 35.5246 16.7137C35.5246 12.1247 31.7217 8.38832 27.051 8.38832ZM7.02122 9.09048C6.81692 9.09048 6.62098 9.17021 6.47652 9.31215C6.33206 9.45409 6.2509 9.6466 6.2509 9.84733C6.2509 10.0481 6.33206 10.2406 6.47652 10.3825C6.62098 10.5244 6.81692 10.6042 7.02122 10.6042C7.22552 10.6042 7.42145 10.5244 7.56592 10.3825C7.71038 10.2406 7.79154 10.0481 7.79154 9.84733C7.79154 9.6466 7.71038 9.45409 7.56592 9.31215C7.42145 9.17021 7.22552 9.09048 7.02122 9.09048ZM47.0779 9.09195C46.8736 9.09195 46.6776 9.17169 46.5332 9.31363C46.3887 9.45557 46.3075 9.64808 46.3075 9.84881C46.3075 10.0495 46.3887 10.242 46.5332 10.384C46.6776 10.5259 46.8736 10.6057 47.0779 10.6057C47.2822 10.6057 47.4781 10.5259 47.6226 10.384C47.767 10.242 47.8482 10.0495 47.8482 9.84881C47.8482 9.64808 47.767 9.45557 47.6226 9.31363C47.4781 9.17169 47.2822 9.09195 47.0779 9.09195ZM3.94144 9.90202C3.73714 9.90202 3.54121 9.98176 3.39674 10.1237C3.25228 10.2656 3.17112 10.4581 3.17112 10.6589C3.17112 10.8596 3.25228 11.0521 3.39674 11.194C3.54121 11.336 3.73714 11.4157 3.94144 11.4157C4.14574 11.4157 4.34168 11.336 4.48614 11.194C4.6306 11.0521 4.71176 10.8596 4.71176 10.6589C4.71176 10.4581 4.6306 10.2656 4.48614 10.1237C4.34168 9.98176 4.14574 9.90202 3.94144 9.90202ZM27.051 9.90202C30.8891 9.90202 33.9839 12.9427 33.9839 16.7137C33.9839 20.4846 30.8891 23.5254 27.051 23.5254C23.213 23.5254 20.1182 20.4846 20.1182 16.7137C20.1182 12.9427 23.213 9.90202 27.051 9.90202ZM50.1606 9.90202C49.9563 9.90202 49.7604 9.98176 49.6159 10.1237C49.4715 10.2656 49.3903 10.4581 49.3903 10.6589C49.3903 10.8596 49.4715 11.0521 49.6159 11.194C49.7604 11.336 49.9563 11.4157 50.1606 11.4157C50.3649 11.4157 50.5609 11.336 50.7053 11.194C50.8498 11.0521 50.931 10.8596 50.931 10.6589C50.931 10.4581 50.8498 10.2656 50.7053 10.1237C50.5609 9.98176 50.3649 9.90202 50.1606 9.90202ZM3.94144 12.9294C3.73714 12.9294 3.54121 13.0092 3.39674 13.1511C3.25228 13.293 3.17112 13.4856 3.17112 13.6863C3.17112 13.887 3.25228 14.0795 3.39674 14.2215C3.54121 14.3634 3.73714 14.4431 3.94144 14.4431C4.14574 14.4431 4.34168 14.3634 4.48614 14.2215C4.6306 14.0795 4.71176 13.887 4.71176 13.6863C4.71176 13.4856 4.6306 13.293 4.48614 13.1511C4.34168 13.0092 4.14574 12.9294 3.94144 12.9294ZM50.1606 12.9294C49.9563 12.9294 49.7604 13.0092 49.6159 13.1511C49.4715 13.293 49.3903 13.4856 49.3903 13.6863C49.3903 13.887 49.4715 14.0795 49.6159 14.2215C49.7604 14.3634 49.9563 14.4431 50.1606 14.4431C50.3649 14.4431 50.5609 14.3634 50.7053 14.2215C50.8498 14.0795 50.931 13.887 50.931 13.6863C50.931 13.4856 50.8498 13.293 50.7053 13.1511C50.5609 13.0092 50.3649 12.9294 50.1606 12.9294ZM10.8743 13.6863C9.1817 13.6863 7.79304 15.0507 7.79304 16.7137C7.79304 18.3767 9.1817 19.7411 10.8743 19.7411C12.5669 19.7411 13.9556 18.3767 13.9556 16.7137C13.9556 15.0507 12.5669 13.6863 10.8743 13.6863ZM42.4574 13.6863C40.7648 13.6863 39.3762 15.0507 39.3762 16.7137C39.3762 18.3767 40.7648 19.7411 42.4574 19.7411C44.1501 19.7411 45.5387 18.3767 45.5387 16.7137C45.5387 15.0507 44.1501 13.6863 42.4574 13.6863ZM10.8743 15.2C11.7343 15.2 12.415 15.8687 12.415 16.7137C12.415 17.5587 11.7343 18.2274 10.8743 18.2274C10.0143 18.2274 9.33368 17.5587 9.33368 16.7137C9.33368 15.8687 10.0143 15.2 10.8743 15.2ZM42.4574 15.2C43.3174 15.2 43.9981 15.8687 43.9981 16.7137C43.9981 17.5587 43.3174 18.2274 42.4574 18.2274C41.5974 18.2274 40.9168 17.5587 40.9168 16.7137C40.9168 15.8687 41.5974 15.2 42.4574 15.2ZM3.94144 15.9568C3.73714 15.9568 3.54121 16.0366 3.39674 16.1785C3.25228 16.3205 3.17112 16.513 3.17112 16.7137C3.17112 16.9144 3.25228 17.1069 3.39674 17.2489C3.54121 17.3908 3.73714 17.4705 3.94144 17.4705C4.14574 17.4705 4.34168 17.3908 4.48614 17.2489C4.6306 17.1069 4.71176 16.9144 4.71176 16.7137C4.71176 16.513 4.6306 16.3205 4.48614 16.1785C4.34168 16.0366 4.14574 15.9568 3.94144 15.9568ZM50.1606 15.9568C49.9563 15.9568 49.7604 16.0366 49.6159 16.1785C49.4715 16.3205 49.3903 16.513 49.3903 16.7137C49.3903 16.9144 49.4715 17.1069 49.6159 17.2489C49.7604 17.3908 49.9563 17.4705 50.1606 17.4705C50.3649 17.4705 50.5609 17.3908 50.7053 17.2489C50.8498 17.1069 50.931 16.9144 50.931 16.7137C50.931 16.513 50.8498 16.3205 50.7053 16.1785C50.5609 16.0366 50.3649 15.9568 50.1606 15.9568ZM3.94144 18.9842C3.73714 18.9842 3.54121 19.064 3.39674 19.2059C3.25228 19.3479 3.17112 19.5404 3.17112 19.7411C3.17112 19.9418 3.25228 20.1343 3.39674 20.2763C3.54121 20.4182 3.73714 20.498 3.94144 20.498C4.14574 20.498 4.34168 20.4182 4.48614 20.2763C4.6306 20.1343 4.71176 19.9418 4.71176 19.7411C4.71176 19.5404 4.6306 19.3479 4.48614 19.2059C4.34168 19.064 4.14574 18.9842 3.94144 18.9842ZM50.1606 18.9842C49.9563 18.9842 49.7604 19.064 49.6159 19.2059C49.4715 19.3479 49.3903 19.5404 49.3903 19.7411C49.3903 19.9418 49.4715 20.1343 49.6159 20.2763C49.7604 20.4182 49.9563 20.498 50.1606 20.498C50.3649 20.498 50.5609 20.4182 50.7053 20.2763C50.8498 20.1343 50.931 19.9418 50.931 19.7411C50.931 19.5404 50.8498 19.3479 50.7053 19.2059C50.5609 19.064 50.3649 18.9842 50.1606 18.9842ZM3.94144 22.0117C3.73714 22.0117 3.54121 22.0914 3.39674 22.2333C3.25228 22.3753 3.17112 22.5678 3.17112 22.7685C3.17112 22.9692 3.25228 23.1618 3.39674 23.3037C3.54121 23.4456 3.73714 23.5254 3.94144 23.5254C4.14574 23.5254 4.34168 23.4456 4.48614 23.3037C4.6306 23.1618 4.71176 22.9692 4.71176 22.7685C4.71176 22.5678 4.6306 22.3753 4.48614 22.2333C4.34168 22.0914 4.14574 22.0117 3.94144 22.0117ZM50.1606 22.0117C49.9563 22.0117 49.7604 22.0914 49.6159 22.2333C49.4715 22.3753 49.3903 22.5678 49.3903 22.7685C49.3903 22.9692 49.4715 23.1618 49.6159 23.3037C49.7604 23.4456 49.9563 23.5254 50.1606 23.5254C50.3649 23.5254 50.5609 23.4456 50.7053 23.3037C50.8498 23.1618 50.931 22.9692 50.931 22.7685C50.931 22.5678 50.8498 22.3753 50.7053 22.2333C50.5609 22.0914 50.3649 22.0117 50.1606 22.0117ZM47.0779 22.8217C46.8736 22.8217 46.6776 22.9015 46.5332 23.0434C46.3887 23.1853 46.3075 23.3778 46.3075 23.5786C46.3075 23.7793 46.3887 23.9718 46.5332 24.1138C46.6776 24.2557 46.8736 24.3354 47.0779 24.3354C47.2822 24.3354 47.4781 24.2557 47.6226 24.1138C47.767 23.9718 47.8482 23.7793 47.8482 23.5786C47.8482 23.3778 47.767 23.1853 47.6226 23.0434C47.4781 22.9015 47.2822 22.8217 47.0779 22.8217ZM7.02122 22.8232C6.81692 22.8232 6.62098 22.9029 6.47652 23.0449C6.33206 23.1868 6.2509 23.3793 6.2509 23.5801C6.2509 23.7808 6.33206 23.9733 6.47652 24.1152C6.62098 24.2572 6.81692 24.3369 7.02122 24.3369C7.22552 24.3369 7.42145 24.2572 7.56592 24.1152C7.71038 23.9733 7.79154 23.7808 7.79154 23.5801C7.79154 23.3793 7.71038 23.1868 7.56592 23.0449C7.42145 22.9029 7.22552 22.8232 7.02122 22.8232ZM9.27651 25.0376C9.07221 25.0376 8.87627 25.1173 8.73181 25.2593C8.58735 25.4012 8.50619 25.5937 8.50619 25.7944C8.50619 25.9952 8.58735 26.1877 8.73181 26.3296C8.87627 26.4716 9.07221 26.5513 9.27651 26.5513C9.48081 26.5513 9.67674 26.4716 9.82121 26.3296C9.96567 26.1877 10.0468 25.9952 10.0468 25.7944C10.0468 25.5937 9.96567 25.4012 9.82121 25.2593C9.67674 25.1173 9.48081 25.0376 9.27651 25.0376ZM44.8226 25.0405C44.6183 25.0405 44.4223 25.1203 44.2779 25.2622C44.1334 25.4042 44.0522 25.5967 44.0522 25.7974C44.0522 25.9981 44.1334 26.1906 44.2779 26.3326C44.4223 26.4745 44.6183 26.5543 44.8226 26.5543C45.0269 26.5543 45.2228 26.4745 45.3673 26.3326C45.5117 26.1906 45.5929 25.9981 45.5929 25.7974C45.5929 25.5967 45.5117 25.4042 45.3673 25.2622C45.2228 25.1203 45.0269 25.0405 44.8226 25.0405ZM10.104 28.0665C9.8997 28.0665 9.70377 28.1462 9.5593 28.2882C9.41484 28.4301 9.33368 28.6226 9.33368 28.8233C9.33368 29.0241 9.41484 29.2166 9.5593 29.3585C9.70377 29.5004 9.8997 29.5802 10.104 29.5802C10.3083 29.5802 10.5042 29.5004 10.6487 29.3585C10.7932 29.2166 10.8743 29.0241 10.8743 28.8233C10.8743 28.6226 10.7932 28.4301 10.6487 28.2882C10.5042 28.1462 10.3083 28.0665 10.104 28.0665ZM13.1853 28.0665C12.981 28.0665 12.785 28.1462 12.6406 28.2882C12.4961 28.4301 12.415 28.6226 12.415 28.8233C12.415 29.0241 12.4961 29.2166 12.6406 29.3585C12.785 29.5004 12.981 29.5802 13.1853 29.5802C13.3896 29.5802 13.5855 29.5004 13.73 29.3585C13.8744 29.2166 13.9556 29.0241 13.9556 28.8233C13.9556 28.6226 13.8744 28.4301 13.73 28.2882C13.5855 28.1462 13.3896 28.0665 13.1853 28.0665ZM16.2666 28.0665C16.0623 28.0665 15.8663 28.1462 15.7219 28.2882C15.5774 28.4301 15.4962 28.6226 15.4962 28.8233C15.4962 29.0241 15.5774 29.2166 15.7219 29.3585C15.8663 29.5004 16.0623 29.5802 16.2666 29.5802C16.4709 29.5802 16.6668 29.5004 16.8113 29.3585C16.9557 29.2166 17.0369 29.0241 17.0369 28.8233C17.0369 28.6226 16.9557 28.4301 16.8113 28.2882C16.6668 28.1462 16.4709 28.0665 16.2666 28.0665ZM19.3478 28.0665C19.1435 28.0665 18.9476 28.1462 18.8031 28.2882C18.6587 28.4301 18.5775 28.6226 18.5775 28.8233C18.5775 29.0241 18.6587 29.2166 18.8031 29.3585C18.9476 29.5004 19.1435 29.5802 19.3478 29.5802C19.5521 29.5802 19.7481 29.5004 19.8925 29.3585C20.037 29.2166 20.1182 29.0241 20.1182 28.8233C20.1182 28.6226 20.037 28.4301 19.8925 28.2882C19.7481 28.1462 19.5521 28.0665 19.3478 28.0665ZM22.4291 28.0665C22.2248 28.0665 22.0289 28.1462 21.8844 28.2882C21.74 28.4301 21.6588 28.6226 21.6588 28.8233C21.6588 29.0241 21.74 29.2166 21.8844 29.3585C22.0289 29.5004 22.2248 29.5802 22.4291 29.5802C22.6334 29.5802 22.8294 29.5004 22.9738 29.3585C23.1183 29.2166 23.1994 29.0241 23.1994 28.8233C23.1994 28.6226 23.1183 28.4301 22.9738 28.2882C22.8294 28.1462 22.6334 28.0665 22.4291 28.0665ZM25.5104 28.0665C25.3061 28.0665 25.1102 28.1462 24.9657 28.2882C24.8212 28.4301 24.7401 28.6226 24.7401 28.8233C24.7401 29.0241 24.8212 29.2166 24.9657 29.3585C25.1102 29.5004 25.3061 29.5802 25.5104 29.5802C25.7147 29.5802 25.9106 29.5004 26.0551 29.3585C26.1996 29.2166 26.2807 29.0241 26.2807 28.8233C26.2807 28.6226 26.1996 28.4301 26.0551 28.2882C25.9106 28.1462 25.7147 28.0665 25.5104 28.0665ZM28.5917 28.0665C28.3874 28.0665 28.1914 28.1462 28.047 28.2882C27.9025 28.4301 27.8214 28.6226 27.8214 28.8233C27.8214 29.0241 27.9025 29.2166 28.047 29.3585C28.1914 29.5004 28.3874 29.5802 28.5917 29.5802C28.796 29.5802 28.9919 29.5004 29.1364 29.3585C29.2808 29.2166 29.362 29.0241 29.362 28.8233C29.362 28.6226 29.2808 28.4301 29.1364 28.2882C28.9919 28.1462 28.796 28.0665 28.5917 28.0665ZM31.673 28.0665C31.4687 28.0665 31.2727 28.1462 31.1283 28.2882C30.9838 28.4301 30.9026 28.6226 30.9026 28.8233C30.9026 29.0241 30.9838 29.2166 31.1283 29.3585C31.2727 29.5004 31.4687 29.5802 31.673 29.5802C31.8773 29.5802 32.0732 29.5004 32.2177 29.3585C32.3621 29.2166 32.4433 29.0241 32.4433 28.8233C32.4433 28.6226 32.3621 28.4301 32.2177 28.2882C32.0732 28.1462 31.8773 28.0665 31.673 28.0665ZM34.7542 28.0665C34.5499 28.0665 34.354 28.1462 34.2095 28.2882C34.0651 28.4301 33.9839 28.6226 33.9839 28.8233C33.9839 29.0241 34.0651 29.2166 34.2095 29.3585C34.354 29.5004 34.5499 29.5802 34.7542 29.5802C34.9585 29.5802 35.1545 29.5004 35.2989 29.3585C35.4434 29.2166 35.5246 29.0241 35.5246 28.8233C35.5246 28.6226 35.4434 28.4301 35.2989 28.2882C35.1545 28.1462 34.9585 28.0665 34.7542 28.0665ZM37.8355 28.0665C37.6312 28.0665 37.4353 28.1462 37.2908 28.2882C37.1464 28.4301 37.0652 28.6226 37.0652 28.8233C37.0652 29.0241 37.1464 29.2166 37.2908 29.3585C37.4353 29.5004 37.6312 29.5802 37.8355 29.5802C38.0398 29.5802 38.2358 29.5004 38.3802 29.3585C38.5247 29.2166 38.6058 29.0241 38.6058 28.8233C38.6058 28.6226 38.5247 28.4301 38.3802 28.2882C38.2358 28.1462 38.0398 28.0665 37.8355 28.0665ZM40.9168 28.0665C40.7125 28.0665 40.5166 28.1462 40.3721 28.2882C40.2276 28.4301 40.1465 28.6226 40.1465 28.8233C40.1465 29.0241 40.2276 29.2166 40.3721 29.3585C40.5166 29.5004 40.7125 29.5802 40.9168 29.5802C41.1211 29.5802 41.317 29.5004 41.4615 29.3585C41.606 29.2166 41.6871 29.0241 41.6871 28.8233C41.6871 28.6226 41.606 28.4301 41.4615 28.2882C41.317 28.1462 41.1211 28.0665 40.9168 28.0665ZM43.9981 28.0665C43.7938 28.0665 43.5978 28.1462 43.4534 28.2882C43.3089 28.4301 43.2278 28.6226 43.2278 28.8233C43.2278 29.0241 43.3089 29.2166 43.4534 29.3585C43.5978 29.5004 43.7938 29.5802 43.9981 29.5802C44.2024 29.5802 44.3983 29.5004 44.5428 29.3585C44.6872 29.2166 44.7684 29.0241 44.7684 28.8233C44.7684 28.6226 44.6872 28.4301 44.5428 28.2882C44.3983 28.1462 44.2024 28.0665 43.9981 28.0665ZM1.63048 32.6076H45.5387H50.1606V39.9559C47.6455 39.2608 28.5885 34.2421 1.63048 34.1405V32.6076ZM45.5387 32.6076C45.3344 32.6076 45.1385 32.6873 44.994 32.8293C44.8496 32.9712 44.7684 33.1637 44.7684 33.3644C44.7684 33.5652 44.8496 33.7577 44.994 33.8996C45.1385 34.0416 45.3344 34.1213 45.5387 34.1213C45.743 34.1213 45.939 34.0416 46.0834 33.8996C46.2279 33.7577 46.309 33.5652 46.309 33.3644C46.309 33.1637 46.2279 32.9712 46.0834 32.8293C45.939 32.6873 45.743 32.6076 45.5387 32.6076ZM43.9981 34.8781C43.7938 34.8781 43.5978 34.9579 43.4534 35.0998C43.3089 35.2418 43.2278 35.4343 43.2278 35.635C43.2278 35.8357 43.3089 36.0282 43.4534 36.1702C43.5978 36.3121 43.7938 36.3919 43.9981 36.3919C44.2024 36.3919 44.3983 36.3121 44.5428 36.1702C44.6872 36.0282 44.7684 35.8357 44.7684 35.635C44.7684 35.4343 44.6872 35.2418 44.5428 35.0998C44.3983 34.9579 44.2024 34.8781 43.9981 34.8781ZM1.63048 35.6453C18.3541 35.7074 32.2293 37.7341 40.9168 39.4222C40.9176 39.6224 40.9991 39.8142 41.1435 39.9555C41.2879 40.0968 41.4833 40.1761 41.6871 40.1761C41.8389 40.1761 41.9872 40.132 42.1135 40.0494C42.2399 39.9668 42.3386 39.8494 42.3973 39.712C43.9314 40.0234 45.1779 40.3028 46.309 40.5634V45.9146C43.5691 44.897 22.6191 37.373 1.63048 37.1842V35.6453ZM40.1465 40.933C39.9422 40.933 39.7462 41.0127 39.6018 41.1546C39.4573 41.2966 39.3762 41.4891 39.3762 41.6898C39.3762 41.8905 39.4573 42.0831 39.6018 42.225C39.7462 42.3669 39.9422 42.4467 40.1465 42.4467C40.3508 42.4467 40.5467 42.3669 40.6912 42.225C40.8356 42.0831 40.9168 41.8905 40.9168 41.6898C40.9168 41.4891 40.8356 41.2966 40.6912 41.1546C40.5467 41.0127 40.3508 40.933 40.1465 40.933Z" fill="#F7C920"/>
</svg>
