<svg width="47" height="47" viewBox="0 0 47 47" fill="none" xmlns="http://www.w3.org/2000/svg">
<path d="M9.57407 0C8.13274 0 6.96296 1.16978 6.96296 2.61111V5.22222H2.61111C1.16978 5.22222 0 6.392 0 7.83333V44.3889C0 45.8302 1.16978 47 2.61111 47H44.3889C45.8302 47 47 45.8302 47 44.3889V7.83333C47 6.392 45.8302 5.22222 44.3889 5.22222H40.037V2.61111C40.037 1.16978 38.8673 0 37.4259 0C35.9846 0 34.8148 1.16978 34.8148 2.61111V5.22222H26.1111V2.61111C26.1111 1.16978 24.9413 0 23.5 0C22.0587 0 20.8889 1.16978 20.8889 2.61111V5.22222H12.1852V2.61111C12.1852 1.16978 11.0154 0 9.57407 0ZM9.57407 1.74074C10.0536 1.74074 10.4444 2.13154 10.4444 2.61111V9.57407C10.4444 10.0536 10.0536 10.4444 9.57407 10.4444C9.0945 10.4444 8.7037 10.0536 8.7037 9.57407V2.61111C8.7037 2.13154 9.0945 1.74074 9.57407 1.74074ZM23.5 1.74074C23.9796 1.74074 24.3704 2.13154 24.3704 2.61111V9.57407C24.3704 10.0536 23.9796 10.4444 23.5 10.4444C23.0204 10.4444 22.6296 10.0536 22.6296 9.57407V2.61111C22.6296 2.13154 23.0204 1.74074 23.5 1.74074ZM37.4259 1.74074C37.9055 1.74074 38.2963 2.13154 38.2963 2.61111V9.57407C38.2963 10.0536 37.9055 10.4444 37.4259 10.4444C36.9464 10.4444 36.5556 10.0536 36.5556 9.57407V2.61111C36.5556 2.13154 36.9464 1.74074 37.4259 1.74074ZM2.61111 6.96296H6.96296V9.57407C6.96296 11.0154 8.13274 12.1852 9.57407 12.1852C11.0154 12.1852 12.1852 11.0154 12.1852 9.57407V6.96296H20.8889V9.57407C20.8889 11.0154 22.0587 12.1852 23.5 12.1852C24.9413 12.1852 26.1111 11.0154 26.1111 9.57407V6.96296H34.8148V9.57407C34.8148 11.0154 35.9846 12.1852 37.4259 12.1852C38.8673 12.1852 40.037 11.0154 40.037 9.57407V6.96296H44.3889C44.8685 6.96296 45.2593 7.35376 45.2593 7.83333V13.9259C44.7797 13.9259 44.3889 14.3167 44.3889 14.7963V16.537C44.3889 17.0166 44.7797 17.4074 45.2593 17.4074V44.3889C45.2593 44.8685 44.8685 45.2593 44.3889 45.2593H2.61111C2.13154 45.2593 1.74074 44.8685 1.74074 44.3889V17.4074C2.22031 17.4074 2.61111 17.0166 2.61111 16.537V14.7963C2.61111 14.3167 2.22031 13.9259 1.74074 13.9259V7.83333C1.74074 7.35376 2.13154 6.96296 2.61111 6.96296ZM6.09259 13.9259C5.61302 13.9259 5.22222 14.3167 5.22222 14.7963V16.537C5.22222 17.0166 5.61302 17.4074 6.09259 17.4074C6.57217 17.4074 6.96296 17.0166 6.96296 16.537V14.7963C6.96296 14.3167 6.57217 13.9259 6.09259 13.9259ZM10.4444 13.9259C9.96487 13.9259 9.57407 14.3167 9.57407 14.7963V16.537C9.57407 17.0166 9.96487 17.4074 10.4444 17.4074C10.924 17.4074 11.3148 17.0166 11.3148 16.537V14.7963C11.3148 14.3167 10.924 13.9259 10.4444 13.9259ZM14.7963 13.9259C14.3167 13.9259 13.9259 14.3167 13.9259 14.7963V16.537C13.9259 17.0166 14.3167 17.4074 14.7963 17.4074C15.2759 17.4074 15.6667 17.0166 15.6667 16.537V14.7963C15.6667 14.3167 15.2759 13.9259 14.7963 13.9259ZM19.1481 13.9259C18.6686 13.9259 18.2778 14.3167 18.2778 14.7963V16.537C18.2778 17.0166 18.6686 17.4074 19.1481 17.4074C19.6277 17.4074 20.0185 17.0166 20.0185 16.537V14.7963C20.0185 14.3167 19.6277 13.9259 19.1481 13.9259ZM23.5 13.9259C23.0204 13.9259 22.6296 14.3167 22.6296 14.7963V16.537C22.6296 17.0166 23.0204 17.4074 23.5 17.4074C23.9796 17.4074 24.3704 17.0166 24.3704 16.537V14.7963C24.3704 14.3167 23.9796 13.9259 23.5 13.9259ZM27.8519 13.9259C27.3723 13.9259 26.9815 14.3167 26.9815 14.7963V16.537C26.9815 17.0166 27.3723 17.4074 27.8519 17.4074C28.3314 17.4074 28.7222 17.0166 28.7222 16.537V14.7963C28.7222 14.3167 28.3314 13.9259 27.8519 13.9259ZM32.2037 13.9259C31.7241 13.9259 31.3333 14.3167 31.3333 14.7963V16.537C31.3333 17.0166 31.7241 17.4074 32.2037 17.4074C32.6833 17.4074 33.0741 17.0166 33.0741 16.537V14.7963C33.0741 14.3167 32.6833 13.9259 32.2037 13.9259ZM36.5556 13.9259C36.076 13.9259 35.6852 14.3167 35.6852 14.7963V16.537C35.6852 17.0166 36.076 17.4074 36.5556 17.4074C37.0351 17.4074 37.4259 17.0166 37.4259 16.537V14.7963C37.4259 14.3167 37.0351 13.9259 36.5556 13.9259ZM40.9074 13.9259C40.4278 13.9259 40.037 14.3167 40.037 14.7963V16.537C40.037 17.0166 40.4278 17.4074 40.9074 17.4074C41.387 17.4074 41.7778 17.0166 41.7778 16.537V14.7963C41.7778 14.3167 41.387 13.9259 40.9074 13.9259ZM7.83333 20.0185C7.35289 20.0185 6.96296 20.4084 6.96296 20.8889V36.5556C6.96296 37.036 7.35289 37.4259 7.83333 37.4259H39.1667C39.6471 37.4259 40.037 37.036 40.037 36.5556V20.8889C40.037 20.4084 39.6471 20.0185 39.1667 20.0185H7.83333ZM8.7037 21.7593H14.7963V27.8519H8.7037V21.7593ZM16.537 21.7593H22.6296V27.8519H16.537V21.7593ZM24.3704 21.7593H30.463V27.8519H24.3704V21.7593ZM32.2037 21.7593H38.2963V27.8519H32.2037V21.7593ZM8.7037 29.5926H14.7963V35.6852H8.7037V29.5926ZM16.537 29.5926H22.6296V35.6852H16.537V29.5926ZM24.3704 29.5926H30.463V35.6852H24.3704V29.5926ZM32.2037 29.5926H38.2963V35.6852H32.2037V29.5926ZM4.35185 40.037C3.87228 40.037 3.48148 40.4278 3.48148 40.9074C3.48148 41.387 3.87228 41.7778 4.35185 41.7778H42.6481C43.1277 41.7778 43.5185 41.387 43.5185 40.9074C43.5185 40.4278 43.1277 40.037 42.6481 40.037H4.35185Z" fill="#FFC32A"/>
</svg>
