<svg width="57" height="49" viewBox="0 0 57 49" fill="none" xmlns="http://www.w3.org/2000/svg">
<path d="M27.3307 0.819809C23.5581 0.819809 20.1661 2.83925 17.7059 4.8021C17.4531 5.00464 17.2156 5.2042 16.9842 5.40674C16.8502 5.40078 16.7193 5.39483 16.5823 5.39483C13.3882 5.39483 10.5443 7.09854 8.48291 8.74269C6.41847 10.3898 5.10309 12.0429 5.10309 12.0429L4.38145 12.9484L5.51414 13.2462C5.51414 13.2462 5.90693 13.3445 6.35453 13.7556C6.80517 14.1666 7.27713 14.8368 7.27713 16.1652V21.4074H7.28627C7.30758 21.7946 7.4172 22.1133 7.51159 22.426C7.56335 22.5988 7.61511 22.7596 7.64556 22.8818C7.67906 23.0009 7.6821 23.12 7.6821 22.9949C7.6821 23.7306 8.22714 24.231 8.89092 24.4812C8.98227 26.9415 10.1515 29.1248 11.9541 30.5961V33.0653C10.9158 33.3721 8.78739 34.0483 6.60726 35.0342C5.09699 35.7192 3.57151 36.5443 2.38096 37.5272C1.18736 38.5131 0.261719 39.7104 0.261719 41.1431V45.045H8.05662V48.095H48.5901V45.045H56.385V41.1431C56.385 39.7104 55.4594 38.5131 54.2658 37.5272C53.0752 36.5443 51.5497 35.7192 50.0395 35.0342C47.8593 34.0483 45.731 33.3721 44.6927 33.0653V30.5932C46.4952 29.1248 47.6645 26.9385 47.7558 24.4783C48.4196 24.231 48.9646 23.7277 48.9646 22.9949C48.9646 23.1171 48.9677 23.0009 49.0012 22.8818C49.0316 22.7596 49.0834 22.5988 49.1352 22.426C49.2295 22.1133 49.3392 21.7946 49.3605 21.4074H49.3696V14.4168C49.3696 10.0681 46.684 7.95636 44.2755 7.75978C44.1172 7.54532 43.9071 7.18194 43.1337 6.66964C42.1502 6.02032 40.6034 5.39483 38.408 5.39483C38.3106 5.39483 38.2132 5.40078 38.1157 5.40376C36.8947 4.4417 35.4971 4.0396 34.2518 3.95322C34.0386 3.6226 33.661 3.10434 32.8785 2.50566C31.755 1.65082 29.9524 0.819809 27.3307 0.819809ZM27.3307 2.34481C29.6205 2.34481 31.0424 3.03881 31.9163 3.70898C32.7933 4.37915 33.0825 4.9689 33.0825 4.9689L33.2957 5.39483H33.7798C34.8181 5.39483 36.2157 5.78204 37.3027 6.72027C38.3928 7.65851 39.2362 9.12394 39.2362 11.4949C39.2362 13.6215 38.7186 16.7251 38.5664 17.5949C38.5633 17.5949 38.5603 17.5949 38.5542 17.5949C38.4872 17.5949 38.4994 17.6098 38.4567 17.6157V15.3074C38.4567 12.6982 37.3667 10.9438 36.2705 9.90432C35.1744 8.86481 34.0264 8.48356 34.0264 8.48356L33.5819 8.33761L33.2409 8.65631C33.2409 8.65631 32.7506 9.12692 31.5662 9.6571C30.3817 10.1873 28.5487 10.7323 25.9849 10.7323C24.5812 10.7323 22.733 11.2178 21.1283 12.3139C19.5297 13.4071 18.1991 15.1942 18.193 17.6187C18.1504 17.6127 18.1595 17.5949 18.0926 17.5949C18.0743 17.5949 18.056 17.6008 18.0378 17.6008C17.8794 16.8651 17.6236 15.4295 17.6236 13.5917C17.6236 11.5961 16.8929 10.2707 16.1286 9.50222C15.8028 9.17458 15.7297 9.23117 15.4466 9.06735C15.9855 8.44782 16.9873 7.34874 18.6924 5.98755C21.0096 4.13789 24.1397 2.34481 27.3307 2.34481ZM39.5559 6.99132C40.8104 7.14918 41.6782 7.5483 42.2598 7.93253C43.0058 8.42697 43.2463 8.838 43.2463 8.838L43.4747 9.20734H43.9132C45.5148 9.20734 47.8106 10.4643 47.8106 14.4168V17.5949C47.8106 13.1956 44.3151 11.0957 44.3151 11.0957L43.7274 10.7502L43.3042 11.2744C43.3042 11.2744 42.4821 12.2931 40.7313 13.002C40.7678 12.4807 40.7952 11.9655 40.7952 11.4949C40.7952 9.63923 40.308 8.14699 39.5559 6.99132ZM15.2182 7.0628C14.2682 8.02487 13.6775 8.73971 13.6775 8.73971L12.9741 9.62136L14.0733 9.93708C14.0733 9.93708 14.4996 10.0532 15.0111 10.5655C15.5196 11.0749 16.0647 11.9446 16.0647 13.5917C16.0647 13.6096 16.0647 13.6215 16.0677 13.6364C15.8698 13.6483 15.6688 13.6543 15.4618 13.6543C14.2591 13.6543 12.7031 14.0653 11.3421 14.9976C9.97794 15.9269 8.83611 17.4638 8.83611 19.5369V16.1652C8.83611 14.4555 8.13883 13.2998 7.42024 12.6416C7.19492 12.439 7.16447 12.4986 6.95437 12.3735C7.32585 11.9357 7.92874 11.1523 9.4664 9.92517C11.0497 8.66227 13.0868 7.45299 15.2182 7.0628ZM33.7798 10.089C33.9686 10.1605 34.4619 10.3124 35.1865 10.9974C36.0391 11.8076 36.8978 13.1003 36.8978 15.3074V20.1147L38.07 19.4416C38.271 19.3284 38.4567 19.2271 38.5877 19.1616C38.6029 19.1526 38.609 19.1526 38.6242 19.1437C38.9805 19.1795 39.2362 19.4237 39.2362 19.7275V19.7305C39.2362 19.7871 39.1418 20.2339 39.0231 20.633C38.9622 20.8296 38.9013 21.0291 38.8495 21.2108C38.8008 21.3925 38.7491 21.5206 38.7491 21.7886C38.7491 21.9912 38.5785 22.1699 38.3106 22.1699H36.8978V23.2124C36.8978 27.3466 33.8498 30.7629 29.8367 31.4629L29.6144 31.4986L29.4469 31.6505C29.1424 31.9216 28.7588 32.0824 28.3234 32.0824C27.888 32.0824 27.5043 31.9216 27.1998 31.6505L27.0323 31.4986L26.8101 31.4629C22.7969 30.7629 19.749 27.3466 19.749 23.2124V22.1699H18.3361C18.0682 22.1699 17.8977 21.9912 17.8977 21.7886C17.8977 21.5206 17.8459 21.3925 17.7942 21.2108C17.7424 21.0291 17.6815 20.8296 17.6206 20.633C17.5019 20.2339 17.4105 19.7871 17.4105 19.7305C17.4105 19.4237 17.6663 19.1795 18.0225 19.1437C18.0378 19.1526 18.0438 19.1526 18.0591 19.1616C18.19 19.2271 18.3757 19.3284 18.5767 19.4416L19.749 20.1147V17.6336C19.749 15.7333 20.7172 14.4555 22.0205 13.5649C23.3237 12.6743 24.9801 12.2574 25.9849 12.2574C28.7771 12.2574 30.8415 11.6587 32.2147 11.0451C33.2348 10.5894 33.5027 10.3094 33.7798 10.089ZM43.9223 12.7697C44.513 13.1777 46.2516 14.5091 46.2516 17.5949V21.5414L47.3965 20.9547C47.4057 20.9487 47.4117 20.9457 47.4209 20.9427C47.6401 20.9755 47.8106 21.1006 47.8106 21.2793C47.8106 21.2912 47.7375 21.6665 47.6401 21.9942C47.5883 22.161 47.5396 22.3248 47.494 22.4797C47.4513 22.6375 47.4057 22.7388 47.4057 22.9949C47.4057 23.0903 47.3265 23.1856 47.1682 23.1856H46.2516V24.1834C46.2516 27.567 43.7579 30.3579 40.4755 30.9297L40.2532 30.9714L40.0888 31.1174C39.8574 31.3259 39.5651 31.448 39.2362 31.448C38.9074 31.448 38.6151 31.3259 38.3837 31.1174L38.2192 30.9714L37.997 30.9297C37.1261 30.7778 36.3101 30.4651 35.5824 30.0302C37.2083 28.3593 38.2527 26.1403 38.3715 23.6711C39.4189 23.6353 40.308 22.8252 40.308 21.7886C40.308 21.8988 40.3172 21.7559 40.3568 21.6099C40.3963 21.464 40.4572 21.2704 40.5181 21.0619C40.643 20.6479 40.7952 20.2249 40.7952 19.7305C40.7952 19.105 40.506 18.554 40.0614 18.1638C40.1436 17.6872 40.3811 16.2575 40.5638 14.6849C42.3907 14.116 43.3742 13.2969 43.9223 12.7697ZM16.1225 15.1584C16.226 16.5524 16.4422 17.6425 16.5671 18.1816C16.1317 18.5689 15.8515 19.1169 15.8515 19.7305C15.8515 20.2249 16.0038 20.6479 16.1286 21.0619C16.1895 21.2704 16.2504 21.464 16.29 21.6099C16.3296 21.7559 16.3387 21.8988 16.3387 21.7886C16.3387 22.8252 17.2278 23.6353 18.2753 23.6711C18.394 26.1403 19.4384 28.3563 21.0644 30.0243C20.3336 30.4621 19.5206 30.7808 18.6498 30.9327L18.4275 30.9714L18.2631 31.1174C18.0317 31.3259 17.7394 31.448 17.4105 31.448C17.0817 31.448 16.7893 31.3259 16.5579 31.1174L16.3935 30.9714L16.1712 30.9327C12.8889 30.3608 10.3951 27.567 10.3951 24.1834V23.1856H9.47858C9.32025 23.1856 9.24108 23.0932 9.24108 22.9949C9.24108 22.7388 9.19541 22.6375 9.15278 22.4797C9.10711 22.3248 9.05839 22.161 9.00663 21.9971C8.90919 21.6695 8.83611 21.2912 8.83611 21.2793C8.83611 21.1006 9.00967 20.9755 9.22586 20.9427C9.23804 20.9487 9.24108 20.9487 9.25022 20.9547L10.3951 21.5474V19.5369C10.3951 17.994 11.1715 16.9724 12.2342 16.2486C13.2938 15.5218 14.6579 15.1793 15.4618 15.1793C15.6871 15.1793 15.9094 15.1704 16.1225 15.1584ZM24.0362 19.1199C23.3907 19.1199 22.8669 19.6322 22.8669 20.2636C22.8669 20.8951 23.3907 21.4074 24.0362 21.4074C24.6817 21.4074 25.2054 20.8951 25.2054 20.2636C25.2054 19.6322 24.6817 19.1199 24.0362 19.1199ZM32.6106 19.1199C31.965 19.1199 31.4413 19.6322 31.4413 20.2636C31.4413 20.8951 31.965 21.4074 32.6106 21.4074C33.2561 21.4074 33.7798 20.8951 33.7798 20.2636C33.7798 19.6322 33.2561 19.1199 32.6106 19.1199ZM13.9028 20.6449C13.2573 20.6449 12.7336 21.1572 12.7336 21.7886C12.7336 22.4201 13.2573 22.9324 13.9028 22.9324C14.5483 22.9324 15.072 22.4201 15.072 21.7886C15.072 21.1572 14.5483 20.6449 13.9028 20.6449ZM42.7439 20.6449C42.0984 20.6449 41.5747 21.1572 41.5747 21.7886C41.5747 22.4201 42.0984 22.9324 42.7439 22.9324C43.3895 22.9324 43.9132 22.4201 43.9132 21.7886C43.9132 21.1572 43.3895 20.6449 42.7439 20.6449ZM22.0874 31.1889V33.7981C20.9639 34.1317 18.2661 34.9835 15.5196 36.2524C15.2608 36.3715 15.0081 36.4996 14.7523 36.6247C13.9515 36.0856 13.5953 35.4869 13.5131 35.3439V31.6029C14.1951 31.9454 14.9259 32.2075 15.6993 32.3624C16.1743 32.7228 16.7559 32.973 17.4105 32.973C18.0469 32.973 18.6132 32.7318 19.0791 32.3892C20.1722 32.1748 21.1862 31.7637 22.0874 31.1889ZM34.5593 31.1919C35.4575 31.7607 36.4715 32.1688 37.5585 32.3803C38.0274 32.7288 38.5968 32.973 39.2362 32.973C39.8909 32.973 40.4785 32.7228 40.9535 32.3594C41.7239 32.2045 42.4547 31.9454 43.1337 31.6029V35.3439C43.0515 35.4928 42.677 36.0766 41.8792 36.6187C41.6265 36.4966 41.3798 36.3685 41.1271 36.2524C38.3806 34.9835 35.6829 34.1317 34.5593 33.7981V31.1919ZM23.6464 31.9484C24.4777 32.3743 25.3759 32.702 26.329 32.8896C26.8801 33.3185 27.5621 33.6074 28.3234 33.6074C29.0815 33.6074 29.7606 33.3185 30.3086 32.8926C31.2647 32.7079 32.166 32.3803 33.0003 31.9514V36.4192C32.9059 36.6038 31.6727 38.945 28.3234 38.945C24.974 38.945 23.7408 36.6038 23.6464 36.4192V31.9484ZM11.9541 34.6648V35.749L12.0363 35.9069C12.0363 35.9069 12.423 36.6574 13.2695 37.408C12.2738 37.968 11.3268 38.5816 10.5199 39.2607C9.11624 40.4432 8.05662 41.858 8.05662 43.52H1.8207V41.1431C1.8207 40.3776 2.36878 39.5317 3.38577 38.6948C4.40276 37.8548 5.82472 37.0685 7.26191 36.4192C9.09797 35.5882 10.861 35.0014 11.9541 34.6648ZM44.6927 34.6648C45.7858 35.0014 47.5488 35.5882 49.3848 36.4192C50.822 37.0685 52.244 37.8548 53.261 38.6948C54.278 39.5317 54.826 40.3776 54.826 41.1431V43.52H48.5901C48.5901 41.858 47.5305 40.4432 46.1268 39.2607C45.3199 38.5816 44.376 37.971 43.3803 37.408C44.2268 36.6604 44.6105 35.9069 44.6105 35.9069L44.6927 35.749V34.6648ZM22.0874 35.4035V36.8362L22.1697 37C22.1697 37 24.0088 40.47 28.3234 40.47C32.638 40.47 34.4771 37 34.4771 37L34.5593 36.8362V35.4035C35.8107 35.7877 38.1035 36.5443 40.4633 37.6344C42.1776 38.4267 43.8827 39.3828 45.1098 40.4164C46.3369 41.4499 47.0311 42.5132 47.0311 43.52V46.57H9.6156V43.52C9.6156 42.5132 10.3098 41.4499 11.5369 40.4164C12.764 39.3828 14.4691 38.4267 16.1834 37.6344C18.5432 36.5443 20.836 35.7877 22.0874 35.4035ZM3.37968 40.47C2.95035 40.47 2.60019 40.8125 2.60019 41.2325C2.60019 41.6524 2.95035 41.995 3.37968 41.995C3.80901 41.995 4.15917 41.6524 4.15917 41.2325C4.15917 40.8125 3.80901 40.47 3.37968 40.47ZM6.49764 40.47C6.06831 40.47 5.71815 40.8125 5.71815 41.2325C5.71815 41.6524 6.06831 41.995 6.49764 41.995C6.92697 41.995 7.27713 41.6524 7.27713 41.2325C7.27713 40.8125 6.92697 40.47 6.49764 40.47ZM49.3696 40.47C48.9403 40.47 48.5901 40.8125 48.5901 41.2325C48.5901 41.6524 48.9403 41.995 49.3696 41.995C49.7989 41.995 50.1491 41.6524 50.1491 41.2325C50.1491 40.8125 49.7989 40.47 49.3696 40.47ZM52.4876 40.47C52.0582 40.47 51.7081 40.8125 51.7081 41.2325C51.7081 41.6524 52.0582 41.995 52.4876 41.995C52.9169 41.995 53.2671 41.6524 53.2671 41.2325C53.2671 40.8125 52.9169 40.47 52.4876 40.47ZM12.7336 43.52C12.3042 43.52 11.9541 43.8625 11.9541 44.2825C11.9541 44.7024 12.3042 45.045 12.7336 45.045C13.1629 45.045 13.5131 44.7024 13.5131 44.2825C13.5131 43.8625 13.1629 43.52 12.7336 43.52ZM15.8515 43.52C15.4222 43.52 15.072 43.8625 15.072 44.2825C15.072 44.7024 15.4222 45.045 15.8515 45.045C16.2809 45.045 16.631 44.7024 16.631 44.2825C16.631 43.8625 16.2809 43.52 15.8515 43.52ZM18.9695 43.52C18.5402 43.52 18.19 43.8625 18.19 44.2825C18.19 44.7024 18.5402 45.045 18.9695 45.045C19.3988 45.045 19.749 44.7024 19.749 44.2825C19.749 43.8625 19.3988 43.52 18.9695 43.52ZM22.0874 43.52C21.6581 43.52 21.308 43.8625 21.308 44.2825C21.308 44.7024 21.6581 45.045 22.0874 45.045C22.5168 45.045 22.8669 44.7024 22.8669 44.2825C22.8669 43.8625 22.5168 43.52 22.0874 43.52ZM25.2054 43.52C24.7761 43.52 24.4259 43.8625 24.4259 44.2825C24.4259 44.7024 24.7761 45.045 25.2054 45.045C25.6347 45.045 25.9849 44.7024 25.9849 44.2825C25.9849 43.8625 25.6347 43.52 25.2054 43.52ZM28.3234 43.52C27.894 43.52 27.5439 43.8625 27.5439 44.2825C27.5439 44.7024 27.894 45.045 28.3234 45.045C28.7527 45.045 29.1029 44.7024 29.1029 44.2825C29.1029 43.8625 28.7527 43.52 28.3234 43.52ZM31.4413 43.52C31.012 43.52 30.6618 43.8625 30.6618 44.2825C30.6618 44.7024 31.012 45.045 31.4413 45.045C31.8707 45.045 32.2208 44.7024 32.2208 44.2825C32.2208 43.8625 31.8707 43.52 31.4413 43.52ZM34.5593 43.52C34.13 43.52 33.7798 43.8625 33.7798 44.2825C33.7798 44.7024 34.13 45.045 34.5593 45.045C34.9886 45.045 35.3388 44.7024 35.3388 44.2825C35.3388 43.8625 34.9886 43.52 34.5593 43.52ZM37.6773 43.52C37.2479 43.52 36.8978 43.8625 36.8978 44.2825C36.8978 44.7024 37.2479 45.045 37.6773 45.045C38.1066 45.045 38.4567 44.7024 38.4567 44.2825C38.4567 43.8625 38.1066 43.52 37.6773 43.52ZM40.7952 43.52C40.3659 43.52 40.0157 43.8625 40.0157 44.2825C40.0157 44.7024 40.3659 45.045 40.7952 45.045C41.2245 45.045 41.5747 44.7024 41.5747 44.2825C41.5747 43.8625 41.2245 43.52 40.7952 43.52ZM43.9132 43.52C43.4838 43.52 43.1337 43.8625 43.1337 44.2825C43.1337 44.7024 43.4838 45.045 43.9132 45.045C44.3425 45.045 44.6927 44.7024 44.6927 44.2825C44.6927 43.8625 44.3425 43.52 43.9132 43.52Z" fill="#F7C920"/>
</svg>
