<svg width="55" height="49" viewBox="0 0 55 49" fill="none" xmlns="http://www.w3.org/2000/svg">
<path d="M27.7766 0.819809C12.8938 0.819809 0.81543 13.6002 0.81543 29.3479C0.81543 36.3876 3.23171 42.8351 7.22774 47.8084L7.45944 48.095H48.0938L48.3255 47.8084C52.3215 42.8351 54.7378 36.3876 54.7378 29.3479C54.7378 13.6002 42.6594 0.819809 27.7766 0.819809ZM27.7766 2.44999C41.8259 2.44999 53.1972 14.4821 53.1972 29.3479C53.1972 35.8655 50.9855 41.8099 47.3446 46.4648H36.2501C36.2501 46.0159 35.9041 45.6497 35.4798 45.6497C35.0555 45.6497 34.7095 46.0159 34.7095 46.4648H20.8437C20.8437 46.0159 20.4977 45.6497 20.0734 45.6497C19.6491 45.6497 19.3031 46.0159 19.3031 46.4648H8.20869C4.56773 41.8099 2.35607 35.8655 2.35607 29.3479C2.35607 14.4821 13.7273 2.44999 27.7766 2.44999ZM27.7766 4.89526C27.3523 4.89526 27.0063 5.26141 27.0063 5.71035C27.0063 6.15928 27.3523 6.52543 27.7766 6.52543C28.2009 6.52543 28.5469 6.15928 28.5469 5.71035C28.5469 5.26141 28.2009 4.89526 27.7766 4.89526ZM24.7585 5.1054C24.3373 5.16271 24.0424 5.57344 24.0965 6.01919C24.1507 6.46494 24.5389 6.78015 24.9601 6.71966C25.3844 6.66234 25.6793 6.25162 25.6221 5.80586C25.568 5.36011 25.1828 5.04808 24.7585 5.1054ZM30.7947 5.1054C30.3704 5.04808 29.9853 5.36011 29.9311 5.80586C29.8739 6.25162 30.1688 6.66234 30.5931 6.71966C31.0144 6.78015 31.4025 6.46494 31.4567 6.01919C31.5109 5.57344 31.216 5.16271 30.7947 5.1054ZM22.0985 5.71035C22.0022 5.69443 21.8969 5.69761 21.7946 5.72626C21.3854 5.84407 21.1386 6.28982 21.25 6.72602C21.3613 7.16222 21.7826 7.42012 22.1948 7.30232C22.6071 7.18451 22.8508 6.73876 22.7395 6.30574C22.6582 5.9778 22.3964 5.75174 22.0985 5.71035ZM33.4547 5.71035C33.1568 5.75174 32.895 5.9778 32.8138 6.30574C32.7025 6.73876 32.9492 7.18451 33.3584 7.30232C33.7677 7.42012 34.1919 7.15904 34.3033 6.72602C34.4146 6.29301 34.1679 5.84407 33.7586 5.72626C33.6563 5.69761 33.551 5.69443 33.4547 5.71035ZM19.2309 6.69418C19.1316 6.69418 19.0323 6.71329 18.933 6.75468C18.5388 6.9298 18.3522 7.40739 18.5177 7.82448C18.6802 8.2384 19.1286 8.4358 19.5228 8.26387C19.917 8.09193 20.1035 7.61434 19.941 7.19725C19.8177 6.88522 19.5318 6.69737 19.2309 6.69418ZM36.3224 6.69418C36.0215 6.69737 35.7356 6.88522 35.6122 7.19725C35.4497 7.61434 35.6363 8.09193 36.0305 8.26387C36.4247 8.4358 36.873 8.2384 37.0355 7.82448C37.201 7.40739 37.0144 6.9298 36.6203 6.75468C36.521 6.71329 36.4217 6.69418 36.3224 6.69418ZM16.5107 8.06646C16.4144 8.08238 16.3151 8.11422 16.2218 8.17153C15.8547 8.39759 15.7283 8.89429 15.942 9.28591C16.1526 9.67435 16.625 9.80808 16.9921 9.58202C17.3593 9.35914 17.4856 8.85926 17.272 8.47082C17.1155 8.1779 16.8116 8.02826 16.5107 8.06646ZM39.0426 8.06646C38.7416 8.02826 38.4377 8.1779 38.2813 8.47082C38.0676 8.85926 38.194 9.35914 38.5611 9.58202C38.9282 9.80808 39.4006 9.67435 39.6113 9.28591C39.8249 8.89429 39.6985 8.39759 39.3314 8.17153C39.2381 8.11422 39.1388 8.08238 39.0426 8.06646ZM27.7766 8.15561C27.3523 8.15561 27.0063 8.52177 27.0063 8.9707C27.0063 9.41964 27.3523 9.78579 27.7766 9.78579C28.2009 9.78579 28.5469 9.41964 28.5469 8.9707C28.5469 8.52177 28.2009 8.15561 27.7766 8.15561ZM14.278 9.78579C14.0824 9.76032 13.8778 9.81126 13.7063 9.94817C13.3692 10.222 13.306 10.7346 13.5648 11.0912C13.8266 11.4478 14.3081 11.5147 14.6451 11.2409C14.9821 10.967 15.0483 10.4576 14.7895 10.101C14.6571 9.91952 14.4736 9.81445 14.278 9.78579ZM41.2753 9.78579C41.0797 9.81445 40.8961 9.91952 40.7637 10.101C40.505 10.4576 40.5712 10.967 40.9082 11.2409C41.2452 11.5147 41.7266 11.4478 41.9884 11.0912C42.2472 10.7346 42.184 10.222 41.847 9.94817C41.6755 9.81126 41.4709 9.76032 41.2753 9.78579ZM18.0513 10.8938C17.955 10.9065 17.8557 10.9384 17.7625 10.9957C17.3954 11.2186 17.269 11.7184 17.4826 12.1069C17.6933 12.4985 18.1657 12.6322 18.5328 12.4062C18.8999 12.1801 19.0263 11.6834 18.8126 11.2918C18.6562 11.0021 18.3522 10.8524 18.0513 10.8938ZM37.5019 10.8938C37.201 10.8524 36.8971 11.0021 36.7406 11.2918C36.527 11.6834 36.6534 12.1801 37.0205 12.4062C37.3876 12.6322 37.86 12.4985 38.0706 12.1069C38.2843 11.7184 38.1579 11.2186 37.7908 10.9957C37.6975 10.9384 37.5982 10.9065 37.5019 10.8938ZM11.9821 11.8203C11.7835 11.8203 11.5849 11.8967 11.4344 12.0559C11.1335 12.3775 11.1335 12.8933 11.4344 13.2117C11.7383 13.5269 12.2258 13.5301 12.5267 13.2117C12.8276 12.8901 12.8276 12.3743 12.5267 12.0559C12.3732 11.8967 12.1776 11.8203 11.9821 11.8203ZM43.5712 11.8203C43.3756 11.8203 43.18 11.8967 43.0266 12.0559C42.7256 12.3775 42.7256 12.8933 43.0266 13.2117C43.3305 13.5301 43.8179 13.5301 44.1188 13.2117C44.4167 12.8901 44.4197 12.3743 44.1188 12.0559C43.9684 11.8967 43.7698 11.8203 43.5712 11.8203ZM9.95094 14.151C9.75836 14.1764 9.5718 14.2815 9.44241 14.4598C9.18363 14.8196 9.24682 15.329 9.58685 15.606C9.92386 15.8799 10.4053 15.8098 10.6641 15.4532C10.9229 15.0966 10.8597 14.5872 10.5227 14.3102C10.3542 14.1733 10.1465 14.1223 9.95094 14.151ZM45.5993 14.151C45.4037 14.1223 45.1991 14.1733 45.0306 14.3102C44.6936 14.5872 44.6274 15.0966 44.8892 15.4532C45.1479 15.813 45.6294 15.8799 45.9664 15.606C46.3064 15.3322 46.3696 14.8196 46.1108 14.463C45.9815 14.2847 45.7949 14.1796 45.5993 14.151ZM39.7617 16.6663C39.7617 16.6663 32.4587 23.0469 28.8027 26.2914C28.4807 26.1672 28.1377 26.0876 27.7766 26.0876C26.0825 26.0876 24.6953 27.5554 24.6953 29.3479C24.6953 31.1405 26.0825 32.6083 27.7766 32.6083C29.4707 32.6083 30.8579 31.1405 30.8579 29.3479C30.8579 28.9659 30.7827 28.6029 30.6653 28.2622C33.7316 24.3937 39.7617 16.6663 39.7617 16.6663ZM8.52465 16.7204C8.22675 16.6822 7.92283 16.8287 7.76335 17.1216C7.54971 17.51 7.67609 18.0099 8.04621 18.2328C8.41331 18.4589 8.88573 18.3251 9.09637 17.9367C9.31001 17.5482 9.18363 17.0484 8.81653 16.8255C8.72324 16.7682 8.62395 16.7332 8.52465 16.7204ZM47.0286 16.7204C46.9293 16.7332 46.83 16.7682 46.7367 16.8255C46.3696 17.0484 46.2432 17.5482 46.4569 17.9367C46.6675 18.3251 47.1399 18.4589 47.507 18.2328C47.8772 18.0099 48.0035 17.51 47.7899 17.1216C47.6304 16.8287 47.3265 16.6822 47.0286 16.7204ZM11.1937 18.3506C10.8958 18.3124 10.5889 18.4589 10.4324 18.7518C10.2187 19.1402 10.3451 19.6401 10.7122 19.863C11.0823 20.089 11.5518 19.9553 11.7654 19.5669C11.979 19.1784 11.8527 18.6785 11.4826 18.4557C11.3923 18.3984 11.293 18.3633 11.1937 18.3506ZM44.3596 18.3506C44.2603 18.3633 44.161 18.3984 44.0707 18.4557C43.7006 18.6785 43.5742 19.1784 43.7878 19.5669C44.0015 19.9553 44.4709 20.089 44.841 19.863C45.2081 19.6401 45.3345 19.1402 45.1209 18.7518C44.9614 18.4589 44.6575 18.3124 44.3596 18.3506ZM7.13446 19.4873C6.83355 19.4904 6.54769 19.6783 6.42432 19.9903C6.26183 20.4074 6.44839 20.8818 6.84258 21.057C7.23677 21.2289 7.68512 21.0315 7.84761 20.6144C8.01311 20.1973 7.82654 19.7229 7.43236 19.5509C7.33306 19.5064 7.23376 19.4873 7.13446 19.4873ZM48.4188 19.4873C48.3195 19.4873 48.2172 19.5064 48.1179 19.5509C47.7267 19.7229 47.5401 20.1973 47.7026 20.6144C47.8651 21.0315 48.3165 21.2289 48.7107 21.057C49.1049 20.8818 49.2914 20.4074 49.1289 19.9903C49.0056 19.6783 48.7197 19.4904 48.4188 19.4873ZM6.09333 22.4229C5.79543 22.4674 5.53665 22.6935 5.45239 23.0183C5.34407 23.4513 5.5878 23.9002 6.00004 24.018C6.40928 24.1358 6.83054 23.8747 6.94188 23.4417C7.05322 23.0087 6.80647 22.5598 6.39724 22.442C6.29493 22.4133 6.19262 22.4069 6.09333 22.4229ZM49.4629 22.4229C49.3636 22.4069 49.2583 22.4133 49.156 22.442C48.7438 22.5598 48.5 23.0055 48.6114 23.4417C48.7227 23.8779 49.144 24.1358 49.5532 24.018C49.9655 23.9002 50.2092 23.4545 50.1009 23.0183C50.0166 22.6903 49.7578 22.4674 49.4629 22.4229ZM5.72923 25.454C5.30796 25.3967 4.91979 25.7087 4.86563 26.1544C4.81146 26.6034 5.10635 27.0109 5.52762 27.0682C5.94889 27.1287 6.33706 26.8167 6.39122 26.3678C6.44839 25.922 6.1505 25.5113 5.72923 25.454ZM49.824 25.454C49.4028 25.5113 49.1049 25.922 49.162 26.3678C49.2162 26.8167 49.6044 27.1287 50.0256 27.0682C50.4469 27.0109 50.7418 26.6034 50.6876 26.1544C50.6335 25.7087 50.2453 25.3967 49.824 25.454ZM27.7766 27.7178C28.6372 27.7178 29.3173 28.4373 29.3173 29.3479C29.3173 30.2585 28.6372 30.9781 27.7766 30.9781C26.916 30.9781 26.236 30.2585 26.236 29.3479C26.236 28.4373 26.916 27.7178 27.7766 27.7178ZM5.43735 28.5328C5.01307 28.5328 4.66703 28.899 4.66703 29.3479C4.66703 29.7969 5.01307 30.163 5.43735 30.163C5.86163 30.163 6.20767 29.7969 6.20767 29.3479C6.20767 28.899 5.86163 28.5328 5.43735 28.5328ZM8.51863 28.5328C8.09435 28.5328 7.74831 28.899 7.74831 29.3479C7.74831 29.7969 8.09435 30.163 8.51863 30.163C8.94291 30.163 9.28895 29.7969 9.28895 29.3479C9.28895 28.899 8.94291 28.5328 8.51863 28.5328ZM47.0346 28.5328C46.6103 28.5328 46.2643 28.899 46.2643 29.3479C46.2643 29.7969 46.6103 30.163 47.0346 30.163C47.4589 30.163 47.8049 29.7969 47.8049 29.3479C47.8049 28.899 47.4589 28.5328 47.0346 28.5328ZM50.1159 28.5328C49.6916 28.5328 49.3456 28.899 49.3456 29.3479C49.3456 29.7969 49.6916 30.163 50.1159 30.163C50.5402 30.163 50.8862 29.7969 50.8862 29.3479C50.8862 28.899 50.5402 28.5328 50.1159 28.5328ZM5.52762 31.6276C5.10635 31.685 4.81146 32.0925 4.86563 32.5414C4.91979 32.9872 5.30796 33.2992 5.72923 33.2419C6.1505 33.1846 6.44839 32.7739 6.39122 32.3281C6.33706 31.8792 5.94889 31.5671 5.52762 31.6276ZM50.0256 31.6276C49.6044 31.5671 49.2162 31.8792 49.162 32.3281C49.1049 32.7739 49.4028 33.1846 49.824 33.2419C50.2453 33.2992 50.6335 32.9872 50.6876 32.5414C50.7418 32.0925 50.4469 31.685 50.0256 31.6276ZM6.30396 34.6588C6.20466 34.6428 6.10235 34.6492 6.00004 34.6779C5.5878 34.7957 5.34407 35.2414 5.45239 35.6776C5.56373 36.1138 5.985 36.3717 6.39724 36.2539C6.80948 36.1361 7.05322 35.6904 6.94188 35.2542C6.86064 34.9262 6.60186 34.7033 6.30396 34.6588ZM49.2493 34.6588C48.9514 34.7033 48.6926 34.9294 48.6114 35.2542C48.5 35.6872 48.7468 36.1361 49.156 36.2539C49.5652 36.3717 49.9895 36.1106 50.1009 35.6776C50.2092 35.2414 49.9655 34.7957 49.5532 34.6779C49.4509 34.6492 49.3486 34.6428 49.2493 34.6588ZM7.14349 37.5784C7.04419 37.5784 6.94188 37.5975 6.84258 37.6389C6.44839 37.814 6.26183 38.2884 6.42432 38.7055C6.58982 39.1226 7.04118 39.32 7.43537 39.1449C7.82654 38.973 8.01311 38.4986 7.85062 38.0815C7.72725 37.7695 7.44439 37.5816 7.14349 37.5784ZM48.4098 37.5784C48.1089 37.5816 47.826 37.7695 47.7026 38.0815C47.5401 38.4986 47.7267 38.973 48.1179 39.1449C48.5121 39.32 48.9634 39.1226 49.1289 38.7055C49.2914 38.2884 49.1049 37.814 48.7107 37.6389C48.6114 37.5975 48.5091 37.5784 48.4098 37.5784ZM11.0041 38.7278C10.9048 38.7406 10.8055 38.7756 10.7122 38.8329C10.3451 39.0558 10.2187 39.5557 10.4324 39.9441C10.643 40.3325 11.1154 40.4663 11.4826 40.2402C11.8527 40.0173 11.979 39.5175 11.7654 39.129C11.6059 38.8361 11.302 38.6896 11.0041 38.7278ZM44.5521 38.7278C44.2542 38.6896 43.9473 38.8361 43.7878 39.129C43.5742 39.5175 43.7006 40.0173 44.0707 40.2402C44.4378 40.4663 44.9102 40.3325 45.1209 39.9441C45.3345 39.5557 45.2081 39.0558 44.841 38.8329C44.7477 38.7756 44.6514 38.7406 44.5521 38.7278ZM20.0734 39.129C19.6491 39.129 19.3031 39.4952 19.3031 39.9441C19.3031 40.393 19.6491 40.7592 20.0734 40.7592C20.4977 40.7592 20.8437 40.393 20.8437 39.9441C20.8437 39.4952 20.4977 39.129 20.0734 39.129ZM23.1547 39.129C22.7304 39.129 22.3844 39.4952 22.3844 39.9441C22.3844 40.393 22.7304 40.7592 23.1547 40.7592C23.579 40.7592 23.925 40.393 23.925 39.9441C23.925 39.4952 23.579 39.129 23.1547 39.129ZM26.236 39.129C25.8117 39.129 25.4657 39.4952 25.4657 39.9441C25.4657 40.393 25.8117 40.7592 26.236 40.7592C26.6603 40.7592 27.0063 40.393 27.0063 39.9441C27.0063 39.4952 26.6603 39.129 26.236 39.129ZM29.3173 39.129C28.893 39.129 28.5469 39.4952 28.5469 39.9441C28.5469 40.393 28.893 40.7592 29.3173 40.7592C29.7415 40.7592 30.0876 40.393 30.0876 39.9441C30.0876 39.4952 29.7415 39.129 29.3173 39.129ZM32.3985 39.129C31.9743 39.129 31.6282 39.4952 31.6282 39.9441C31.6282 40.393 31.9743 40.7592 32.3985 40.7592C32.8228 40.7592 33.1689 40.393 33.1689 39.9441C33.1689 39.4952 32.8228 39.129 32.3985 39.129ZM35.4798 39.129C35.0555 39.129 34.7095 39.4952 34.7095 39.9441C34.7095 40.393 35.0555 40.7592 35.4798 40.7592C35.9041 40.7592 36.2501 40.393 36.2501 39.9441C36.2501 39.4952 35.9041 39.129 35.4798 39.129ZM8.33508 40.358C8.23578 40.3708 8.13648 40.4058 8.04621 40.4631C7.67609 40.686 7.54971 41.1858 7.76335 41.5743C7.977 41.9627 8.44641 42.0964 8.81653 41.8704C9.18363 41.6475 9.31001 41.1476 9.09637 40.7592C8.9399 40.4663 8.63297 40.3198 8.33508 40.358ZM47.2182 40.358C46.9203 40.3198 46.6134 40.4663 46.4569 40.7592C46.2432 41.1476 46.3696 41.6475 46.7367 41.8704C47.1068 42.0964 47.5763 41.9627 47.7899 41.5743C48.0035 41.1858 47.8772 40.686 47.507 40.4631C47.4168 40.4058 47.3175 40.3708 47.2182 40.358ZM20.0734 42.3894C19.6491 42.3894 19.3031 42.7555 19.3031 43.2045C19.3031 43.6534 19.6491 44.0195 20.0734 44.0195C20.4977 44.0195 20.8437 43.6534 20.8437 43.2045C20.8437 42.7555 20.4977 42.3894 20.0734 42.3894ZM35.4798 42.3894C35.0555 42.3894 34.7095 42.7555 34.7095 43.2045C34.7095 43.6534 35.0555 44.0195 35.4798 44.0195C35.9041 44.0195 36.2501 43.6534 36.2501 43.2045C36.2501 42.7555 35.9041 42.3894 35.4798 42.3894Z" fill="#F7C920"/>
</svg>
