<svg width="48" height="56" viewBox="0 0 48 56" fill="none" xmlns="http://www.w3.org/2000/svg">
<path d="M19.3881 0.727448C15.7802 0.727448 12.5383 2.7787 10.1857 4.77256C7.83303 6.76641 6.3341 8.76776 6.3341 8.76776L5.6616 9.66449L6.7111 9.98659C6.7111 9.98659 7.12114 10.1029 7.60776 10.6217C8.09439 11.1405 8.61651 12.0221 8.61651 13.6975C8.61651 15.8657 8.9356 17.6152 9.09541 18.3566C8.68043 18.7507 8.41272 19.3054 8.41272 19.9292C8.41272 20.4324 8.55702 20.8596 8.67619 21.2811C8.73577 21.4919 8.79309 21.6888 8.83194 21.8376C8.87079 21.9865 8.87852 22.1305 8.87852 22.0191C8.87852 23.0727 9.7285 23.8936 10.7286 23.9305C10.8672 26.9322 12.2576 29.5813 14.3749 31.3266V34.2149C11.7443 35.0188 0.959961 38.64 0.959961 44.085V48.7304H25.2076C25.511 48.0622 25.9615 47.5567 26.4624 47.1819H2.45051V44.085C2.45051 40.4213 10.3508 37.1341 14.3749 35.8405V37.2998L14.4535 37.4631C14.4535 37.4631 16.2133 40.988 20.3371 40.988C24.461 40.988 26.2207 37.4631 26.2207 37.4631L26.2993 37.2998V35.8481C28.8166 36.6543 32.8151 38.2177 35.5119 40.2122C35.7251 39.7531 35.9463 39.2783 36.1699 38.8014C32.7003 36.2803 27.8856 34.7014 26.2993 34.2194V31.3281C28.4166 29.5821 29.8071 26.9323 29.9457 23.9305C30.946 23.8936 31.7943 23.0721 31.7943 22.0191C31.7943 22.1305 31.8035 21.9865 31.8423 21.8376C31.8812 21.6888 31.9385 21.4919 31.9981 21.2811C32.1173 20.8596 32.2601 20.4324 32.2601 19.9292C32.2607 19.2954 31.9846 18.7334 31.5585 18.3384C31.6955 17.5231 32.2616 14.0269 32.2616 11.5668C32.2616 8.78526 31.26 6.79092 29.9078 5.55587C28.6953 4.44837 27.2675 4.00172 26.0039 3.90758C25.801 3.57431 25.4408 3.04756 24.6909 2.43925C23.6195 1.57023 21.8941 0.727448 19.3881 0.727448ZM19.3881 2.27593C21.5788 2.27593 22.9362 2.98163 23.7738 3.6611C24.6115 4.34056 24.8859 4.94041 24.8859 4.94041L25.0912 5.3729H25.5541C26.5472 5.3729 27.882 5.76715 28.9238 6.71875C29.9657 7.67035 30.771 9.15866 30.771 11.5668C30.771 13.7276 30.2748 16.879 30.132 17.7623C30.1275 17.7622 30.1234 17.7608 30.1189 17.7608C30.0562 17.7608 30.0672 17.7768 30.0257 17.7819V15.438C30.0257 12.7887 28.9834 11.0061 27.9355 9.95181C26.8875 8.89755 25.7913 8.51069 25.7913 8.51069L25.3648 8.36098L25.0388 8.68459C25.0388 8.68459 24.5713 9.16255 23.4376 9.70078C22.3039 10.239 20.5532 10.7926 18.1013 10.7926C16.7601 10.7926 14.991 11.2855 13.4579 12.3985C11.9288 13.5086 10.6582 15.3242 10.6515 17.7834C10.6093 17.778 10.6201 17.7608 10.5554 17.7608C10.5375 17.7608 10.5208 17.7664 10.503 17.7668C10.3511 17.0185 10.1071 15.561 10.1071 13.6975C10.1071 11.6689 9.40958 10.3239 8.67619 9.542C8.36696 9.21232 8.29535 9.2668 8.02553 9.10347C8.53995 8.47299 9.49742 7.35592 11.1289 5.97324C13.3441 4.09588 16.3362 2.27593 19.3881 2.27593ZM25.5526 10.1393C25.7336 10.2121 26.2053 10.3653 26.8991 11.0633C27.7143 11.8835 28.5352 13.1973 28.5352 15.438V20.3194L29.6575 19.6374C29.8493 19.5207 30.0262 19.4176 30.1509 19.3516C30.1667 19.3432 30.1705 19.342 30.1844 19.3349C30.5269 19.3708 30.7698 19.6175 30.7695 19.9277V19.9292C30.7695 19.9874 30.6809 20.4418 30.5672 20.8441C30.5104 21.0452 30.4512 21.2466 30.4027 21.4324C30.3542 21.6182 30.3037 21.7455 30.3037 22.0191C30.3037 22.2244 30.1423 22.4062 29.886 22.4062H28.5352V23.4647C28.5352 27.6628 25.6204 31.1312 21.784 31.8423L21.573 31.8801L21.4128 32.0313C21.121 32.3069 20.753 32.4713 20.3371 32.4713C19.9213 32.4713 19.5531 32.3073 19.2614 32.0313L19.1028 31.8801L18.8903 31.8408C15.054 31.1304 12.1391 27.6628 12.1391 23.4647V22.4062H10.7883C10.5332 22.4062 10.3691 22.2238 10.3691 22.0191C10.3691 21.7455 10.3186 21.6182 10.2701 21.4324C10.2216 21.2466 10.1625 21.0452 10.1056 20.8441C9.99188 20.4418 9.90327 19.9874 9.90327 19.9292C9.90327 19.6186 10.1473 19.3709 10.4899 19.3349C10.5038 19.342 10.5076 19.3432 10.5234 19.3516C10.6481 19.4176 10.825 19.5207 11.0168 19.6374L12.1391 20.3194V17.8016C12.1391 15.8692 13.0656 14.5728 14.3109 13.6688C15.5562 12.7647 17.1411 12.3411 18.1013 12.3411C20.7702 12.3411 22.7452 11.7333 24.0577 11.1101C25.033 10.6471 25.2898 10.3638 25.5526 10.1393ZM16.2381 19.3092C15.9416 19.3092 15.6573 19.4316 15.4476 19.6494C15.238 19.8672 15.1202 20.1626 15.1202 20.4706C15.1202 20.7786 15.238 21.074 15.4476 21.2918C15.6573 21.5096 15.9416 21.632 16.2381 21.632C16.5346 21.632 16.819 21.5096 17.0286 21.2918C17.2383 21.074 17.356 20.7786 17.356 20.4706C17.356 20.1626 17.2383 19.8672 17.0286 19.6494C16.819 19.4316 16.5346 19.3092 16.2381 19.3092ZM24.4362 19.3092C24.1397 19.3092 23.8553 19.4316 23.6457 19.6494C23.436 19.8672 23.3182 20.1626 23.3182 20.4706C23.3182 20.7786 23.436 21.074 23.6457 21.2918C23.8553 21.5096 24.1397 21.632 24.4362 21.632C24.7326 21.632 25.017 21.5096 25.2266 21.2918C25.4363 21.074 25.5541 20.7786 25.5541 20.4706C25.5541 20.1626 25.4363 19.8672 25.2266 19.6494C25.017 19.4316 24.7326 19.3092 24.4362 19.3092ZM15.8655 32.3337C16.6613 32.7692 17.52 33.1003 18.4317 33.291C18.9563 33.7259 19.6083 34.0198 20.3371 34.0198C21.0628 34.0198 21.7104 33.7263 22.2338 33.2955C23.1487 33.105 24.0105 32.7737 24.8088 32.3368V36.8733C24.7173 37.063 23.5381 39.4395 20.3371 39.4395C17.1361 39.4395 15.957 37.063 15.8655 36.8733V32.3337ZM42.4305 32.4804C42.2314 32.4966 42.0825 32.4849 41.8031 32.6589H41.8017C41.2034 33.0326 41.1585 33.4984 40.9167 34.0017C40.7859 34.2741 40.4109 35.0623 40.0447 35.8496C39.6792 36.6356 39.3514 37.3304 39.2136 37.7247C39.121 37.9879 38.997 38.2994 39.0447 38.7303C39.0924 39.1613 39.3891 39.581 39.7565 39.8357C40.1506 40.1081 41.3619 41.1633 41.691 41.4613C41.7175 41.4854 41.7154 41.4834 41.7231 41.4901C41.7208 41.4734 41.7298 41.5118 41.6445 41.6897C41.4677 42.0579 41.3039 42.5434 40.9399 43.2502C40.576 43.9571 40.0375 44.8413 39.2063 45.8089C37.9376 47.2878 36.3107 48.3313 35.8293 48.6215C35.8098 48.6333 35.8213 48.6286 35.8118 48.6352C35.8093 48.6287 35.785 48.6155 35.6852 48.5112H35.6837V48.5096C35.3881 48.2025 35.018 47.9143 34.7419 47.6689C34.3711 47.3392 34.0551 47.1975 33.7361 47.0307H33.7346C33.1478 46.7252 32.5131 46.8926 32.164 47.0761C32.1835 47.0658 31.9389 47.1802 31.6531 47.3044C31.3666 47.429 30.9951 47.5873 30.5992 47.7566C29.8075 48.095 28.9203 48.4737 28.4013 48.6987V48.6971C27.807 48.9541 27.3996 49.2892 27.2033 49.7209C27.007 50.1526 27.0638 50.5387 27.0621 50.5753C27.0452 50.9146 27.0446 51.2795 27.0446 51.6353C27.0446 52.1849 27.2454 52.9796 27.9311 53.6299C28.3691 54.0447 29.9288 55.6986 32.7172 55.6986C35.6062 55.6986 38.1403 53.6263 38.4756 53.3653C38.4636 53.3746 38.937 53.0402 39.5222 52.5789C40.1074 52.1176 40.8778 51.4721 41.71 50.6615C43.3742 49.0403 45.2944 46.7619 46.4669 43.9413C47.0076 42.6379 47.3349 41.6092 47.5746 40.8292H47.5761V40.8277C48.0122 39.401 47.947 38.1026 47.8061 37.1198C47.7036 36.4079 47.3608 35.5922 46.8701 34.7971C46.3795 34.002 45.7651 33.2332 44.8774 32.9053C44.2143 32.6596 43.602 32.5359 43.1015 32.491C42.8513 32.4686 42.6296 32.4643 42.4305 32.4804ZM42.5528 34.0244C42.6445 34.0172 42.7924 34.0172 42.9734 34.0334C43.3405 34.0664 43.8406 34.1644 44.3767 34.3631H44.3781C44.6896 34.4781 45.2219 34.9957 45.6154 35.6333C46.0088 36.2709 46.2865 37.035 46.3316 37.3482C46.4544 38.205 46.5003 39.2307 46.1554 40.3589C45.9197 41.1258 45.6133 42.0866 45.0986 43.3274C44.0465 45.8584 42.262 48.0015 40.691 49.5319C39.9055 50.297 39.1743 50.9105 38.6211 51.3465C38.068 51.7825 37.7649 51.9843 37.5818 52.1268C37.2329 52.3984 34.8826 54.1501 32.7172 54.1501C30.451 54.1501 29.526 53.0444 28.9355 52.4852C28.5926 52.16 28.5352 51.795 28.5352 51.6353C28.5352 51.283 28.537 50.9364 28.5512 50.6524V50.6509V50.6494C28.5644 50.3593 28.561 50.3617 28.5512 50.3832C28.5414 50.4047 28.5681 50.3035 28.9748 50.1277C29.4827 49.9075 30.3731 49.528 31.1669 49.1886C31.5639 49.0189 31.9375 48.8589 32.2295 48.7319C32.5215 48.605 32.686 48.5361 32.8351 48.4582H32.8365C32.9992 48.3728 32.9699 48.3647 33.0651 48.4144C33.4302 48.6053 33.5441 48.6424 33.7725 48.8453C34.0956 49.1326 34.4649 49.4331 34.6298 49.6045C34.7621 49.7428 34.9576 49.9757 35.3242 50.1171C35.6916 50.2588 36.1883 50.1962 36.5789 49.9598C37.1285 49.6284 38.8661 48.5316 40.3184 46.8387C41.2366 45.7696 41.8452 44.7753 42.2544 43.9806C42.6637 43.1857 42.8996 42.5467 42.9793 42.3807C43.1406 42.0445 43.2585 41.6866 43.2107 41.2799C43.163 40.8731 42.9253 40.526 42.6736 40.2969V40.2954H42.6721C42.3147 39.9718 41.2176 38.986 40.5833 38.5473C40.5429 38.5193 40.547 38.5266 40.5353 38.5201C40.5402 38.5271 40.5433 38.4577 40.6139 38.257V38.2555C40.6464 38.1624 41.0244 37.3032 41.3868 36.524C41.7492 35.7448 42.1243 34.9546 42.25 34.6928C42.5063 34.1594 42.671 33.9624 42.5528 34.0244ZM5.43162 44.085C5.23396 44.085 5.04439 44.1665 4.90463 44.3117C4.76486 44.4569 4.68634 44.6539 4.68634 44.8592C4.68634 45.0646 4.76486 45.2615 4.90463 45.4067C5.04439 45.5519 5.23396 45.6335 5.43162 45.6335C5.62928 45.6335 5.81884 45.5519 5.95861 45.4067C6.09837 45.2615 6.17689 45.0646 6.17689 44.8592C6.17689 44.6539 6.09837 44.4569 5.95861 44.3117C5.81884 44.1665 5.62928 44.085 5.43162 44.085ZM8.41272 44.085C8.21506 44.085 8.0255 44.1665 7.88573 44.3117C7.74596 44.4569 7.66745 44.6539 7.66745 44.8592C7.66745 45.0646 7.74596 45.2615 7.88573 45.4067C8.0255 45.5519 8.21506 45.6335 8.41272 45.6335C8.61038 45.6335 8.79995 45.5519 8.93971 45.4067C9.07948 45.2615 9.158 45.0646 9.158 44.8592C9.158 44.6539 9.07948 44.4569 8.93971 44.3117C8.79995 44.1665 8.61038 44.085 8.41272 44.085ZM11.3938 44.085C11.1962 44.085 11.0066 44.1665 10.8668 44.3117C10.7271 44.4569 10.6485 44.6539 10.6485 44.8592C10.6485 45.0646 10.7271 45.2615 10.8668 45.4067C11.0066 45.5519 11.1962 45.6335 11.3938 45.6335C11.5915 45.6335 11.781 45.5519 11.9208 45.4067C12.0606 45.2615 12.1391 45.0646 12.1391 44.8592C12.1391 44.6539 12.0606 44.4569 11.9208 44.3117C11.781 44.1665 11.5915 44.085 11.3938 44.085ZM14.3749 44.085C14.1773 44.085 13.9877 44.1665 13.8479 44.3117C13.7082 44.4569 13.6297 44.6539 13.6297 44.8592C13.6297 45.0646 13.7082 45.2615 13.8479 45.4067C13.9877 45.5519 14.1773 45.6335 14.3749 45.6335C14.5726 45.6335 14.7622 45.5519 14.9019 45.4067C15.0417 45.2615 15.1202 45.0646 15.1202 44.8592C15.1202 44.6539 15.0417 44.4569 14.9019 44.3117C14.7622 44.1665 14.5726 44.085 14.3749 44.085ZM17.356 44.085C17.1584 44.085 16.9688 44.1665 16.829 44.3117C16.6893 44.4569 16.6108 44.6539 16.6108 44.8592C16.6108 45.0646 16.6893 45.2615 16.829 45.4067C16.9688 45.5519 17.1584 45.6335 17.356 45.6335C17.5537 45.6335 17.7433 45.5519 17.883 45.4067C18.0228 45.2615 18.1013 45.0646 18.1013 44.8592C18.1013 44.6539 18.0228 44.4569 17.883 44.3117C17.7433 44.1665 17.5537 44.085 17.356 44.085ZM20.3371 44.085C20.1395 44.085 19.9499 44.1665 19.8101 44.3117C19.6704 44.4569 19.5919 44.6539 19.5919 44.8592C19.5919 45.0646 19.6704 45.2615 19.8101 45.4067C19.9499 45.5519 20.1395 45.6335 20.3371 45.6335C20.5348 45.6335 20.7244 45.5519 20.8641 45.4067C21.0039 45.2615 21.0824 45.0646 21.0824 44.8592C21.0824 44.6539 21.0039 44.4569 20.8641 44.3117C20.7244 44.1665 20.5348 44.085 20.3371 44.085ZM23.3182 44.085C23.1206 44.085 22.931 44.1665 22.7913 44.3117C22.6515 44.4569 22.573 44.6539 22.573 44.8592C22.573 45.0646 22.6515 45.2615 22.7913 45.4067C22.931 45.5519 23.1206 45.6335 23.3182 45.6335C23.5159 45.6335 23.7055 45.5519 23.8452 45.4067C23.985 45.2615 24.0635 45.0646 24.0635 44.8592C24.0635 44.6539 23.985 44.4569 23.8452 44.3117C23.7055 44.1665 23.5159 44.085 23.3182 44.085ZM26.2993 44.085C26.1017 44.085 25.9121 44.1665 25.7724 44.3117C25.6326 44.4569 25.5541 44.6539 25.5541 44.8592C25.5541 45.0646 25.6326 45.2615 25.7724 45.4067C25.9121 45.5519 26.1017 45.6335 26.2993 45.6335C26.497 45.6335 26.6866 45.5519 26.8263 45.4067C26.9661 45.2615 27.0446 45.0646 27.0446 44.8592C27.0446 44.6539 26.9661 44.4569 26.8263 44.3117C26.6866 44.1665 26.497 44.085 26.2993 44.085ZM29.2805 44.085C29.0828 44.085 28.8932 44.1665 28.7535 44.3117C28.6137 44.4569 28.5352 44.6539 28.5352 44.8592C28.5352 45.0646 28.6137 45.2615 28.7535 45.4067C28.8932 45.5519 29.0828 45.6335 29.2805 45.6335C29.4781 45.6335 29.6677 45.5519 29.8074 45.4067C29.9472 45.2615 30.0257 45.0646 30.0257 44.8592C30.0257 44.6539 29.9472 44.4569 29.8074 44.3117C29.6677 44.1665 29.4781 44.085 29.2805 44.085Z" fill="#F7C920"/>
</svg>
