<svg width="59" height="59" viewBox="0 0 59 59" fill="none" xmlns="http://www.w3.org/2000/svg">
<path d="M29.8082 0.933472C28.8033 0.933472 27.7951 1.3068 27.0341 2.05345L24.7055 4.34127L21.655 3.10323C19.6646 2.29276 17.3588 3.23086 16.536 5.18684L15.2742 8.17345H11.9732C9.82027 8.17345 8.05434 9.90607 8.05434 12.0216V15.2571L5.01029 16.4951C3.0167 17.3024 2.06056 19.5679 2.88661 21.5207L4.14846 24.5105L1.81339 26.7983C0.291369 28.2916 0.291369 30.7421 1.81339 32.2386L4.14846 34.5233L2.88661 37.5163C2.06056 39.4691 3.0167 41.7313 5.01029 42.5386L8.05434 43.7767V47.0154C8.05434 49.1277 9.82027 50.8603 11.9732 50.8603H15.2742L16.536 53.8469C17.3588 55.8029 19.6646 56.741 21.655 55.9305L24.7055 54.6957L27.0341 56.9835C28.5594 58.4768 31.057 58.4768 32.5791 56.9835L34.9109 54.6957L37.9582 55.9305C39.9485 56.741 42.2576 55.8029 43.0804 53.8469L44.3422 50.8603H47.6399C49.7961 50.8603 51.5621 49.1277 51.5621 47.0154V43.7767L54.6061 42.5386C56.5997 41.7313 57.5559 39.4659 56.7298 37.5131L55.468 34.5233L57.7998 32.2355C59.3218 30.7421 59.3218 28.2916 57.7998 26.7983L55.468 24.5105L56.7266 21.5207C57.5526 19.5679 56.5965 17.3024 54.6061 16.4951L51.5588 15.2571V12.0216C51.5588 9.90607 49.7961 8.17345 47.6399 8.17345H44.3422L43.0804 5.18684C42.2576 3.23086 39.9485 2.29276 37.9582 3.10323L34.9109 4.34127L32.5791 2.05345C31.8181 1.3068 30.8131 0.933472 29.8082 0.933472ZM29.8082 2.55441C30.3838 2.55441 30.9595 2.77139 31.405 3.20853L34.5206 6.26853L38.5956 4.61249C39.7566 4.14025 41.064 4.67312 41.5421 5.81224L43.23 9.80715H47.6399C48.8953 9.80715 49.8937 10.7899 49.8937 12.0216V16.3483L53.9687 18.0044C55.1297 18.4734 55.6696 19.7561 55.1883 20.8953L53.5036 24.8934L56.6192 27.9502H56.6225C57.5103 28.8213 57.5103 30.2093 56.6225 31.0836L53.5036 34.1404L55.1915 38.1385C55.6728 39.2776 55.1297 40.5603 53.9687 41.0294L49.897 42.6854V47.0154C49.897 48.247 48.8953 49.2266 47.6399 49.2266H43.23L41.5421 53.2215C41.064 54.3606 39.7566 54.8935 38.5956 54.4213L34.5206 52.7684L31.405 55.8252C30.5139 56.6963 29.1025 56.6963 28.2114 55.8252L25.0958 52.7684L21.0208 54.4213C19.8598 54.8935 18.5524 54.3606 18.0743 53.2215L16.3832 49.2266H11.9732C10.7179 49.2266 9.71946 48.247 9.71946 47.0154V42.6886L5.64772 41.0294C4.48669 40.5603 3.94357 39.2776 4.4249 38.1385L6.10953 34.1404L2.99394 31.0836C2.10609 30.2093 2.10609 28.8245 2.99394 27.9502L6.10953 24.8934L4.4249 20.8953C3.94357 19.7561 4.48669 18.4734 5.64772 18.0044L9.71946 16.3483V12.0216C9.71946 10.7899 10.7179 9.80715 11.9732 9.80715H16.3832L18.0743 5.81224C18.5524 4.67312 19.8598 4.14025 21.0208 4.61249L25.0958 6.26853L28.2114 3.20853C28.6569 2.77139 29.2326 2.55441 29.8082 2.55441ZM29.8082 4.19449C29.3496 4.19449 28.9756 4.56144 28.9756 5.01134C28.9756 5.46125 29.3496 5.8282 29.8082 5.8282C30.2668 5.8282 30.6408 5.46125 30.6408 5.01134C30.6408 4.56144 30.2668 4.19449 29.8082 4.19449ZM20.2565 6.05793C20.146 6.05793 20.0354 6.08027 19.9313 6.12175C19.5053 6.29406 19.3036 6.77268 19.4793 7.19068C19.6581 7.60548 20.1427 7.80332 20.5687 7.63101C20.9948 7.45871 21.1964 6.98008 21.0175 6.56528C20.8907 6.26215 20.5915 6.06112 20.2565 6.05793ZM39.3859 6.05793C39.0412 6.05155 38.729 6.25257 38.5989 6.56528C38.42 6.98008 38.6216 7.45871 39.0477 7.63101C39.4737 7.80332 39.9583 7.60548 40.1371 7.19068C40.3128 6.77268 40.1111 6.29406 39.6851 6.12175C39.5908 6.08346 39.49 6.06112 39.3859 6.05793ZM29.8082 8.27875C29.3496 8.27875 28.9756 8.64569 28.9756 9.0956C28.9756 9.5455 29.3496 9.91245 29.8082 9.91245C30.2668 9.91245 30.6408 9.5455 30.6408 9.0956C30.6408 8.64569 30.2668 8.27875 29.8082 8.27875ZM25.7495 8.67122C25.6942 8.67122 25.6389 8.6776 25.5836 8.68717C25.1348 8.77652 24.8421 9.20409 24.9299 9.64761C25.021 10.0911 25.46 10.3783 25.9088 10.289C26.3609 10.1996 26.6536 9.77205 26.5658 9.32853C26.4877 8.94882 26.1462 8.67441 25.7495 8.67122ZM33.8897 8.67122C33.4832 8.66165 33.1319 8.93925 33.0506 9.32853C32.9628 9.77205 33.2555 10.1996 33.7076 10.289C34.1564 10.3783 34.5954 10.0911 34.6865 9.64761C34.7743 9.20409 34.4816 8.77652 34.0328 8.68717C33.984 8.6776 33.9385 8.67122 33.8897 8.67122ZM21.8501 9.83268C21.7395 9.83268 21.629 9.85182 21.5249 9.8965C21.0989 10.0688 20.8972 10.5442 21.0761 10.9622C21.2517 11.3802 21.7363 11.5781 22.1623 11.4058C22.5884 11.2303 22.79 10.7548 22.6144 10.3368C22.4843 10.0337 22.1851 9.83587 21.8501 9.83268ZM37.7923 9.83268C37.4476 9.8263 37.1354 10.0241 37.002 10.3368C36.8264 10.7548 37.0281 11.2303 37.4541 11.4058C37.8801 11.5781 38.3647 11.3802 38.5403 10.9622C38.7192 10.5442 38.5176 10.0688 38.0915 9.8965C37.9972 9.85502 37.8931 9.83587 37.7923 9.83268ZM12.1586 11.3707C11.9342 11.3707 11.7163 11.4568 11.5569 11.61C11.235 11.9291 11.235 12.4492 11.5569 12.7682C11.8822 13.0841 12.4123 13.0841 12.7375 12.7682C13.0595 12.4492 13.0595 11.9291 12.7375 11.61C12.5814 11.46 12.3765 11.3738 12.1586 11.3707ZM47.4806 11.3707C47.2562 11.3707 47.0383 11.4568 46.8789 11.61C46.557 11.9291 46.557 12.4492 46.8789 12.7682C47.2042 13.0841 47.7343 13.0841 48.0595 12.7682C48.3814 12.4492 48.3814 11.9291 48.0595 11.61C47.9034 11.46 47.6985 11.3738 47.4806 11.3707ZM41.386 11.7185C41.1031 11.7121 40.8364 11.8493 40.6803 12.0822C40.4233 12.4587 40.5274 12.9661 40.9079 13.215C41.2917 13.4638 41.8088 13.3649 42.0624 12.9884C42.3194 12.6119 42.2153 12.1077 41.8348 11.8557C41.7015 11.7695 41.5453 11.7216 41.386 11.7185ZM18.2564 11.7216C18.0873 11.7185 17.9215 11.7663 17.7849 11.8557C17.4011 12.1077 17.297 12.6151 17.554 12.9884C17.8076 13.3649 18.3247 13.467 18.7085 13.215C19.089 12.9661 19.1931 12.4587 18.9362 12.0822C18.7866 11.8589 18.5296 11.7216 18.2564 11.7216ZM15.1018 14.2615C14.8774 14.2552 14.6595 14.3413 14.5002 14.4977C14.175 14.8167 14.175 15.3369 14.5002 15.6559C14.6563 15.8091 14.8677 15.8952 15.0888 15.8952C15.31 15.8952 15.5214 15.8091 15.6807 15.6559C16.0027 15.3369 16.0027 14.8167 15.6807 14.4977C15.5246 14.3477 15.3197 14.2615 15.1018 14.2615ZM44.5374 14.2615C44.313 14.2584 44.0951 14.3445 43.9357 14.4977C43.6137 14.8167 43.6137 15.3369 43.9357 15.6559C44.2609 15.9718 44.791 15.9718 45.1162 15.6559C45.4382 15.3369 45.4382 14.8167 45.1162 14.4977C44.9601 14.3477 44.7553 14.2615 44.5374 14.2615ZM47.1228 17.3535C46.9537 17.3503 46.7911 17.3981 46.6513 17.4907C46.2708 17.7427 46.1667 18.2469 46.4204 18.6234C46.6773 18.9967 47.1944 19.0988 47.5782 18.8468C47.9587 18.5979 48.0627 18.0905 47.8091 17.714C47.653 17.4907 47.3993 17.3566 47.1228 17.3535ZM12.5196 17.3535C12.2334 17.3503 11.9667 17.4875 11.8106 17.7172C11.5537 18.0937 11.6578 18.5979 12.0383 18.8499C12.422 19.102 12.9391 18.9999 13.196 18.6266C13.4497 18.2501 13.3456 17.7427 12.9651 17.4938C12.8318 17.4045 12.6789 17.3566 12.5196 17.3535ZM6.75021 19.319C6.40548 19.3126 6.09327 19.5136 5.96318 19.8263C5.78756 20.2411 5.9892 20.7198 6.41524 20.8921C6.83802 21.0644 7.32585 20.8665 7.50147 20.4517C7.67708 20.0337 7.47545 19.5551 7.05266 19.3828C6.9551 19.3445 6.85428 19.3222 6.75021 19.319ZM52.889 19.319C52.7784 19.319 52.6678 19.3413 52.5638 19.3828C52.141 19.5551 51.9393 20.0337 52.115 20.4517C52.2906 20.8665 52.7784 21.0644 53.2012 20.8921C53.6272 20.7198 53.8289 20.2411 53.6532 19.8263C53.5264 19.52 53.2239 19.3222 52.889 19.319ZM49.0449 20.8857C48.9311 20.8825 48.8237 20.9048 48.7197 20.9463C48.2936 21.1186 48.092 21.5972 48.2676 22.0121C48.4465 22.4301 48.9311 22.6279 49.3571 22.4556C49.7831 22.2833 49.9848 21.8047 49.8059 21.3867C49.6791 21.0835 49.3766 20.8857 49.0449 20.8857ZM10.5975 20.8857C10.2561 20.8793 9.94386 21.0771 9.81052 21.3867C9.6349 21.8047 9.83654 22.2833 10.2593 22.4556C10.6854 22.6279 11.1732 22.4301 11.3488 22.0121C11.5244 21.5972 11.3228 21.1186 10.8967 20.9463C10.8024 20.908 10.7016 20.8889 10.5975 20.8857ZM9.41375 24.7179C9.01048 24.7051 8.65599 24.9827 8.57794 25.372C8.48688 25.8155 8.77958 26.2463 9.23163 26.3356C9.44952 26.3771 9.67393 26.3324 9.85605 26.2112C10.0414 26.0899 10.1683 25.9049 10.2105 25.6911C10.3016 25.2475 10.0089 24.82 9.55685 24.7306C9.51132 24.7211 9.46253 24.7179 9.41375 24.7179ZM50.2287 24.7179C50.1701 24.7147 50.1149 24.7211 50.0628 24.7306C49.6108 24.82 49.3181 25.2507 49.4091 25.6911C49.4969 26.1346 49.936 26.4218 50.388 26.3356C50.8368 26.2463 51.1295 25.8155 51.0385 25.372C50.9637 24.9923 50.6222 24.7179 50.2287 24.7179ZM14.3863 25.7294V34.9381H16.0059V28.6713H16.1198L20.7249 34.9381H22.1721V25.7294H20.559V31.9898H20.4484L15.8433 25.7294H14.3863ZM25.1608 25.7294V34.9381H31.2359V33.515H26.839V30.9368H30.9953V29.5966H26.839V27.1525H31.2359V25.7294H25.1608ZM33.1319 25.7294L35.6491 34.9381H37.2297L39.129 28.416H39.2265L41.1388 34.9381H42.7129L45.2333 25.7294H43.4934L41.8901 32.5833H41.799L39.9258 25.7294H38.433L36.5858 32.5833H36.4915L34.8816 25.7294H33.1319ZM4.83142 28.7C4.37286 28.7 3.99886 29.067 3.99886 29.5169C3.99886 29.9668 4.37286 30.3337 4.83142 30.3337C5.28998 30.3337 5.66398 29.9668 5.66398 29.5169C5.66398 29.067 5.28998 28.7 4.83142 28.7ZM8.99422 28.7C8.53566 28.7 8.16166 29.067 8.16166 29.5169C8.16166 29.9668 8.53566 30.3337 8.99422 30.3337C9.45278 30.3337 9.82678 29.9668 9.82678 29.5169C9.82678 29.067 9.45278 28.7 8.99422 28.7ZM50.6222 28.7C50.1636 28.7 49.7896 29.067 49.7896 29.5169C49.7896 29.9668 50.1636 30.3337 50.6222 30.3337C51.0808 30.3337 51.4548 29.9668 51.4548 29.5169C51.4548 29.067 51.0808 28.7 50.6222 28.7ZM54.785 28.7C54.3264 28.7 53.9524 29.067 53.9524 29.5169C53.9524 29.9668 54.3264 30.3337 54.785 30.3337C55.2436 30.3337 55.6176 29.9668 55.6176 29.5169C55.6176 29.067 55.2436 28.7 54.785 28.7ZM9.39749 32.6822C9.3422 32.6822 9.28692 32.6886 9.23163 32.6981C8.77958 32.7875 8.48688 33.2182 8.57794 33.6618C8.669 34.1021 9.10479 34.3893 9.55685 34.3031C10.0089 34.2138 10.3016 33.783 10.2105 33.3427C10.1325 32.9598 9.79426 32.6854 9.39749 32.6822ZM50.2449 32.6822C49.8384 32.6726 49.4872 32.9502 49.4091 33.3427C49.3181 33.783 49.6108 34.2138 50.0628 34.3031C50.5116 34.3893 50.9507 34.1021 51.0385 33.6618C51.084 33.448 51.0385 33.2278 50.9181 33.0459C50.7946 32.8672 50.6027 32.7396 50.388 32.6981C50.3393 32.6886 50.2937 32.6854 50.2449 32.6822ZM10.5845 36.5143C10.474 36.5143 10.3634 36.5335 10.2593 36.575C9.83654 36.7505 9.6349 37.2259 9.81052 37.6439C9.98613 38.0619 10.474 38.2597 10.8967 38.0842C11.3228 37.9119 11.5244 37.4365 11.3488 37.0185C11.222 36.7154 10.9195 36.5175 10.5845 36.5143ZM49.0579 36.5143C48.7132 36.508 48.401 36.7058 48.2676 37.0185C48.092 37.4365 48.2936 37.9119 48.7197 38.0842C48.9246 38.1672 49.1522 38.1672 49.3571 38.0842C49.562 38.0013 49.7246 37.8417 49.8059 37.6439C49.9848 37.2259 49.7831 36.7473 49.3571 36.575C49.2628 36.5367 49.1587 36.5175 49.0579 36.5143ZM6.74045 38.0779C6.62988 38.0779 6.51931 38.097 6.41524 38.1417C5.9892 38.314 5.78756 38.7894 5.96318 39.2074C6.14205 39.6254 6.62663 39.8232 7.05266 39.6509C7.4787 39.4754 7.68034 39 7.50147 38.582C7.37463 38.2789 7.07543 38.081 6.74045 38.0779ZM52.902 38.0779C52.5572 38.0715 52.245 38.2693 52.115 38.582C51.9393 39 52.141 39.4754 52.5638 39.6509C52.7686 39.7307 52.9995 39.7307 53.2044 39.6477C53.4061 39.5648 53.5687 39.4052 53.6532 39.2042C53.8289 38.7894 53.6272 38.3108 53.2012 38.1385C53.1069 38.1002 53.0061 38.081 52.902 38.0779ZM47.1326 40.0434C46.8464 40.037 46.5797 40.1742 46.4236 40.404C46.3 40.5858 46.2545 40.806 46.3 41.0198C46.3423 41.2336 46.4692 41.4186 46.6545 41.5399C47.035 41.7888 47.5521 41.6899 47.8091 41.3133C48.0627 40.9368 47.9587 40.4327 47.5782 40.1806C47.4448 40.0945 47.292 40.0466 47.1326 40.0434ZM12.5098 40.0466C12.344 40.0434 12.1781 40.0913 12.0383 40.1838C11.6578 40.4327 11.5537 40.94 11.8106 41.3133C12.0675 41.6899 12.5814 41.792 12.9651 41.5399C13.3489 41.291 13.4497 40.7837 13.196 40.4072C13.0432 40.1838 12.7863 40.0466 12.5098 40.0466ZM15.1018 43.1385C14.8774 43.1385 14.6595 43.2247 14.5002 43.3778C14.1782 43.6969 14.1782 44.217 14.5002 44.5361C14.8254 44.852 15.3555 44.852 15.6807 44.5361C16.0027 44.217 16.0027 43.6969 15.6807 43.3778C15.5246 43.2278 15.3197 43.1417 15.1018 43.1385ZM44.5374 43.1385C44.313 43.1385 44.0951 43.2247 43.9357 43.3778C43.6137 43.6969 43.6137 44.217 43.9357 44.5361C44.2609 44.852 44.791 44.852 45.1162 44.5361C45.4382 44.217 45.4382 43.6969 45.1162 43.3778C44.9601 43.2278 44.7553 43.1417 44.5374 43.1385ZM18.2597 45.6784C17.9768 45.672 17.7101 45.8092 17.554 46.0421C17.4304 46.2208 17.3849 46.441 17.4304 46.6548C17.4727 46.8686 17.5995 47.0536 17.7849 47.1749C17.967 47.2961 18.1914 47.3408 18.4093 47.2961C18.6272 47.2547 18.8158 47.1302 18.9394 46.9483C19.1931 46.5718 19.0923 46.0645 18.7085 45.8156C18.5752 45.7294 18.4223 45.6816 18.2597 45.6784ZM41.3827 45.6784C41.2136 45.6752 41.0478 45.7231 40.9079 45.8156C40.5274 46.0677 40.4233 46.5718 40.6803 46.9483C40.9339 47.3249 41.451 47.4238 41.8348 47.1749C42.0202 47.0536 42.147 46.8686 42.1893 46.6548C42.2316 46.441 42.186 46.2208 42.0624 46.0421C41.9128 45.8156 41.6559 45.6816 41.3827 45.6784ZM12.1586 46.0294C11.9342 46.023 11.7163 46.1092 11.5569 46.2655C11.2317 46.5846 11.2317 47.1047 11.5569 47.4238C11.8822 47.7397 12.409 47.7397 12.7342 47.4238C13.0595 47.1047 13.0595 46.5846 12.7342 46.2655C12.5814 46.1155 12.3765 46.0326 12.1586 46.0294ZM47.4806 46.0294C47.2562 46.0262 47.0383 46.1123 46.8789 46.2655C46.557 46.5846 46.557 47.1047 46.8789 47.4238C47.2042 47.7397 47.7343 47.7397 48.0595 47.4238C48.3814 47.1047 48.3814 46.5846 48.0595 46.2655C47.9034 46.1155 47.6985 46.0294 47.4806 46.0294ZM21.8599 47.5642C21.5184 47.5578 21.2062 47.7588 21.0761 48.0715C20.8972 48.4863 21.0989 48.9649 21.5249 49.1372C21.9509 49.3096 22.4355 49.1117 22.6144 48.6969C22.79 48.2789 22.5884 47.8003 22.1623 47.628C22.068 47.5897 21.9639 47.5674 21.8599 47.5642ZM37.7826 47.5642C37.6687 47.5642 37.5582 47.5865 37.4573 47.628C37.0313 47.8003 36.8297 48.2789 37.0053 48.6969C37.1809 49.1117 37.6687 49.3096 38.0948 49.1372C38.5176 48.9649 38.7192 48.4863 38.5436 48.0715C38.4167 47.7684 38.1143 47.5674 37.7826 47.5642ZM25.7722 48.7288C25.3657 48.7192 25.0112 48.9968 24.9299 49.3861C24.8877 49.5999 24.9332 49.8201 25.0568 49.9988C25.1803 50.1806 25.369 50.3051 25.5869 50.3466C26.0389 50.4359 26.4747 50.1487 26.5658 49.7052C26.6081 49.4914 26.5625 49.2713 26.4422 49.0926C26.3186 48.9107 26.1267 48.7863 25.9088 48.7448C25.8633 48.7352 25.8178 48.7288 25.7722 48.7288ZM33.8734 48.7288C33.8182 48.7288 33.7629 48.7352 33.7076 48.7448C33.4897 48.7863 33.3011 48.9107 33.1775 49.0926C33.0539 49.2713 33.0084 49.4914 33.0506 49.7052C33.0962 49.919 33.223 50.1073 33.4051 50.2253C33.5905 50.3466 33.8149 50.3912 34.0328 50.3466C34.4849 50.2604 34.7775 49.8297 34.6865 49.3893C34.6084 49.0064 34.2702 48.732 33.8734 48.7288ZM29.8082 49.1213C29.3496 49.1213 28.9756 49.4882 28.9756 49.9381C28.9756 50.3881 29.3496 50.755 29.8082 50.755C30.2668 50.755 30.6408 50.3881 30.6408 49.9381C30.6408 49.4882 30.2668 49.1213 29.8082 49.1213ZM39.3729 51.3389C39.2623 51.3389 39.1517 51.3581 39.0477 51.4027C38.6249 51.575 38.4232 52.0505 38.5989 52.4685C38.7745 52.8833 39.2623 53.0811 39.6851 52.912C39.89 52.829 40.0526 52.6695 40.1371 52.4685C40.2217 52.2674 40.2217 52.0441 40.1371 51.8431C40.0103 51.5399 39.7079 51.3421 39.3729 51.3389ZM20.2695 51.3421C19.9248 51.3325 19.6126 51.5336 19.4793 51.8431C19.398 52.0441 19.398 52.2706 19.4825 52.4717C19.5671 52.6695 19.7297 52.829 19.9346 52.912C20.3574 53.0843 20.8452 52.8865 21.0208 52.4685C21.1054 52.2706 21.1054 52.0441 21.0208 51.8431C20.9362 51.6452 20.7736 51.4857 20.5687 51.4027C20.4744 51.3644 20.3736 51.3421 20.2695 51.3421ZM29.8082 53.2055C29.3496 53.2055 28.9756 53.5725 28.9756 54.0224C28.9756 54.4723 29.3496 54.8392 29.8082 54.8392C30.2668 54.8392 30.6408 54.4723 30.6408 54.0224C30.6408 53.5725 30.2668 53.2055 29.8082 53.2055Z" fill="#F7C920"/>
</svg>
