<svg width="44" height="48" viewBox="0 0 44 48" fill="none" xmlns="http://www.w3.org/2000/svg">
<path d="M4.71429 0V1.54839H0V46.4516H4.71429V48H44V11.2923L32.5396 0H4.71429ZM6.28571 1.54839H31.4286V12.3871H42.4286V46.4516H6.28571V1.54839ZM33 2.64315L41.3175 10.8387H33V2.64315ZM1.57143 3.09677H4.71429V44.9032H1.57143V3.09677ZM10.2143 3.09677C9.78153 3.09677 9.42857 3.44456 9.42857 3.87097C9.42857 4.29738 9.78153 4.64516 10.2143 4.64516C10.647 4.64516 11 4.29738 11 3.87097C11 3.44456 10.647 3.09677 10.2143 3.09677ZM10.2143 6.19355C9.78153 6.19355 9.42857 6.54133 9.42857 6.96774C9.42857 7.39415 9.78153 7.74194 10.2143 7.74194C10.647 7.74194 11 7.39415 11 6.96774C11 6.54133 10.647 6.19355 10.2143 6.19355ZM10.2143 9.29032C9.78153 9.29032 9.42857 9.6381 9.42857 10.0645C9.42857 10.4909 9.78153 10.8387 10.2143 10.8387C10.647 10.8387 11 10.4909 11 10.0645C11 9.6381 10.647 9.29032 10.2143 9.29032ZM10.2143 12.3871C9.78153 12.3871 9.42857 12.7349 9.42857 13.1613C9.42857 13.5877 9.78153 13.9355 10.2143 13.9355C10.647 13.9355 11 13.5877 11 13.1613C11 12.7349 10.647 12.3871 10.2143 12.3871ZM10.2143 15.4839C9.78153 15.4839 9.42857 15.8317 9.42857 16.2581C9.42857 16.6845 9.78153 17.0323 10.2143 17.0323C10.647 17.0323 11 16.6845 11 16.2581C11 15.8317 10.647 15.4839 10.2143 15.4839ZM10.2143 18.5806C9.78153 18.5806 9.42857 18.9284 9.42857 19.3548C9.42857 19.7812 9.78153 20.129 10.2143 20.129C10.647 20.129 11 19.7812 11 19.3548C11 18.9284 10.647 18.5806 10.2143 18.5806ZM14.9286 19.3548V20.9032H36.1429V19.3548H14.9286ZM10.2143 21.6774C9.78153 21.6774 9.42857 22.0252 9.42857 22.4516C9.42857 22.878 9.78153 23.2258 10.2143 23.2258C10.647 23.2258 11 22.878 11 22.4516C11 22.0252 10.647 21.6774 10.2143 21.6774ZM14.9286 24V25.5484H33V24H14.9286ZM10.2143 24.7742C9.78153 24.7742 9.42857 25.122 9.42857 25.5484C9.42857 25.9748 9.78153 26.3226 10.2143 26.3226C10.647 26.3226 11 25.9748 11 25.5484C11 25.122 10.647 24.7742 10.2143 24.7742ZM10.2143 27.871C9.78153 27.871 9.42857 28.2188 9.42857 28.6452C9.42857 29.0716 9.78153 29.4194 10.2143 29.4194C10.647 29.4194 11 29.0716 11 28.6452C11 28.2188 10.647 27.871 10.2143 27.871ZM14.9286 28.6452V30.1935H36.1429V28.6452H14.9286ZM10.2143 30.9677C9.78153 30.9677 9.42857 31.3155 9.42857 31.7419C9.42857 32.1683 9.78153 32.5161 10.2143 32.5161C10.647 32.5161 11 32.1683 11 31.7419C11 31.3155 10.647 30.9677 10.2143 30.9677ZM14.9286 33.2903V34.8387H33V33.2903H14.9286ZM10.2143 34.0645C9.78153 34.0645 9.42857 34.4123 9.42857 34.8387C9.42857 35.2651 9.78153 35.6129 10.2143 35.6129C10.647 35.6129 11 35.2651 11 34.8387C11 34.4123 10.647 34.0645 10.2143 34.0645ZM10.2143 37.1613C9.78153 37.1613 9.42857 37.5091 9.42857 37.9355C9.42857 38.3619 9.78153 38.7097 10.2143 38.7097C10.647 38.7097 11 38.3619 11 37.9355C11 37.5091 10.647 37.1613 10.2143 37.1613ZM10.2143 40.2581C9.78153 40.2581 9.42857 40.6058 9.42857 41.0323C9.42857 41.4587 9.78153 41.8064 10.2143 41.8064C10.647 41.8064 11 41.4587 11 41.0323C11 40.6058 10.647 40.2581 10.2143 40.2581ZM10.2143 43.3548C9.78153 43.3548 9.42857 43.7026 9.42857 44.129C9.42857 44.5554 9.78153 44.9032 10.2143 44.9032C10.647 44.9032 11 44.5554 11 44.129C11 43.7026 10.647 43.3548 10.2143 43.3548Z" fill="white"/>
</svg>
