<svg width="43" height="47" viewBox="0 0 43 47" fill="none" xmlns="http://www.w3.org/2000/svg">
<path d="M11.7274 0V9.07736L6.19661 20.8033H0V22.3443H7.19528L13.2911 9.41445V1.54098H14.8548C16.168 1.54098 17.4232 2.48604 18.3852 4.05712C19.3472 5.6282 19.9458 7.7621 19.9489 9.7395C19.9489 10.2963 19.7656 11.6898 19.4908 13.2789C19.2159 14.8711 18.8586 16.707 18.5288 18.3383L18.3394 19.2623H38.1386C39.855 19.2623 41.3515 20.5414 41.4339 22.1908C41.5133 23.7919 40.3711 25.1072 38.8502 25.369L36.9934 25.6911L38.5387 26.7595C39.345 27.3194 39.8733 28.2313 39.8733 29.2787C39.8733 30.8046 38.7556 32.0507 37.2866 32.3035L35.4297 32.6255L36.9751 33.694C37.7813 34.2538 38.3097 35.1657 38.3097 36.2131C38.3097 37.8685 37.0056 39.1897 35.3473 39.274L33.2675 39.3824L34.9044 40.6525C35.6221 41.2063 36.0558 42.064 35.9489 43.0542C35.7993 44.4297 34.5196 45.459 33.072 45.459H11.645C9.79731 45.459 8.11149 44.4327 7.28384 42.8014L6.58447 43.918V42.377H0V43.918H6.18134C7.34493 45.7991 9.38501 47 11.645 47H33.072C35.274 47 37.2621 45.4229 37.5034 43.2198C37.6133 42.1844 37.2438 41.2845 36.7094 40.499C38.5326 39.8669 39.8733 38.2206 39.8733 36.2131C39.8733 35.1176 39.3908 34.1906 38.7403 33.399C40.3192 32.6556 41.437 31.1116 41.437 29.2787C41.437 28.1801 40.9514 27.2531 40.2978 26.4586C41.944 25.6851 43.0892 24.0448 42.9945 22.1155C42.8693 19.6024 40.646 17.7213 38.1386 17.7213H20.236C20.5139 16.3278 20.804 14.8621 21.0331 13.5378C21.311 11.9216 21.5125 10.5762 21.5125 9.7395C21.5095 7.46414 20.8559 5.11053 19.7259 3.26255C18.5929 1.41156 16.9071 0 14.8548 0H11.7274ZM0.78183 30.0492C0.351213 30.0492 0 30.3953 0 30.8197C0 31.244 0.351213 31.5902 0.78183 31.5902C1.21245 31.5902 1.56366 31.244 1.56366 30.8197C1.56366 30.3953 1.21245 30.0492 0.78183 30.0492ZM0.78183 33.1311C0.351213 33.1311 0 33.4773 0 33.9016C0 34.326 0.351213 34.6721 0.78183 34.6721C1.21245 34.6721 1.56366 34.326 1.56366 33.9016C1.56366 33.4773 1.21245 33.1311 0.78183 33.1311ZM0.78183 36.2131C0.351213 36.2131 0 36.5592 0 36.9836C0 37.408 0.351213 37.7541 0.78183 37.7541C1.21245 37.7541 1.56366 37.408 1.56366 36.9836C1.56366 36.5592 1.21245 36.2131 0.78183 36.2131ZM6.25464 36.2131C5.82402 36.2131 5.47281 36.5592 5.47281 36.9836C5.47281 37.408 5.82402 37.7541 6.25464 37.7541C6.68526 37.7541 7.03647 37.408 7.03647 36.9836C7.03647 36.5592 6.68526 36.2131 6.25464 36.2131ZM0.78183 39.2951C0.351213 39.2951 0 39.6412 0 40.0656C0 40.4899 0.351213 40.8361 0.78183 40.8361C1.21245 40.8361 1.56366 40.4899 1.56366 40.0656C1.56366 39.6412 1.21245 39.2951 0.78183 39.2951ZM6.25464 39.2951C5.82402 39.2951 5.47281 39.6412 5.47281 40.0656C5.47281 40.4899 5.82402 40.8361 6.25464 40.8361C6.68526 40.8361 7.03647 40.4899 7.03647 40.0656C7.03647 39.6412 6.68526 39.2951 6.25464 39.2951Z" fill="white"/>
</svg>
