<svg width="43" height="43" viewBox="0 0 43 43" fill="none" xmlns="http://www.w3.org/2000/svg">
<path d="M21.5 0C9.63275 0 0 9.63275 0 21.5C0 33.3672 9.63275 43 21.5 43C33.3672 43 43 33.3672 43 21.5C43 9.63275 33.3672 0 21.5 0ZM21.5 1.30303C32.6623 1.30303 41.697 10.3377 41.697 21.5C41.697 32.6623 32.6623 41.697 21.5 41.697C10.3377 41.697 1.30303 32.6623 1.30303 21.5C1.30303 10.3377 10.3377 1.30303 21.5 1.30303ZM21.5 2.93182C20.9605 2.93182 20.5227 3.36955 20.5227 3.90909C20.5227 4.44863 20.9605 4.88636 21.5 4.88636C22.0395 4.88636 22.4773 4.44863 22.4773 3.90909C22.4773 3.36955 22.0395 2.93182 21.5 2.93182ZM24.9484 3.59351C24.6303 3.58588 24.3555 3.80729 24.2918 4.12032C24.2231 4.47153 24.4522 4.8151 24.8059 4.88636C25.1571 4.95508 25.5007 4.72603 25.572 4.37482C25.6407 4.02107 25.4116 3.6775 25.0604 3.60624C25.0223 3.60115 24.9866 3.59606 24.9484 3.59351ZM28.2467 4.59624C27.977 4.59115 27.7327 4.74893 27.6283 4.99834C27.4909 5.33174 27.6487 5.71094 27.9821 5.85091C28.3155 5.98834 28.6947 5.83055 28.8321 5.49716C28.9721 5.16377 28.8143 4.78456 28.4809 4.64459C28.4071 4.61405 28.3256 4.59878 28.2467 4.59624ZM31.2829 6.21993C31.0615 6.21739 30.8528 6.32682 30.7306 6.51261C30.5296 6.81037 30.611 7.21502 30.9088 7.41353C31.2091 7.61458 31.6138 7.53314 31.8123 7.23538C31.909 7.09286 31.9446 6.91471 31.9115 6.74674C31.8784 6.57623 31.7792 6.42608 31.6341 6.33191C31.5298 6.26065 31.4102 6.22248 31.2829 6.21993ZM21.5 6.51515C21.1412 6.51515 20.8485 6.80782 20.8485 7.16667C20.8485 7.52551 21.1412 7.81818 21.5 7.81818C21.8588 7.81818 22.1515 7.52551 22.1515 7.16667C22.1515 6.80782 21.8588 6.51515 21.5 6.51515ZM9.07031 8.40862C8.89471 8.40862 8.72419 8.47733 8.60204 8.60204C8.34754 8.85399 8.34754 9.26882 8.60204 9.52077C8.85399 9.77527 9.26882 9.77527 9.52077 9.52077C9.77527 9.26882 9.77527 8.85399 9.52077 8.60204C9.40116 8.47988 9.24083 8.41116 9.07031 8.40862ZM33.9475 8.40862C33.7719 8.40862 33.6014 8.47733 33.4792 8.60204C33.2247 8.85399 33.2247 9.26882 33.4792 9.52077C33.7312 9.77527 34.146 9.77527 34.398 9.52077C34.6525 9.26882 34.6525 8.85399 34.398 8.60204C34.2783 8.47988 34.118 8.41116 33.9475 8.40862ZM21.5 9.12121C21.1412 9.12121 20.8485 9.41389 20.8485 9.77273C20.8485 10.1316 21.1412 10.4242 21.5 10.4242C21.8588 10.4242 22.1515 10.1316 22.1515 9.77273C22.1515 9.41389 21.8588 9.12121 21.5 9.12121ZM36.1336 11.0758C36.0013 11.0732 35.8741 11.1114 35.7646 11.1852C35.4669 11.3837 35.3854 11.7884 35.5865 12.0861C35.785 12.3864 36.1896 12.4679 36.4874 12.2668C36.7877 12.0658 36.8691 11.6636 36.6681 11.3633C36.5485 11.1852 36.3474 11.0758 36.1336 11.0758ZM6.88417 11.0758C6.66276 11.0707 6.45407 11.1801 6.33191 11.3633C6.1334 11.6636 6.2123 12.0683 6.51261 12.2668C6.81291 12.4679 7.21502 12.3864 7.41607 12.0887C7.61458 11.7884 7.53569 11.3837 7.23538 11.1852C7.13104 11.1165 7.01142 11.0783 6.88417 11.0758ZM11.3633 11.3633C11.3633 11.3633 20.0697 21.9123 20.5787 22.4213C21.0877 22.9303 21.9123 22.9303 22.4213 22.4213C22.9303 21.9123 22.9303 21.0877 22.4213 20.5787C21.9123 20.0697 11.3633 11.3633 11.3633 11.3633ZM37.7573 14.117C37.6708 14.1145 37.5843 14.1323 37.5028 14.1654C37.1694 14.3028 37.0117 14.6845 37.1491 15.0154C37.2891 15.3488 37.6683 15.5066 38.0017 15.3691C38.335 15.2317 38.4928 14.85 38.3554 14.5166C38.2536 14.2773 38.0195 14.117 37.7573 14.117ZM5.26302 14.117C4.99325 14.1119 4.74894 14.2697 4.64714 14.5191C4.50971 14.8525 4.6675 15.2317 4.99834 15.3717C5.33174 15.5091 5.71348 15.3513 5.85091 15.0179C5.98834 14.6845 5.83055 14.3053 5.49716 14.1679C5.42335 14.1348 5.34446 14.1196 5.26302 14.117ZM38.755 17.4179C38.7117 17.4153 38.6684 17.4204 38.6252 17.428C38.274 17.4993 38.0449 17.8429 38.1136 18.1941C38.1849 18.5478 38.5285 18.7769 38.8797 18.7082C39.2334 18.6369 39.4625 18.2933 39.3938 17.9396C39.3327 17.6367 39.0655 17.4179 38.755 17.4179ZM4.26539 17.4179C3.94727 17.4102 3.67241 17.6291 3.60878 17.9396C3.5757 18.1101 3.60878 18.2882 3.70549 18.4308C3.8022 18.5758 3.95236 18.6751 4.12287 18.7082C4.29084 18.7412 4.46644 18.7056 4.61151 18.6114C4.75402 18.5147 4.85328 18.3646 4.88636 18.1941C4.95762 17.8429 4.72857 17.4993 4.37737 17.428C4.33919 17.4229 4.30356 17.4179 4.26539 17.4179ZM3.90909 20.5227C3.36955 20.5227 2.93182 20.9605 2.93182 21.5C2.93182 22.0395 3.36955 22.4773 3.90909 22.4773C4.44863 22.4773 4.88636 22.0395 4.88636 21.5C4.88636 20.9605 4.44863 20.5227 3.90909 20.5227ZM39.0909 20.5227C38.5514 20.5227 38.1136 20.9605 38.1136 21.5C38.1136 22.0395 38.5514 22.4773 39.0909 22.4773C39.6304 22.4773 40.0682 22.0395 40.0682 21.5C40.0682 20.9605 39.6304 20.5227 39.0909 20.5227ZM4.25012 24.2791C4.20685 24.2791 4.16359 24.2842 4.12032 24.2918C3.76657 24.3631 3.53752 24.7067 3.60878 25.0604C3.68004 25.4116 4.02107 25.6407 4.37482 25.572C4.72857 25.5007 4.95762 25.1571 4.88636 24.8059C4.82528 24.5005 4.56061 24.2817 4.25012 24.2791ZM38.7702 24.2791C38.4521 24.2715 38.1773 24.4929 38.1136 24.8059C38.0449 25.1571 38.274 25.5007 38.6252 25.572C38.9789 25.6407 39.3225 25.4116 39.3938 25.0604C39.4625 24.7067 39.2334 24.3631 38.8797 24.2918C38.844 24.2868 38.8084 24.2817 38.7702 24.2791ZM37.7675 27.5774C37.4977 27.5723 37.2534 27.7327 37.1491 27.9821C37.0117 28.3129 37.1694 28.6947 37.5028 28.8321C37.8362 28.9695 38.2154 28.8117 38.3554 28.4809C38.4928 28.1475 38.335 27.7657 38.0017 27.6283C37.9279 27.5978 37.8464 27.58 37.7675 27.5774ZM5.25284 27.58C5.16631 27.58 5.07978 27.5952 4.99834 27.6283C4.84055 27.6945 4.7133 27.8217 4.64714 27.9821C4.58097 28.1424 4.58097 28.3205 4.64459 28.4809C4.78456 28.8143 5.16377 28.9721 5.49716 28.8321C5.65749 28.7685 5.78474 28.6412 5.85091 28.4809C5.91708 28.3205 5.91708 28.1424 5.85091 27.9821C5.75166 27.7403 5.51497 27.5825 5.25284 27.58ZM36.1387 30.6212C35.9173 30.6161 35.7086 30.7256 35.5865 30.9088C35.3854 31.2091 35.4669 31.6112 35.7646 31.8123C35.9071 31.909 36.0853 31.9446 36.2533 31.909C36.4238 31.8759 36.5739 31.7766 36.6681 31.6316C36.8691 31.3338 36.7877 30.9292 36.4874 30.7306C36.3856 30.6594 36.2634 30.6212 36.1387 30.6212ZM6.88163 30.6212C6.74929 30.6187 6.62204 30.6568 6.51261 30.7306C6.21484 30.9317 6.1334 31.3338 6.33191 31.6341C6.53297 31.9319 6.93762 32.0133 7.23793 31.8123C7.53569 31.6138 7.61713 31.2091 7.41607 30.9088C7.29646 30.7306 7.09541 30.6238 6.88163 30.6212ZM9.07031 33.2883C8.89471 33.2858 8.72419 33.3545 8.60204 33.4792C8.34754 33.7312 8.34754 34.146 8.60204 34.398C8.85399 34.6525 9.26882 34.6525 9.52077 34.398C9.77527 34.146 9.77527 33.7312 9.52077 33.4792C9.40116 33.3571 9.24083 33.2883 9.07031 33.2883ZM33.9475 33.2883C33.7719 33.2858 33.6014 33.3545 33.4792 33.4792C33.2247 33.7312 33.2247 34.146 33.4792 34.398C33.7312 34.6525 34.146 34.6525 34.398 34.398C34.6525 34.146 34.6525 33.7312 34.398 33.4792C34.2783 33.3571 34.118 33.2883 33.9475 33.2883ZM11.74 35.4745C11.5186 35.4694 11.3099 35.5788 11.1877 35.7621C10.9867 36.0624 11.0681 36.467 11.3684 36.6681C11.6662 36.8666 12.0708 36.7852 12.2694 36.4874C12.4704 36.1871 12.389 35.785 12.0912 35.5839C11.9869 35.5152 11.8647 35.4745 11.74 35.4745ZM31.2804 35.4745C31.148 35.4719 31.0208 35.5101 30.9113 35.5814C30.7663 35.6781 30.667 35.8282 30.6339 35.9988C30.6009 36.1667 30.6365 36.3449 30.7332 36.4874C30.9317 36.7852 31.3363 36.8666 31.6367 36.6681C31.9344 36.467 32.0159 36.0624 31.8148 35.7621C31.6977 35.5839 31.4967 35.4745 31.2804 35.4745ZM14.7838 37.0982C14.514 37.0931 14.2697 37.2534 14.1679 37.5028C14.0305 37.8337 14.1883 38.2154 14.5191 38.3529C14.8525 38.4903 15.2343 38.3325 15.3717 38.0017C15.5091 37.6683 15.3513 37.2865 15.0179 37.1491C14.9441 37.1185 14.8652 37.1007 14.7838 37.0982ZM28.2366 37.0982C28.15 37.0982 28.0635 37.116 27.9846 37.1491C27.8243 37.2153 27.697 37.3425 27.6309 37.5003C27.5647 37.6606 27.5647 37.8413 27.6283 38.0017C27.7683 38.3325 28.1475 38.4903 28.4809 38.3529C28.6412 38.2867 28.7685 38.1594 28.8346 38.0017C28.9008 37.8413 28.9008 37.6606 28.8346 37.5028C28.7354 37.2585 28.4987 37.1007 28.2366 37.0982ZM18.0872 38.1009C17.7691 38.0933 17.4917 38.3147 17.4306 38.6252C17.3593 38.9789 17.5884 39.32 17.9421 39.3912C18.2959 39.4625 18.6369 39.2334 18.7082 38.8797C18.7794 38.5259 18.5504 38.1849 18.1966 38.1136C18.161 38.106 18.1228 38.1009 18.0872 38.1009ZM24.9332 38.1035C24.8899 38.1009 24.8466 38.106 24.8059 38.1136C24.4522 38.1849 24.2231 38.5259 24.2918 38.8797C24.3275 39.0502 24.4267 39.1978 24.5692 39.2945C24.7143 39.3912 24.8899 39.4268 25.0604 39.3938C25.2284 39.3581 25.3785 39.2589 25.4753 39.1164C25.5694 38.9713 25.6051 38.7957 25.572 38.6252C25.5109 38.3223 25.2437 38.1035 24.9332 38.1035ZM21.5 38.1136C20.9605 38.1136 20.5227 38.5514 20.5227 39.0909C20.5227 39.6304 20.9605 40.0682 21.5 40.0682C22.0395 40.0682 22.4773 39.6304 22.4773 39.0909C22.4773 38.5514 22.0395 38.1136 21.5 38.1136Z" fill="white"/>
</svg>
